<svg xmlns="http://www.w3.org/2000/svg" width="340.422" height="136.256" viewBox="0 0 340.422 136.256"><path d="M27.434 125.383c0 3.96-5.9 6.48-8.352 6.48-1.585 0-2.089-1.151-2.881-2.808-1.152-2.376-4.392-5.976-6.048-5.976a4.093 4.093 0 00-2.448 1.3c-.577.5-1.441 1.3-1.872 1.3-1.585 0-5.833-7.993-5.833-9.649 0-.864.648-1.152 1.512-1.584 1.8-.936 13.465-7.921 14.257-8.857a4.333 4.333 0 00.576-2.592v-2.808a1.668 1.668 0 00-1.656-1.8c-.288 0-2.016.289-2.448.361a27.176 27.176 0 01-4.033.576c-1.439 0-2.88-.072-2.88-7.561 0-2.736 0-2.88 2.809-3.024q3.132-.108 6.264-.432a2.35 2.35 0 001.872-1.008c.432-.72.5-4.321.5-6.481v-1.233c0-1.512-.144-3.1-.144-3.528a1.007 1.007 0 011.08-1.152c1.584 0 8.641 1.512 10.657 1.872.649.144 1.368.36 1.368.936 0 .36-.432.648-.719.792a3.8 3.8 0 00-1.509 2.593c-.288 1.584-.432 2.664-.432 2.881a1.431 1.431 0 001.368 1.44 16.08 16.08 0 002.3-.648 7.716 7.716 0 011.943-.5c1.225 0 1.873 1.584 2.161 4.392a42.25 42.25 0 01.36 4.248c0 1.8-.792 1.872-6.841 2.881-1.224.216-2.16.792-2.16 2.3 0 1.008.288 1.872 1.44 1.872a7.019 7.019 0 001.656-.432 31.5 31.5 0 019.649-1.584c8.857 0 17.21 4.968 17.21 14.689a14.258 14.258 0 01-5.833 11.521c-3.816 2.88-10.873 3.816-15.553 3.816-1.945 0-3.457 0-4.032-1.08-.792-1.512-1.225-5.184-1.225-6.768 0-1.3.145-2.737 1.728-2.737.433 0 2.017.217 2.521.288a43.96 43.96 0 003.024.144c3.1 0 8.352-.864 8.352-4.824 0-3.528-3.456-5.257-6.48-5.257-2.808 0-8.929 1.368-11.089 3.025a3.1 3.1 0 00-.936 2.448c0 .864.144 3.1.216 3.96.077 1.439.581 7.344.581 8.208zm-10.657-5.472c0-.865-.072-1.8-.72-1.8a3.217 3.217 0 00-1.656.936 1.069 1.069 0 00-.576.865c0 .575.216.792 1.512 1.656a2.226 2.226 0 00.863.432c.5 0 .576-.432.576-.864zm37.011-31.539c1.656 1.368 4.249 3.528 5.761 5.04a2.137 2.137 0 01.936 1.441c0 1.872-4.32 6.84-6.121 6.84-.647 0-1.151-.5-1.727-1.008A124.22 124.22 0 0042.483 92.4c-.792-.576-1.584-1.08-1.584-1.872 0-1.008 2.016-3.384 2.737-4.1.143-.144.288-.361.431-.5.937-1.007 1.945-2.16 2.809-2.16 1.224-.005 5.832 3.74 6.912 4.604zm39.382-.216a.952.952 0 00.935-.936V87a.953.953 0 00-.935-.937H80.209c-2.881 0-5.833.145-8.713.145-1.728 0-1.872-.5-1.872-2.305v-3.164c0-2.088.144-2.664 1.872-2.664 2.88 0 5.832.144 8.713.144H92.09a2.028 2.028 0 002.015-2.088c0-1.512-.288-3.6-.288-4.32 0-.865.649-1.081 1.369-1.081a16.4 16.4 0 011.872.144c2.52.216 5.041.432 7.561.72.575.073 1.584.144 1.584.936 0 .5-.432.721-.864 1.153a3.229 3.229 0 00-.792 2.664 1.984 1.984 0 002.015 1.872H118.3c2.88 0 5.761-.144 8.713-.144 1.728 0 1.872.576 1.872 2.664v2.88c0 2.017-.144 2.593-1.872 2.593-2.952 0-5.833-.145-8.713-.145h-12.818a.954.954 0 00-.935.937v.216a.953.953 0 00.935.936h8.066c2.16 0 4.32-.144 6.552-.144 2.3 0 3.672.432 3.672 3.1 0 2.376-.144 4.752-.144 7.129v6.7c0 2.377.144 4.753.144 7.129 0 2.52-1.3 3.1-3.6 3.1-2.233 0-4.393-.144-6.624-.144h-8.066a.953.953 0 00-.935.936v.216a.892.892 0 00.935.864h14.906c2.881 0 5.833-.144 8.713-.144 1.728 0 1.872.648 1.872 2.664v3.241c0 1.944-.144 2.448-1.872 2.448-2.953 0-5.832-.144-8.713-.144h-13.826c-1.368 0-2.015 1.008-2.015 2.3 0 2.016.216 4.033.216 6.049s-.792 2.16-3.456 2.16H97.13c-2.376 0-3.24-.144-3.24-2.088 0-2.088.144-4.177.144-6.265a2.035 2.035 0 00-1.944-2.16H77.9c-2.952 0-5.832.144-8.713.144-1.727 0-1.944-.576-1.944-2.592v-3.385c0-1.8.217-2.376 1.944-2.376 2.881 0 5.761.144 8.713.144h15.27a.891.891 0 00.935-.864v-.216a.952.952 0 00-.935-.936h-8.065c-2.161 0-4.321.144-6.552.144-2.3 0-3.673-.432-3.673-3.1 0-2.376.144-4.752.144-7.129v-6.7c0-2.448-.144-4.825-.144-7.273s1.44-2.952 3.6-2.952c2.233 0 4.393.144 6.625.144zm-.216 10.513a1.1 1.1 0 001.151-1.152V96.8a1.136 1.136 0 00-1.151-1.151h-6.985a1.137 1.137 0 00-1.152 1.151v.721a1.137 1.137 0 001.152 1.152zm-6.768 5.76a1.416 1.416 0 00-1.369 1.368v.433a1.416 1.416 0 001.369 1.367h6.551a1.415 1.415 0 001.368-1.367v-.43a1.367 1.367 0 00-1.368-1.368zm26.5-5.76a1.138 1.138 0 001.152-1.152V96.8a1.138 1.138 0 00-1.152-1.151H105.7a1.137 1.137 0 00-1.152 1.151v.721a1.1 1.1 0 001.152 1.152zm-6.769 5.76a1.324 1.324 0 00-1.368 1.368v.433a1.367 1.367 0 001.368 1.367h6.553a1.416 1.416 0 001.368-1.367v-.43a1.416 1.416 0 00-1.368-1.368zM189.509 85.2a25.339 25.339 0 017.633 18.505 26.986 26.986 0 01-14.474 23.906c-1.8 1.008-6.553 3.241-8.568 3.241-2.521 0-6.337-6.625-6.337-8.641 0-.648.648-.936 2.736-1.44 8.353-2.161 15.193-7.417 15.193-16.634 0-11.305-8.64-15.769-10.8-15.769-1.225 0-1.369 1.3-1.441 2.592-.792 10.009-3.672 22.25-10.3 30.171-2.664 3.24-6.12 5.976-10.44 5.976-4.824 0-8.785-3.312-10.945-7.417a24.357 24.357 0 01-2.376-10.8c0-17.282 13.321-31.035 30.674-31.035 7.348.004 14.26 2.164 19.445 7.345zm-39.388 23.55c0 1.728.433 6.984 2.952 6.984 1.729 0 4.177-4.752 4.9-6.264 2.52-5.185 4.537-15.841 4.537-18.434 0-.576-.288-1.08-.937-1.08-2.091 0-11.452 6.625-11.452 18.794zm61.272-12.89c0-1.872-1.081-2.376-1.872-2.376-.936 0-1.873.072-2.809.072-1.368 0-1.512-.792-1.512-2.664V86.5c0-2.016.144-2.808 1.584-2.808.792 0 1.8.071 2.593.071a1.93 1.93 0 002.016-2.16v-6.768c0-.936-.216-2.664-.216-3.6 0-.864.576-1.008 1.368-1.008 1.008 0 8.209.432 9.36.5.721.072 1.513.216 1.513 1.008 0 .577-.576.792-1.225 1.3a1.559 1.559 0 00-.719 1.585v6.98c0 1.656 1.007 2.233 1.944 2.233 1.224 0 2.448-.144 3.672-.144 1.44 0 1.584.72 1.584 3.024v3.816c0 2.3-.144 3.024-1.584 3.024-1.224 0-2.376-.144-3.6-.144-1.009 0-2.016.72-2.016 2.448v7.7c0 1.224.143 2.16 1.152 2.16a19.3 19.3 0 002.376-.864c1.368-.576 2.448-1.368 2.448-2.952v-1.8c0-1.944.144-2.736 1.656-2.736 2.665 0 5.329.144 8.065.144h22.322c2.664 0 5.328-.144 7.992-.144 1.513 0 1.657.648 1.657 2.736v3.384c0 1.657-.288 2.3-1.657 2.3-2.664 0-5.328-.144-7.992-.144h-13.681c-2.3 0-2.521 1.44-2.521 1.657 0 .575.721.648 1.152.648h12.026c2.16 0 4.32-.144 6.48-.144 3.456 0 3.672 1.728 3.672 4.68 0 4.32-.432 13.249-1.8 17.209-1.872 5.329-6.337 6.121-11.377 6.121-4.32 0-4.752-.432-5.256-5.4-.072-.648-.216-.864-.576-.864-.288 0-.648.361-.864.576-1.08 1.224-5.9 6.121-7.345 6.121s-4.9-2.736-4.9-3.888c0-.648.864-1.224 1.368-1.585 4.608-3.168 12.169-12.169 12.169-13.681a.51.51 0 00-.576-.5h-.432c-.792 0-1.152.5-1.513 1.08a45.149 45.149 0 01-4.9 6.193c-2.88 3.1-7.488 7.056-9.864 8.28a2.529 2.529 0 01-1.3.361c-1.512 0-4.68-2.881-4.68-4.1 0-.5.648-.792 1.008-1.008 6.049-3.384 12.1-9.361 12.1-10.441 0-.36-.5-.36-.792-.36a2.26 2.26 0 00-1.945.865 43.834 43.834 0 01-9.576 7.848 4.067 4.067 0 01-1.8.792c-1.511 0-4.895-3.6-4.895-4.9 0-.648.647-.936 1.223-1.3a45.782 45.782 0 0011.162-9.577c.5-.576 2.52-3.1 2.52-3.745s-.721-.864-1.3-.864c-2.3 0-4.032.144-4.032 2.016 0 .576.072 1.945.072 2.881 0 1.44-.144 2.232-1.511 2.952-4.105 2.088-11.954 5.328-16.346 6.985a2.647 2.647 0 00-1.729 1.512c-.288.5-.5 1.08-1.08 1.08-.431 0-.792-.36-1.08-1.152-.431-1.152-1.008-3.312-1.872-6.049a11.546 11.546 0 01-.72-3.024c0-1.44 1.152-1.512 3.1-1.944 3.744-.936 4.1-1.152 4.1-3.312zm41.044-23.689c2.448 0 4.9-.289 7.416-.289 2.736 0 4.32.792 4.32 3.817 0 1.656-.216 3.312-.216 5.328v5.329c0 1.944.216 3.672.216 5.328 0 2.952-1.584 3.744-4.248 3.744-2.521 0-5.04-.215-7.488-.215H243c-2.448 0-4.9.215-7.417.215-2.736 0-4.32-.719-4.32-3.744 0-1.656.215-3.384.215-5.328v-5.329c0-2.016-.215-3.672-.215-5.328 0-2.952 1.511-3.817 4.248-3.817 2.52 0 5.041.289 7.489.289zm1.007 8.856a.894.894 0 00.937-.864v-.576a.954.954 0 00-.937-.936H242a.952.952 0 00-.935.936v.576a.892.892 0 00.935.864zm-11.233 5.257a1.136 1.136 0 00-1.151 1.152v.144a1.136 1.136 0 001.151 1.152h11.018a1.138 1.138 0 001.152-1.152v-.144a1.1 1.1 0 00-1.152-1.152zm13.1 31.323a42.725 42.725 0 01-4.175 6.984c-.145.216-.288.36-.288.576 0 .648.575.648 1.295.72a8.72 8.72 0 001.369.072 1.834 1.834 0 002.087-1.368c.432-1.008.865-2.952.865-6.625 0-.359 0-.936-.5-.936-.364 0-.503.288-.648.577zm45.289-15.842c-2.3 0-4.9.144-6.913.144-1.224 0-1.584-.432-1.584-3.024v-.576c0-.5-.144-1.3-.864-1.3-.432 0-.864.431-1.224.648-1.369 1.08-7.2 5.472-8.641 5.472-1.872 0-6.553-5.616-6.553-7.561 0-.863.937-1.224 1.945-1.728 9.5-4.9 20.017-13.9 25.274-23.257.36-.649.576-.937 1.3-.937.864 0 9.721 1.368 10.945 1.656.576.144 1.153.432 1.153 1.153a1 1 0 01-.361.719 1.648 1.648 0 00-.431.865c0 .5 1.584 2.448 2.015 2.952 6.193 7.633 13.465 12.313 22.178 16.417 1.44.648 1.584.792 1.584 1.441 0 1.655-1.512 4.32-2.3 5.832-.648 1.224-1.584 2.808-2.664 2.808-1.656 0-9.721-5.472-11.449-6.7a1.693 1.693 0 00-.72-.359c-.864 0-.936.719-.936 1.8v1.44c0 1.656-.361 2.232-1.584 2.232-1.945 0-3.96-.144-6.913-.144zm-3.457 29.811a1.16 1.16 0 00-1.3 1.08v.576c0 2.232-.577 2.232-5.041 2.232h-2.3c-2.592 0-3.6-.144-3.6-2.016 0-1.008.216-3.889.216-6.409v-11.953c0-1.944-.143-3.96-.143-5.9 0-3.6 2.808-3.889 5.688-3.889 2.305 0 4.608.288 6.984.288h19.226c2.305 0 4.681-.288 6.985-.288 2.808 0 5.689.288 5.689 3.816 0 1.729-.145 3.745-.145 5.977v11.953c0 2.664.216 5.545.216 6.337 0 1.944-1.008 2.088-3.528 2.088h-4.248c-2.376 0-3.313-.144-3.313-2.016 0-.288.072-.5.072-.72a1.154 1.154 0 00-1.224-1.152zm19.586-8.929a1.968 1.968 0 002.016-2.017v-3.53a1.968 1.968 0 00-2.016-2.016H297.65a2.012 2.012 0 00-2.015 2.016v3.528a1.968 1.968 0 002.015 2.017zm-1.944-30.315c.937 0 1.729-.072 1.729-.792a2.266 2.266 0 00-1.009-1.656 92.1 92.1 0 01-6.7-7.273c-.361-.432-.865-1.08-1.512-1.08a1.709 1.709 0 00-1.368.864c-2.017 2.448-4.753 5.185-6.986 7.417a2.611 2.611 0 00-1.08 1.656c0 .792.217.864 2.737.864zM148.121 49.683a2.188 2.188 0 002.188 2.187h6.042a2.188 2.188 0 002.189-2.187v-4.5h-10.419zm33.76 0a2.188 2.188 0 002.19 2.187h6.042a2.187 2.187 0 002.187-2.187v-4.5h-10.419v4.5zM193.16 21.3l-3.071-11.133A13.861 13.861 0 00176.731 0H163.69a13.856 13.856 0 00-13.356 10.169L147.262 21.3a10.977 10.977 0 003.925 21.228h38.045A10.977 10.977 0 00193.16 21.3zm-41.973 14.976a4.724 4.724 0 114.725-4.722 4.723 4.723 0 01-4.725 4.722zM183.4 16.17a.953.953 0 01-.755.375h-24.872a.951.951 0 01-.915-1.205l1.118-4.05a7.447 7.447 0 017.16-5.454h10.15a7.451 7.451 0 017.16 5.452l1.117 4.052a.943.943 0 01-.163.83zm5.828 20.106a4.724 4.724 0 114.726-4.722 4.725 4.725 0 01-4.722 4.722z" fill="#006d88" data-name="レイヤー 2"/></svg>