<svg xmlns="http://www.w3.org/2000/svg" width="24" height="28.285" viewBox="0 0 24 28.285"><path d="M2.286 25.381v2.365a.539.539 0 00.54.539h3.206a.539.539 0 00.54-.539V26.1H5.048a5.657 5.657 0 01-2.762-.719zm15.143.719v1.65a.539.539 0 00.54.539h3.206a.539.539 0 00.539-.539v-2.369a5.671 5.671 0 01-2.761.715zM18.061 0H5.939A5.939 5.939 0 000 5.939v14.442a5.054 5.054 0 005.048 5.048h13.905A5.053 5.053 0 0024 20.381V5.939A5.939 5.939 0 0018.061 0zM6.857 2.666h10.286v1.715H6.857zM3.762 8.207a1.351 1.351 0 011.35-1.35h13.777a1.35 1.35 0 011.349 1.35v5.7a1.35 1.35 0 01-1.349 1.35H5.112a1.351 1.351 0 01-1.35-1.35zm1.286 13.654a1.575 1.575 0 111.574-1.575 1.575 1.575 0 01-1.574 1.575zM15.1 23.809H9.2v-2.571h5.9zm3.852-1.948a1.575 1.575 0 111.574-1.575 1.575 1.575 0 01-1.573 1.575z" fill="#4d8a99" data-name="レイヤー 2"/></svg>