<svg xmlns="http://www.w3.org/2000/svg" width="572.19" height="140.054" viewBox="0 0 572.19 140.054"><defs><style>.cls-1{fill:#006d88}</style></defs><g id="レイヤー_2" data-name="レイヤー 2"><g id="レイアウト"><path class="cls-1" d="M27.506 94.762c0 .576.577.72 1.08.72.936 0 1.945-.072 2.953-.072 2.016 0 2.16.72 2.16 2.88v2.737c0 2.088-.144 2.88-2.088 2.88-2.376 0-4.68-.216-6.985-.216h-.288c-.72 0-.864.216-1.08.576-.144.144-.144.216-.288.36a2.229 2.229 0 00-.864 1.656c0 1.008 1.008 1.008 1.656 1.008 2.016 0 4.032-.216 5.977-.216 2.016 0 2.16.936 2.16 3.24v2.953c0 2.232-.144 3.168-2.016 3.168-1.008 0-2.016-.072-3.025-.072-.5 0-1.3.216-1.3.864 0 1.008 2.737 3.384 4.177 4.68.216.216.432.36.576.5a1.125 1.125 0 01.5.936c0 1.729-3.888 6.625-5.329 6.625-.719 0-1.44-.936-1.872-1.368-.216-.288-.792-1.008-1.152-1.008s-.5.576-.5.864v.648c0 2.736.216 5.4.216 8.137 0 1.8-.792 1.944-3.168 1.944h-4.173c-2.3 0-3.1-.144-3.1-1.944 0-2.233.216-4.537.216-6.841 0-.288-.072-.936-.432-.936-.5 0-.936.864-1.152 1.224-.5.792-2.232 3.672-3.168 3.672-1.3 0-6.841-4.032-6.841-5.832 0-.648.288-.936.792-1.44 2.376-2.448 7.057-9.289 7.057-10.3 0-.432-.576-.432-.864-.432-1.152 0-2.376.072-3.529.072-1.944 0-2.087-.72-2.087-2.88v-3.528c0-2.089.143-2.953 2.016-2.953s3.816.216 5.76.216h.799c1.008 0 1.584-.072 1.584-1.008 0-1.728-.144-2.592-1.368-2.592H9.073c-2.3 0-4.68.216-6.985.216-1.08 0-2.088 0-2.088-2.3v-3.526c0-1.728.144-2.664 1.872-2.664 1.152 0 2.3.072 3.528.072.5 0 1.08 0 1.08-.72a19.4 19.4 0 00-.936-3.168 2.132 2.132 0 01-.144-.648c0-.648.865-.936 1.369-1.081.144-.071.36-.215.36-.359 0-.216-.576-.216-.649-.216-.863 0-1.8.072-2.664.072-2.016 0-2.16-.721-2.16-2.881v-2.592c0-1.944.144-2.952 1.872-2.952 2.233 0 4.393.144 6.553.144a1.9 1.9 0 001.656-1.945c0-.647-.144-2.231-.216-2.879 0-.144-.072-.433-.072-.577 0-.864.72-1.008 1.44-1.008.792 0 6.553.505 7.633.576a3.459 3.459 0 00.864.073c1.368.144 2.232.215 2.232 1.007 0 .433-.36.648-.792 1.009a2.446 2.446 0 00-.576 1.872 1.921 1.921 0 001.944 1.872c1.872 0 3.744-.216 5.689-.216s2.088.72 2.088 3.024v1.872c0 3.241-.144 3.241-1.512 3.6a.477.477 0 00-.288.359 2.262 2.262 0 01.144.5c0 .648-.576.864-1.08 1.08a1.88 1.88 0 00-.793 1.152 11.106 11.106 0 00-.936 2.31zm-10.728.792c1.3 0 1.656-1.008 2.16-2.016a10.484 10.484 0 001.152-3.384c0-.648-.576-.936-1.152-.936H15.41c-.505 0-1.08.216-1.08.864a8.419 8.419 0 00.5 1.8 15.274 15.274 0 01.648 2.448c.144.648.36 1.152 1.009 1.224zM58.4 129.109c0 2.736.216 5.4.216 8.137 0 1.8-.864 1.944-3.168 1.944h-4.179c-2.376 0-3.241-.144-3.241-1.944 0-2.736.144-5.4.144-8.137v-22.754a1.367 1.367 0 00-1.368-1.368h-.432c-1.372 0-1.372 2.088-1.372 2.664a71.821 71.821 0 01-3.384 19.226 45.233 45.233 0 01-5.833 11.449 1.638 1.638 0 01-1.44.864c-1.3 0-3.672-1.008-5.256-1.728s-3.169-1.513-3.169-2.593c0-.719.865-1.584 1.3-2.16 6.768-8.352 7.7-19.225 7.7-29.594V83.6c0-2.448 1.008-3.528 3.456-3.744 4.681-.432 14.546-2.016 18.65-4.105a1.721 1.721 0 01.864-.216c1.008 0 1.512.648 2.88 2.52.577.793 1.3 1.8 2.3 3.025.576.648 1.584 1.944 1.584 2.88a1.007 1.007 0 01-.936.936 9.813 9.813 0 01-1.513-.144 8.964 8.964 0 00-1.368-.216 7.087 7.087 0 00-1.584.36 91.713 91.713 0 01-10.945 1.945c-3.1.359-3.168.648-3.168 2.808v3.672a1.909 1.909 0 002.16 2.16h7.633c2.376 0 4.824-.216 7.2-.216 1.728 0 1.872 1.224 1.872 3.456v3.025c0 2.736-.144 3.456-2.3 3.456-.432 0-.864-.072-1.224-.072a1.947 1.947 0 00-2.088 2.016zm14.537-30.243c0-1.728-.073-3.024-.073-3.96 0-2.16 1.153-2.736 3.169-2.736 1.008 0 1.944.072 2.952.072a1.184 1.184 0 001.152-1.152v-.5c0-1.08-.864-1.224-2.016-1.224-1.728 0-3.456.144-5.257.144-1.656 0-1.8-.577-1.8-2.52v-2.885c0-2.016.144-2.592 1.873-2.592s3.456.144 5.184.144c1.8 0 2.016-1.728 2.016-2.592v-.5c0-.505-.072-1.729-.144-2.233-.072-.576-.144-1.08-.144-1.224 0-.792.792-.792 1.368-.792.936 0 7.345.36 8.641.5s1.512.432 1.512.936-.36.72-.72.937c-.5.431-.648.792-.648 2.808a2.06 2.06 0 002.232 2.16c1.512 0 3.024-.144 4.608-.144 1.729 0 1.873.5 1.873 2.3v3.169c0 2.016-.144 2.52-1.873 2.52-1.944 0-3.816-.144-5.688-.144A1.137 1.137 0 0090 90.514v.576a1.131 1.131 0 001.152 1.152c.936 0 1.872-.072 2.88-.072 2.016 0 3.24.5 3.24 2.736 0 1.08-.071 2.376-.071 3.96v13.394c0 1.584.071 2.88.071 3.96 0 2.664-1.943 2.736-3.384 2.736-.864 0-1.656-.072-2.088-.072a1.438 1.438 0 00-1.584 1.44 1.389 1.389 0 001.584 1.512c1.8 0 3.6-.143 5.472-.143 1.728 0 1.872.575 1.872 2.376v3.456c0 1.8-.144 2.3-1.872 2.3-1.656 0-3.24-.072-4.9-.072a2 2 0 00-2.088 2.088c0 2.088.144 4.1.144 6.121 0 1.944-.72 2.088-3.1 2.088h-4.1c-2.3 0-2.952-.144-2.952-2.088s.144-3.96.144-5.905a2.109 2.109 0 00-2.3-2.376c-1.872 0-3.816.144-5.688.144-1.729 0-1.873-.576-1.873-2.376v-3.384c0-1.8.144-2.376 1.873-2.376 2.088 0 4.176.143 6.336.143 1.008 0 1.656-.36 1.656-1.512a1.346 1.346 0 00-1.512-1.44c-.936 0-1.872.072-2.736.072-1.584 0-3.313-.216-3.313-2.736 0-1.08.073-2.3.073-3.96zm15.409 1.873a.894.894 0 00-.865-.937h-4.824a.954.954 0 00-.936.937v.215a.953.953 0 00.936.937h4.824a.853.853 0 00.865-.937zm0 9.145a.892.892 0 00-.865-.936h-4.824a.952.952 0 00-.936.936v.5a.953.953 0 00.936.936h4.824a.893.893 0 00.865-.936zm33.555 3.24a2.076 2.076 0 002.016 2.088h1.152c2.448 0 4.9-.216 7.345-.216 2.016 0 2.232.936 2.232 3.24v3.1c0 2.449-.144 3.457-2.232 3.457-2.449 0-4.9-.216-7.345-.216h-1.152a2.012 2.012 0 00-2.016 2.016v.792c0 3.528.216 6.984.216 10.441 0 1.872-.792 2.016-3.169 2.016h-4.1c-2.16 0-2.952-.144-2.952-1.944 0-3.457.144-6.985.144-10.513v-.792a1.969 1.969 0 00-2.016-2.016h-.72c-2.448 0-4.9.216-7.273.216-2.088 0-2.3-.793-2.3-3.169v-3.528c0-2.3.216-3.1 2.3-3.1 2.376 0 4.825.216 7.273.216h.72a2.029 2.029 0 002.016-2.088V110.6a1.969 1.969 0 00-2.161-2.016c-1.512 0-3.023.144-4.536.144-1.8 0-2.088-1.008-2.088-2.808v-.648c0-1.584-.216-2.3-1.008-3.1a54.84 54.84 0 00-2.736-2.52c-.864-.792-1.8-1.728-1.8-2.736 0-.648.72-1.368 1.152-1.872 5.4-5.977 9.865-12.025 13.105-19.514.5-1.224.576-1.44 1.3-1.44 1.008 0 6.985 1.44 8.713 1.873.5.144 1.224.432 1.224 1.007a.956.956 0 01-.576.793c-.144.072-.216.143-.216.287a.775.775 0 00.144.433 69.585 69.585 0 0012.377 16.567c.792.792 1.512 1.584 1.512 2.232 0 1.44-2.52 3.024-3.673 3.745-1.728 1.151-2.087 2.232-2.087 4.176v.72c0 1.728-.073 2.808-2.089 2.808-1.584 0-3.1-.144-4.608-.144a1.986 1.986 0 00-2.089 2.013zm.216-14.186c.864 0 1.584-.072 1.584-.864a1.809 1.809 0 00-.432-1.008 66.293 66.293 0 01-5.04-7.632c-.361-.649-.721-1.3-1.513-1.3-.5 0-1.224.865-2.376 2.737-.936 1.512-2.3 3.528-4.32 6.264a2.11 2.11 0 00-.36.936c0 .72.648.864 1.3.864zm21.236 6.193c.215 0 1.224.072 1.512.072 1.368 0 1.584-.288 2.448-1.584a4.883 4.883 0 01.432-.648 7.785 7.785 0 001.368-2.665c0-1.368-6.552-5.9-7.921-6.768-.36-.288-.648-.5-.648-.936 0-.792 2.736-7.633 4.1-7.633.361 0 .865.432 1.153.648a1.023 1.023 0 00.432.144c.36 0 .5-.216 1.08-1.8.936-2.664 2.016-5.905 2.808-8.569.216-.792.432-1.224 1.08-1.224a34.153 34.153 0 013.817 1.368l2.376.936a4.947 4.947 0 01.576.217c1.008.431 1.8.719 1.8 1.367 0 .721-.576.865-1.08 1.009-.792.144-1.08.216-1.44.936-1.369 2.736-2.736 5.544-4.177 8.209a4.139 4.139 0 00-.792 1.944c0 1.008 1.224 1.656 1.584 1.656.576 0 1.08-1.08 1.3-1.512 1.151-2.161 2.16-4.392 3.24-6.553.5-1.152.648-1.584 1.368-1.584a26.234 26.234 0 013.96 1.872c.865.432 1.657.864 2.016 1.008.864.432 3.313 1.44 3.313 2.52 0 .865-1.008.936-1.584 1.009a2.183 2.183 0 00-1.369.792c-2.52 3.96-5.112 7.992-8.136 12.241a9.22 9.22 0 00-1.584 2.592c0 .5.575.5.936.5.432 0 1.584-.144 2.232-.216.576-.072 1.368-.072 1.368-.864a13.015 13.015 0 00-.72-2.448 8.717 8.717 0 01-.36-1.3c0-1.44 3.1-2.376 5.184-2.376 1.584 0 1.729.5 2.449 2.737 1.152 3.24 2.087 6.48 3.1 9.72a1.987 1.987 0 001.944 1.945h3.382c.865 0 1.657-.073 2.449-.073 1.584 0 2.015.649 3.095 1.872a.953.953 0 00.361.217c.431 0 .576-.936.576-1.872a23.11 23.11 0 00-.145-2.377c-.143-1.08-.359-1.944-1.584-1.944h-.863c-1.873 0-3.745.144-5.617.144-2.088 0-3.384-.5-3.384-3.168 0-1.872.144-3.672.144-5.473v-9.281c0-1.8-.144-3.673-.144-5.473 0-2.376 1.008-3.168 3.313-3.168 1.3 0 2.591.144 3.887.144 2.16 0 2.521-1.368 3.313-4.321.072-.288.288-1.151.431-1.8s.361-1.369 1.153-1.369c1.3 0 6.984 1.369 8.64 1.728 1.009.216 1.945.289 1.945 1.225 0 .576-.288.792-.865.936-.719.144-1.08.215-1.439.936a3.662 3.662 0 00-.433 1.44c0 .936.792 1.224 1.584 1.224h1.945c1.872 0 3.744-.144 5.616-.144 2.089 0 3.385.5 3.385 3.168 0 1.872-.145 3.672-.145 5.473v9.288c0 1.8.145 3.6.145 5.473 0 2.3-1.008 3.168-3.241 3.168-1.872 0-3.672-.144-5.472-.144-1.08 0-1.153.576-1.3 1.08a.479.479 0 01-.288.36 2.207 2.207 0 00-1.008 2.16c0 1.153 1.08 3.457 2.231 3.457.865 0 3.889-4.249 4.538-5.113.288-.36.647-.864 1.08-.864.792 0 2.519 2.017 4.464 4.177 1.368 1.584 2.376 2.736 2.376 3.24a.911.911 0 01-1.008.864.78.78 0 01-.432-.072c-.144 0-.288-.072-.433-.072a1.622 1.622 0 00-1.007.576c-.577.5-1.08 1.008-1.584 1.44-1.872 1.584-2.953 2.52-2.953 3.385 0 1.007 1.3 2.3 2.088 3.168a132.669 132.669 0 005.329 5.616 1.335 1.335 0 01.5.865c0 1.872-4.825 5.472-6.625 5.472-1.656 0-6.12-7.2-7.056-8.713-.216-.288-.576-.936-1.008-.936s-.5.648-.5 1.008c0 1.368.144 2.736.144 4.1 0 6.12-6.193 6.408-10.873 6.408-2.665 0-4.609 0-5.04-5.545 0-.288 0-1.152-.433-1.152-.288 0-.575.433-.72.648-.36.577-2.088 2.809-2.592 3.385-.432.576-.864 1.08-1.585 1.08-2.3 0-6.912-3.1-6.912-4.753 0-.5.792-1.224 1.153-1.584a25.3 25.3 0 003.024-3.456.23.23 0 00-.217-.216c-.576 0-2.664 1.08-3.744 1.08-1.152 0-1.44-1.656-1.656-2.52-.216-1.008-1.584-6.913-2.233-6.913-.287 0-.287.72-.287.936v7.633c0 3.1.216 6.264.216 9.433 0 1.8-.792 1.944-3.024 1.944h-4.032c-2.233 0-2.953-.144-2.953-2.016 0-3.1.216-6.265.216-9.361v-7.129c0-.288-.216-.72-.5-.72-.432 0-.576 1.8-.72 3.745-.072.5-.072.936-.144 1.44a89.028 89.028 0 01-1.368 9.793c-.216.863-.36 1.655-1.3 1.655s-6.121-1.007-6.121-2.879c0-.5.576-2.593.72-3.241a86.791 86.791 0 001.368-13.033c0-1.152-1.224-8.857-1.512-10.585a7.12 7.12 0 01-.072-1.08c0-.72.576-.792 1.584-.792zm.936 10.8c0 .648.648.648 1.08.72.5.072 4.032.864 4.32.864.576 0 .72-.5.72-.936V115.5c0-.792-.432-1.08-1.224-1.08-.288 0-3.024.288-3.456.288-.72.144-1.44.432-1.44 1.224zm15.7-.936c0 .432 0 1.08.576 1.08a7.388 7.388 0 001.008-.288c.216-.072.5-.144.792-.216.576-.144 1.44-.288 1.44-1.08 0-.864-.216-1.8-1.224-1.8-2.52 0-2.592 1.08-2.592 1.656zm12.025 5.04c-.648 0-1.3.072-1.872.072-1.153 0-1.224-.72-1.224-1.656v-2.88c0-.5-.144-1.008-.721-1.008-.288 0-1.439.144-1.439 1.008a3.976 3.976 0 00.359 1.224 65.549 65.549 0 012.16 7.344l.216.721c0 .216.072.5.361.5s.648-.648 1.08-1.369c.576-1.007 1.656-2.808 1.656-3.672a.284.284 0 00-.432-.288zm10.369 2.088c0-.216 0-1.008-.288-1.008-.216 0-.432.36-.5.5a48.039 48.039 0 01-2.809 5.833 3.2 3.2 0 00-.576 1.44c0 .864.864.936 1.585.936h.72c1.872 0 1.872-.5 1.872-2.952zm10.369-30.818a.953.953 0 00.936-.936v-.288a.892.892 0 00-.936-.864H181.3a.831.831 0 00-.864.864v.288a.94.94 0 00.864.936zM181.3 97.858a.893.893 0 00-.864.936v.288a.832.832 0 00.864.865h11.449a.893.893 0 00.936-.865v-.288a1.006 1.006 0 00-.936-.936zm50.327 8.281c0 6.121-3.888 10.873-10.729 10.873-5.472 0-9.648-3.816-9.648-9.361 0-5.688 3.672-10.585 10.8-10.585 5.473 0 9.577 3.673 9.577 9.073zm29.016-14.113a41.952 41.952 0 015.04 2.88.756.756 0 01.36.648.855.855 0 01-.576.72 3.928 3.928 0 00-1.867 2.016 127.125 127.125 0 01-13.825 20.954c-1.081 1.3-5.113 6.193-6.553 6.193-1.224 0-8.929-4.537-8.929-6.409a1.875 1.875 0 01.649-1.224c7.7-7.633 14.473-16.706 18.721-26.786.288-.792.576-1.512 1.224-1.512.931 0 4.675 1.944 5.756 2.52zm22.177-.072a76.507 76.507 0 016.768 8.64c1.872 2.737 9.5 14.69 9.5 17.426 0 1.512-3.384 3.241-4.608 3.888s-3.96 2.017-5.256 2.017c-1.009 0-1.368-.936-1.656-1.728-3.024-7.2-8.713-17.426-13.681-23.475a2.739 2.739 0 01-.792-1.656c0-1.152 2.664-2.952 3.672-3.6.936-.72 3.024-2.232 4.176-2.232a2.877 2.877 0 011.877.72zm13.466.864c0 1.3-3.385 4.1-4.249 4.1-.36 0-.577-.36-.792-.648q-2.7-3.132-5.616-6.048a1.271 1.271 0 01-.649-.936c0-1.009 3.744-3.673 4.393-3.673.719.004 6.913 6.053 6.913 7.205zm7.56-5.976c0 1.3-3.385 4.1-4.177 4.1-.36 0-.719-.432-1.007-.792a85.246 85.246 0 00-5.545-5.905 1.184 1.184 0 01-.576-.864c0-1.08 3.672-3.744 4.392-3.744.649.004 6.913 6.052 6.913 7.205zm40.102-2.809a38.259 38.259 0 004.969-.216 15.124 15.124 0 011.8-.144c2.233 0 6.193 5.4 6.193 6.409a8.437 8.437 0 01-1.08 2.232 133.741 133.741 0 01-10.009 15.553 1.963 1.963 0 00-.576 1.368 1.628 1.628 0 001.007 1.512 149 149 0 0113.106 10.225c.72.648 3.24 2.881 3.744 3.529a1.027 1.027 0 01.433.864c0 2.016-6.049 8.353-8.066 8.353-1.08 0-2.015-1.153-2.807-2.089a1.294 1.294 0 00-.361-.5 77.44 77.44 0 00-12.673-11.593 5.77 5.77 0 00-2.376-1.224 2.528 2.528 0 00-1.8.864 82.289 82.289 0 01-11.305 8.641c-1.584 1.008-8.568 5.113-10.009 5.113-1.3 0-3.961-3.961-4.753-5.113-.575-.864-1.8-2.952-1.8-3.888 0-1.081 1.008-1.513 1.873-1.8 11.161-3.96 23.114-13.681 29.594-23.617a4.962 4.962 0 001.008-2.161c0-1.224-1.224-1.368-2.448-1.368h-10.945c-3.241 0-6.553.144-9.866.144-1.8 0-1.944-.864-1.944-3.456v-4.829c0-2.521.144-3.025 1.872-3.025 3.313 0 6.625.216 9.938.216zM421.277 89a25.339 25.339 0 017.633 18.505 26.986 26.986 0 01-14.474 23.906c-1.8 1.008-6.553 3.241-8.568 3.241-2.521 0-6.337-6.625-6.337-8.641 0-.648.648-.936 2.736-1.44 8.353-2.161 15.193-7.417 15.193-16.634 0-11.3-8.64-15.769-10.8-15.769-1.225 0-1.368 1.3-1.441 2.592-.792 10.009-3.672 22.25-10.3 30.171-2.664 3.24-6.12 5.976-10.44 5.976-4.824 0-8.785-3.312-10.945-7.417a24.357 24.357 0 01-2.376-10.8c0-17.282 13.321-31.035 30.674-31.035 7.348.002 14.26 2.162 19.445 7.345zm-39.388 23.546c0 1.728.433 6.984 2.952 6.984 1.729 0 4.177-4.752 4.9-6.264 2.52-5.185 4.537-15.841 4.537-18.434 0-.576-.288-1.08-.937-1.08-2.091.002-11.452 6.627-11.452 18.796zm61.272-12.888c0-1.872-1.08-2.376-1.872-2.376-.936 0-1.872.072-2.809.072-1.368 0-1.512-.792-1.512-2.664V90.3c0-2.017.144-2.808 1.584-2.808.792 0 1.8.071 2.593.071a1.93 1.93 0 002.016-2.16v-6.77c0-.936-.216-2.664-.216-3.6 0-.864.576-1.008 1.368-1.008 1.008 0 8.209.432 9.36.5.721.072 1.513.216 1.513 1.008 0 .577-.576.792-1.225 1.3a1.559 1.559 0 00-.719 1.585V85.4c0 1.656 1.008 2.233 1.944 2.233 1.224 0 2.448-.144 3.672-.144 1.44 0 1.584.72 1.584 3.024v3.817c0 2.3-.144 3.024-1.584 3.024-1.224 0-2.376-.144-3.6-.144-1.008 0-2.016.72-2.016 2.448v7.7c0 1.224.143 2.16 1.152 2.16a19.3 19.3 0 002.376-.864c1.368-.576 2.448-1.368 2.448-2.952v-1.8c0-1.944.144-2.736 1.657-2.736 2.664 0 5.328.144 8.064.144h22.322c2.664 0 5.328-.144 7.992-.144 1.513 0 1.657.648 1.657 2.736v3.384c0 1.657-.288 2.3-1.657 2.3-2.664 0-5.328-.144-7.992-.144H477.58c-2.3 0-2.521 1.44-2.521 1.657 0 .575.721.648 1.152.648h12.026c2.16 0 4.32-.144 6.48-.144 3.456 0 3.672 1.728 3.672 4.68 0 4.32-.431 13.249-1.8 17.209-1.872 5.329-6.337 6.121-11.377 6.121-4.32 0-4.752-.432-5.256-5.4-.072-.648-.216-.864-.576-.864-.288 0-.648.361-.864.576-1.08 1.224-5.9 6.121-7.345 6.121s-4.9-2.736-4.9-3.888c0-.648.864-1.224 1.368-1.585 4.608-3.168 12.169-12.169 12.169-13.681a.51.51 0 00-.576-.5h-.432c-.792 0-1.152.5-1.512 1.08a45.156 45.156 0 01-4.9 6.193c-2.88 3.1-7.488 7.056-9.864 8.28a2.529 2.529 0 01-1.3.361c-1.512 0-4.68-2.881-4.68-4.1 0-.5.648-.792 1.008-1.008 6.049-3.384 12.1-9.361 12.1-10.441 0-.36-.5-.36-.792-.36a2.259 2.259 0 00-1.944.865 43.863 43.863 0 01-9.577 7.848 4.067 4.067 0 01-1.8.792c-1.511 0-4.9-3.6-4.9-4.9 0-.648.647-.936 1.224-1.3a45.8 45.8 0 0011.161-9.577c.5-.576 2.52-3.1 2.52-3.745s-.721-.864-1.3-.864c-2.3 0-4.032.144-4.032 2.016 0 .576.072 1.945.072 2.881 0 1.44-.144 2.232-1.511 2.952-4.1 2.088-11.954 5.328-16.346 6.985a2.647 2.647 0 00-1.729 1.512c-.288.5-.5 1.08-1.08 1.08-.431 0-.792-.36-1.08-1.152-.431-1.152-1.008-3.312-1.872-6.049a11.546 11.546 0 01-.72-3.024c0-1.44 1.152-1.512 3.1-1.944 3.744-.936 4.105-1.152 4.105-3.312zm41.044-23.689c2.448 0 4.9-.289 7.416-.289 2.736 0 4.32.792 4.32 3.817 0 1.656-.216 3.312-.216 5.328v5.329c0 1.944.216 3.672.216 5.328 0 2.952-1.584 3.744-4.248 3.744-2.521 0-5.04-.215-7.488-.215h-9.433c-2.448 0-4.9.215-7.417.215-2.736 0-4.32-.719-4.32-3.744 0-1.656.215-3.384.215-5.328v-5.329c0-2.016-.215-3.672-.215-5.328 0-2.952 1.511-3.817 4.248-3.817 2.52 0 5.041.289 7.489.289zm1.007 8.856a.894.894 0 00.937-.864v-.576a.954.954 0 00-.937-.936h-11.449a.952.952 0 00-.935.936v.576a.892.892 0 00.935.864zm-11.233 5.257a1.137 1.137 0 00-1.151 1.152v.144a1.137 1.137 0 001.151 1.152H485a1.138 1.138 0 001.152-1.152v-.144A1.1 1.1 0 00485 90.082zm13.105 31.323a42.725 42.725 0 01-4.175 6.984c-.145.216-.288.36-.288.576 0 .648.575.648 1.3.72a8.7 8.7 0 001.368.072 1.835 1.835 0 002.088-1.368c.431-1.008.864-2.952.864-6.625 0-.359 0-.936-.5-.936-.368 0-.512.288-.657.577zm45.287-15.842c-2.3 0-4.9.144-6.913.144-1.224 0-1.583-.432-1.583-3.024v-.576c0-.5-.145-1.3-.865-1.3-.432 0-.864.431-1.224.648-1.369 1.08-7.2 5.472-8.641 5.472-1.872 0-6.553-5.616-6.553-7.561 0-.863.937-1.224 1.945-1.728 9.505-4.9 20.017-13.9 25.274-23.257.36-.649.576-.937 1.3-.937.864 0 9.721 1.368 10.945 1.656.576.144 1.153.432 1.153 1.153a1 1 0 01-.361.719 1.656 1.656 0 00-.431.865c0 .5 1.584 2.448 2.015 2.952 6.193 7.633 13.465 12.313 22.178 16.417 1.44.648 1.584.792 1.584 1.441 0 1.655-1.512 4.32-2.3 5.832-.648 1.224-1.584 2.808-2.664 2.808-1.656 0-9.721-5.472-11.449-6.7a1.693 1.693 0 00-.72-.359c-.864 0-.936.719-.936 1.8v1.44c0 1.656-.361 2.232-1.584 2.232-1.945 0-3.96-.144-6.913-.144zm-3.456 29.811a1.161 1.161 0 00-1.3 1.08v.576c0 2.232-.577 2.232-5.041 2.232h-2.3c-2.592 0-3.6-.144-3.6-2.016 0-1.008.216-3.889.216-6.409v-11.953c0-1.944-.143-3.96-.143-5.9 0-3.6 2.808-3.889 5.688-3.889 2.305 0 4.608.288 6.984.288h19.226c2.3 0 4.681-.288 6.985-.288 2.808 0 5.689.288 5.689 3.816 0 1.729-.145 3.745-.145 5.977v11.953c0 2.664.216 5.545.216 6.337 0 1.944-1.008 2.088-3.528 2.088h-4.248c-2.376 0-3.313-.144-3.313-2.016 0-.288.073-.5.073-.72a1.154 1.154 0 00-1.225-1.152zm19.585-8.929a1.968 1.968 0 002.016-2.017V120.9a1.968 1.968 0 00-2.016-2.016h-19.082a2.012 2.012 0 00-2.018 2.016v3.528a1.969 1.969 0 002.015 2.017zm-1.944-30.315c.937 0 1.729-.072 1.729-.792a2.266 2.266 0 00-1.009-1.656 92.289 92.289 0 01-6.7-7.273c-.361-.432-.865-1.08-1.512-1.08a1.709 1.709 0 00-1.368.864c-2.017 2.448-4.753 5.185-6.986 7.417a2.611 2.611 0 00-1.08 1.656c0 .792.217.864 2.737.864zM289.031 48.3v4.433a1.013 1.013 0 001.013 1.012h6.011a1.013 1.013 0 001.012-1.012v-3.1h-2.857a10.651 10.651 0 01-5.179-1.333zm28.393 1.333v3.095a1.013 1.013 0 001.012 1.012h6.011a1.013 1.013 0 001.012-1.012V48.3a10.653 10.653 0 01-5.178 1.338zM318.609.7h-22.728a11.136 11.136 0 00-11.136 11.14v27.078a9.476 9.476 0 009.465 9.465h26.071a9.475 9.475 0 009.464-9.465V11.84A11.136 11.136 0 00318.609.7zm-21.009 5h19.286v3.219H297.6zm-5.8 10.389a2.531 2.531 0 012.532-2.53h25.831a2.53 2.53 0 012.53 2.53v10.686a2.531 2.531 0 01-2.53 2.532H294.33a2.532 2.532 0 01-2.532-2.532zm2.412 25.6a2.953 2.953 0 112.952-2.953 2.953 2.953 0 01-2.954 2.957zm18.85 3.654h-11.074v-4.817h11.072zm7.221-3.654a2.953 2.953 0 112.952-2.953 2.953 2.953 0 01-2.954 2.957zm-48.251-15.146a88.358 88.358 0 00-1.851-20.617c-1.113-4.074-2.882-4.24-4.117-4.568a34 34 0 00-5.02-.248c6.914 7.326 6.05 18.89 6.05 18.89h-.741C265.941 3.167 257.546.739 255.777.452 253.992.162 248.1 0 248.1 0s-5.89.162-7.675.452C238.658.739 230.263 3.167 229.851 20h-.74s-.865-11.564 6.049-18.89a34.027 34.027 0 00-5.021.248c-1.234.328-3 .494-4.114 4.568a88.244 88.244 0 00-1.853 20.617 18.105 18.105 0 00-.37 11.11c.618 2.1 1.605 7.038 11.852 8.025 9.5.916 12.448.617 12.448.617s2.947.3 12.449-.617c10.246-.987 11.235-5.926 11.852-8.025a18.107 18.107 0 00-.371-11.11zm-35.766-13.286l-2.56-2.211a1.435 1.435 0 01-.246-1.9l2.534-3.685a.591.591 0 01.858-.129l1.065.84-1.191 6.919a.282.282 0 01-.46.165zm9.964 9.911h-7.695a4.142 4.142 0 01-1.935-3.745h9.63v3.745zm-8.35-9.734l1.227-7.115H257.1l1.225 7.115zm19.79 9.734h-7.7v-3.745h9.63a4.144 4.144 0 01-1.93 3.745zm4.83-12.122l-2.562 2.211a.28.28 0 01-.459-.165l-1.192-6.919 1.065-.84a.592.592 0 01.859.129l2.533 3.685a1.436 1.436 0 01-.244 1.899z"/><path class="cls-1" d="M249.7 48.008c-.847 0-1.356-.024-1.6-.041-.242.017-.75.041-1.6.041-1.846 0-5.253-.116-11.01-.671-4.487-.432-7.4-1.615-9.327-3.026a46.97 46.97 0 001.571 4.947 7.616 7.616 0 005.555 4.446 117.326 117.326 0 0014.809.74 117.366 117.366 0 0014.81-.74 7.612 7.612 0 005.555-4.446 47.215 47.215 0 001.571-4.947c-1.925 1.411-4.839 2.594-9.328 3.026-5.753.555-9.16.671-11.006.671z"/></g></g></svg>