<svg xmlns="http://www.w3.org/2000/svg" width="25" height="21.613" viewBox="0 0 25 21.613"><path d="M3.3 20.7a.912.912 0 00.912.912h2.513a.912.912 0 00.912-.912v-1.874H3.3zm14.062 0a.913.913 0 00.913.912h2.517a.913.913 0 00.908-.912v-1.874h-4.338V20.7zm4.7-11.824l-1.28-4.639A5.775 5.775 0 0015.217 0H9.783a5.773 5.773 0 00-5.565 4.237l-1.28 4.639a4.574 4.574 0 001.635 8.845h15.852a4.574 4.574 0 001.637-8.845zM4.573 15.115a1.969 1.969 0 111.969-1.968 1.968 1.968 0 01-1.969 1.968zM18 6.737a.4.4 0 01-.315.157H7.318a.4.4 0 01-.382-.5L7.4 4.7a3.1 3.1 0 012.983-2.272h4.23A3.1 3.1 0 0117.6 4.7l.465 1.689a.391.391 0 01-.065.348zm2.428 8.378a1.969 1.969 0 111.969-1.968 1.969 1.969 0 01-1.972 1.968z" fill="#4d8a99" data-name="レイヤー 2"/></svg>