<svg xmlns="http://www.w3.org/2000/svg" width="24" height="26.133" viewBox="0 0 24 26.133"><defs><style>.cls-1{fill:#4d8a99}</style></defs><g id="レイヤー_2" data-name="レイヤー 2"><g id="レイアウト"><path class="cls-1" d="M23.486 12.741a42.388 42.388 0 00-.888-9.9C22.064.889 21.215.81 20.622.652a16.338 16.338 0 00-2.41-.119c3.319 3.516 2.9 9.067 2.9 9.067h-.352c-.2-8.08-4.227-9.245-5.076-9.383S12 0 12 0 9.173.078 8.316.217 3.437 1.52 3.239 9.6h-.355S2.469 4.049 5.788.533a16.338 16.338 0 00-2.41.119C2.785.809 1.936.889 1.4 2.844a42.331 42.331 0 00-.889 9.9 8.689 8.689 0 00-.178 5.333c.3 1.007.77 3.377 5.689 3.851a37.639 37.639 0 005.975.3 37.639 37.639 0 005.975-.3c4.918-.474 5.393-2.844 5.689-3.851a8.689 8.689 0 00-.175-5.336zM6.319 6.363L5.09 5.3a.687.687 0 01-.118-.911l1.216-1.767A.284.284 0 016.6 2.56l.511.4-.572 3.324a.134.134 0 01-.22.079zm4.781 4.758H7.408a1.986 1.986 0 01-.929-1.8H11.1v1.8zM7.093 6.448l.589-3.415h8.636l.588 3.415zm9.5 4.673H12.9v-1.8h4.622a1.991 1.991 0 01-.929 1.8zM18.911 5.3l-1.23 1.061a.134.134 0 01-.22-.079l-.572-3.321.511-.4a.284.284 0 01.412.062l1.216 1.769a.689.689 0 01-.117.908z"/><path class="cls-1" d="M12.767 23.044c-.406 0-.65-.011-.767-.02-.116.009-.36.02-.767.02-.886 0-2.522-.056-5.285-.322a8.867 8.867 0 01-4.477-1.453 22.5 22.5 0 00.754 2.375 3.655 3.655 0 002.667 2.134 56.25 56.25 0 007.108.355 56.278 56.278 0 007.109-.355 3.654 3.654 0 002.666-2.134 22.5 22.5 0 00.754-2.375 8.867 8.867 0 01-4.477 1.453c-2.764.266-4.399.322-5.285.322z"/></g></g></svg>