<svg xmlns="http://www.w3.org/2000/svg" width="85.407" height="27.166" viewBox="0 0 85.407 27.166"><path d="M19.678 4.16c0 .448-.32.672-.672.864a42.8 42.8 0 00-4.895 3.519c-.288.224-1.728 1.408-1.888 1.6a.363.363 0 00-.1.256c0 .224.192.32.384.32a8.369 8.369 0 001.216-.288c.9-.256 8.8-2.431 8.991-2.431.512 0 .608.607.8 2.527a17.119 17.119 0 01.16 1.76c0 .576-.1.576-2.432.9a16.843 16.843 0 00-6.783 2.688c-1.248.864-2.624 2.176-2.624 3.807 0 2.5 4.128 2.56 5.888 2.688.383.032.671.032.671.512a21.82 21.82 0 01-.832 3.488 1.047 1.047 0 01-1.151.8 16.654 16.654 0 01-4.96-1.12c-2.5-1.024-4.448-2.88-4.448-5.727a5.992 5.992 0 011.152-3.488.92.92 0 00.224-.48A.384.384 0 008 16c-.448 0-4.735 1.5-5.407 1.76a2.6 2.6 0 01-.928.288c-.544 0-.736-.544-1.056-1.408A9.046 9.046 0 010 14.079c0-.64.479-.736 1.76-.992a3.975 3.975 0 002.271-1.152c2.016-1.6 3.936-3.264 5.856-4.992a.529.529 0 00.256-.415.328.328 0 00-.352-.32 10.748 10.748 0 00-1.376.352 4.808 4.808 0 01-1.12.287c-.7 0-.96-.9-1.151-1.567A12.112 12.112 0 015.7 2.656c0-.608.1-.736 1.952-.9 2.048-.192 6.592-.768 8.16-1.5A1.81 1.81 0 0116.575 0c1.311 0 3.103 3.264 3.103 4.16zM50.11 5.5a11.257 11.257 0 013.39 8.227 11.991 11.991 0 01-6.43 10.623 12.264 12.264 0 01-3.807 1.44c-1.12 0-2.816-2.944-2.816-3.84 0-.288.288-.416 1.216-.639 3.712-.96 6.752-3.3 6.752-7.392 0-5.024-3.84-7.008-4.8-7.008-.544 0-.608.576-.64 1.152-.352 4.448-1.632 9.888-4.576 13.407a6.2 6.2 0 01-4.64 2.656 5.7 5.7 0 01-4.863-3.3 10.831 10.831 0 01-1.056-4.8A13.556 13.556 0 0141.471 2.24 11.862 11.862 0 0150.11 5.5zm-17.5 10.463c0 .768.193 3.1 1.312 3.1.769 0 1.856-2.112 2.176-2.784A28.921 28.921 0 0038.111 8.1c0-.256-.128-.48-.416-.48-.928-.005-5.088 2.939-5.088 8.347zm34.782 3.524c0 1.7.1 5.375.1 5.6 0 .672-.193.8-.928.8h-3.716c-.736 0-.928-.128-.928-.8 0-.224.1-3.9.1-5.6V9.247c0-.576-.1-.8-.384-.8a1.442 1.442 0 00-.512.128 39.588 39.588 0 00-2.912 1.152 1.44 1.44 0 01-.607.192c-.289 0-.416-.224-.577-.7L55.9 6.048a1.74 1.74 0 01-.128-.609c0-.287.192-.415.736-.575a57.208 57.208 0 006.052-2.176 4.25 4.25 0 011.888-.388h2.112c.735 0 .928.128.928.8 0 .224-.1 3.9-.1 5.6zm18.015 3.039a3.316 3.316 0 01-3.456 3.552 2.992 2.992 0 01-3.136-3.072 3.279 3.279 0 013.485-3.455 2.925 2.925 0 013.107 2.975z" fill="#fff" data-name="レイヤー 2"/></svg>