<svg xmlns="http://www.w3.org/2000/svg" width="618.569" height="239.54" viewBox="0 0 618.569 239.54"><g data-name="レイヤー 2"><path d="M591.3 54.2c6.27-19.041 6.212-35.035-.292-54.2-3.42 17.476-19.458 26.525-29.844 30.636a106.9 106.9 0 00-49.972-12.322H107.377A107.377 107.377 0 000 125.691v6.472A107.377 107.377 0 00107.377 239.54h403.815a107.377 107.377 0 00107.377-107.377v-6.472A106.971 106.971 0 00591.3 54.2z" fill="#fff"/><path d="M150.34 65.371c.791.2 1.449.466 1.448.927 0 .33-.464.593-.728.724a2.6 2.6 0 00-1.323 1.579 8.513 8.513 0 00-.533 1.713.9.9 0 00.921.926 39.249 39.249 0 007.656-2.287 2.154 2.154 0 01.859-.261c.791 0 1.25.8 1.513 1.587a37.519 37.519 0 011.3 5.873c0 1.253-1.125 1.58-2.577 1.905-3.168.717-6.533 1.235-9.831 1.753-.528.064-1.518.325-1.519.853 0 .593.657.595 1.053.6.528 0 2.111-.06 3.43-.057 10.815.031 20.361 5.664 20.328 17.534-.024 8.508-5.515 14.3-12.582 18.166-3.831 2.1-8.517 3.537-9.573 3.534-1.846 0-4-6.144-4-7.661 0-.791.662-.921 1.322-1.117a70.907 70.907 0 007.13-2.552c4.357-1.9 7.862-5.122 7.876-10.134.012-4.154-2.354-7.26-3.541-7.264-.659 0-.99.393-1.388 1.117a69.293 69.293 0 01-9.069 11.911 1.409 1.409 0 00-.531 1.119c0 .4.261 1.123.259 1.782 0 1.517-5.092 5.327-7.4 5.321a1.556 1.556 0 01-1.053-.465 1.064 1.064 0 00-.725-.332.957.957 0 00-.462.131 22.387 22.387 0 01-8.712 2.217c-5.078-.014-8.693-4.245-8.679-9.191.019-6.595 4.588-13.045 9.545-16.988a33.633 33.633 0 016.738-4.135 1.748 1.748 0 001.06-1.58c0-.725-.458-1.057-1.184-1.059a15.2 15.2 0 00-1.714.127 59.613 59.613 0 01-6 .313c-3.627-.01-3.825-.011-3.816-3.308.016-5.408.346-5.671 1.533-5.667 1.385 0 2.967.206 4.814.211 6.595.019 7.254-.045 7.525-2.55.068-.659.876-6.527.943-6.724a1.134 1.134 0 011.189-.854c.658-.001 7.246 1.93 8.498 2.263zM130.711 103.7c0 .791.524 1.123 1.249 1.125a11.2 11.2 0 005.15-1.964 2.112 2.112 0 00.665-1.911c0-.791-.061-1.649-.059-2.44 0-.659.069-1.253.071-1.846s-.129-1.253-.854-1.255c-1.385-.009-6.216 6.112-6.222 8.291zm15.862-12.089c0 .461.193 1.583.852 1.585.725 0 2.447-2.433 2.449-3.027 0-.527-.526-.727-.988-.728-2.307-.009-2.312 1.507-2.313 2.167zm85.582-16.775a23.214 23.214 0 016.945 16.969 24.715 24.715 0 01-13.318 21.857c-1.651.918-6.01 2.95-7.856 2.945-2.308-.007-5.787-6.084-5.781-7.93 0-.594.6-.856 2.51-1.312 7.655-1.957 13.934-6.753 13.958-15.194.029-10.354-7.872-14.466-9.851-14.471-1.122 0-1.257 1.183-1.326 2.37-.752 9.165-3.421 20.368-9.509 27.606-2.448 2.96-5.621 5.457-9.578 5.446-4.418-.013-8.037-3.056-10-6.821a22.32 22.32 0 01-2.149-9.9c.045-15.827 12.281-28.388 28.174-28.343 6.72.02 13.046 2.016 17.781 6.778zM196.02 96.3c0 1.583.377 6.4 2.685 6.405 1.583 0 3.838-4.342 4.5-5.725 2.322-4.741 4.2-14.5 4.2-16.87 0-.528-.26-.99-.854-.992-1.909-.007-10.499 6.035-10.531 17.182zm74.188-22.015c.726 0 3.88 4.034 5.062 5.554a4.7 4.7 0 011.116 1.981c0 .4-.464.592-.859.591-.2 0-.66-.133-.923-.134a1.831 1.831 0 00-.595.328 104.742 104.742 0 01-10.109 6.038c-1.916.984-2.379 1.775-2.386 3.885l-.019 6.726c0 1.385.126 2.111 1.511 2.115l2.638.007a1.261 1.261 0 001.188-.59 12.523 12.523 0 00.871-4.679c0-1.253.2-1.978 1.654-1.974a23.135 23.135 0 015.141.806 2.467 2.467 0 011.839 2.643c-.007 2.44-1.143 7.844-2.534 9.951-1.325 2.041-3.767 2.759-6.074 2.753l-6.661-.02c-5.87-.016-8.305-1.342-8.288-7.607 0-1.319.074-2.638.077-3.957l.075-26.445c.01-3.231-.186-4.287-.185-4.814 0-.792.465-.989 1.124-.987 1.188 0 6.133.348 7.518.483.659.068 1.846.138 1.844 1 0 .528-.53.79-.927.987-.66.327-.729 1.251-.735 3.559l-.015 5.539c0 .594 0 1.715.852 1.717.791 0 6.012-3.939 6.805-4.729.533-.531.666-.728.995-.727zm17.246 34.672c-.593 0-1.384.062-1.386.721a2.307 2.307 0 00.459.925 35.772 35.772 0 001.707 2.313c.854 1.123 1.38 1.85 1.378 2.378 0 .395-.331.593-.726.591a2.314 2.314 0 01-.66-.134 2.8 2.8 0 00-.726-.133.8.8 0 00-.461.13 65.88 65.88 0 01-12.546 5.438 6.689 6.689 0 01-1.649.391c-2.045-.006-4.271-5.617-4.267-6.738 0-.528.266-.725.792-.856 1.584-.391 11.683-3.528 11.686-4.451 0-.462-.592-.463-.922-.464-2.109-.072-2.965-1-2.959-3.108.006-2.045.145-4.155.15-6.2l.047-16.619c.006-2.11-.12-4.155-.114-6.265.007-2.507 1.2-3.031 3.5-3.024l1.715.005a2.464 2.464 0 002.71-2.169c0-.791-.921-.793-1.448-.795h-1.187c-2.177-.007-4.353.185-6.53.179-1.385 0-1.515-.6-1.509-2.642l.01-3.43c0-1.714.137-2.307 1.522-2.3 2.044.006 4.286.145 6.529.151l19.191.054c2.309.007 4.551-.119 6.595-.113 1.384 0 1.515.6 1.509 2.378l-.009 3.694c0 1.714-.139 2.308-1.524 2.3-2.176-.007-4.351-.21-6.594-.217l-4.154-.012a2.771 2.771 0 00-2.974 2.3c0 .791.92.794 1.448.8h1.385c1.912.005 3.759-.121 5.671-.116 2.243.007 3.5.472 3.487 3.044-.006 2.045-.144 4.154-.15 6.265l-.047 16.618c0 2.045.12 4.156.114 6.266-.007 2.638-1.526 3.029-3.306 3.024-.791 0-1.582-.07-2.373-.072-.264 0-.595.064-.595.393 0 .858 8.891 4.378 10.208 4.844.528.2.922.4.921.992 0 1.45-2.854 6.389-4.7 6.383-1.055 0-6.126-2.457-7.377-3.12a59.988 59.988 0 01-5.6-3.38c-.394-.264-.723-.463-.721-.925 0-.923 1.524-2.9 2.12-3.687a1.5 1.5 0 00.4-.79c0-.725-.855-.794-1.383-.8zm.556-10.157a1.186 1.186 0 00-1.256 1.118v.2a1.2 1.2 0 001.249 1.19l8.046.023a1.256 1.256 0 001.323-1.183v-.2a1.21 1.21 0 00-1.316-1.125zm-.173-8.574a1.042 1.042 0 00-1.058 1.053v.395a1.084 1.084 0 001.052 1.058l8.507.025a1.136 1.136 0 001.059-1.053v-.395a1.041 1.041 0 00-1.053-1.058zm8.525-6.109a1.084 1.084 0 001.058-1.052v-.33a1.085 1.085 0 00-1.053-1.058l-8.506-.024a1.042 1.042 0 00-1.059 1.052v.33a1 1 0 001.053 1.058zm29.72-.427c.244-.92.49-1.839.637-2.612.147-.919.2-1.355.826-1.354a62.641 62.641 0 017.156 2.635c.967.438 1.256.729 1.256.971 0 .194-.146.29-.34.386a2.928 2.928 0 00-1.8 1.98 38.982 38.982 0 00-2.992 13.737c-.007 2.662-.011 3.969.618 3.971.338 0 .582-.386.826-.772.291-.483.584-1.015 1.116-1.014.581 0 2.512 1.653 2.51 2.379 0 .678-2.143 4.4-2.151 7.012 0 .339.093 1.549.189 2.276.047.29.14 1.113.14 1.4 0 1.791-3.59 3.184-5.091 3.18-.919 0-1.354-.633-2.22-2.378-2.358-4.8-3.068-10.222-3.054-15.546a59.54 59.54 0 012.374-16.251zm13.783 20.8c2.027 2.425 3.622 3.253 6.768 3.262a39.275 39.275 0 0010.6-1.519 4.853 4.853 0 011.163-.19c.629 0 .917.631.965 1.067a47.863 47.863 0 01.227 5.034c0 .63-.052.968-.681 1.257-1.7.818-9.782 1.521-11.96 1.515-7.793-.022-11.218-3.9-11.214-5.017 0-.92 2.435-5.8 3.548-5.8.247.001.44.248.584.394zm-.037-20.958a9.841 9.841 0 011.5.2 35.361 35.361 0 006.388.695 29.693 29.693 0 007.165-.947 4.233 4.233 0 01.969-.142c.92 0 1.207 1.019 1.3 1.745a36.545 36.545 0 01.279 3.97c0 1.162-.15 1.5-1.408 1.69a57.32 57.32 0 01-8.133.558c-1.452 0-8.132-.265-9.048-1.042-.387-.34-.383-1.792-.382-2.324.013-3.581.209-4.403 1.37-4.4zm64.23 16.932c2.42.007 4.84-.083 7.308-.076 1.549 0 1.548.343 1.541 2.715v1.064c0 1.453-.151 1.791-1.6 1.787-2.42-.007-4.84-.111-7.26-.118l-2.372-.006c-.435 0-1.016.045-1.018.626 0 .823 4.437 5.579 11.691 7.826.483.146.821.341.82.873 0 1.065-2.047 5.27-3.693 5.266a2.542 2.542 0 01-.822-.2 25.232 25.232 0 01-11.787-7.874c-.338-.388-.917-1.019-1.546-1.021-.727 0-1.31.723-1.747 1.254a22.916 22.916 0 01-5.483 4.873c-.97.626-4.607 2.987-5.575 2.985-1.791 0-4-4.368-4-5.287 0-.678.729-.869 1.5-1.206a28.366 28.366 0 007.565-5.061c.437-.434 1.942-1.93 1.943-2.511s-.869-.583-1.208-.584h-.678c-7.356-.021-7.744-.022-7.991 1.623a47.678 47.678 0 01-3.42 11.413c-.391.87-.683 1.643-1.747 1.64-.968 0-5.467-1.177-5.462-2.823a1.63 1.63 0 01.244-.676 44.419 44.419 0 004.509-19.445l.022-7.84c0-1.259-.091-1.985-.09-2.469.007-2.372 1.7-2.367 2.717-2.364 1.5 0 3.049.1 4.549.11l20.764.059c1.549 0 3.1-.088 4.647-.084 1.017 0 2.662.056 2.655 2.331 0 .484-.1 1.355-.1 2.516l-.008 2.759c0 1.113.091 2.033.089 2.517 0 1.791-.974 2.32-2.619 2.316-1.549-.005-3.1-.106-4.695-.11l-1.79-.005c-.873 0-1.55.431-1.553 1.351v.435c0 .968.769 1.406 1.641 1.408zm1.468-22.7c2.033.006 4.065-.085 6.1-.079 1.114 0 1.208.487 1.2 1.89v2.13c0 1.4-.1 1.888-1.167 1.885-2.082-.006-4.114-.157-6.147-.163l-28.362-.081c-2.033 0-4.067.134-6.148.128-1.064 0-1.16-.487-1.156-1.891l.006-2.129c0-1.4.1-1.888 1.216-1.884 2.032 0 4.065.108 6.1.114zm-23.434 19.443c-.968 0-1.6.479-1.6 1.351v.484a1.315 1.315 0 001.4 1.262c1.888.054 3.824.108 5.76.113l1.984.006c1.259 0 1.6-.77 1.6-1.883 0-.774-.578-1.309-1.642-1.312zm18.987-4.786a1.177 1.177 0 001.164-1.158v-.291a1.178 1.178 0 00-1.158-1.165l-19.409-.055a1.177 1.177 0 00-1.164 1.159v.29a1.177 1.177 0 001.158 1.165zm51.521 8.81c-.018 6.2-4.385 10.2-9.812 12.314-1.793.721-5.814 1.968-7.653 1.963-.92 0-1.3-.584-1.69-1.312a12.386 12.386 0 01-1.2-3.875c0-.774.778-1.014 1.842-1.108 4.455-.423 12.059-2.434 12.075-8.049.007-2.613-2.021-3.829-4.393-3.836-4.308-.012-10.171 2.44-13.857 4.656a3.8 3.8 0 01-1.792.624c-1.646-.005-4.006-3.98-4-5.529 0-.823.583-.967 2.036-1.35.92-.239 2.568-.863 3.538-1.2 4.117-1.44 9.592-3.457 13.949-3.445 6.148.016 10.978 3.661 10.957 10.147zm11.166-9.745a32.844 32.844 0 01-.76-5.181c.005-1.5.683-1.5 3.247-1.637 7.116-.367 14.185-1.024 21.3-1.875 3.486-.426 7.359-.9 10.846-1.518a1.35 1.35 0 01.435-.048c.872 0 1.112.827 1.255 1.6a40.5 40.5 0 01.565 5.374c0 .92-.583.918-2.568.961a20.008 20.008 0 00-6.972.852 14.991 14.991 0 00-10.01 14.1c-.014 4.6 2.354 5.863 6.613 5.876 1.259 0 2.809-.138 3.534-.136.871 0 1.209.149 1.207 1.069a21.3 21.3 0 01-.839 5.66c-.438 1.015-1.019 1.11-2.036 1.108-9-.026-16.5-2.37-16.469-12.825a20.289 20.289 0 014-11.992 2.136 2.136 0 00.488-1.063c0-.436-.337-.727-.869-.729a22.613 22.613 0 00-2.615.428c-2.566.477-5.859 1.194-8.38 1.912a3.677 3.677 0 01-.725.095c-.813.003-1.104-1.353-1.247-2.031zM96.26 182.293c-.01 3.364.178 6.728.168 10.091 0 1.715-.665 1.91-2.643 1.905l-4.154-.012c-1.913-.006-2.572-.2-2.567-1.854.009-3.363.217-6.792.226-10.155l.1-34.952c.007-2.375-.118-4.749-.111-7.057.007-2.7 1.066-3.69 3.7-3.683 2.044.006 4.154.21 6.2.216l4.022.011c1.979.006 3.3-.188 4.749-.184a5.138 5.138 0 014.736 4.5c-.007 2.242-4.319 11.067-5.578 13.437a5.163 5.163 0 00-.6 1.581 3 3 0 00.655 1.387c2.693 4.1 4.924 7.994 4.909 13.072-.01 3.891-.877 7.054-4.312 9.154a15.461 15.461 0 01-6.732 1.894 1.954 1.954 0 01-1.975-1c-.066-.132-.264-.331-.4-.331-.329 0-.395.131-.4.856zm.03-10.749c0 .923.525.924 1.646.928a2.321 2.321 0 002.645-2.565c.011-3.759-2.612-9.174-3.667-9.177-.593 0-.595.658-.6 1.251zm.058-20.444c0 .4 0 1.055.392 1.056.594 0 2.587-5.268 2.59-6.257 0-.792-.393-.859-.921-.861h-1.186a.831.831 0 00-.86.855zm41.8 26.564a1.673 1.673 0 00-.8 1.317c0 .593.458.99 1.116 1.717a4.34 4.34 0 01.592.53 62.278 62.278 0 005.144 3.972c.329.2.658.4.657.86-.006 1.846-3.845 7.045-5.89 7.039-1.648 0-7.566-6.352-8.814-7.873-.2-.2-.4-.462-.725-.463-.461 0-.595.525-.6.921 0 1.253-.072 2.242-.931 2.636-1.188.524-12.538 2.734-14.781 3.189a23.083 23.083 0 00-3.894.912c-.528.262-.661.592-1.125 1.25-.264.4-.462.592-.858.591-.726 0-1.053-1.124-1.706-3.236-.2-.66-.458-1.386-.719-2.178a23.14 23.14 0 01-1.11-3.894c0-.858.464-.923 2.641-1.246.924-.129 1.979-.258 3.035-.453 1.848-.325 2.311-.851 2.316-2.829l.094-33.106c.007-2.308-.118-4.683-.112-7.057.008-2.572 1-3.624 3.638-3.617 2.176.006 4.286.144 6.463.151l8.705.024c2.11.006 4.221-.12 6.4-.114 1.979.006 3.692.407 3.683 3.638-.007 2.374-.211 4.748-.218 7.056l-.022 7.914c-.007 2.374.184 4.748.177 7.123 0 1.318-.338 2.768-1.724 3.358-.264.131-.4.263-.4.527 0 .4 1.38 1.652 2.695 2.909.724.661 3.224 2.911 3.221 3.768 0 .923-.992.921-1.717.919a.81.81 0 00-.66.327c-.927.92-2.711 2.564-3.769 3.418zm-17.48 1.006c0 .527-.006 2.11 1.313 2.114a15.691 15.691 0 001.716-.325c.858-.2 1.914-.391 1.916-1.38a3.831 3.831 0 00-.588-1.65 32.53 32.53 0 01-3.4-10.759c-.065-.4-.2-.792-.526-.793s-.4.526-.4.79zm1.651-23.869a1.562 1.562 0 00-1.587 1.578v.132a1.564 1.564 0 001.578 1.588l7.453.021a1.525 1.525 0 001.587-1.579v-.132a1.562 1.562 0 00-1.578-1.587zm7.471-6.442a1.562 1.562 0 001.587-1.578v-.264a1.563 1.563 0 00-1.578-1.587l-7.453-.021a1.6 1.6 0 00-1.587 1.578v.264a1.6 1.6 0 001.578 1.587zm5.948 18.417c0-.726-.656-.926-3.756-.934-.66 0-1.847-.005-1.849 1.05a14.741 14.741 0 00.784 2.64c.458 1.254.588 1.782 1.247 1.784.794.002 3.575-4.079 3.576-4.54zm31.912 26.602a17.784 17.784 0 01-4.752 1.371c-2.111-.006-4.537-5.091-4.533-6.674 0-.989.729-1.185 1.917-1.511 5.083-1.436 8.914-3.4 10.182-8.874a9.045 9.045 0 00.335-1.846.535.535 0 00-.526-.595 8.306 8.306 0 00-1.717.853c-1.519.787-7.991 3.934-9.31 3.93-1.979-.006-4.536-5.157-4.531-6.871 0-.594.464-.857 2.775-1.641a56.174 56.174 0 0015.982-8.066c.132-.066.33-.2.331-.4 0-.4-.46-.4-.593-.4l-2.7-.007a.985.985 0 00-.991.656c-.332.857-.663.922-3.5.914l-4.155-.012c-1.319 0-1.978-.269-1.974-1.72 0-1.385.208-3.561.215-5.737l.036-12.926c.006-1.846-.188-3.3-.184-4.683.007-2.44 1.657-2.963 3.767-2.957 2.177.006 4.352.144 6.463.15l29.016.083c2.177.006 4.288-.12 6.464-.114 1.649 0 3.759.209 3.751 2.979 0 1.385-.14 2.835-.145 4.682l-.037 12.925c-.006 2.177.185 4.353.181 5.738 0 1.583-.73 1.713-2.972 1.707l-4.221-.012c-1.517 0-2.044-.072-2.5-.865-.2-.4-.459-.727-.921-.728l-2.836-.008c-.2 0-.527.064-.527.328 0 .33.2.4.722.794 5.4 3.972 11.128 5.967 17.388 8.095.527.2.922.332.921.926-.006 1.78-2.791 7.18-4.7 7.175-1.121 0-6.85-2.724-8.168-3.387a3.838 3.838 0 00-1.449-.531c-.923 0-1.058.985-1.06 1.711l-.027 9.5c-.006 1.978.186 4.221.182 5.8s-.8 1.712-2.841 1.706l-3.89-.011c-2.177-.006-3.034-.14-3.029-1.723 0-1.385.208-3.825.214-5.8l.036-12.662c0-.66-.192-1.979-.191-2.639 0-.791.6-.789 1.256-.919a.485.485 0 00.529-.526c0-.4-.591-.793-.92-1.058-1.514-1.191-3.027-2.449-4.408-3.771-.592-.6-.921-.861-1.514-.862-.858 0-1.519.787-2.115 1.379a39.326 39.326 0 01-3.967 3.484c-.264.2-.858.657-.859.986 0 .528.46.529 1.646.665 2.176.2 2.572.271 2.57 1 0 .4-.332.659-.728.789-.4.2-.793.394-.794.856-.298 9.035-3.879 15.883-12.594 19.354zm12.313-39.535a1.043 1.043 0 00-1.053-1.058l-8.375-.024a1.042 1.042 0 00-1.058 1.053v.4a1.04 1.04 0 001.052 1.058l8.375.024a1.041 1.041 0 001.059-1.052zm.025-9.034a1.04 1.04 0 00-1.052-1.058l-8.375-.024a1.042 1.042 0 00-1.059 1.052v.4a1.043 1.043 0 001.052 1.059l8.376.023a1.04 1.04 0 001.058-1.052zm9.272 9.457a1.043 1.043 0 001.052 1.058l8.507.024a1.044 1.044 0 001.059-1.052v-.4a1.042 1.042 0 00-1.053-1.058l-8.506-.024a1.041 1.041 0 00-1.059 1.052zm.026-9.035a1.04 1.04 0 001.052 1.058l8.507.024a1.041 1.041 0 001.058-1.052v-.4a1.041 1.041 0 00-1.052-1.058l-8.507-.024a1.042 1.042 0 00-1.058 1.052zm58.558 7.113c.242.049.678.1.677.486a1.675 1.675 0 01-.341.822 5.23 5.23 0 00-.783 3.047 1.055 1.055 0 001.06 1.116c.871 0 5.571-1.049 6.829-1.336a11.554 11.554 0 011.987-.381c.677 0 .916.97 1.011 1.5a23.846 23.846 0 01.521 4.115c0 1.162-.585 1.354-2.135 1.64-2.421.429-4.938.809-7.408 1.141-1.162.142-1.695.285-1.7 1.3 0 .677.336 1.211 1.062 1.213a43.517 43.517 0 005.133-1 5.676 5.676 0 011.21-.19c.388 0 .629.389.82 1.019a20.154 20.154 0 01.326 4.647c0 1.549-1.5 1.738-5.959 2.209-1.937.189-2.325.429-2.328 1.3-.006 2.663.04 3.05 1.539 3.538 2.031.684 8.509 3.461 8.5 5.736 0 1.064-2.047 4.689-3.595 4.684-.678 0-1.934-.973-3.624-2.236a5.419 5.419 0 00-2.126-1.168c-.678 0-.873.53-1.117 1.062-1.559 3.771-5.434 4.824-9.21 4.814a10.87 10.87 0 01-5.9-1.518 6.922 6.922 0 01-3.033-5.719 6.654 6.654 0 012.773-5.317 13.151 13.151 0 017.508-1.963h.533a.955.955 0 001.019-1.062 1.15 1.15 0 00-1.109-1.31c-.872 0-3.873.231-6 .225-1.84-.006-2.324-.055-2.611-1.363a19.184 19.184 0 01-.665-4.5c0-.726.1-1.4.973-1.4 1.4 0 3.483.252 5.806.259h1.307c1.21 0 2.131-.09 2.134-1.155a1.1 1.1 0 00-1.158-1.213c-1.646 0-4.6.18-6.873.174h-1.452c-1.937 0-3.486-.058-3.774-.736a17.429 17.429 0 01-.518-5.084c0-.678.052-1.5.972-1.5s6 .452 9.2.461h1.065c1.162 0 2.033-.091 2.036-1.107 0-.436-.233-3.147-.376-4.019a6.437 6.437 0 01-.141-1.355c0-.581.341-.725.922-.724.917.004 5.804.651 7.013.848zM235.605 184.3c0 1.162 1.788 1.215 2.61 1.218 1.307 0 2.905-.331 2.91-1.976 0-.678-.579-.728-1.5-.731-.967 0-4.016.089-4.02 1.489zm35.114-24.728c0-1.5.536-1.547 5.861-1.822.968-.046 2.081-.091 3.437-.184 6.1-.37 20.14-1.927 26.049-3.024a1.831 1.831 0 01.484-.047c.871 0 1.015.681 1.2 1.6a33.8 33.8 0 01.614 5.374c0 .92-.535.918-2.617.961a19.731 19.731 0 00-6.923.851 15.039 15.039 0 00-10.059 14.1c-.014 4.6 2.4 5.863 6.663 5.875 1.21 0 2.807-.137 3.485-.135.919 0 1.258.149 1.255 1.068a21.954 21.954 0 01-.838 5.661c-.39.967-1.069 1.11-2.086 1.107-8.954-.025-16.449-2.37-16.419-12.824.014-4.841 1.476-8.418 4.2-12.331a1.367 1.367 0 00.293-.725c0-.435-.337-.727-.87-.728a17.365 17.365 0 00-2.616.428c-2.565.477-5.907 1.193-8.427 1.912a3.277 3.277 0 01-.676.095c-1.017 0-1.35-2.182-1.588-3.683a26.134 26.134 0 01-.422-3.529zm32.114 8.126c.628.728 3.281 4.027 3.279 4.753 0 .968-2.622 2.461-3.105 2.459-.242 0-.338-.146-.965-1.116-.916-1.406-1.88-2.667-2.941-4.025a.822.822 0 01-.24-.533c0-.678 2.716-2.122 3.249-2.121.242.001.531.341.723.585zm9.627 1.818c0 .968-2.571 2.51-3.1 2.508-.339 0-.579-.437-.724-.679a37.755 37.755 0 00-3.086-4.22 1.517 1.517 0 01-.385-.727c0-.629 2.667-2.122 3.248-2.12.529.001 4.049 4.609 4.047 5.238zm11.155 11.313a2.215 2.215 0 00.8-1.911l.025-8.573c0-1.648-.917-2.179-1.577-2.18-.461 0-1.649.127-2.243.125-.989 0-1.119-.728-1.115-2.245l.013-4.419c0-1.715.139-2.374 1.128-2.371.527 0 1.846.2 3.1.207l2.968.008c1.583 0 2.7-.124 3.826-.121 1.913.006 2.634 1.327 2.629 3.041 0 1.649-.208 3.759-.215 6.133l-.014 5.078c0 .33 0 1.187.392 1.188.858 0 2.193-5.929 2.794-8.7a81.494 81.494 0 001.291-13.384c0-1.253-.191-2.045-.917-2.047-.131 0-.33.065-.462.064-1.121 0-1.25-1.058-1.245-2.773l.008-2.967c.006-1.979.141-2.836 1.328-2.833.593 0 1.187.07 1.582.071a1.805 1.805 0 001.72-1.776 23.035 23.035 0 00-.122-3.693c0-.132-.065-.33-.064-.462 0-.857.663-.987 1.388-.985 1.319 0 5.605.411 7.253.416.989 0 1.911.071 1.909.929 0 .4-.594.657-.925.854-.594.262-.594.2-.6 3.23a1.829 1.829 0 001.908 1.589c.725 0 2.243-.126 2.9-.124 1.121 0 1.25.992 1.247 1.982 0 .264 0 1.055.459 1.056.527 0 .661-.591.925-1.184a54.361 54.361 0 002.529-7.643c.267-1.055.333-1.318.795-1.317.659 0 5.6 1.467 6.656 1.734.724.2 2.174.533 2.171 1.391 0 .462-.463.526-.86.723a.793.793 0 00-.66.855c0 .726.722.86 1.249.861l2.309.007c2.374.006 4.749-.119 7.123-.112 1.451 0 1.581.532 1.576 2.445l-.011 3.627c0 1.384-.137 2.11-1.523 2.106-2.374-.007-4.814-.146-7.188-.153l-5.407-.015c-2.177-.006-2.377 1.246-2.378 1.444 0 .462.262.66 1.053.663l4.022.011c1.649.005 3.3-.123 5.013-.118 2.045.006 2.57.535 3.95 2.122.592.727 2.036 2.776 2.034 3.765 0 1.121-1.457 2.3-2.184 3.027a38.3 38.3 0 01-3.174 2.695 1.542 1.542 0 00-.662 1.053c0 .462.525.661.922.663 1.186 0 2.374-.126 3.56-.122 1.913 0 2.043.8 2.037 3.171l-.007 2.44c-.006 1.979-.206 2.835-1.921 2.83-1.385 0-2.836-.14-4.221-.144a1.924 1.924 0 00-2.049 1.709c0 .99.06 1.979.057 3.034-.018 6.331-4.568 7.11-9.845 7.094-1.186 0-2.9-.008-3.557-1.131a12.734 12.734 0 01-1.172-5.477c0-.923.136-1.978 1.324-1.975.593 0 1.517.269 2.439.271 1.913.006 2.046-.521 2.051-2.3a1.268 1.268 0 00-1.315-1.257c-1.385 0-2.77.124-4.155.12-1.781 0-1.976-.863-1.97-2.907l.008-2.638c0-2.176.139-2.9 2.051-2.9 1.32 0 2.638.14 3.891.143a1.279 1.279 0 001.389-1.183c0-.2-.065-.594-.064-.989 0-.924.4-1.12 1.191-1.118h.791a3.489 3.489 0 002.841-2.036c0-.2-.131-.33-.592-.332l-2.243-.006c-1.583 0-2.9.124-3.561.122-.923 0-1.581-.269-1.578-1.258s-.46-.924-1.25-1.059c-.99-.134-5.733-2.126-5.729-3.643a.753.753 0 01.2-.527.712.712 0 00.133-.395c0-.792-.922-.86-2.372-.864l-2.11-.006a1.366 1.366 0 00-1.254.59 2.5 2.5 0 00-.8 1.119 11.793 11.793 0 00-.069 1.582c0 .857.522 1.716 2.039 1.721h.593c1.122 0 2.309-.059 3.5-.056 2.374.007 2.5 1.59 2.5 3.437-.012 3.957-.506 15.694-1.308 19.385-.935 4.35-2.785 5.334-6.939 5.322h-.858c-.924 0-1.846-.072-2.306-.8a5.956 5.956 0 01-.652-2.574c0-.264-.063-1.056-.392-1.057-.4 0-.6.46-.662.724-.267.857-.667 2.24-1.722 2.237-.791 0-3.82-1.725-4.543-2.255a1.011 1.011 0 00-.659-.4.468.468 0 00-.463.527c0 .923 1.115 2.245 1.772 2.841 1.842 1.786 4.611 2.123 7.051 2.262 2.637.139 5.539.148 8.44.156l5.606.016c5.54.015 11.013.031 16.487-.085 1.451-.062 2.968-.124 4.418-.12 1.65 0 1.78.731 1.776 2.182-.016 5.473-1.4 6.722-5.3 6.711l-21.7-.061c-4.287-.013-12.069-.1-16.022-1.365a13.9 13.9 0 01-5.662-3.049 2.541 2.541 0 00-1.449-.73c-.462 0-1.056.459-1.784 1.116-.662.658-1.719 1.512-2.314 2.1a2.477 2.477 0 00-.731 1.515c-.066.461-.266 1.054-.86 1.052s-.789-.6-.92-.991c-.982-2.311-1.833-4.688-2.816-7a8.138 8.138 0 01-.719-2.244c0-.528.464-.922 1.257-1.316a17.079 17.079 0 003.764-2.216zm3.356-43.912a63.458 63.458 0 013.744 5.286c.656.991 3.61 5.682 3.608 6.473 0 1.517-5.288 4.4-6.145 4.4-.594 0-.922-.728-1.185-1.19a65.885 65.885 0 00-6.3-10.042c-.394-.529-.723-.925-.722-1.255 0-1.253 5.223-4.338 6.08-4.335.46.002.657.332.92.663zm17.395 28.209c-.269 2.044-1.072 6.13-1.6 8.107a1.239 1.239 0 00-.133.527 1.309 1.309 0 001.249 1.323 1.511 1.511 0 001.585-.985c.533-1.647.878-7.318.885-9.758 0-.725-.128-1.319-.721-1.321-.797-.002-1.196 1.514-1.265 2.107zm63.374-22.506c.593.265 1.582.73 1.58 1.323 0 .4-.6.79-.993 1.052a4.79 4.79 0 00-1.721 2.5c-2.325 5.665-3.869 15.422-3.887 21.555v1.121c0 1.055.062 1.781.655 1.782.462 0 .86-.855 1.191-1.645.2-.461.465-1.054.992-1.052.857 0 4.281 2.188 4.277 3.441a3.584 3.584 0 01-.333 1.12c-1.592 3.623-3.453 8.5-3.464 12.521 0 1.055.126 2.111.123 3.166 0 1.319-.6 1.844-2.581 2.828a10.81 10.81 0 01-3.96 1.11c-.922 0-1.581-.73-2.432-2.645-3.015-6.669-3.851-14.256-3.831-21.114a84.852 84.852 0 013.23-22.678c.6-2.174 1.331-4.348 1.8-6.523.134-.527.334-1.516 1.059-1.514.855.004 6.979 2.989 8.295 3.652zm27.88 5.882c0 1.979 0 2.243-2.25 2.9-1.255.392-1.387.853-1.391 2.172v1.187c0 .857.259 1.716 1.248 1.718.725 0 6.4-1.564 7.457-1.891a2.648 2.648 0 01.99-.195c.923 0 1.315 1.652 1.575 2.708a31.771 31.771 0 01.778 4.817c0 1.253-.532 1.449-2.776 1.97-2.111.522-4.289.846-6.4 1.169-1.188.195-2.31.653-2.314 2.17 0 .923.25 4.617.31 6.595a2.4 2.4 0 001.708 2.511c2.042 1 9.877 5.436 9.871 7.744 0 1.583-3.184 6.323-5.427 6.316-.923 0-2.106-1.193-3.092-2.251-.921-.926-1.644-1.719-2.435-1.721a1.524 1.524 0 00-1.322.787c-2.516 3.686-6.41 4.73-10.7 4.718-5.737-.016-11.8-2.539-11.779-9.2s6.227-9.413 12.1-9.4h.857a1.456 1.456 0 001.587-1.447c.013-4.352-.249-5.276-1.635-5.28a6.394 6.394 0 00-1.121.063c-1.648.127-8.112.5-9.695.5-3.363-.01-3.363-.141-3.551-3.637-.063-1.122-.32-3.3-.317-4.552 0-1.121.4-1.581 1.588-1.578.791 0 4.68.277 7.583.285 5.275.015 6.4-.047 6.4-2.29.006-2.11.009-3.165-1.244-3.169-.4 0-4.881.448-7.19.442-3.033-.009-3.031-.867-3.023-3.372 0-1.254-.32-3.695-.317-4.684a1.387 1.387 0 011.521-1.512c.265 0 .857.068 1.12.069 1.32.136 3.562.208 4.881.212a65.337 65.337 0 0013.391-1.215 9.987 9.987 0 011.385-.194c.99 0 1.184.927 1.249 1.652.06.991.386 2.839.38 4.881zm-17.441 34.178c0 1.319 2.3 1.589 3.161 1.592 1.318 0 3.165-.123 3.17-1.838 0-1.187-1.578-1.257-2.436-1.26-.923-.002-3.892.187-3.895 1.506zm27.333-33.754c0 1.319-3.571 3.353-4.231 3.351-.395 0-.659-.4-.79-.661-1.838-2.776-2.5-3.635-4.466-6.212-.131-.264-.394-.529-.394-.793 0-.989 3.768-2.89 4.428-2.889.724.002 5.456 6.278 5.453 7.204zm6.347-5.587c0 1.253-3.44 3.419-4.231 3.417-.33 0-.461-.2-.921-.926a73.363 73.363 0 00-4.138-5.683c-.329-.4-.591-.727-.591-.991 0-1.121 3.636-3.024 4.361-3.022s5.523 6.347 5.52 7.205zm49.852 24.476c-.031 11.079-8.566 20.617-18.011 25.537-1.056.591-3.565 1.77-4.752 1.767-2.836-.008-6.839-6.944-6.836-8.131 0-.66.662-.921 1.19-1.052a29.231 29.231 0 0012.22-6.494c3.173-2.893 5.556-6.513 5.569-10.931.013-4.353-3.211-7-7.432-7.012-5.078-.015-9.767 2.742-13.668 5.764a2.276 2.276 0 01-1.386.656c-2.176-.006-5.123-6.807-5.117-8.984 0-1.055 1.058-1.579 1.851-1.973 5.282-2.623 13.072-5.173 19.008-5.156 9.826.028 17.394 5.655 17.364 16.009zm-26.03-30.278c4.215 2.056 12.456 3.135 17.2 3.478 1.583.136 2.177.27 2.174 1.127 0 .594-.27 2.242-.539 3.89-.336 2.175-.738 4.878-2.652 4.872-3.3-.009-12.525-2.08-15.885-3.013-4.152-1.133-5.272-1.465-5.269-2.52 0-1.319 1.4-5.074 1.931-6.458.265-.725.665-1.845 1.654-1.842a3.451 3.451 0 011.386.466zm55.726 47.113a6.485 6.485 0 01-6.877 6.774c-3.562-.011-6.126-2.392-6.117-5.821.011-3.891 2.459-7.05 6.812-7.038a5.963 5.963 0 016.182 6.085zm-8.875-10.25c-1.713 0-1.976-.269-2.038-1.984l-.614-15.632c-.252-4.089-.755-13.191-.751-14.51 0-1.121.4-1.384 1.851-1.38l8.046.023c1.451 0 1.845.269 1.842 1.39 0 1.319-.556 10.352-.835 15.3l-.635 14.836c-.072 1.715-.336 1.978-2.051 1.973z" fill="#006d88"/></g></svg>