<svg xmlns="http://www.w3.org/2000/svg" width="342.476" height="379.538" viewBox="0 0 342.476 379.538"><path d="M324.737 378.084c-.37 0-.37-.575-.74-.575s-.371.181-.741.181-.37-.025-.74-.025-.37.34-.74.34-.371.11-.741.11-.37-.622-.74-.622-.37.512-.74.512-.371-.429-.741-.429-.37-.006-.74-.006-.37.526-.74.526-.37-.275-.741-.275-.37-.376-.74-.376-.37.385-.74.385-.37-.344-.74-.344-.371-.043-.741-.043-.37.531-.74.531-.37-.178-.74-.178-.37-.189-.741-.189-.37.493-.74.493-.37-.351-.74-.351-.37-.242-.741-.242-.37.363-.74.363-.37-.1-.74-.1-.37.236-.741.236-.37-.4-.74-.4-.37.276-.741.276-.37-.055-.74-.055-.37-.324-.741-.324-.37.582-.74.582-.371-.227-.741-.227-.37-.39-.741-.39-.37.539-.74.539-.371-.4-.741-.4-.37-.027-.741-.027-.37.335-.741.335-.37-.4-.741-.4-.37.663-.741.663-.37-.016-.741-.016-.37-.333-.741-.333-.37.23-.741.23-.37-.4-.741-.4-.371.049-.741.049-.371.4-.742.4-.37-.4-.741-.4-.371-.265-.742-.265-.371.47-.741.47-.371-.266-.742-.266-.371.522-.742.522-.371-.125-.742-.125-.371-.392-.742-.392-.371.442-.742.442-.371-.56-.742-.56-.371.292-.742.292-.371.277-.742.277-.372-.344-.743-.344-.371.39-.743.39-.371-.388-.742-.388-.372-.027-.743-.027-.371.223-.743.223-.371-.379-.743-.379-.372.526-.743.526-.372-.158-.743-.158-.372.207-.744.207-.372-.2-.743-.2-.372.169-.744.169-.372-.445-.744-.445-.372.293-.743.293-.372-.09-.744-.09-.371-.325-.743-.325-.372.191-.743.191-.372.433-.743.433-.372-.451-.743-.451-.372-.284-.743-.284-.372.374-.743.374-.371-.1-.743-.1-.371-.244-.742-.244-.372-.013-.743-.013-.371.233-.742.233-.372-.085-.743-.085h-.742c-.371 0-.371.274-.742.274s-.371-.084-.742-.084-.372-.216-.743-.216-.371.582-.742.582-.371-.725-.742-.725-.371.48-.741.48-.371-.131-.742-.131-.371.176-.742.176-.371.079-.742.079-.371-.09-.742-.09-.37.135-.741.135-.371-.577-.742-.577-.371.41-.741.41-.371-.413-.742-.413-.371.137-.742.137-.37.21-.741.21-.371-.117-.742-.117-.37.438-.741.438-.371-.4-.742-.4-.37.247-.741.247-.371.112-.741.112-.371-.431-.742-.431-.371.3-.741.3-.371-.271-.742-.271-.371-.174-.741-.174-.371.449-.742.449h-.741c-.37 0-.371.077-.742.077s-.371-.055-.741-.055-.371.094-.742.094-.371-.346-.742-.346-.371.305-.741.305-.371-.282-.742-.282-.371.133-.742.133-.371.105-.742.105-.371-.45-.742-.45-.37.38-.741.38-.371-.063-.742-.063-.371-.141-.742-.141-.372.054-.743.054-.371-.324-.742-.324-.371-.07-.742-.07-.371.3-.742.3-.372.328-.743.328-.371-.255-.742-.255-.372.3-.743.3-.371-.364-.743-.364-.371-.135-.743-.135-.371.4-.743.4-.371-.094-.743-.094-.371.18-.743.18-.372-.141-.743-.141-.372-.419-.744-.419-.371.231-.743.231-.372.407-.744.407-.372-.509-.744-.509-.372.061-.744.061-.372.258-.744.258-.372.176-.744.176-.372-.683-.744-.683-.371.58-.743.58-.372-.022-.744-.022-.372-.487-.743-.487-.372.031-.744.031-.371.576-.743.576-.372-.065-.743-.065-.372-.112-.743-.112-.372-.124-.743-.124-.372-.34-.743-.34-.372.148-.743.148-.371.354-.743.354-.371.015-.742.015h-.743c-.371 0-.371-.593-.743-.593s-.371.5-.742.5-.371.106-.743.106-.371-.546-.742-.546-.371.534-.742.534-.372-.4-.743-.4-.371.135-.742.135-.371.287-.742.287-.372.035-.743.035-.371.083-.742.083-.371-.22-.742-.22-.371.11-.743.11-.371.059-.742.059-.371-.434-.742-.434-.371.094-.743.094-.371-.29-.742-.29-.371.069-.742.069-.372.513-.743.513-.371-.477-.742-.477-.372.51-.743.51-.371-.661-.742-.661-.372.716-.743.716-.372-.43-.743-.43-.371-.143-.743-.143-.37.038-.741.038-.37.531-.741.531-.37-.652-.741-.652-.371.6-.742.6-.371-.115-.741-.115-.372-.266-.743-.266-.371.33-.742.33-.372-.475-.743-.475-.372.253-.743.253-.372-.336-.744-.336-.372.57-.744.57-.372-.389-.744-.389-.372-.1-.744-.1-.372.066-.744.066-.372.428-.744.428-.372-.493-.744-.493-.371.174-.743.174-.371.287-.743.287-.371-.174-.743-.174-.371-.131-.742-.131-.371.224-.743.224-.371-.512-.742-.512-.371.073-.742.073-.37.223-.741.223-.371.429-.742.429-.37-.476-.741-.476-.371.016-.741.016-.371-.238-.741-.238-.37.175-.741.175-.37-.126-.74-.126-.371.349-.741.349-.37-.262-.74-.262-.37-.067-.74-.067-.37.329-.74.329-.37-.2-.74-.2-.37-.173-.74-.173-.37.464-.74.464-.37.04-.739.04-.37.051-.74.051-.37-.331-.74-.331-.369.148-.739.148-.37-.368-.739-.368-.37.052-.74.052-.369.2-.739.2-.37-.235-.739-.235-.37.243-.74.243-.369.425-.739.425-.37-.557-.739-.557-.37-.045-.74-.045-.369.169-.739.169-.37.093-.739.093-.37-.054-.74-.054-.37-.078-.739-.078-.37.29-.74.29-.37-.254-.74-.254-.369-.051-.739-.051-.37-.086-.74-.086-.37.134-.74.134-.37.4-.74.4-.37-.223-.741-.223-.37.247-.74.247-.37-.471-.741-.471-.37.31-.74.31-.371.049-.741.049-.371-.609-.741-.609-.371.492-.742.492-.37-.4-.741-.4-.371.628-.742.628-.371-.284-.742-.284-.371.216-.742.216-.372.014-.743.014-.371-.52-.743-.52-.371.065-.743.065-.372-.1-.744-.1-.371.176-.743.176-.372.353-.745.353-.372-.45-.744-.45-.373-.014-.745-.014-.373.1-.745.1-.373-.125-.746-.125-.373.045-.746.045-.372.516-.745.516-.372-.545-.745-.545-.372-.173-.745-.173-.372.138-.744.138-.372.491-.744.491-.372-.286-.744-.286-.372.15-.744.15-.371-.363-.743-.363-.372-.091-.743-.091-.372.553-.743.553-.372-.357-.743-.357-.372-.145-.743-.145-.371.618-.742.618-.372-.06-.743-.06-.371-.227-.742-.227-.371-.027-.743-.027-.371-.121-.742-.121-.371.384-.742.384-.371-.561-.742-.561-.371.272-.742.272-.371-.141-.742-.141-.371-.165-.742-.165-.372.173-.743.173-.371.506-.742.506-.371-.133-.742-.133-.372-.159-.743-.159-.371-.133-.743-.133-.371-.306-.742-.306-.372.563-.743.563-.372-.312-.743-.312-.372-.259-.744-.259-.372.639-.744.639-.372-.237-.743-.237-.373.076-.745.076-.372-.34-.744-.34-.373-.119-.745-.119-.373.019-.745.019-.373.111-.746.111-.373.489-.746.489-.373-.513-.747-.513-.373.083-.746.083-.373-.1-.746-.1-.373.609-.746.609-.373-.412-.745-.412-.373.225-.745.225h-.745c-.372 0-.373.055-.745.055s-.372-.24-.744-.24-.372.264-.744.264-.372-.428-.745-.428-.372.12-.744.12-.372-.223-.743-.223-.372-.018-.744-.018-.372.158-.744.158-.372-.136-.744-.136h-.744c-.372 0-.372.344-.744.344s-.372-.27-.744-.27-.373-.056-.745-.056-.372.17-.744.17-.373.142-.745.142-.373-.268-.745-.268-.373.138-.746.138-.373-.04-.746-.04-.373.013-.746.013-.373-.11-.747-.11-.373.25-.747.25-.373-.055-.747-.055-.373.213-.746.213-.373-.156-.746-.156-.373-.213-.746-.213-.373.389-.745.389-.373-.461-.746-.461-.372.384-.745.384-.372.074-.745.074-.372-.445-.745-.445-.373.608-.745.608-.373-.708-.745-.708-.373.441-.745.441-.373.122-.746.122-.373-.434-.746-.434-.373.13-.746.13-.373.419-.746.419-.374-.082-.747-.082h-.748c-.374 0-.373-.338-.747-.338s-.373.331-.747.331-.373-.4-.746-.4-.373-.208-.746-.208-.373.056-.746.056-.373.19-.746.19-.373.481-.746.481-.371-.2-.742-.2-.372-.462-.743-.462-.372.566-.745.566-.372-.48-.745-.48-.373.267-.746.267-.374.122-.747.122-.374.048-.748.048-.373-.094-.746-.094-.373.061-.746.061-.372-.39-.745-.39-.372.526-.744.526-.372-.209-.744-.209-.372.073-.743.073-.372-.266-.743-.266-.372-.148-.744-.148-.371.155-.743.155-.372.166-.743.166-.372-.112-.744-.112-.372.386-.745.386-.372-.3-.745-.3-.373.123-.746.123-.374.037-.747.037-.374-.506-.749-.506-.374.413-.749.413-.373-.032-.747-.032-.374-.442-.747-.442-.373.249-.746.249-.373-.077-.746-.077-.373.335-.746.335-.373-.189-.746-.189-.374.117-.747.117-.374-.341-.747-.341-.375.527-.749.527-.375-.552-.75-.552-.375.43-.749.43-.374-.392-.748-.392-.374.185-.747.185-.374.021-.748.021-.374-.328-.748-.328-.375.369-.75.369-.375-.036-.75-.036-.374.385-.749.385-.374-.166-.749-.166-.374-.068-.749-.068-.375-.371-.75-.371-.372.465-.744.465-.373-.594-.745-.594-.375.56-.749.56-.376-.536-.751-.536-.375.4-.749.4h-.747c-.373 0-.375-.31-.749-.31s-.376.418-.752.418-.376-.188-.751-.188-.375.174-.751.174-.376-.249-.753-.249-.375-.124-.751-.124-.376.588-.752.588-.375-.292-.75-.292-.377-.424-.754-.424-.377.246-.755.246-.378-.226-.757-.226-.378.646-.757.646c-.248 0-.51.021-.755.01s-.459-.574-.7-.6-.494.038-.737 0-.445-.275-.687-.32-.48-.047-.719-.1-.488-.039-.725-.106-.423-.258-.656-.336-.6.213-.825.124-.447-.215-.672-.315-.551 0-.772-.113-.288-.521-.5-.641-.429-.237-.638-.367-.6.006-.8-.133-.3-.438-.5-.586-.464-.218-.654-.376-.12-.611-.3-.778-.514-.17-.688-.344-.14-.541-.306-.723-.67-.069-.828-.258-.354-.361-.5-.558-.333-.383-.473-.586.065-.635-.065-.845-.478-.291-.6-.506-.169-.474-.279-.694.045-.561-.055-.787-.521-.315-.61-.545-.189-.462-.268-.7-.351-.419-.419-.656.138-.555.082-.8-.068-.492-.113-.734-.334-.453-.367-.7.338-.538.315-.784-.468-.466-.479-.714.35-.506.35-.754c0-.372-.109-.372-.109-.744s-.134-.372-.134-.744.57-.372.57-.744-.177-.372-.177-.744-.242-.372-.242-.744.358-.372.358-.744-.625-.373-.625-.745.449-.372.449-.745-.508-.372-.508-.744.511-.373.511-.745-.019-.372-.019-.744.107-.373.107-.745-.251-.372-.251-.744.253-.372.253-.744-.4-.372-.4-.744.189-.372.189-.744.018-.372.018-.744.294-.372.294-.744-.247-.372-.247-.744-.456-.372-.456-.744.552-.371.552-.743.126-.372.126-.744-.115-.371-.115-.743-.438-.372-.438-.743.1-.372.1-.744-.136-.371-.136-.743.454-.371.454-.743.184-.372.184-.743-.328-.372-.328-.743.041-.371.041-.743v-.743c0-.372-.266-.371-.266-.743s.054-.371.054-.742.18-.372.18-.743-.4-.371-.4-.742.149-.372.149-.743.277-.371.277-.742v-.743c0-.371-.036-.371-.036-.742s-.316-.371-.316-.743.539-.371.539-.742-.384-.371-.384-.742.158-.371.158-.742.223-.371.223-.742-.485-.372-.485-.743.255-.371.255-.742-.337-.371-.337-.742-.014-.371-.014-.742.067-.371.067-.742.447-.371.447-.742-.083-.371-.083-.742-.455-.371-.455-.742.5-.371.5-.741-.317-.371-.317-.742.466-.371.466-.742-.573-.371-.573-.742.424-.371.424-.742-.058-.371-.058-.742-.02-.371-.02-.742-.059-.37-.059-.741-.126-.371-.126-.742-.117-.371-.117-.742.365-.371.365-.742-.461-.371-.461-.742.433-.371.433-.741-.138-.371-.138-.742.132-.371.132-.742.11-.371.11-.742-.2-.371-.2-.742-.2-.371-.2-.742.065-.371.065-.742.467-.371.467-.742-.137-.371-.137-.742-.2-.371-.2-.742-.154-.371-.154-.742-.043-.371-.043-.742.054-.371.054-.742-.2-.371-.2-.742.4-.371.4-.742.236-.371.236-.742-.04-.371-.04-.743-.076-.371-.076-.742-.354-.371-.354-.742.045-.371.045-.743.194-.371.194-.742.062-.371.062-.743.148-.371.148-.742-.358-.371-.358-.743-.159-.371-.159-.743.319-.371.319-.742-.143-.372-.143-.743-.091-.372-.091-.743-.046-.372-.046-.743.137-.372.137-.743.208-.372.208-.743.02-.372.02-.744.026-.371.026-.743-.024-.372-.024-.743-.278-.372-.278-.744-.234-.372-.234-.743.688-.372.688-.744-.391-.372-.391-.744-.084-.372-.084-.744-.139-.372-.139-.744.339-.372.339-.744-.1-.372-.1-.744-.095-.372-.095-.745.334-.372.334-.744-.307-.372-.307-.745-.1-.372-.1-.744.483-.373.483-.745-.661-.373-.661-.745.436-.373.436-.745-.164-.373-.164-.745.106-.373.106-.746.023-.372.023-.745-.039-.372-.039-.745-.341-.372-.341-.745.534-.372.534-.744-.051-.373-.051-.745-.043-.372-.043-.745-.128-.372-.128-.744.055-.372.055-.744.032-.373.032-.745-.018-.372-.018-.744-.4-.372-.4-.744.312-.372.312-.744v-.744c0-.372-.193-.372-.193-.744s.175-.372.175-.744.145-.371.145-.743.023-.372.023-.744-.273-.372-.273-.743.122-.372.122-.744.228-.372.228-.743-.465-.372-.465-.744.051-.371.051-.743.343-.372.343-.743.17-.372.17-.741-.541-.371-.541-.743.242-.371.242-.743.138-.372.138-.743-.206-.372-.206-.743.306-.372.306-.743-.305-.372-.305-.743-.116-.372-.116-.744-.075-.371-.075-.743.056-.371.056-.743.6-.371.6-.743-.028-.371-.028-.743-.063-.371-.063-.743-.57-.371-.57-.743.595-.371.595-.743-.17-.371-.17-.743-.492-.371-.492-.743.345-.371.345-.743-.259-.371-.259-.743.165-.371.165-.743.422-.372.422-.743-.089-.372-.089-.743-.286-.372-.286-.744.209-.371.209-.743-.112-.371-.112-.743-.376-.372-.376-.743.211-.372.211-.744-.119-.372-.119-.743-.079-.372-.079-.744.5-.372.5-.743-.193-.372-.193-.744.148-.372.148-.744.167-.372.167-.744.05-.372.05-.744-.534-.372-.534-.744.213-.372.213-.744.194-.372.194-.744-.529-.372-.529-.744.166-.372.166-.745-.136-.372-.136-.744.459-.372.459-.745.063-.372.063-.744-.387-.373-.387-.745.339-.373.339-.745.144-.373.144-.745-.478-.373-.478-.746-.211-.372-.211-.745.013-.373.013-.746.629-.372.629-.745-.528-.373-.528-.746.242-.373.242-.745.07-.373.07-.745v-.746c0-.373.26-.372.26-.745s-.594-.372-.594-.745-.081-.372-.081-.744.166-.373.166-.745.414-.372.414-.745-.118-.372-.118-.744-.227-.373-.227-.745-.108-.372-.108-.744.1-.372.1-.744.134-.373.134-.745-.066-.372-.066-.744-.07-.372-.07-.744.4-.372.4-.744-.642-.372-.642-.744.658-.372.658-.744-.5-.372-.5-.744.031-.372.031-.744.238-.372.238-.744-.336-.372-.336-.744.537-.378.537-.746.054-.372.054-.744-.506-.372-.506-.744.189-.372.189-.744-.342-.372-.342-.744.247-.372.247-.744-.2-.372-.2-.744.332-.372.332-.744.284-.371.284-.743-.1-.372-.1-.744-.045-.372-.045-.745-.1-.372-.1-.744-.26-.372-.26-.744.16-.372.16-.744-.239-.372-.239-.744-.007-.372-.007-.745.406-.372.406-.744-.179-.371-.179-.743-.04-.371-.04-.743.027-.371.027-.743.006-.371.006-.743.288-.372.288-.744-.229-.372-.229-.744-.34-.372-.34-.744.69-.373.69-.745-.338-.373-.338-.745.129-.373.129-.746-.154-.373-.154-.745-.233-.373-.233-.746.012-.373.012-.746.273-.373.273-.745.019-.373.019-.745.162-.373.162-.745.138-.373.138-.745-.562-.372-.562-.744.553-.372.553-.744-.3-.372-.3-.744.221-.372.221-.744-.381-.371-.381-.743.042-.372.042-.743.32-.372.32-.743-.322-.372-.322-.743.075-.371.075-.743.319-.371.319-.742.033-.371.033-.742-.435-.372-.435-.743-.128-.371-.128-.742.461-.371.461-.741-.246-.371-.246-.742-.121-.371-.121-.742-.122-.37-.122-.741.217-.371.217-.742-.159-.37-.159-.741.1-.37.1-.741.187-.371.187-.741.131-.371.131-.741-.357-.371-.357-.741.07-.371.07-.741.2-.371.2-.741v-.741c0-.371-.255-.37-.255-.741s-.209-.37-.209-.741.351-.37.351-.74.256-.371.256-.741-.122-.371-.122-.741-.238-.37-.238-.741-.131-.37-.131-.741.3-.37.3-.741-.284-.37-.284-.741.408-.37.408-.741-.571-.371-.571-.741-.005-.371-.005-.741.05-.371.05-.742-.019-.371-.019-.741.013-.371.013-.742.605-.371.605-.742-.5-.371-.5-.742.025-.371.025-.742.054-.371.054-.742-.056-.371-.056-.743.083-.371.083-.742-.293-.372-.293-.743.291-.372.291-.743.007-.372.007-.744.2-.371.2-.743.173-.372.173-.744-.443-.372-.443-.744-.009-.372-.009-.745.471-.372.471-.744-.546-.373-.546-.745-.024-.373-.024-.746.446-.373.446-.745.171-.374.171-.747-.161-.373-.161-.746-.483-.373-.483-.747.544-.373.544-.747-.1-.374-.1-.747-.028-.374-.028-.747.172-.373.172-.747-.116-.373-.116-.746-.388-.373-.388-.746.361-.373.361-.746-.1-.372-.1-.745-.366-.373-.366-.745.005-.373.005-.745.561-.373.561-.745-.35-.372-.35-.744.114-.373.114-.745.244-.372.244-.744-.574-.372-.574-.744.34-.372.34-.744.164-.372.164-.744-.027-.372-.027-.744.023-.372.023-.744.071-.371.071-.743-.092-.372-.092-.744.1-.372.1-.744-.269-.371-.269-.743.287-.372.287-.744-.518-.372-.518-.744.556-.372.556-.744-.5-.372-.5-.744.316-.372.316-.744-.173-.372-.173-.744-.013-.372-.013-.744-.03-.372-.03-.745.3-.372.3-.744-.355-.373-.355-.745.175-.373.175-.746-.345-.372-.345-.745.2-.373.2-.746-.124-.373-.124-.746.519-.373.519-.746-.27-.374-.27-.747-.083-.374-.083-.747v-.748c0-.374-.317-.374-.317-.748s.512-.374.512-.748.087-.374.087-.748-.194-.373-.194-.747.308-.373.308-.747-.491-.373-.491-.746.481-.374.481-.747S2 98.929 2 98.556s-.018-.373-.018-.746-.619-.373-.619-.746.06-.373.06-.745.53-.373.53-.746-.217-.373-.217-.745.35-.373.35-.746-.009-.373-.009-.745-.308-.373-.308-.746.008-.372.008-.745-.277-.373-.277-.746.3-.373.3-.746-.095-.373-.095-.746.117-.373.117-.746.088-.373.088-.746-.333-.373-.333-.747.174-.373.174-.747-.389-.374-.389-.747.043-.374.043-.748.291-.374.291-.748.173-.375.173-.749-.473-.374-.473-.748.511-.374.511-.748-.419-.374-.419-.748-.027-.374-.027-.747.558-.374.558-.747-.223-.374-.223-.747-.112-.373-.112-.747-.019-.373-.019-.746-.277-.374-.277-.747.6-.373.6-.747-.054-.373-.054-.746-.357-.374-.357-.747.384-.374.384-.747-.56-.374-.56-.747.068-.374.068-.748.313-.374.313-.748-.047-.374-.047-.749-.062-.374-.062-.749-.241-.374-.241-.748.3-.374.3-.749.158-.374.158-.748-.27-.374-.27-.747.241-.374.241-.748-.478-.374-.478-.747.446-.374.446-.748.2-.372.2-.744-.412-.372-.412-.744.328-.373.328-.746-.154-.373-.154-.747.209-.374.209-.747-.274-.375-.274-.75.017-.374.017-.749.213-.373.213-.747-.466-.374-.466-.748.219-.373.219-.746.027-.373.027-.746.059-.372.059-.745-.1-.373-.1-.745.346-.372.346-.745-.473-.372-.473-.745.491-.372.491-.744-.629-.373-.629-.745.179-.373.179-.746-.191-.373-.191-.746.417-.373.417-.747-.3-.373-.3-.747.376-.375.376-.749.051-.375.051-.75-.465-.375-.465-.75.258-.375.258-.75-.352-.374-.352-.748.318-.374.318-.748-.2-.374-.2-.747-.011-.374-.011-.748.153-.374.153-.748-.128-.374-.128-.748.578-.374.578-.749-.365-.375-.365-.75.234-.376.234-.752-.1-.375-.1-.75-.019-.375-.019-.749.075-.375.075-.75-.223-.374-.223-.749.248-.375.248-.75-.146-.375-.146-.75-.263-.376-.263-.752-.134-.376-.134-.751-.018-.375-.018-.75.6-.375.6-.751-.506-.375-.506-.751.21-.373.21-.746-.313-.373-.313-.747.57-.375.57-.75.093-.377.093-.753-.668-.375-.668-.75.268-.375.268-.749-.209-.375-.209-.751.487-.376.487-.753-.523-.376-.523-.752.634-.376.634-.753-.576-.377-.576-.754.161-.377.161-.754.184-.376.184-.752-.38-.376-.38-.752.454-.378.454-.755-.453-.379-.453-.757.528-.379.528-.759-.013-.379-.013-.758c0-.248-.159-.493-.148-.738s.126-.483.148-.727.044-.486.078-.729-.382-.567-.337-.808.423-.423.48-.663-.221-.575-.154-.811.787-.274.865-.507-.265-.615-.176-.845.147-.48.247-.7.559-.281.669-.5.251-.413.371-.628.026-.549.156-.758.1-.532.236-.735.528-.229.676-.426.46-.252.617-.442-.031-.675.135-.857.265-.441.439-.616.611-.079.793-.245.229-.487.418-.644.509-.151.706-.3.5-.131.7-.271.4-.27.605-.4.089-.822.3-.942.463-.212.683-.322.553-.005.778-.105.49-.108.721-.2.494-.072.729-.151.372-.468.61-.536.564.208.805.152.438-.3.681-.347.5-.013.743-.047.465-.316.711-.339.514.225.762.214.491.349.739.349c.37 0 .37-.02.74-.02s.371-.03.741-.03.37-.559.74-.559.37.541.741.541.37-.633.74-.633.37.446.74.446.37.246.741.246.37-.64.74-.64.37.455.74.455.37.09.74.09.371-.5.741-.5.37.376.74.376.37.033.74.033.37-.242.741-.242.37.367.74.367.37-.595.74-.595.37.641.74.641.371-.352.741-.352.37.012.74.012.37.256.74.256.37-.594.741-.594.37.081.74.081.37.048.74.048.371-.156.741-.156.37.132.74.132.371.513.741.513.37-.313.74-.313.371-.011.741-.011.37.218.74.218.371-.133.741-.133.37-.125.741-.125.37.061.74.061S41.8 2 42.17 2s.371-.229.741-.229.37.067.741.067.37-.053.741-.053.37.028.741.028.37-.444.741-.444.37.158.741.158.37-.136.741-.136.371.57.741.57.371-.4.742-.4.37.521.741.521.371-.619.741-.619.371.6.742.6.371-.389.741-.389.371-.141.742-.141.371.254.742.254.371-.05.742-.05.371.226.742.226.371-.379.742-.379.371.385.742.385.371-.427.742-.427.371.438.743.438.371-.339.742-.339.371.049.743.049.371-.061.742-.061.372.05.743.05.372-.1.743-.1.372.194.743.194.372-.143.743-.143.372.419.744.419.371-.6.743-.6.372.407.744.407.371-.079.743-.079.372-.134.744-.134.372.182.743.182.372-.337.744-.337.372.545.743.545.372-.4.743-.4.372.355.744.355.371-.048.743-.048.371-.456.742-.456.372-.026.743-.026.372.388.743.388.371.078.743.078.371-.473.742-.473.371-.036.743-.036.371.463.742.463.371.051.742.051h.742c.371 0 .372-.1.743-.1s.371-.146.742-.146.371.35.742.35.371-.537.742-.537.371.116.742.116.371.349.741.349.371-.067.742-.067.371-.32.742-.32.371.021.742.021.371-.14.741-.14.371.594.742.594.371-.144.742-.144.37.059.741.059.371.031.742.031.37-.287.741-.287.371-.059.742-.059.37-.234.741-.234.371.485.742.485.37.079.741.079.371.021.742.021.37-.375.741-.375.371.466.742.466.37.026.741.026.371-.734.741-.734h.742c.371 0 .371.1.742.1s.37.06.741.06.371.18.742.18.37.269.741.269.371-.521.742-.521.371.534.742.534.37-.2.741-.2.371-.261.742-.261.371.518.742.518.371-.543.742-.543.371-.078.742-.078.371.47.742.47.371.1.742.1.371-.433.742-.433.371-.025.742-.025.371.012.742.012.371.443.743.443.371-.046.742-.046.371.05.743.05.371-.211.742-.211.372-.307.743-.307.371.14.743.14.371.321.743.321.371-.169.743-.169.371-.115.743-.115.372.173.743.173.372-.465.744-.465.372.293.743.293.372-.165.744-.165.372.578.744.578.372-.158.744-.158.372.062.744.062.372-.368.744-.368.372.018.744.018.372.368.743.368.372.075.744.075.372-.056.744-.056.371-.221.743-.221.372.311.743.311.372-.607.743-.607.372.381.743.381.372.117.743.117.372.007.743.007.372-.056.743-.056.372-.393.743-.393.371-.132.743-.132.371.41.742.41.371-.3.743-.3.371-.031.742-.031.372.143.743.143.371-.009.742-.009.371-.043.743-.043.371.522.742.522.371-.564.742-.564.371.012.743.012.371.513.742.513.371.02.742.02.371-.231.742-.231.372-.116.743-.116.371.09.742.09.371-.216.742-.216.372-.059.743-.059.371.339.742.339.371-.117.743-.117.371.168.742.168.371-.01.742-.01.372-.123.743-.123.371-.223.743-.223.371.1.742.1.372-.288.743-.288.371-.025.743-.025.37.115.741.115.37.186.741.186.37.321.741.321h.742c.371 0 .371.086.742.086s.371-.688.742-.688.371.344.742.344.372.29.743.29.372-.392.743-.392.372.237.744.237.372.119.744.119.372-.3.744-.3.372.255.744.255.372-.132.744-.132.372-.052.744-.052.372-.06.744-.06.371.1.743.1.372-.011.743-.011.372.29.743.29.371-.674.742-.674.372.611.743.611.371-.155.742-.155.371-.45.742-.45.371.3.741.3.371.033.742.033.37.361.741.361.371-.645.741-.645.371.467.741.467.371-.137.741-.137.37.159.74.159.371.1.741.1.37-.047.74-.047.37-.51.74-.51.37.4.74.4.37-.342.74-.342.37-.11.74-.11.37.279.74.279.37.106.74.106.369-.155.739-.155.37.141.74.141.369-.4.739-.4.37.513.74.513.369-.32.739-.32.37.414.739.414.37-.289.74-.289.369.06.739.06.369-.389.739-.389h1.479c.369 0 .369.111.739.111s.37.245.739.245.37.351.74.351.37-.219.739-.219.37.022.74.022.37.181.74.181.37-.273.739-.273.37-.327.74-.327.37.088.74.088.37-.163.74-.163.371.611.741.611.37-.589.74-.589.37.056.741.056.37.049.74.049.371.37.741.37.371-.29.741-.29.371.442.742.442.371-.684.741-.684.371.155.742.155h.742c.371 0 .371.349.743.349s.371-.433.742-.433.372.209.743.209.372.393.743.393.372-.223.744-.223.372.225.743.225.373-.658.745-.658.372.461.744.461.373.139.745.139.373-.541.745-.541.373.548.746.548.373-.573.746-.573.372.427.745.427.373-.261.745-.261.372-.1.745-.1.372.135.744.135.372.036.744.036.372-.3.744-.3.372.61.744.61.372-.438.743-.438.372.443.743.443.372-.5.743-.5h.743c.371 0 .372.6.743.6s.371-.558.743-.558.371.266.742.266.371.32.742.32.372-.7.743-.7.371.218.742.218.371-.176.742-.176.371.223.742.223.371.327.742.327.371-.381.742-.381.371.056.743.056.371-.3.742-.3.371.533.742.533.371-.265.742-.265.372.241.743.241.371.17.743.17.371-.535.742-.535.372.367.743.367.372-.13.744-.13.371.164.743.164.372-.031.744-.031.372-.057.744-.057.372-.276.744-.276.372-.1.744-.1.373.538.745.538.373.08.746.08.372-.188.745-.188.373.138.746.138.374-.2.747-.2.373-.015.746-.015.373.266.746.266.373-.455.746-.455.373.446.745.446.373-.057.745-.057.373.047.745.047.373-.635.745-.635.372.649.744.649.372-.66.745-.66.372.3.744.3h.744c.372 0 .372.171.744.171s.372-.527.743-.527.372.44.744.44.372-.194.744-.194.372.167.744.167.372.312.744.312.372-.192.745-.192.372-.466.744-.466.372.552.745.552.372-.028.744-.028.373-.191.746-.191.372.151.745.151.373-.46.746-.46.373.387.746.387.374-.255.747-.255.374.491.747.491.374-.048.747-.048.373.063.746.063.373-.67.746-.67.373.481.746.481.373-.169.746-.169h.745c.372 0 .372-.376.745-.376s.373.635.745.635.373-.193.745-.193.373-.107.745-.107.373.285.745.285.373-.2.746-.2.372.205.745.205.373-.6.746-.6.373.715.746.715.373-.137.746-.137.374.046.747.046.374-.321.748-.321.373-.056.747-.056.373-.079.747-.079.373.29.746.29.373-.361.746-.361.373.611.746.611.373-.2.746-.2.373.121.746.121.371-.6.742-.6.372.593.744.593.372.023.744.023.372-.09.745-.09.373-.551.746-.551.374.189.748.189.373.023.747.023.373.438.746.438.373-.387.746-.387.372.154.745.154.372-.23.744-.23.372-.058.744-.058.372-.014.743-.014.372.433.744.433.371-.143.743-.143.371-.355.743-.355.372.353.743.353.372-.287.744-.287.373-.142.745-.142.372.539.745.539.373.2.746.2.374-.381.747-.381.375-.1.749-.1.374-.195.749-.195.373.477.747.477.374.144.747.144.373-.087.747-.087.372-.267.745-.267.373.085.746.085.373-.09.746-.09.374.064.747.064.374-.073.748-.073.374.335.748.335.375-.126.75-.126.375-.234.749-.234.374-.065.748-.065.374-.2.748-.2.373.036.747.036.374.326.748.326.375-.356.75-.356.375.331.75.331.375-.228.749-.228.374.362.749.362.374-.235.749-.235.375-.091.75-.091.372.381.744.381.373-.463.746-.463.374.259.748.259.376-.153.751-.153.375.162.749.162.374-.226.748-.226.374.553.748.553.376-.241.753-.241.375.176.75.176.375-.083.751-.083.376.147.753.147.376-.435.752-.435.375.454.751.454.375-.63.75-.63.377.43.754.43.377-.027.755-.027.378-.426.757-.426.378.616.757.616c.248 0 .5-.428.746-.417s.463.424.708.446.492-.043.735-.009.511-.087.752-.043.469.16.709.216.457.183.694.251.511 0 .744.083.487.109.717.2.534.018.759.118.223.683.443.793.66-.2.874-.078.528.1.737.232.132.709.335.848.271.447.467.6.695-.092.885.065.235.482.417.648.508.182.683.356.07.611.236.793.472.233.63.422.123.521.272.718.287.384.427.587.629.174.759.383-.069.61.051.826.724.176.834.4-.111.6-.011.829.539.317.629.547-.184.6-.105.83.292.426.36.664.231.455.288.7-.237.553-.192.8.02.487.054.732.084.476.106.722.558.458.57.706-.679.507-.679.755c0 .371.716.371.716.743s-.411.372-.411.744-.1.372-.1.744-.107.372-.107.744.42.373.42.745-.14.372-.14.744-.3.372-.3.745.26.372.26.744-.09.373-.09.745.046.372.046.745.208.372.208.744-.292.372-.292.744-.182.373-.182.745.113.372.113.744.531.372.531.744-.652.372-.652.744.1.372.1.744.611.372.611.744-.215.372-.215.744-.1.371-.1.743.192.372.192.744.007.372.007.743-.589.372-.589.744.694.371.694.743-.277.372-.277.743-.383.372-.383.744.5.371.5.743-.483.371-.483.743.325.371.325.743-.143.371-.143.743-.2.371-.2.742.2.372.2.743.3.372.3.743.125.371.125.743-.674.371-.674.742.518.371.518.743.037.371.037.742-.4.371-.4.743.236.371.236.742-.226.371-.226.742.009.371.009.743-.007.371-.007.742.273.371.273.742-.032.371-.032.742-.389.371-.389.742.718.371.718.742-.641.371-.641.742.146.371.146.742.428.371.428.742-.378.371-.378.742.36.371.36.742-.026.371-.026.742-.414.371-.414.742.236.371.236.742-.3.371-.3.742.034.371.034.742.162.371.162.742.3.37.3.741.044.371.044.742-.1.371-.1.742-.559.371-.559.742.181.371.181.742-.113.371-.113.741.235.371.235.742.074.371.074.742-.094.371-.094.742-.271.371-.271.742.26.371.26.742.392.371.392.742-.667.371-.667.741.006.371.006.742.55.371.55.742-.1.371-.1.742-.462.371-.462.742.412.371.412.742.23.371.23.742-.443.371-.443.742.4.372.4.743-.219.371-.219.742.11.371.11.742-.267.371-.267.742-.035.371-.035.743.194.371.194.742.007.371.007.742.287.371.287.743-.449.371-.449.742.172.372.172.743.318.371.318.742-.359.372-.359.743-.026.372-.026.743.188.371.188.743-.164.371-.164.743.3.371.3.743-.435.371-.435.743.071.371.071.743-.094.372-.094.743.406.372.406.744-.4.371-.4.743.28.372.28.743.118.372.118.744-.222.372-.222.744.135.372.135.744.142.372.142.743-.613.372-.613.744.126.373.126.745-.013.372-.013.744.524.372.524.744-.325.372-.325.745v.744c0 .372-.239.373-.239.745s.276.372.276.745-.131.372-.131.745.221.372.221.745-.181.372-.181.745-.085.373-.085.745.384.373.384.745-.587.373-.587.745.3.373.3.745-.334.373-.334.745-.013.372-.013.745.537.372.537.744-.287.373-.287.745.032.372.032.744.161.372.161.744-.178.372-.178.745-.135.372-.135.744.283.372.283.744-.018.372-.018.744.076.371.076.743.17.372.17.744.056.372.056.744-.137.372-.137.744.158.371.158.743-.387.372-.387.744.182.371.182.743.135.372.135.743-.372.372-.372.744-.081.371-.081.743.416.372.416.743.03.372.03.744-.323.371-.323.743.412.371.412.743-.022.371-.022.743-.414.372-.414.743.247.372.247.743-.1.372-.1.743.057.372.057.743-.489.372-.489.743.009.372.009.743.612.372.612.743-.077.372-.077.743.028.372.028.743-.14.372-.14.743.119.372.119.743.087.372.087.743-.27.372-.27.743.074.372.074.744.216.371.216.743-.388.371-.388.743.014.371.014.743.021.372.021.743-.165.372-.165.743.3.372.3.744-.45.371-.45.743.39.372.39.744.169.371.169.743-.436.372-.436.744.16.371.16.743.26.372.26.744-.3.372-.3.744-.2.371-.2.743.291.372.291.744.247.372.247.744-.247.372-.247.744.185.372.185.745-.3.372-.3.744.325.372.325.744-.284.373-.284.745.307.372.307.744-.158.373-.158.745-.242.373-.242.745.389.372.389.745-.415.373-.415.745.2.373.2.745-.2.373-.2.746.569.373.569.745.017.373.017.746-.061.373-.061.745.037.373.037.746.032.373.032.745-.693.373-.693.745.585.373.585.745-.415.373-.415.745.117.373.117.745-.11.372-.11.745.27.372.27.744-.007.373-.007.745-.032.372-.032.744-.106.373-.106.745.115.372.115.744.026.372.026.744-.015.372-.015.744-.208.373-.208.745-.262.372-.262.744.264.372.264.744-.032.372-.032.744-.154.372-.154.744.192.372.192.743.127.372.127.744-.213.372-.213.744.26.372.26.744-.4.372-.4.744.01.372.01.744.577.372.577.744-.544.372-.544.743.548.372.548.744-.568.372-.568.744-.024.372-.024.744.144.372.144.744.207.372.207.744.1.372.1.744-.239.372-.239.744-.226.372-.226.744.306.373.306.745.27.372.27.744-.195.372-.195.744-.11.373-.11.745.383.371.383.742-.107.372-.107.743-.28.372-.28.743.425.372.425.744-.568.372-.568.744-.16.372-.16.744.193.372.193.744-.079.373-.079.745.189.372.189.745.444.373.444.745-.231.373-.231.746.069.373.069.746-.194.373-.194.746-.02.372-.02.745.178.373.178.745.167.372.167.745-.457.372-.457.744-.232.373-.232.745.14.372.14.744.247.372.247.744-.108.372-.108.743.008.372.008.744-.216.371-.216.743-.055.371-.055.743.237.371.237.743-.2.371-.2.742.134.372.134.743-.18.371-.18.742.322.371.322.742-.274.371-.274.742.232.371.232.742-.255.371-.255.742.04.371.04.741.174.371.174.742.414.371.414.741-.439.371-.439.742.083.37.083.741-.227.37-.227.741.034.37.034.741.368.37.368.741-.018.37-.018.741-.1.37-.1.741-.348.37-.348.741.366.37.366.74-.168.371-.168.741.119.371.119.741-.272.37-.272.741.187.37.187.741-.038.37-.038.741.192.37.192.741-.163.37-.163.74.317.371.317.742-.409.37-.409.741.421.37.421.741-.532.371-.532.741.306.371.306.742.013.37.013.741.091.371.091.742-.09.371-.09.742-.341.37-.341.741.562.371.562.743.02.371.02.742v.742c0 .372-.432.372-.432.743s.425.371.425.743.069.371.069.743-.44.372-.44.743.131.372.131.744-.194.372-.194.744.553.372.553.744-.5.372-.5.744.467.373.467.745v.745c0 .372-.075.373-.075.745s-.358.373-.358.746.155.373.155.746-.414.373-.414.747.684.373.684.746-.188.374-.188.748-.369.373-.369.747-.075.373-.075.747.1.373.1.746-.05.373-.05.747.188.373.188.746-.216.372-.216.745.223.373.223.746.287.372.287.745-.236.372-.236.745-.2.372-.2.745.326.372.326.744-.372.372-.372.745.169.372.169.744-.272.372-.272.744.116.372.116.744.252.372.252.744.13.372.13.744-.008.371-.008.743.225.372.225.744-.536.372-.536.744.352.371.352.743-.367.372-.367.744.557.372.557.744-.386.372-.386.743.21.372.21.744-.114.372-.114.744.189.372.189.744.047.372.047.744-.488.373-.488.745.167.372.167.744.218.373.218.745-.164.373-.164.745-.028.373-.028.745.287.373.287.746-.3.373-.3.745.293.374.293.747-.463.373-.463.746.138.373.138.747.376.373.376.747.024.374.024.748-.232.374-.232.748.154.374.154.748-.237.374-.237.747.114.374.114.748-.128.373-.128.747-.185.373-.185.746.391.373.391.747-.6.373-.6.746.6.373.6.746-.262.373-.262.745-.311.373-.311.746.458.373.458.746-.147.372-.147.745.124.373.124.745-.427.373-.427.746.179.373.179.745.251.373.251.746-.41.373-.41.745.283.373.283.746-.048.373-.048.746-.078.373-.078.746-.048.374-.048.747.176.373.176.746.235.374.235.747-.415.374-.415.748-.074.374-.074.748.641.374.641.748-.542.374-.542.749.2.374.2.748-.151.374-.151.748.245.374.245.748-.252.373-.252.747.173.373.173.747-.359.373-.359.747.576.373.576.746-.532.374-.532.747.208.373.208.747.09.373.09.746-.378.374-.378.747.665.373.665.747.052.373.052.747-.563.373-.563.747.422.374.422.748.146.374.146.748-.326.374-.326.748-.135.375-.135.749.3.375.3.749-.222.374-.222.748-.359.374-.359.748.079.374.079.748.454.374.454.748-.522.373-.522.747.521.374.521.747-.148.372-.148.744-.335.373-.335.745.224.373.224.746-.247.373-.247.746.263.374.263.748-.058.375-.058.749.08.375.08.749.168.374.168.748-.1.374-.1.747-.146.373-.146.747.063.373.063.745-.018.373-.018.746.129.372.129.745.332.372.332.745-.171.372-.171.744-.486.373-.486.745.1.373.1.745.251.373.251.745.008.373.008.746-.271.374-.271.747-.105.374-.105.748.532.374.532.749-.577.375-.577.75.008.375.008.75-.019.375-.019.749.089.375.089.749.277.374.277.748.35.373.35.747-.4.374-.4.748.1.373.1.747-.223.374-.223.748.35.375.35.749-.44.376-.44.751-.046.375-.046.751.052.375.052.751.165.374.165.749-.013.375-.013.749-.2.375-.2.749.563.375.563.75-.42.376-.42.751.056.376.056.752-.117.375-.117.75.346.376.346.751-.387.375-.387.75.006.376.006.752.262.373.262.745-.138.374-.138.748-.209.375-.209.75.438.376.438.753.116.375.116.75-.3.374-.3.749.022.375.022.75-.054.377-.054.754.288.376.288.752-.533.376-.533.752.2.378.2.755.374.377.374.753-.056.377-.056.753.071.376.071.752-.263.377-.263.755-.314.378-.314.757.036.379.036.758.03.38.03.759c0 .248.608.51.6.755s-.229.49-.252.735-.091.492-.125.735.173.539.129.78-.429.423-.485.662.2.57.132.806-.8.27-.877.5.165.575.076.805-.189.455-.289.68.114.607 0 .827-.743.168-.863.383-.019.556-.149.765-.149.5-.288.7-.134.526-.283.722-.309.405-.467.594-.321.4-.487.579-.389.331-.563.506-.562.135-.744.3-.389.305-.578.462-.355.347-.551.5-.553.068-.756.208-.291.443-.5.573-.485.138-.7.259-.321.439-.542.549-.34.455-.566.555-.566-.058-.8.031-.455.2-.689.279-.447.239-.685.307-.577-.275-.818-.219-.487.007-.73.052-.438.3-.683.335-.441.51-.688.532-.532-.547-.779-.535-.458.533-.706.533z" fill="none" stroke="#006d88" stroke-miterlimit="10" stroke-width="2.726" data-name="レイヤー 2"/></svg>