<svg xmlns="http://www.w3.org/2000/svg" width="963.942" height="148" viewBox="0 0 963.942 148"><path d="M891.677 146.273c-.624 0-.624-1.468-1.249-1.468s-.624.463-1.249.463-.625-.063-1.249-.063-.625.867-1.25.867-.624.278-1.249.278-.625-1.586-1.249-1.586-.625 1.307-1.25 1.307-.624-1.093-1.249-1.093-.625-.016-1.249-.016-.625 1.34-1.25 1.34-.625-.7-1.249-.7-.625-.958-1.25-.958-.625.981-1.25.981-.624-.878-1.249-.878-.625-.109-1.25-.109-.625 1.354-1.25 1.354-.625-.453-1.249-.453-.625-.482-1.25-.482-.625 1.257-1.25 1.257-.625-.894-1.25-.894-.625-.619-1.25-.619-.625.927-1.25.927-.625-.243-1.25-.243-.625.6-1.25.6-.626-1.029-1.251-1.029-.625.7-1.25.7-.625-.139-1.25-.139-.626-.827-1.251-.827-.625 1.483-1.25 1.483-.626-.578-1.251-.578-.625-.993-1.251-.993-.625 1.374-1.25 1.374-.626-1.023-1.251-1.023-.626-.069-1.251-.069-.626.854-1.251.854-.626-1.028-1.251-1.028-.626 1.692-1.251 1.692-.626-.04-1.251-.04-.626-.851-1.252-.851-.625.586-1.251.586-.626-1.025-1.251-1.025-.626.127-1.251.127-.626 1.025-1.251 1.025-.626-1.024-1.251-1.024-.626-.676-1.251-.676-.626 1.2-1.251 1.2-.626-.68-1.251-.68-.625 1.332-1.251 1.332-.625-.319-1.25-.319-.626-1-1.251-1-.625 1.127-1.251 1.127-.625-1.427-1.25-1.427-.625.744-1.25.744-.626.705-1.251.705-.625-.876-1.25-.876-.625 1-1.25 1-.625-.991-1.251-.991-.625-.069-1.25-.069-.625.57-1.25.57-.625-.966-1.25-.966-.625 1.341-1.25 1.341-.625-.4-1.25-.4-.625.526-1.25.526-.625-.516-1.25-.516-.625.431-1.25.431-.624-1.136-1.249-1.136-.625.748-1.25.748-.625-.229-1.25-.229-.625-.828-1.25-.828-.625.484-1.249.484-.625 1.106-1.25 1.106-.625-1.151-1.25-1.151-.624-.723-1.249-.723-.625.954-1.25.954-.625-.265-1.25-.265-.624-.621-1.249-.621-.625-.034-1.25-.034-.624.6-1.249.6-.625-.218-1.25-.218-.624.009-1.249.009-.625.7-1.25.7-.624-.214-1.249-.214-.625-.55-1.25-.55-.624 1.484-1.249 1.484-.625-1.849-1.25-1.849-.624 1.224-1.249 1.224-.625-.334-1.25-.334-.624.449-1.249.449-.625.2-1.25.2-.625-.231-1.249-.231-.625.346-1.25.346-.625-1.473-1.249-1.473-.625 1.045-1.25 1.045-.625-1.053-1.25-1.053-.624.349-1.249.349-.625.537-1.25.537-.625-.3-1.249-.3-.625 1.119-1.25 1.119-.625-1.012-1.25-1.012-.625.632-1.249.632-.625.285-1.25.285-.625-1.1-1.25-1.1-.625.756-1.25.756-.625-.692-1.25-.692-.625-.443-1.25-.443-.622 1.144-1.244 1.144-.623.014-1.245.014-.622.2-1.245.2-.622-.14-1.245-.14-.622.24-1.244.24-.623-.885-1.245-.885-.622.78-1.245.78-.622-.72-1.244-.72-.623.338-1.245.338-.622.268-1.245.268-.622-1.145-1.244-1.145-.622.967-1.245.967-.622-.161-1.244-.161-.623-.36-1.245-.36-.622.138-1.244.138-.623-.825-1.245-.825-.622-.179-1.245-.179-.622.774-1.244.774-.622.836-1.245.836-.622-.65-1.244-.65-.623.757-1.245.757-.622-.928-1.245-.928-.622-.346-1.244-.346-.623 1.025-1.245 1.025-.622-.238-1.245-.238-.622.459-1.244.459-.623-.361-1.245-.361-.622-1.068-1.245-1.068-.622.589-1.244.589-.623 1.039-1.245 1.039-.623-1.3-1.245-1.3-.623.156-1.245.156-.622.658-1.245.658-.622.449-1.245.449-.622-1.743-1.245-1.743-.622 1.48-1.245 1.48-.622-.057-1.245-.057-.622-1.242-1.245-1.242-.623.079-1.245.079-.623 1.47-1.245 1.47-.623-.165-1.246-.165-.622-.285-1.245-.285-.623-.319-1.246-.319-.622-.865-1.245-.865-.623.375-1.246.375-.622.905-1.245.905-.623.038-1.246.038-.623-.012-1.246-.012-.622-1.513-1.245-1.513-.623 1.283-1.246 1.283-.623.271-1.246.271-.623-1.393-1.246-1.393-.623 1.362-1.246 1.362-.624-1.027-1.247-1.027-.623.346-1.246.346-.623.732-1.246.732-.624.089-1.247.089-.623.212-1.247.212-.623-.561-1.246-.561-.624.28-1.247.28-.624.15-1.247.15-.624-1.107-1.247-1.107-.624.24-1.247.24-.624-.739-1.248-.739-.623.175-1.247.175-.624 1.309-1.247 1.309-.624-1.217-1.248-1.217-.624 1.3-1.248 1.3-.624-1.684-1.248-1.684-.624 1.824-1.248 1.824-.624-1.095-1.248-1.095-.624-.366-1.248-.366-.624.1-1.248.1-.625 1.355-1.249 1.355-.624-1.665-1.249-1.665-.624 1.539-1.248 1.539-.625-.293-1.249-.293-.625-.679-1.25-.679-.624.843-1.249.843-.625-1.212-1.249-1.212-.625.644-1.25.644-.625-.856-1.25-.856-.625 1.453-1.25 1.453-.625-.991-1.25-.991-.625-.266-1.25-.266-.625.169-1.25.169-.626 1.091-1.251 1.091-.625-1.257-1.251-1.257-.625.443-1.251.443-.625.733-1.251.733-.625-.444-1.251-.444-.626-.333-1.252-.333-.626.569-1.251.569-.626-1.305-1.252-1.305-.626.185-1.252.185-.627.57-1.253.57-.626 1.095-1.252 1.095-.626-1.214-1.253-1.214-.626.039-1.252.039-.626-.606-1.252-.606-.626.446-1.251.446-.626-.32-1.252-.32-.626.889-1.252.889-.625-.669-1.251-.669-.625-.171-1.251-.171-.626.839-1.251.839-.626-.5-1.251-.5-.625-.441-1.251-.441-.625 1.183-1.25 1.183-.625.1-1.251.1-.625.131-1.25.131-.625-.846-1.25-.846-.625.378-1.25.378-.625-.939-1.25-.939-.625.132-1.25.132-.625.509-1.249.509-.625-.6-1.25-.6-.625.62-1.249.62-.625 1.085-1.25 1.085-.624-1.422-1.249-1.422-.624-.115-1.249-.115-.625.432-1.249.432-.625.238-1.249.238-.624-.139-1.249-.139-.624-.2-1.248-.2-.625.741-1.249.741-.624-.649-1.249-.649-.624-.131-1.248-.131-.624-.218-1.249-.218-.624.341-1.248.341-.624 1.013-1.248 1.013-.624-.568-1.248-.568-.624.628-1.248.628-.624-1.2-1.248-1.2-.624.791-1.248.791-.624.125-1.248.125-.624-1.553-1.248-1.553-.624 1.255-1.248 1.255-.624-1.021-1.248-1.021-.624 1.6-1.248 1.6-.624-.723-1.248-.723-.623.55-1.247.55-.624.037-1.248.037-.624-1.327-1.248-1.327-.623.166-1.247.166-.624-.257-1.248-.257-.624.45-1.247.45-.624.9-1.248.9-.624-1.148-1.248-1.148-.623-.036-1.247-.036-.624.244-1.248.244-.624-.318-1.248-.318-.623.114-1.247.114-.624 1.316-1.248 1.316-.624-1.391-1.247-1.391-.624-.44-1.248-.44-.624.351-1.248.351-.624 1.253-1.248 1.253-.623-.728-1.247-.728-.624.381-1.248.381-.624-.926-1.248-.926-.624-.233-1.248-.233-.624 1.411-1.248 1.411-.624-.911-1.248-.911-.624-.368-1.248-.368-.624 1.576-1.248 1.576-.624-.155-1.248-.155-.624-.579-1.249-.579-.624-.068-1.248-.068-.624-.309-1.248-.309-.625.98-1.249.98-.624-1.431-1.248-1.431-.625.694-1.249.694-.624-.358-1.249-.358-.624-.423-1.249-.423-.624.443-1.249.443-.624 1.289-1.249 1.289-.624-.339-1.249-.339-.625-.406-1.249-.406-.625-.339-1.25-.339-.625-.78-1.25-.78-.624 1.437-1.249 1.437-.625-.8-1.25-.8-.625-.66-1.25-.66-.625 1.63-1.25 1.63-.625-.6-1.251-.6-.625.193-1.25.193-.625-.865-1.251-.865-.625-.3-1.25-.3-.626.048-1.251.048-.626.283-1.251.283-.626 1.248-1.252 1.248-.626-1.308-1.251-1.308-.626.211-1.252.211-.626-.261-1.252-.261-.626 1.555-1.252 1.555-.626-1.052-1.252-1.052-.626.576-1.253.576-.626.007-1.252.007-.627.14-1.253.14-.627-.613-1.253-.613-.627.673-1.254.673-.626-1.09-1.253-1.09-.627.3-1.253.3-.627-.569-1.253-.569-.627-.046-1.253-.046-.626.4-1.252.4-.627-.346-1.253-.346-.626-.009-1.252-.009-.626.878-1.252.878-.626-.689-1.252-.689-.626-.143-1.252-.143-.625.434-1.251.434-.626.361-1.252.361-.625-.684-1.251-.684-.626.352-1.251.352-.626-.1-1.251-.1-.626.034-1.251.034-.625-.281-1.251-.281-.625.637-1.251.637-.625-.14-1.25-.14-.625.544-1.251.544-.625-.4-1.25-.4-.625-.544-1.25-.544-.625.993-1.25.993-.625-1.176-1.25-1.176-.625.979-1.25.979-.625.189-1.25.189-.625-1.134-1.25-1.134-.625 1.551-1.25 1.551-.625-1.807-1.25-1.807-.625 1.126-1.25 1.126-.625.31-1.249.31-.625-1.108-1.25-1.108-.625.333-1.25.333-.625 1.068-1.249 1.068-.625-.207-1.25-.207-.625-.014-1.25-.014-.624-.861-1.249-.861-.625.842-1.25.842-.625-1.011-1.249-1.011-.625-.532-1.25-.532-.625.143-1.25.143-.625.486-1.249.486-.625 1.226-1.25 1.226-.625-.509-1.25-.509-.625-1.179-1.25-1.179-.625 1.443-1.25 1.443-.625-1.225-1.25-1.225-.625.683-1.25.683-.625.31-1.25.31-.625.123-1.25.123-.625-.241-1.25-.241-.626.158-1.251.158-.625-1-1.25-1-.626 1.343-1.251 1.343-.625-.534-1.251-.534-.625.187-1.25.187-.626-.679-1.251-.679-.626-.378-1.252-.378-.625.395-1.251.395-.626.424-1.251.424-.626-.285-1.252-.285-.626.984-1.252.984-.626-.756-1.252-.756-.626.314-1.252.314-.626.095-1.252.095-.626-1.289-1.253-1.289-.626 1.053-1.252 1.053-.627-.083-1.253-.083-.627-1.128-1.253-1.128-.627.635-1.254.635-.627-.2-1.253-.2-.627.855-1.254.855-.627-.481-1.254-.481-.627.3-1.254.3-.627-.871-1.254-.871-.626 1.344-1.253 1.344-.627-1.407-1.253-1.407-.627 1.1-1.253 1.1-.627-1-1.253-1-.627.47-1.253.47-.626.054-1.252.054-.627-.836-1.253-.836-.626.94-1.252.94-.626-.091-1.252-.091-.626.981-1.252.981-.626-.421-1.252-.421-.625-.176-1.251-.176-.626-.945-1.252-.945-.626 1.187-1.251 1.187-.626-1.515-1.252-1.515-.625 1.428-1.251 1.428-.626-1.368-1.251-1.368-.626 1.012-1.251 1.012h-1.252c-.626 0-.625-.791-1.251-.791s-.625 1.067-1.251 1.067-.625-.478-1.251-.478-.625.443-1.251.443-.625-.636-1.251-.636-.625-.316-1.251-.316-.625 1.5-1.251 1.5-.625-.743-1.251-.743-.625-1.083-1.251-1.083-.626.629-1.251.629-.626-.577-1.251-.577-.626 1.648-1.252 1.648-.625.068-1.251.068-.626-1.4-1.251-1.4-.626.226-1.252.226-.626-.525-1.252-.525-.626.118-1.251.118-.626.2-1.252.2-.626-.324-1.252-.324-.626 1.012-1.253 1.012-.626-.084-1.252-.084-.626.576-1.252.576-.627-.845-1.253-.845-.627.02-1.253.02-.627.832-1.253.832-.627-.468-1.254-.468-.626.285-1.253.285-.627-.989-1.254-.989-.627.578-1.254.578-.627-.71-1.255-.71-.627 1.16-1.254 1.16-.627.122-1.254.122-.627.1-1.254.1-.627-1.038-1.254-1.038-.627.658-1.254.658-.626-.2-1.253-.2-.627-.726-1.253-.726-.627.9-1.253.9-.627.04-1.253.04-.626.525-1.253.525-.626-.71-1.252-.71-.627-.1-1.253-.1-.626.641-1.252.641-.626-1.029-1.253-1.029-.626 1.1-1.252 1.1-.626-.937-1.252-.937-.626.277-1.252.277-.626.341-1.252.341-.626-1.452-1.252-1.452-.626.45-1.252.45-.626.619-1.252.619-.626-.915-1.252-.915-.626 1.595-1.252 1.595-.626-1.144-1.252-1.144-.627 1.3-1.253 1.3-.626-1.306-1.252-1.306-.626.05-1.252.05-.627-.272-1.253-.272-.626.64-1.253.64-.626-.645-1.252-.645-.627 1.011-1.253 1.011-.627-.482-1.253-.482-.627-.045-1.254-.045-.627-.751-1.253-.751-.627.631-1.254.631-.627 1.163-1.254 1.163-.627-1.408-1.254-1.408-.628-.321-1.255-.321-.627.292-1.255.292-.627 1.117-1.254 1.117-.628-.252-1.255-.252-.627.348-1.254.348-.627-1.158-1.254-1.158-.627-.471-1.254-.471-.626.838-1.253.838-.627-.1-1.254-.1-.626-.012-1.253-.012-.626.679-1.253.679-.627-.138-1.253-.138-.627-.46-1.253-.46-.626 1.028-1.253 1.028-.626-.38-1.253-.38-.626-.709-1.252-.709-.627-.009-1.253-.009-.627.092-1.253.092-.626.806-1.253.806-.626-1.376-1.253-1.376-.626.981-1.253.981-.626-.4-1.253-.4-.626-.569-1.253-.569-.627 1.237-1.253 1.237-.627-.65-1.254-.65-.627.86-1.254.86-.627.035-1.254.035-.627-.17-1.254-.17-.627-1.141-1.254-1.141-.627.212-1.255.212-.627 1.161-1.255 1.161-.627-1.275-1.255-1.275-.627.807-1.255.807-.627-1.187-1.254-1.187-.627 1.46-1.254 1.46-.627-1.081-1.254-1.081-.627.148-1.254.148-.627.052-1.254.052-.627.15-1.253.15-.627.322-1.254.322-.627.3-1.253.3-.627-.931-1.254-.931-.626 1.175-1.253 1.175-.625-1.1-1.25-1.1-.624.352-1.249.352-.625-.338-1.249-.338-.625-.281-1.25-.281-.624.5-1.249.5-.624.5-1.248.5-.625-.166-1.249-.166-.625-1.193-1.249-1.193-.624.351-1.249.351-.624.507-1.248.507-.625.393-1.249.393-.625.108-1.249.108-.625-.136-1.249-.136-.625.507-1.249.507-.625-1.024-1.25-1.024-.625-.6-1.249-.6-.625.1-1.25.1-.625.193-1.25.193-.626.9-1.251.9-.625-.115-1.251-.115-.625-.5-1.251-.5-.626-.159-1.252-.159-.626-.376-1.252-.376-.627.912-1.253.912-.627.406-1.253.406-.627-.813-1.254-.813-.628.365-1.255.365-.628.231-1.256.231-.628.116-1.256.116-.628-.349-1.256-.349-.627-.529-1.255-.529-.627-.053-1.255-.053-.627-.065-1.254-.065-.627.061-1.254.061-.626.709-1.253.709-.626.6-1.253.6-.626-1.754-1.253-1.754-.626 1-1.252 1-.626.212-1.252.212-.626.354-1.252.354-.626-.864-1.252-.864-.625.253-1.251.253-.626.241-1.252.241-.626-.85-1.252-.85-.626.782-1.252.782-.626.263-1.252.263-.626-1.232-1.252-1.232-.626 1.686-1.252 1.686-.627-1.112-1.253-1.112-.627.418-1.254.418-.627-.269-1.253-.269-.628-.06-1.255-.06-.627.1-1.255.1-.628.87-1.256.87-.628-1.363-1.256-1.363-.629.132-1.257.132-.629.109-1.257.109-.628.326-1.256.326-.628-.141-1.255-.141-.628-.081-1.255-.081-.627.048-1.254.048-.627 1.026-1.254 1.026-.627-.8-1.254-.8-.627-.008-1.254-.008-.627.493-1.254.493-.626-.448-1.253-.448-.627-.369-1.254-.369-.627-.058-1.254-.058-.627.7-1.255.7-.627-.312-1.254-.312-.628-.581-1.256-.581-.628 1.187-1.256 1.187-.628-.129-1.257-.129-.628-.876-1.257-.876-.629-.418-1.258-.418-.628 1.38-1.256 1.38-.628-.618-1.256-.618-.628-.352-1.256-.352-.627.526-1.255.526-.628-.781-1.255-.781-.628.779-1.255.779-.628.294-1.255.294-.628.193-1.256.193-.627-.145-1.255-.145-.628-1.528-1.257-1.528-.628.072-1.257.072-.629.162-1.258.162-.629 1.454-1.257 1.454-.629-1.517-1.258-1.517-.628.431-1.256.431-.628 1.255-1.256 1.255-.628-.878-1.256-.878-.628.66-1.256.66-.628-.42-1.256-.42-.629-1.078-1.257-1.078-.629.229-1.258.229-.629.728-1.258.728-.629-.534-1.258-.534-.629.286-1.257.286-.629.961-1.257.961-.629-.54-1.257-.54-.628.3-1.257.3-.629.2-1.257.2-.63-1.273-1.259-1.273-.629.493-1.258.493-.628-.379-1.256-.379-.627-.426-1.255-.426-.626-.127-1.253-.127-.627 1.363-1.254 1.363-.626-.543-1.253-.543-.626-.5-1.253-.5-.627 1.35-1.254 1.35-.628-.424-1.256-.424-.629.347-1.258.347-.63-1.171-1.26-1.171-.629-.16-1.258-.16-.628.986-1.257.986-.628-.863-1.256-.863-.628-.368-1.256-.368-.628 1.22-1.257 1.22-.629.539-1.259.539-.63-.034-1.26-.034-.629-1.6-1.258-1.6-.629 1.347-1.258 1.347-.629-.618-1.258-.618-.631-.179-1.261-.179-.63-.008-1.26-.008-.629-.664-1.259-.664-.63 1.515-1.26 1.515-.63.206-1.261.206-.63-.422-1.26-.422-.631-1.056-1.261-1.056-.628.3-1.256.3-.631.58-1.262.58-.629.273-1.259.273-.629-.254-1.258-.254-.632-.341-1.263-.341-.631.169-1.261.169-.632.179-1.263.179-.632-1.029-1.264-1.029-.631 1.638-1.262 1.638-.632-1.678-1.264-1.678-.638 1.265-1.268 1.265-.634-.078-1.268-.078c-.416 0-.829-.612-1.244-.619s-.859.838-1.274.824-.773-1.371-1.188-1.393-.809-.184-1.224-.213-.929 1.224-1.342 1.188-.787-.557-1.2-.6-.936.775-1.347.724-.752-.733-1.163-.792-.907.369-1.316.3-.685-.971-1.093-1.045-.676-.86-1.084-.94-.857.1-1.262.009-.829-.065-1.233-.16-.867.065-1.269-.037-.977.433-1.378.323-.694-.618-1.092-.735-.981.344-1.377.22-.81-.239-1.2-.37-.455-1.246-.847-1.384-.936.149-1.325 0-.817-.2-1.2-.353-.75-.374-1.133-.533-.764-.337-1.144-.5-.457-1-.835-1.177-1 .181-1.371 0-1.138.414-1.509.227.063-1.942-.3-2.135-1.135.376-1.5.177-.564-.689-.924-.9-.916-.073-1.273-.286-1.026.077-1.379-.142-.7-.472-1.047-.7-.318-1.038-.664-1.269-.658-.506-1-.743-.437-.811-.773-1.054-.453-.764-.786-1.014-1.528.638-1.856.383.224-1.616-.1-1.877-1.121.069-1.439-.2-.263-.961-.577-1.233-1.266.183-1.575-.094-.547-.64-.851-.923-.039-1.159-.338-1.448-1.169.01-1.463-.284-.449-.725-.737-1.024.02-1.154-.263-1.458-.49-.657-.767-.966-1.382.119-1.654-.195-.794-.423-1.061-.742.381-1.386.12-1.709-1.008-.255-1.263-.583-.753-.472-1-.8-.751-.488-.995-.825-.036-1-.273-1.341-.809-.459-1.04-.805-.247-.838-.472-1.187-.043-.955-.262-1.308-.145-.874-.357-1.232-1.206-.255-1.412-.616-.255-.813-.454-1.177.062-.973-.131-1.341-.371-.735-.557-1.106-.95-.457-1.13-.832-.842-.533-1.015-.911.473-1.126.307-1.507.276-1.011.116-1.395-.6-.641-.752-1.028-.867-.554-1.012-.943-.6-.671-.741-1.063.441-1.031.31-1.426-.947-.568-1.071-.965.751-1.094.634-1.493-1.633-.4-1.743-.8-.232-.814-.335-1.217-.08-.85-.175-1.255-.237-.812-.325-1.218-.141-.833-.222-1.24 1.358-1.1 1.284-1.51-1.391-.6-1.457-1.014-.067-.838-.126-1.25.022-.847-.03-1.26-.24-.815-.284-1.229.125-.851.089-1.266-.816-.778-.845-1.194.687-.885.665-1.3-.024-.833-.039-1.249.487-.843.48-1.26.432-.825.432-1.242c0-.571-1.131-.571-1.131-1.142S1.88 74 1.88 73.429s1.2-.573 1.2-1.146c0-.416-1.387-.843-1.38-1.258s-.043-.844-.028-1.259 1.168-.783 1.19-1.2.481-.792.511-1.206-.347-.849-.311-1.263-1.149-.95-1.105-1.362 1.471-.669 1.522-1.08-.147-.85-.088-1.261.051-.826.117-1.236.566-.737.64-1.146-.142-.861-.062-1.269-.8-1.016-.717-1.422 1.079-.609 1.174-1.013-.053-.864.049-1.266S3.9 54 4.012 53.6s.239-.811.356-1.209S5.974 52 6.1 51.607s-.6-1.063-.469-1.457.542-.694.681-1.086.862-.564 1.007-.953-1.072-1.3-.92-1.688 1.114-.453 1.274-.836.7-.6.87-.978.27-.781.443-1.158.4-.722.577-1.1.521-.658.707-1.029.164-.839.357-1.207.614-.6.813-.966-.2-1.056.007-1.417 1.045-.344 1.258-.7-.7-1.4-.484-1.75 1.638.055 1.863-.3-.619-1.4-.387-1.741 1.13-.235 1.367-.576.116-.934.359-1.271.465-.69.715-1.023.44-.712.7-1.04 1.1-.181 1.364-.5-.176-1.217.09-1.536.876-.347 1.149-.661-.109-1.212.169-1.521.947-.271 1.23-.575.345-.828.633-1.127 1.522.333 1.816.04.1-1.072.4-1.361.455-.728.759-1.011.614-.563.924-.841.093-1.164.406-1.436 1.481.449 1.8.182.774-.353 1.1-.614.337-.9.665-1.158 1.128.122 1.46-.127-.078-1.5.258-1.744 1.382.52 1.723.283.57-.615.915-.846.658-.49 1.008-.715-.141-1.784.213-2 .8-.311 1.158-.523 1.4.744 1.759.538.449-.888.813-1.087 1.145.395 1.513.2.713-.394 1.084-.58.39-1.072.765-1.252.757-.337 1.135-.509.468-1 .849-1.165 1.069.381 1.453.221.676-.54 1.063-.693.881-.019 1.27-.165.85-.074 1.242-.213.509-1.077.9-1.208.929.163 1.326.039.514-1.2.913-1.314.837-.125 1.237-.235 1 .5 1.4.4.908.227 1.313.132.548-1.364.954-1.452 1.08 1.1 1.488 1.023.619-1.207 1.029-1.281.818-.212 1.229-.278 1.033 1.279 1.445 1.22.742-.681 1.157-.733.792-.381 1.206-.425.823-.135 1.238-.171.781-.775 1.2-.8.926 1.481 1.342 1.459.812-.176 1.228-.191.806-.935 1.223-.942.837.967 1.254.967c.625 0 .625-1.429 1.249-1.429s.625.175 1.25.175.624.8 1.249.8.624-.119 1.249-.119.625-.159 1.249-.159.625-.613 1.25-.613.624.758 1.249.758.625.4 1.249.4.625-.691 1.25-.691.625.617 1.249.617.625-1.22 1.25-1.22S86.47 2.7 87.094 2.7s.625.5 1.25.5.625-1.051 1.25-1.051.625.838 1.249.838.625-.392 1.25-.392.625.538 1.25.538.625-.7 1.25-.7.625.041 1.25.041.625.544 1.25.544.625-1.188 1.25-1.188.625.559 1.25.559.625.069 1.25.069.625.15 1.25.15.625-.267 1.25-.267.625.881 1.251.881.625-1.206 1.25-1.206.625 1.251 1.25 1.251.626-1.6 1.251-1.6.625.456 1.251.456.625-.486 1.25-.486.626 1.062 1.251 1.062.625-.779 1.251-.779.625.96 1.251.96.625.13 1.251.13.625-1.187 1.251-1.187.625.66 1.251.66.625-.9 1.251-.9.626.813 1.251.813.626-.51 1.252-.51.625-.028 1.251-.028.625.39 1.251.39.625-.326 1.251-.326.625 1.475 1.251 1.475.625-.932 1.251-.932.625.6 1.251.6.625-.249 1.251-.249.625-.05 1.25-.05.626.19 1.251.19.625-.568 1.251-.568.625.634 1.25.634.625-.372 1.251-.372.625-.671 1.25-.671.625-.343 1.25-.343.625-.046 1.251-.046.625 1.527 1.25 1.527.625-1.292 1.25-1.292.625.537 1.25.537.625-.8 1.25-.8.625 1.451 1.25 1.451.625.237 1.25.237.625-1.7 1.25-1.7.625.684 1.25.684.625-.532 1.25-.532.625 1.242 1.25 1.242.625-1.334 1.25-1.334.625 1.617 1.25 1.617.625-1.469 1.249-1.469.625.411 1.25.411.625.468 1.25.468.625-.967 1.25-.967.624 1.158 1.249 1.158.625-1.158 1.25-1.158.625 1.348 1.249 1.348.625-.032 1.25-.032.625-.421 1.25-.421.624.251 1.249.251.625-.016 1.25-.016.624-1.178 1.249-1.178.625.85 1.25.85.625-.9 1.249-.9.625 1.727 1.25 1.727.625-1.155 1.249-1.155.625-.108 1.25-.108.625 1 1.249 1 .625.089 1.25.089.625-.638 1.249-.638.625-.522 1.25-.522.625.765 1.249.765.625.532 1.25.532.625-1.177 1.249-1.177.625-.275 1.25-.275.625.945 1.249.945.625-.54 1.25-.54.625.521 1.25.521.624.49 1.249.49.625-.01 1.25-.01.625-1.678 1.25-1.678.624.088 1.249.088.625.6 1.25.6.625.239 1.25.239.625.271 1.25.271.624-.847 1.249-.847.625.889 1.25.889.625-.509 1.25-.509.622.186 1.245.186.622-.652 1.245-.652.622.677 1.244.677.623.932 1.245.932.622-.05 1.245-.05.622-.076 1.245-.076.622-1.428 1.244-1.428.622 1.381 1.245 1.381.622-1.616 1.244-1.616.623 1.139 1.245 1.139.622.627 1.245.627.622-1.631 1.244-1.631.623 1.159 1.245 1.159.622.23 1.244.23.623-1.281 1.245-1.281.622.959 1.245.959.622.084 1.244.084.622-.617 1.245-.617.622.936 1.244.936.623-1.517 1.245-1.517.622 1.636 1.245 1.636.622-.9 1.244-.9.622.032 1.245.032.622.652 1.244.652.623-1.514 1.245-1.514.622.205 1.245.205.622.122 1.244.122.623-.4 1.245-.4.623.336 1.245.336.622 1.31 1.245 1.31.622-.8 1.245-.8.622-.029 1.245-.029.622.556 1.244.556.623-.34 1.245-.34.623-.319 1.245-.319.623.155 1.245.155.623.7 1.245.7.623-.582 1.246-.582.622.169 1.245.169.622-.135 1.245-.135.623.073 1.245.073.623-1.133 1.246-1.133.622.4 1.245.4.623-.346 1.246-.346.622 1.453 1.245 1.453.623-1.025 1.246-1.025.623 1.328 1.245 1.328.623-1.578 1.246-1.578.623 1.525 1.246 1.525.623-.991 1.246-.991.623-.36 1.246-.36.623.649 1.246.649.623-.129 1.246-.129.623.577 1.246.577.623-.968 1.247-.968.623.982 1.246.982.623-1.089 1.247-1.089.623 1.117 1.246 1.117.624-.863 1.247-.863.623.125 1.247.125.623-.155 1.247-.155.623.126 1.247.126.623-.268 1.247-.268.623.5 1.247.5.624-.366 1.247-.366.624 1.071 1.248 1.071.624-1.541 1.248-1.541.623 1.038 1.247 1.038.624-.2 1.248-.2.624-.342 1.248-.342.624.464 1.248.464.624-.858 1.249-.858.624 1.391 1.248 1.391.624-1.027 1.248-1.027.625.906 1.249.906.625-.122 1.249-.122.624-1.164 1.249-1.164.625-.067 1.249-.067.625.99 1.249.99.625.2 1.25.2.625-1.207 1.249-1.207.625-.092 1.25-.092.625 1.179 1.25 1.179.625.13 1.25.13.625.006 1.25.006.626-.25 1.251-.25.625-.371 1.25-.371.626.892 1.251.892.626-1.369 1.251-1.369.626.294 1.251.294.626.892 1.252.892.625-.171 1.251-.171.626-.816 1.252-.816.626.053 1.252.053.626-.356 1.252-.356.626 1.514 1.252 1.514.627-.367 1.253-.367.626.149 1.252.149.626.081 1.252.081.626-.734 1.252-.734.626-.149 1.252-.149.626-.6 1.252-.6.625 1.237 1.251 1.237.626.2 1.251.2.626.053 1.252.053.625-.956 1.251-.956.625 1.189 1.25 1.189.626.065 1.251.065.625-1.872 1.251-1.872h1.25c.625 0 .625.261 1.25.261s.626.152 1.251.152.625.458 1.25.458.625.686 1.25.686.624-1.329 1.249-1.329.625 1.364 1.25 1.364.625-.515 1.25-.515.624-.663 1.249-.663.625 1.32 1.249 1.32.625-1.384 1.249-1.384.625-.2 1.25-.2.624 1.2 1.249 1.2.624.244 1.249.244S357.427 2 358.051 2s.625-.064 1.249-.064.624.03 1.249.03.624 1.134 1.251 1.134.624-.118 1.249-.118.624.129 1.248.129.624-.539 1.248-.539.625-.784 1.249-.784.624.358 1.248.358.624.819 1.248.819.624-.432 1.248-.432.624-.293 1.248-.293.624.441 1.248.441.624-1.187 1.248-1.187.624.747 1.248.747.624-.419 1.248-.419.622 1.478 1.244 1.478.624-.4 1.248-.4.624.159 1.248.159.624-.939 1.247-.939.624.047 1.248.047.624.937 1.248.937.624.192 1.247.192.624-.143 1.248-.143.624-.564 1.248-.564.623.8 1.247.8.624-1.548 1.248-1.548.624.97 1.247.97.624.3 1.248.3.624.017 1.248.017.623-.142 1.247-.142.624-1 1.248-1 .624-.336 1.248-.336.624 1.045 1.247 1.045.624-.767 1.248-.767.624-.079 1.248-.079.624.367 1.248.367.624-.025 1.248-.025.624-.108 1.247-.108.629 1.317 1.248 1.317.624-1.44 1.248-1.44.624.03 1.248.03.625 1.31 1.249 1.31.624.051 1.248.051.624-.589 1.248-.589.624-.3 1.248-.3.625.231 1.249.231.624-.551 1.248-.551S417.33 2 417.954 2s.624.864 1.249.864.624-.3 1.248-.3.625.427 1.249.427.625-.025 1.249-.025.625-.315 1.249-.315.625-.568 1.25-.568.624.252 1.249.252.625-.735 1.249-.735.625-.061 1.25-.061.625.291 1.25.291.625.476 1.25.476.625.818 1.25.818.625-.009 1.25-.009.625.221 1.25.221.625-1.755 1.251-1.755.625.878 1.25.878.626.739 1.251.739.625-1 1.251-1 .625.606 1.251.606.626.3 1.251.3.626-.773 1.252-.773.626.65 1.251.65.626-.337 1.252-.337.626-.133 1.252-.133.627-.153 1.253-.153.626.27 1.252.27.627-.03 1.253-.03.626.74 1.253.74.626-1.719 1.253-1.719.627 1.559 1.253 1.559.627-.4 1.254-.4.626-1.147 1.253-1.147.626.757 1.253.757.626.086 1.252.086.627.921 1.253.921.626-1.648 1.252-1.648.626 1.193 1.253 1.193.626-.349 1.252-.349.626.4 1.252.4.625.253 1.251.253.626-.12 1.252-.12.626-1.3 1.251-1.3.626 1.014 1.252 1.014.625-.872 1.251-.872.625-.282 1.251-.282.625.713 1.251.713.625.271 1.25.271.626-.4 1.251-.4.625.36 1.251.36.625-1.017 1.25-1.017.625 1.309 1.25 1.309.626-.818 1.251-.818.625 1.056 1.25 1.056.625-.736 1.25-.736.625.153 1.25.153.625-.992 1.25-.992.625-.005 1.25-.005h1.25c.625 0 .625.284 1.249.284s.625.624 1.25.624.625.9 1.25.9.625-.557 1.25-.557.624.056 1.249.056.625.462 1.25.462.625-.7 1.25-.7.624-.833 1.249-.833.625.223 1.25.223.625-.414 1.249-.414.625 1.558 1.25 1.558.625-1.5 1.25-1.5.625.142 1.249.142.625.125 1.25.125.625.944 1.25.944.625-.739 1.25-.739.624 1.128 1.249 1.128.625-1.746 1.25-1.746.625.394 1.25.394h1.25c.625 0 .625.888 1.25.888s.626-1.1 1.251-1.1.625.531 1.25.531.625 1 1.25 1 .626-.57 1.251-.57.625.574 1.25.574.626-1.678 1.251-1.678.626 1.175 1.251 1.175.625.355 1.251.355.626-1.379 1.251-1.379.626 1.4 1.251 1.4.626-1.461 1.252-1.461.626 1.091 1.251 1.091.626-.667 1.252-.667.626-.252 1.252-.252.626.344 1.252.344.626.093 1.253.093.626-.775 1.252-.775.626 1.557 1.253 1.557.626-1.116 1.253-1.116.626 1.129 1.253 1.129.627-1.268 1.253-1.268h1.254c.627 0 .627 1.537 1.254 1.537s.627-1.424 1.254-1.424.627.679 1.254.679.627.816 1.253.816.627-1.777 1.254-1.777.626.555 1.253.555.626-.449 1.253-.449.626.571 1.253.571.626.834 1.252.834.627-.972 1.253-.972.626.142 1.252.142.626-.761 1.252-.761.626 1.36 1.253 1.36.625-.676 1.251-.676.626.614 1.252.614.626.433 1.252.433.626-1.362 1.251-1.362.626.936 1.252.936.626-.332 1.251-.332.626.418 1.252.418.625-.078 1.251-.078.625-.147 1.251-.147.626-.7 1.251-.7.626-.25 1.251-.25.626 1.372 1.251 1.372.626.205 1.251.205.626-.48 1.251-.48.626.351 1.251.351.626-.508 1.251-.508.626-.037 1.251-.037.626.678 1.251.678.626-1.161 1.252-1.161.625 1.139 1.251 1.139.625-.147 1.251-.147.626.12 1.251.12.626-1.62 1.252-1.62.625 1.656 1.251 1.656.626-1.684 1.252-1.684.625.771 1.251.771h1.252c.626 0 .626.437 1.252.437s.626-1.344 1.252-1.344.626 1.12 1.252 1.12.626-.493 1.252-.493.627.426 1.253.426.626.794 1.253.794.626-.488 1.253-.488.626-1.19 1.253-1.19.627 1.41 1.253 1.41.627-.071 1.254-.071.627-.489 1.254-.489.627.385 1.254.385.627-1.172 1.254-1.172.627.985 1.255.985.627-.649 1.254-.649.627 1.253 1.254 1.253.627-.124 1.254-.124.626.162 1.253.162.627-1.71 1.254-1.71.626 1.226 1.253 1.226.626-.429 1.253-.429h1.253c.626 0 .626-.96 1.252-.96s.627 1.619 1.253 1.619.626-.49 1.252-.49.627-.275 1.253-.275.626.728 1.252.728.626-.522 1.252-.522.626.523 1.252.523.626-1.532 1.252-1.532.627 1.824 1.253 1.824.626-.35 1.252-.35.626.117 1.252.117.626-.817 1.252-.817.626-.144 1.252-.144.626-.2 1.252-.2.626.739 1.252.739.626-.919 1.252-.919.626 1.558 1.252 1.558.627-.5 1.253-.5.626.307 1.252.307.627-1.52 1.253-1.52.626 1.513 1.253 1.513.626.058 1.253.058.626-.228 1.253-.228.627-1.405 1.257-1.405.627.484 1.254.484.627.057 1.254.057.627 1.118 1.254 1.118.627-.987 1.254-.987.627.394 1.254.394.628-.589 1.255-.589.628-.147 1.255-.147.627-.037 1.254-.037.627 1.106 1.255 1.106.627-.364 1.253-.364.627-.906 1.254-.906.627.9 1.254.9.626-.733 1.253-.733.627-.362 1.253-.362.627 1.375 1.254 1.375.626.51 1.253.51.626-.972 1.253-.972.626-.261 1.252-.261.627-.5 1.253-.5.627 1.217 1.253 1.217.626.367 1.253.367.626-.221 1.253-.221.626-.682 1.252-.682.627.218 1.253.218.627-.23 1.253-.23.627.164 1.253.164.627-.188 1.254-.188.626.856 1.253.856.627-.322 1.253-.322.627-.6 1.254-.6.627-.167 1.254-.167.627-.511 1.254-.511.627.09 1.255.09.627.832 1.254.832.628-.909 1.255-.909.628.844 1.255.844.628-.582 1.255-.582.627.925 1.255.925.627-.6 1.254-.6.627-.232 1.254-.232.627.972 1.254.972.626-1.18 1.253-1.18.627.66 1.254.66.627-.391 1.253-.391.627.415 1.254.415.626-.579 1.253-.579.627 1.413 1.254 1.413.624-.615 1.249-.615.625.447 1.25.447.624-.212 1.249-.212.625.375 1.249.375.625-1.108 1.249-1.108.625 1.158 1.249 1.158.624-1.606 1.249-1.606.624 1.1 1.248 1.1.625-.07 1.249-.07.625-1.086 1.249-1.086.624 1.572 1.249 1.572.624-1.108 1.249-1.108.624 1.013 1.249 1.013.624-.238 1.249-.238.625-.413 1.249-.413.625.166 1.25.166.625.175 1.25.175.625-.357 1.25-.357.625-.146 1.25-.146.626-.465 1.251-.465.626 1.35 1.252 1.35.626-1.217 1.251-1.217.627-.445 1.253-.445.626 1.344 1.253 1.344.626.537 1.253.537.627-1.272 1.254-1.272.627.546 1.255.546.627-.545 1.255-.545.628.96 1.256.96.628-.5 1.256-.5.628.593 1.256.593.627-.007 1.254-.007.627-1.09 1.255-1.09.626.957 1.253.957.627-1.408 1.254-1.408.626.927 1.252.927.627-.948 1.253-.948.626.971 1.252.971.626-.376 1.252-.376.626-.266 1.252-.266.626.894 1.252.894.626.163 1.252.163.626-.059 1.251-.059.626-1.326 1.252-1.326.626 1.775 1.252 1.775.626-1.827 1.252-1.827.626 1.05 1.252 1.05.627.249 1.253.249.626.273 1.253.273.626-1.07 1.253-1.07.627.356 1.254.356.627.761 1.254.761.628-.661 1.255-.661.628.228 1.256.228.628-.116 1.257-.116.628-.532 1.257-.532.628.747 1.257.747.627.464 1.255.464.628-.289 1.256-.289.627-1.354 1.255-1.354.627 1.661 1.254 1.661.627-.246 1.254-.246.627-1.559 1.254-1.559.627.55 1.254.55.626.264 1.253.264.627-.491 1.254-.491.627-.017 1.254-.017.627 1.5 1.254 1.5.627-1.77 1.254-1.77.628.707 1.255.707.628.975 1.255.975.628-1.273 1.256-1.273.629 1.231 1.257 1.231.629-.829 1.258-.829.628.364 1.257.364.628.523 1.257.523.628-.5 1.256-.5.628-.773 1.255-.773.628-.319 1.256-.319.627 1.718 1.255 1.718.627-1.32 1.255-1.32.627-.095 1.255-.095.627 1.014 1.255 1.014.628-.6 1.256-.6.628.576 1.256.576.629-.022 1.257-.022.629.018 1.258.018.629-.7 1.258-.7.629.08 1.257.08.628.994 1.257.994.624-1.83 1.252-1.83.628 1.636 1.256 1.636.628-.373 1.256-.373.628-1.092 1.256-1.092.628.964 1.257.964.629-.918 1.257-.918.63.068 1.259.068.629 1.055 1.258 1.055.628-.6 1.257-.6.628.772 1.257.772.628-.089 1.257-.089.628-.412 1.256-.412.629-.763 1.258-.763.629-.111 1.258-.111.629.26 1.258.26.628 1.426 1.256 1.426.628-.464 1.255-.464.627.29 1.254.29.627-.6 1.253-.6.627-.19 1.253-.19.627.239 1.254.239.627.693 1.254.693.628-.665 1.256-.665.629-1 1.258-1 .63 1.7 1.26 1.7.629-.014 1.258-.014.628-1.4 1.256-1.4.628.254 1.256.254.628 1.178 1.256 1.178.629-1.05 1.257-1.05.63-.585 1.259-.585.63 1.129 1.261 1.129.629-1.031 1.258-1.031.629.558 1.258.558.629-.279 1.258-.279.63.68 1.26.68.63.09 1.26.09.63-.494 1.259-.494.63-.02 1.26-.02.631-.732 1.262-.732.63 1.147 1.259 1.147.631-.44 1.262-.44.628-.81 1.256-.81.63.914 1.261.914.63.066 1.259.066.629-.487 1.259-.487.631.42 1.263.42.63-.775 1.261-.775.631 1.111 1.262 1.111.632-.182 1.264-.182.632.241 1.263.241.632-1.036 1.264-1.036.634 1.012 1.268 1.012.633-.713 1.267-.713c.417 0 .845-.3 1.26-.29s.824.584 1.239.6.852-.311 1.266-.289.865-.314 1.279-.285.707 1.621 1.12 1.658.85-.244 1.262-.2.816.124 1.228.176 1.006-1.22 1.417-1.161.707.941 1.117 1.007.821.14 1.229.213.7.749 1.108.829.954-.524 1.36-.436.738.506 1.142.6.945-.355 1.347-.253.69.657 1.09.766.738.432 1.137.549 1.084-.7 1.48-.574.331 1.675.725 1.807 1.03-.465 1.421-.327.485 1.077.873 1.223.751.318 1.137.47 1.281-.962 1.665-.8.481 1 .862 1.161.789.259 1.167.432.928-.022 1.3.157.547.772.918.958.578.678.946.871 1.072-.25 1.436-.051.706.443 1.067.649.82.251 1.177.463.945.061 1.3.28.793.328 1.142.553.515.752.86.983.926.14 1.267.378.115 1.286.452 1.529.948.118 1.281.367.88.233 1.208.488.067 1.261.39 1.522.509.68.828.947 1.324-.271 1.638 0 .685.5.994.775.062 1.171.366 1.454 1.335-.19 1.634.1.567.631.86.925-.164 1.335.124 1.634 1.033.169 1.316.473.387.78.664 1.089.663.53.936.843-.411 1.435-.144 1.754.537.613.8.936 1.741-.321 2 .007.358.785.607 1.117.558.632.8.969.2.888.433 1.229.726.518.957.864.65.58.875.929-.131 1.073.088 1.427.6.613.807.97.9.446 1.109.807-.454 1.211-.255 1.575.425.71.618 1.078.43.71.616 1.082-.011.923.169 1.3 1.039.427 1.212.8-.708 1.218-.542 1.6 1.241.366 1.4.75.714.613.866 1-.736 1.171-.591 1.561.668.632.807 1.025.9.571 1.032.966-.464 1.023-.339 1.42-.251.933-.134 1.333.942.587 1.052.988.826.646.928 1.049-.411.96-.316 1.365.648.707.736 1.113-.57.966-.489 1.374.972.663 1.045 1.072-.57.941-.5 1.352.9.7.961 1.117-.283.882-.232 1.3-.516.892-.472 1.306 1.073.729 1.109 1.143-.985.911-.956 1.326.564.792.586 1.208-.475.846-.46 1.262 1.478.795 1.486 1.212.053.846.053 1.263c0 .572-.155.572-.155 1.143s.094.573.094 1.145.081.573.081 1.146c0 .417-1.771.818-1.778 1.233s1.473.87 1.459 1.285-1.09.788-1.112 1.2.249.845.219 1.259-.339.8-.375 1.218.607.894.563 1.307-.11.831-.162 1.242-.188.819-.246 1.23-.388.784-.454 1.194.153.872.08 1.28-.087.835-.168 1.243-.2.812-.292 1.218-.7.695-.791 1.1-.841.639-.944 1.041.446.967.336 1.367-.3.774-.417 1.172-.612.674-.736 1.07.219.935.088 1.329.039.891-.1 1.282-.788.595-.934.984.325 1.012.173 1.4-1.252.384-1.411.768-.292.763-.458 1.144 1.007 1.359.834 1.736-1.605.166-1.784.54.891 1.363.705 1.734-1.664.081-1.857.448-.437.693-.636 1.057-.076.9-.282 1.258.042.982-.17 1.339-.215.846-.434 1.2-.956.379-1.181.729-.93.372-1.161.717.183 1.12-.055 1.461.083 1.084-.16 1.42-.895.382-1.144.714-.725.492-.98.82.249 1.264-.012 1.588-.742.481-1.009.8-1.082.174-1.354.488.26 1.347-.018 1.655-1.628-.359-1.911-.055-.856.315-1.145.614-.221.93-.515 1.224-.723.435-1.022.724-.264.918-.568 1.2.149 1.4-.16 1.681-1.019.12-1.333.392-.522.68-.841.946-.958.152-1.281.413-.681.478-1.01.733-.384.871-.717 1.121-.424.845-.761 1.088-1.354-.464-1.695-.227-1.009-.024-1.355.207-.485.752-.834.977-.361.977-.715 1.2-.851.2-1.208.409-.7.439-1.064.645-.985-.076-1.349.123-.785.265-1.153.458-.453.915-.825 1.1-.961-.094-1.335.086-.6.662-.974.835-.934-.083-1.315.083-.433 1.081-.817 1.241-1.024-.336-1.411-.183-.555.849-.945.994-.993-.327-1.385-.188-.738.365-1.133.5-.645.679-1.041.8-.493 1.256-.892 1.373-1.107-.845-1.509-.736-.744.419-1.147.522-.936-.362-1.341-.267-.779.268-1.185.356-.619 1.091-1.027 1.171-.83.113-1.239.187-.862-.1-1.273-.032-.946-.75-1.358-.691-.693 1.038-1.106 1.09-.871-.327-1.285-.283-.793.385-1.208.421-.876-.623-1.291-.593-.791.529-1.207.551-.828-.056-1.244-.041-.816.514-1.232.521-.84.589-1.257.589z" fill="none" stroke="#006d88" stroke-miterlimit="10" stroke-width="2.99" data-name="レイヤー 2"/></svg>