<svg xmlns="http://www.w3.org/2000/svg" width="223.806" height="113.218" viewBox="0 0 223.806 113.218"><g data-name="レイヤー 2"><path d="M70.712 112.218c.018.035 1.529-3.191 1.618-3.427q.99-2.613 2.083-5.185c1.371-3.226 2.823-6.446 4.477-9.537 1.246-2.328 2.644-4.939 5.024-6.282 3.324-1.885 7.373-1.971 11.078-2.358 23.936-2.5 47.813 2.624 71.758 1.97 14.485-.395 29.3-3.2 41.483-11.046 21.4-13.776 17.649-50.543-.964-64.864-7.291-5.61-15.635-7.476-24.642-7.551-10.669-.088-21.393-.96-32.07-1.331-22.365-.778-44.742-1.153-67.118-1.389C63.342.992 39.666-.574 21.56 9.651 8.687 16.921-1.857 30.356 1.7 45.837c3.642 15.871 17.189 30.879 31.369 38.335a38.475 38.475 0 0022.348 4.38c3.49-.408 10.163-2.415 11.732 2.274a8.852 8.852 0 01.31 3.105c-.204 6.222.309 12.688 3.253 18.287z" fill="#fff" stroke="#006d88" stroke-linecap="round" stroke-linejoin="round" stroke-width="2"/><path d="M68.527 54.69V35.25h4.3v7.872h3V35.25h4.32v19.44h-4.32v-8.5h-3v8.5zm15.551 0V35.25h4.3v19.44zm13.322.288a6.466 6.466 0 01-3.049-.648 4.146 4.146 0 01-1.847-2 9.208 9.208 0 01-.7-3.516l3.673-.552a8.7 8.7 0 00.228 2.016 2.23 2.23 0 00.575 1.1 1.3 1.3 0 00.9.336.856.856 0 00.876-.457 2.32 2.32 0 00.2-.959 3.467 3.467 0 00-.575-2.029 9.1 9.1 0 00-1.56-1.668l-1.681-1.464a9.389 9.389 0 01-1.859-2.124 5.372 5.372 0 01-.756-2.94 4.806 4.806 0 011.464-3.78 5.764 5.764 0 013.984-1.308 5.149 5.149 0 012.507.528 3.689 3.689 0 011.441 1.38 5.738 5.738 0 01.672 1.8 11.438 11.438 0 01.2 1.813l-3.7.456q-.024-.865-.107-1.5a2.081 2.081 0 00-.349-.985.959.959 0 00-.816-.347.927.927 0 00-.875.5 2.071 2.071 0 00-.276 1.008 2.85 2.85 0 00.516 1.764 9.83 9.83 0 001.356 1.428l1.608 1.416a10.987 10.987 0 012.16 2.454 6.153 6.153 0 01.876 3.384 5 5 0 01-.624 2.484 4.568 4.568 0 01-1.762 1.762 5.371 5.371 0 01-2.7.648zm9.885-.288V38.442h-2.927V35.25h10.151v3.192h-2.9V54.69zm15.264.288a6.67 6.67 0 01-3.457-.768 4.288 4.288 0 01-1.823-2.21 9.587 9.587 0 01-.553-3.432v-7.222a9.466 9.466 0 01.553-3.432 4.242 4.242 0 011.823-2.172 6.756 6.756 0 013.457-.756 6.876 6.876 0 013.492.756 4.233 4.233 0 011.836 2.172 9.467 9.467 0 01.552 3.432v7.224a9.588 9.588 0 01-.552 3.43 4.279 4.279 0 01-1.836 2.208 6.788 6.788 0 01-3.492.77zm0-3.048a1.285 1.285 0 00.984-.336 1.674 1.674 0 00.408-.864 6.017 6.017 0 00.1-1.08v-9.36a5.973 5.973 0 00-.1-1.092 1.669 1.669 0 00-.408-.852 1.285 1.285 0 00-.984-.336 1.217 1.217 0 00-.936.336 1.661 1.661 0 00-.408.852 5.973 5.973 0 00-.1 1.092v9.36a6.737 6.737 0 00.084 1.08 1.651 1.651 0 00.384.864 1.244 1.244 0 00.976.336zm9.456 2.76V35.25h5.352a11.928 11.928 0 013.408.432 4.131 4.131 0 012.243 1.548 5.326 5.326 0 01.8 3.156 10.7 10.7 0 01-.192 2.136 3.975 3.975 0 01-.708 1.62 3.893 3.893 0 01-1.476 1.14l2.668 9.408h-4.44l-2.136-8.712H136.3v8.712zm4.3-11.183h1.2a2.612 2.612 0 001.416-.325 1.718 1.718 0 00.708-.936 4.721 4.721 0 00.2-1.476 3.54 3.54 0 00-.456-1.944 1.86 1.86 0 00-1.68-.7H136.3zm13.052 11.183v-7.944l-3.7-11.5h4.055l1.849 6.144 1.655-6.144h3.889l-3.624 11.5v7.944z" fill="#006d88"/></g></svg>