<svg xmlns="http://www.w3.org/2000/svg" width="121.858" height="67.322" viewBox="0 0 121.858 67.322"><path d="M16.047 55.514a.4.4 0 00.462.462.532.532 0 00.589-.5 3.3 3.3 0 00-.21-.589 1.6 1.6 0 01-.126-.42c0-.5 1.343-.671 1.721-.714.63-.084 1.513-1.6 1.849-2.142.84-1.3 1.6-2.689 2.353-4.033a1.411 1.411 0 00.21-.588c0-.378-.378-.462-.967-.462-.5 0-1.134.042-1.848.042-1.051 0-1.261-.462-1.261-1.6v-2.479c0-1.008.252-1.428 1.261-1.428 1.47 0 2.9.084 4.326.084 1.093 0 1.219-.882 1.219-1.428v-.378a1.14 1.14 0 00-1.135-.966c-1.092 0-2.225.083-3.318.083-1.218 0-1.344-.461-1.344-1.806v-1.008c0-2.311 0-2.772 1.344-2.772 1.093 0 2.184.084 3.276.084a1.17 1.17 0 001.219-1.093c0-.84-.042-1.764-.126-2.6 0-.126-.042-.252-.042-.378 0-.546.462-.546.882-.546.546 0 3.949.126 4.5.168.378.042.924.126.924.588 0 .252-.168.336-.378.546A2.13 2.13 0 0031 31.065a7.763 7.763 0 00.042 1.008 1.276 1.276 0 001.3.883c1.05 0 2.1-.084 3.151-.084 1.218 0 1.386.461 1.386 1.722v2.268c0 1.135-.21 1.6-1.3 1.6-1.135 0-2.227-.083-3.319-.083a1.181 1.181 0 00-1.3 1.218v.168a1.253 1.253 0 001.34 1.382h.42c1.428 0 2.857-.084 4.327-.084 1.135 0 1.261.546 1.261 1.764v1.933c0 1.26-.126 1.806-1.261 1.806-.714 0-1.386-.084-2.059-.084-.294 0-.714.168-.714.5 0 .84 3.487 5.461 4.2 6.3.168.21.588.672.588.924 0 .84-3.192 2.9-3.991 2.9-.84 0-3.108-4.2-3.444-5-.084-.168-.21-.462-.42-.462s-.252.21-.252.336v.72c0 1.848.126 3.7.126 5.545 0 .882-.42.966-1.555.966H27.1c-1.134 0-1.554-.084-1.554-.966 0-1.638.084-3.235.084-4.831 0-.378-.042-.63-.252-.63-.252 0-.42.462-.5.63-.295.672-1.639 3.781-2.352 3.781a4.4 4.4 0 01-1.555-.588 1.294 1.294 0 00-.5-.21c-.168 0-.252.126-.252.294a.6.6 0 00.084.252 11.894 11.894 0 01.336 1.68c0 .714-1.429 1.134-2.017 1.134-.336 0-.42-.126-.5-.42a.7.7 0 00-.755-.63c-.126 0-2.563.462-2.9.546a.709.709 0 00-.547.378.427.427 0 01-.42.21.607.607 0 01-.294-.084c-.042-.042-.084-.084-.126-.084-.084 0-.084.168-.084.21 0 1.093 2.1 1.093 2.815 1.093h12.77c4.244 0 4.075-.21 4.286-2.185.084-.8.755-.924 1.511-.924a15.723 15.723 0 013.109.378c.841.21 1.47.5 1.47 1.47a8.637 8.637 0 01-1.657 4.956c-1.47 1.723-4.326 1.891-6.721 1.891H13.9c-1.6 0-3.57-.084-4.662-1.051-1.135-.966-1.3-1.848-1.3-4.284v-6.764c0-.8 0-1.134-.251-1.134-.336 0-.378.546-.378.756A41.262 41.262 0 015.167 65.6c-.42 1.3-.588 1.47-1.134 1.47C3.024 67.065 0 65.847 0 64.755a4.243 4.243 0 01.294-.966 29.4 29.4 0 002.352-10.964v-.378c0-.63.084-1.05.589-1.05.126 0 3.655.42 3.781.42.084 0 .252.042.336.042a.637.637 0 00.587-.63c0-.588-.461-.672-.839-.672h-.252c-1.093 0-2.185.084-3.277.084-.925 0-1.848-.126-1.848-1.849 0-1.3.084-2.646.084-3.948v-6.05c0-1.3-.084-2.6-.084-3.948 0-1.6.756-1.848 1.848-1.848.336 0 .714.042 1.05.042 1.3 0 1.513-.967 2.269-3.487.21-.672.294-.84.672-.84.5 0 2.6.42 3.276.546 1.723.294 2.688.336 2.688 1.05 0 .462-.462.588-.8.672a.88.88 0 00-.672.588 5.813 5.813 0 00-.42.925c0 .294.21.63.756.63h.378c1.091 0 2.226-.126 3.36-.126 1.009 0 1.848.168 1.848 1.89 0 1.3-.083 2.6-.083 3.906v6.05c0 1.3.083 2.646.083 3.948 0 1.765-.965 1.849-1.848 1.849-.63 0-1.26-.042-1.89-.042-.883 0-1.345.378-1.345 1.26v3.108c0 .967.042 1.177.252 1.177.336 0 .42-.924.462-1.177.21-1.134.336-2.268.463-3.4.042-.378 0-.588.5-.588.252 0 2.1.336 2.479.42.336.084.42.21.42.462s-.168.378-.42.462c-.336.126-.336.252-.463.63zm-8.989-17.6a.663.663 0 00-.672.671v.294a.664.664 0 00.672.673h.378a.663.663 0 00.671-.673v-.294a.662.662 0 00-.671-.671zm.378 7.813a.639.639 0 00.671-.672v-.378A.691.691 0 007.436 44h-.378a.691.691 0 00-.672.673v.378a.663.663 0 00.672.672zm4.664-7.814a.663.663 0 00-.672.671v.294a.664.664 0 00.672.673h.546a.663.663 0 00.671-.673v-.294a.663.663 0 00-.671-.671zm.42 7.813a.772.772 0 00.8-.8V44.8a.8.8 0 00-.8-.8h-.294a.8.8 0 00-.8.8v.126a.772.772 0 00.8.8zm35.657-2.857c-1.639 0-3.236.126-4.873.126-1.009 0-1.135-.378-1.135-1.764v-2.605c0-1.176.084-1.638 1.135-1.638 1.637 0 3.234.126 4.873.126h4.41a1.187 1.187 0 001.3-1.344v-.756c0-1.806-.084-4.285-.084-4.5 0-.882.588-.924 1.091-.924.672 0 5.251.294 5.881.378.378.084.715.252.715.714 0 .378-.337.546-.715.8-.42.252-.462.841-.462 1.89v2.311c0 1.092.588 1.428 1.555 1.428h5.671c1.6 0 3.192-.126 4.831-.126 2.184 0 3.108.757 3.108 2.983 0 5.083-.042 17.937-1.638 22.264a5.274 5.274 0 01-3.781 3.654 17.3 17.3 0 01-4.411.505c-3.7 0-4.116-.21-4.453-1.387a13.048 13.048 0 01-.336-3.108c0-1.3.042-2.143 1.261-2.143.378 0 .882.042 1.26.084a17.717 17.717 0 002.1.168c2.185 0 2.857-.294 3.277-2.982.378-2.437.8-9.872.8-12.476 0-1.6-.253-1.681-1.765-1.681h-5.753c-1.261 0-1.975.126-2.227 1.975-.839 6.679-2.6 11.09-7.519 15.837-1.134 1.091-6.427 5.587-7.772 5.587s-4.032-2.983-4.032-4.454c0-.545.462-.8.882-1.007 4.873-2.731 9.536-7.1 11.342-12.519a19.262 19.262 0 00.925-4.579c0-.84-.967-.84-1.387-.84zm37.191 24.453v-9.676l15.908-24.436q1.8-2.706 3.4-5.248A30.717 30.717 0 00107.3 22.8a14.989 14.989 0 001.024-5.494 6.63 6.63 0 00-1.147-4.264 3.827 3.827 0 00-3.117-1.394 4.655 4.655 0 00-3.443 1.23 6.488 6.488 0 00-1.682 3.28 21.483 21.483 0 00-.451 4.592v3.28H85.2V20.5a27.718 27.718 0 011.89-10.537 15.422 15.422 0 015.985-7.3Q97.176 0 103.817 0q8.939 0 13.49 4.633t4.551 12.915a21.4 21.4 0 01-1.271 7.462 34.164 34.164 0 01-3.361 6.683q-2.093 3.24-4.47 6.765L100.62 56.58h19.434v10.742z" fill="#006d88" data-name="レイヤー 2"/></svg>