<svg xmlns="http://www.w3.org/2000/svg" width="111.731" height="66.42" viewBox="0 0 111.731 66.42"><path d="M16.047 54.612a.4.4 0 00.462.462.532.532 0 00.588-.5 3.3 3.3 0 00-.21-.589 1.593 1.593 0 01-.126-.419c0-.5 1.344-.672 1.722-.715.63-.084 1.513-1.6 1.849-2.142.84-1.3 1.6-2.688 2.352-4.033a1.411 1.411 0 00.21-.588c0-.378-.378-.462-.966-.462-.5 0-1.134.042-1.848.042-1.051 0-1.261-.462-1.261-1.6v-2.479c0-1.008.252-1.428 1.261-1.428 1.47 0 2.9.084 4.326.084 1.093 0 1.219-.882 1.219-1.428v-.378a1.14 1.14 0 00-1.135-.966c-1.092 0-2.226.084-3.318.084-1.218 0-1.344-.462-1.344-1.807v-1.008c0-2.31 0-2.772 1.344-2.772 1.092 0 2.184.084 3.276.084a1.17 1.17 0 001.219-1.093c0-.839-.042-1.764-.126-2.6 0-.126-.042-.252-.042-.378 0-.546.461-.546.882-.546.546 0 3.949.126 4.494.168.378.042.925.126.925.588 0 .252-.168.336-.378.546A2.127 2.127 0 0031 30.164a7.747 7.747 0 00.042 1.007 1.277 1.277 0 001.3.883c1.05 0 2.1-.084 3.151-.084 1.217 0 1.386.462 1.386 1.722v2.268c0 1.135-.211 1.6-1.3 1.6-1.135 0-2.227-.084-3.319-.084a1.182 1.182 0 00-1.3 1.218v.168a1.253 1.253 0 001.34 1.383h.42c1.428 0 2.857-.084 4.327-.084 1.134 0 1.26.546 1.26 1.764v1.933c0 1.26-.126 1.806-1.26 1.806-.715 0-1.386-.084-2.059-.084-.294 0-.714.168-.714.5 0 .84 3.487 5.461 4.2 6.3.168.21.588.673.588.925 0 .839-3.192 2.9-3.991 2.9-.84 0-3.108-4.2-3.444-5-.084-.168-.21-.462-.421-.462s-.252.21-.252.336v.721c0 1.849.126 3.7.126 5.545 0 .882-.419.967-1.554.967H27.1c-1.135 0-1.554-.085-1.554-.967 0-1.638.084-3.235.084-4.831 0-.378-.042-.63-.252-.63-.252 0-.42.462-.5.63-.295.673-1.639 3.781-2.353 3.781a4.394 4.394 0 01-1.554-.588 1.3 1.3 0 00-.5-.21c-.168 0-.252.126-.252.294a.6.6 0 00.084.252 11.889 11.889 0 01.335 1.68c0 .715-1.428 1.134-2.016 1.134-.336 0-.42-.125-.5-.419a.7.7 0 00-.756-.631c-.126 0-2.562.463-2.9.547a.709.709 0 00-.547.378.427.427 0 01-.42.209.607.607 0 01-.294-.084c-.042-.042-.084-.083-.126-.083-.084 0-.084.167-.084.209 0 1.093 2.1 1.093 2.815 1.093h12.77c4.243 0 4.075-.21 4.285-2.185.084-.8.756-.924 1.512-.924a15.732 15.732 0 013.109.378c.84.21 1.47.5 1.47 1.47A8.65 8.65 0 0137.3 63.77c-1.47 1.722-4.327 1.89-6.721 1.89H13.9c-1.6 0-3.57-.084-4.662-1.051-1.135-.965-1.3-1.848-1.3-4.284v-6.763c0-.8 0-1.135-.251-1.135-.336 0-.378.547-.378.757a41.327 41.327 0 01-2.142 11.509c-.42 1.3-.588 1.471-1.134 1.471-1.009 0-4.033-1.219-4.033-2.31a4.251 4.251 0 01.294-.967 29.419 29.419 0 002.352-10.964v-.378c0-.63.084-1.05.589-1.05.126 0 3.654.42 3.78.42.084 0 .253.042.337.042a.637.637 0 00.587-.63c0-.588-.461-.672-.84-.672h-.252c-1.092 0-2.184.084-3.276.084-.925 0-1.849-.126-1.849-1.848 0-1.3.084-2.647.084-3.949v-6.049c0-1.3-.084-2.605-.084-3.949 0-1.6.757-1.848 1.849-1.848.336 0 .714.042 1.05.042 1.3 0 1.512-.967 2.268-3.487.21-.672.294-.84.673-.84.5 0 2.6.42 3.276.546 1.722.294 2.688.336 2.688 1.05 0 .462-.462.588-.8.673a.88.88 0 00-.673.587 5.813 5.813 0 00-.42.925c0 .294.21.63.756.63h.379c1.091 0 2.226-.126 3.36-.126 1.008 0 1.848.168 1.848 1.89 0 1.3-.084 2.6-.084 3.907v6.049c0 1.3.084 2.646.084 3.949 0 1.764-.966 1.848-1.848 1.848-.63 0-1.26-.042-1.89-.042-.883 0-1.345.378-1.345 1.26v3.108c0 .967.042 1.177.252 1.177.336 0 .42-.924.462-1.177.21-1.133.336-2.268.463-3.4.042-.378 0-.588.5-.588.252 0 2.1.336 2.478.42.336.084.42.21.42.462s-.168.378-.42.462c-.336.126-.336.252-.462.63zm-8.99-17.6a.663.663 0 00-.672.672v.294a.663.663 0 00.672.672h.379a.663.663 0 00.671-.672v-.294a.662.662 0 00-.671-.672zm.379 7.813a.639.639 0 00.671-.672v-.378a.691.691 0 00-.671-.672h-.379a.691.691 0 00-.672.672v.378a.663.663 0 00.672.672zm4.664-7.814a.663.663 0 00-.672.672v.294a.663.663 0 00.672.672h.547a.663.663 0 00.671-.672v-.294a.663.663 0 00-.671-.672zm.42 7.813a.772.772 0 00.8-.8V43.9a.8.8 0 00-.8-.8h-.294a.8.8 0 00-.8.8v.126a.772.772 0 00.8.8zm35.656-2.857c-1.638 0-3.235.126-4.873.126-1.008 0-1.134-.378-1.134-1.764v-2.6c0-1.177.084-1.639 1.134-1.639 1.638 0 3.235.126 4.873.126h4.411a1.187 1.187 0 001.3-1.344v-.756c0-1.806-.084-4.285-.084-4.5 0-.882.588-.924 1.092-.924.672 0 5.251.294 5.881.378.378.084.715.252.715.714 0 .379-.337.547-.715.8-.42.252-.462.841-.462 1.891v2.31c0 1.092.588 1.428 1.555 1.428h5.671c1.6 0 3.192-.126 4.831-.126 2.184 0 3.108.757 3.108 2.983 0 5.083-.042 17.937-1.638 22.264a5.276 5.276 0 01-3.781 3.654 17.3 17.3 0 01-4.411.505c-3.7 0-4.116-.21-4.453-1.387A13.048 13.048 0 0160.862 61c0-1.3.042-2.143 1.261-2.143.377 0 .882.042 1.26.084a17.684 17.684 0 002.1.168c2.184 0 2.857-.294 3.277-2.982.378-2.436.8-9.872.8-12.476 0-1.6-.252-1.681-1.765-1.681h-5.756c-1.261 0-1.975.126-2.227 1.975-.84 6.679-2.6 11.09-7.519 15.837-1.134 1.092-6.427 5.587-7.772 5.587s-4.032-2.983-4.032-4.453c0-.546.462-.8.882-1.008 4.873-2.731 9.536-7.1 11.342-12.519a19.262 19.262 0 00.924-4.578c0-.841-.966-.841-1.386-.841zM98.037 66.42V13.53q-.9.492-2.05.984t-2.419 1.025q-1.272.534-2.46 1.025t-2.173.984V7.38q.9-.492 2.542-1.353T95 4.1q1.886-1.065 3.526-2.173A17.2 17.2 0 00100.989 0h10.742v66.42z" fill="#006d88" data-name="レイヤー 2"/></svg>