<svg xmlns="http://www.w3.org/2000/svg" width="121.612" height="68.634" viewBox="0 0 121.612 68.634"><path d="M16.047 55.6a.4.4 0 00.462.462.532.532 0 00.588-.5 3.3 3.3 0 00-.21-.589 1.6 1.6 0 01-.126-.42c0-.5 1.344-.671 1.722-.714.63-.084 1.513-1.6 1.849-2.142.84-1.3 1.6-2.689 2.352-4.033a1.411 1.411 0 00.21-.588c0-.378-.378-.462-.966-.462-.5 0-1.134.042-1.848.042-1.051 0-1.261-.462-1.261-1.6v-2.483c0-1.008.252-1.428 1.261-1.428 1.47 0 2.9.084 4.326.084 1.093 0 1.219-.882 1.219-1.428v-.378a1.14 1.14 0 00-1.135-.966c-1.092 0-2.226.084-3.318.084-1.218 0-1.344-.462-1.344-1.807v-1.008c0-2.31 0-2.772 1.344-2.772 1.092 0 2.184.084 3.276.084a1.17 1.17 0 001.219-1.093c0-.84-.042-1.764-.126-2.6 0-.126-.042-.252-.042-.378 0-.546.461-.546.882-.546.546 0 3.949.126 4.494.168.378.042.925.126.925.588 0 .252-.168.336-.378.546A2.126 2.126 0 0031 31.147a7.763 7.763 0 00.042 1.008 1.277 1.277 0 001.3.883c1.05 0 2.1-.084 3.151-.084 1.217 0 1.386.462 1.386 1.722v2.268c0 1.135-.211 1.6-1.3 1.6-1.135 0-2.227-.084-3.319-.084a1.182 1.182 0 00-1.3 1.218v.168a1.253 1.253 0 001.34 1.383h.42c1.428 0 2.857-.084 4.327-.084 1.134 0 1.26.546 1.26 1.764v1.933c0 1.26-.126 1.806-1.26 1.806-.715 0-1.386-.084-2.059-.084-.294 0-.714.168-.714.5 0 .84 3.487 5.461 4.2 6.3.168.21.588.673.588.924 0 .84-3.192 2.9-3.991 2.9-.84 0-3.108-4.2-3.444-5-.084-.168-.21-.462-.421-.462s-.252.21-.252.336v.714c0 1.848.126 3.7.126 5.545 0 .882-.419.966-1.554.966H27.1c-1.135 0-1.554-.084-1.554-.966 0-1.638.084-3.235.084-4.831 0-.378-.042-.63-.252-.63-.252 0-.42.462-.5.63-.295.672-1.639 3.781-2.353 3.781a4.394 4.394 0 01-1.554-.588 1.3 1.3 0 00-.5-.21c-.168 0-.252.126-.252.294a.6.6 0 00.084.252 11.889 11.889 0 01.335 1.68c0 .714-1.428 1.134-2.016 1.134-.336 0-.42-.126-.5-.42a.7.7 0 00-.756-.63c-.126 0-2.562.462-2.9.546a.709.709 0 00-.547.378.427.427 0 01-.42.21.607.607 0 01-.294-.084c-.042-.042-.084-.084-.126-.084-.084 0-.084.168-.084.21 0 1.093 2.1 1.093 2.815 1.093h12.77c4.243 0 4.075-.21 4.285-2.185.084-.8.756-.924 1.512-.924a15.732 15.732 0 013.109.378c.84.21 1.47.5 1.47 1.47a8.645 8.645 0 01-1.656 4.962c-1.47 1.723-4.327 1.891-6.721 1.891H13.9c-1.6 0-3.57-.084-4.662-1.051-1.135-.966-1.3-1.848-1.3-4.284v-6.764c0-.8 0-1.134-.251-1.134-.336 0-.378.547-.378.756a41.334 41.334 0 01-2.143 11.51c-.42 1.3-.588 1.47-1.134 1.47-1.008 0-4.032-1.218-4.032-2.31a4.243 4.243 0 01.294-.966 29.419 29.419 0 002.352-10.964v-.378c0-.63.084-1.05.589-1.05.126 0 3.654.42 3.78.42.084 0 .253.042.337.042a.637.637 0 00.587-.63c0-.588-.461-.672-.84-.672h-.252c-1.092 0-2.184.084-3.276.084-.925 0-1.849-.126-1.849-1.848 0-1.3.084-2.647.084-3.949v-6.05c0-1.3-.084-2.6-.084-3.948 0-1.6.757-1.848 1.849-1.848.336 0 .714.042 1.05.042 1.3 0 1.512-.967 2.268-3.487.21-.672.294-.84.673-.84.5 0 2.6.42 3.276.546 1.722.294 2.688.336 2.688 1.05 0 .462-.462.588-.8.672a.88.88 0 00-.673.588 5.813 5.813 0 00-.42.925c0 .294.21.63.756.63h.379c1.091 0 2.226-.126 3.36-.126 1.008 0 1.848.168 1.848 1.89 0 1.3-.084 2.6-.084 3.906v6.05c0 1.3.084 2.646.084 3.949 0 1.764-.966 1.848-1.848 1.848-.63 0-1.26-.042-1.89-.042-.883 0-1.345.378-1.345 1.26v3.108c0 .967.042 1.177.252 1.177.336 0 .42-.924.462-1.177.21-1.133.336-2.268.463-3.4.042-.378 0-.588.5-.588.252 0 2.1.336 2.478.42.336.084.42.21.42.462s-.168.378-.42.462c-.336.126-.336.252-.462.63zM7.057 38a.663.663 0 00-.672.672v.293a.664.664 0 00.672.673h.379a.663.663 0 00.671-.673v-.293A.662.662 0 007.436 38zm.379 7.813a.639.639 0 00.671-.672v-.378a.691.691 0 00-.671-.673h-.379a.691.691 0 00-.672.673v.378a.663.663 0 00.672.672zm4.664-7.818a.663.663 0 00-.672.672v.293a.664.664 0 00.672.673h.547a.663.663 0 00.671-.673v-.293a.663.663 0 00-.671-.672zm.42 7.813a.772.772 0 00.8-.8v-.126a.8.8 0 00-.8-.8h-.294a.8.8 0 00-.8.8v.126a.772.772 0 00.8.8zm35.656-2.857c-1.638 0-3.235.126-4.873.126-1.008 0-1.134-.378-1.134-1.764v-2.605c0-1.176.084-1.638 1.134-1.638 1.638 0 3.235.126 4.873.126h4.411a1.187 1.187 0 001.3-1.344V35.1c0-1.806-.084-4.285-.084-4.495 0-.882.588-.924 1.092-.924.672 0 5.251.294 5.881.378.378.084.715.252.715.714 0 .378-.337.546-.715.8-.42.252-.462.841-.462 1.891v2.31c0 1.092.588 1.428 1.555 1.428h5.671c1.6 0 3.192-.126 4.831-.126 2.184 0 3.108.757 3.108 2.983 0 5.083-.042 17.937-1.638 22.264a5.276 5.276 0 01-3.781 3.654 17.3 17.3 0 01-4.411.5c-3.7 0-4.116-.21-4.453-1.387a13.048 13.048 0 01-.336-3.108c0-1.3.042-2.143 1.261-2.143.377 0 .882.042 1.26.084a17.684 17.684 0 002.1.168c2.184 0 2.857-.294 3.277-2.982.378-2.437.8-9.872.8-12.476 0-1.6-.252-1.681-1.765-1.681h-5.754c-1.261 0-1.975.126-2.227 1.975-.84 6.679-2.6 11.09-7.519 15.837-1.134 1.091-6.427 5.587-7.772 5.587s-4.032-2.983-4.032-4.454c0-.545.462-.8.882-1.007 4.873-2.731 9.536-7.1 11.342-12.519a19.262 19.262 0 00.924-4.578c0-.841-.966-.841-1.386-.841zm55.232 25.683q-6.971 0-10.947-2.624a14.246 14.246 0 01-5.661-7.339 32.273 32.273 0 01-1.681-10.865v-2.378h13.697v2.378a28.046 28.046 0 00.41 5.33 5.239 5.239 0 001.476 2.993 4.3 4.3 0 002.952.943 3.746 3.746 0 002.829-.984 5.486 5.486 0 001.271-2.952 30.79 30.79 0 00.328-4.92 16.565 16.565 0 00-1.353-7.5q-1.353-2.583-5.617-2.665H98.57v-9.43h2.214q4.345 0 5.822-2.378t1.476-7.38a13.552 13.552 0 00-1.025-5.9 3.868 3.868 0 00-3.813-2.05 3.435 3.435 0 00-3.567 2.3 17.063 17.063 0 00-.861 5.9v3.437H85.122v-4.018A21.58 21.58 0 0187.3 8.4a14.543 14.543 0 016.232-6.273A20.65 20.65 0 01103.244 0a21.807 21.807 0 019.84 2.05 14.472 14.472 0 016.316 6.027 20.091 20.091 0 012.214 9.881 18.57 18.57 0 01-2.378 9.758q-2.38 3.936-5.74 4.838a11.362 11.362 0 014.141 2.624 12.352 12.352 0 012.911 4.879 24.3 24.3 0 011.066 7.831 30.321 30.321 0 01-1.763 10.742 14.856 14.856 0 01-5.781 7.339q-4.02 2.664-10.662 2.665z" fill="#006d88" data-name="レイヤー 2"/></svg>