<svg xmlns="http://www.w3.org/2000/svg" width="1420" height="919" viewBox="0 0 1420 919">
  <defs><pattern id="hatch" width="18" height="18" patternTransform="rotate(45)" patternUnits="userSpaceOnUse"><rect width="18" height="18" fill="#e3ded2"/><line x1="0" y1="0" x2="0" y2="18" stroke="#b7ae98" stroke-width="2.5"/></pattern></defs>
  <g><polygon points="60.0,35.0 397.0,35.0 397.0,97.0 302.0,97.0 302.0,437.0 60.0,437.0" fill="#fdeee0" stroke="none" stroke-width="0" stroke-linejoin="round"/></g>
  <g><rect x="12.0" y="35.0" width="48.0" height="764.0" rx="2" fill="none" stroke="#2f7890" stroke-width="3.5" stroke-dasharray="9 6"/><text dominant-baseline="middle" text-anchor="middle" fill="#2f7890" font-weight="700" font-size="20" font-family="'Hiragino Sans','Yu Gothic',sans-serif"><tspan x="36.0" y="395.8">テ</tspan><tspan x="36.0" y="417.0">ラ</tspan><tspan x="36.0" y="438.2">ス</tspan></text></g>
  <g><polygon points="60.0,35.0 397.0,35.0 397.0,97.0 302.0,97.0 302.0,220.0 60.0,220.0" fill="#fff8e8" stroke="#2f7890" stroke-width="3.5" stroke-linejoin="round"/><text dominant-baseline="middle" text-anchor="middle" fill="#2f7890" font-weight="700" font-size="30" font-family="'Hiragino Sans','Yu Gothic',sans-serif"><tspan x="181.0" y="117.9">食堂</tspan><tspan x="181.0" y="145.1" font-size="17" fill="#5a7a88">（給食室）</tspan></text></g>
  <g><title>南棟一階宿泊部屋②</title><rect x="60.0" y="220.0" width="169.0" height="75.0" rx="2" fill="#fff8e8" stroke="#2f7890" stroke-width="3.5"/><text dominant-baseline="middle" text-anchor="middle" fill="#2f7890" font-weight="700" font-size="25" font-family="'Hiragino Sans','Yu Gothic',sans-serif"><tspan font-size="24" x="144.5" y="245.9">南棟一階</tspan><tspan font-size="24" x="144.5" y="275.1">宿泊部屋②</tspan></text></g>
  <g><title>南棟一階宿泊部屋①</title><rect x="60.0" y="295.0" width="169.0" height="142.0" rx="2" fill="#fff8e8" stroke="#2f7890" stroke-width="3.5"/><text dominant-baseline="middle" text-anchor="middle" fill="#2f7890" font-weight="700" font-size="25" font-family="'Hiragino Sans','Yu Gothic',sans-serif"><tspan x="144.5" y="354.8">南棟一階</tspan><tspan x="144.5" y="385.3">宿泊部屋①</tspan></text></g>
  <g><rect x="60.0" y="437.0" width="169.0" height="362.0" rx="2" fill="url(#hatch)" stroke="#5a7a88" stroke-width="2.5"/><text dominant-baseline="middle" text-anchor="middle" fill="#2f7890" font-weight="700" font-size="28" font-family="'Hiragino Sans','Yu Gothic',sans-serif"><tspan x="144.5" y="618.0">職員室</tspan></text></g>
  <g><rect x="229.0" y="220.0" width="73.0" height="217.0" rx="2" fill="#fdeee0" stroke="#5a7a88" stroke-width="2.5"/></g>
  <g><rect x="229.0" y="437.0" width="73.0" height="362.0" rx="2" fill="#ffffff" stroke="#5a7a88" stroke-width="2.5"/><text dominant-baseline="middle" text-anchor="middle" fill="#5a7a88" font-weight="700" font-size="20" font-family="'Hiragino Sans','Yu Gothic',sans-serif"><tspan x="265.5" y="607.4">廊</tspan><tspan x="265.5" y="628.6">下</tspan></text></g>
  <g><rect x="302.0" y="259.0" width="95.0" height="267.0" rx="2" fill="#ffffff" stroke="#5a7a88" stroke-width="2.5"/></g>
  <g><path d="M229.0,437.0 L302.0,437.0" fill="none" stroke="#2f7890" stroke-width="3.5" stroke-linejoin="round" stroke-linecap="square"/></g>
  <g><text dominant-baseline="middle" text-anchor="middle" fill="#5a7a88" font-weight="700" font-size="14" font-family="'Hiragino Sans','Yu Gothic',sans-serif"><tspan x="265.5" y="423.0">扉</tspan></text></g>
  <g><polygon points="60.0,35.0 397.0,35.0 397.0,97.0 302.0,97.0 302.0,437.0 60.0,437.0" fill="none" stroke="#f0831e" stroke-width="5" stroke-dasharray="13 9" stroke-linejoin="round"/></g>
  <g><rect x="75.0" y="6.0" width="268.0" height="30.0" rx="2" fill="#ffffff" stroke="#f0831e" stroke-width="2"/><text dominant-baseline="middle" text-anchor="middle" fill="#f0831e" font-weight="700" font-size="17" font-family="'Hiragino Sans','Yu Gothic',sans-serif"><tspan x="209.0" y="21.0">コンパクトプラン専有スペース</tspan></text></g>
  <g><rect x="302.0" y="97.0" width="95.0" height="162.0" rx="2" fill="#fff8e8" stroke="#5a7a88" stroke-width="2.5"/><text dominant-baseline="middle" text-anchor="middle" fill="#5a7a88" font-weight="700" font-size="19" font-family="'Hiragino Sans','Yu Gothic',sans-serif"><tspan x="349.5" y="178.0">階段</tspan></text></g>
  <g><rect x="302.0" y="526.0" width="95.0" height="80.0" rx="2" fill="url(#hatch)" stroke="#5a7a88" stroke-width="2.5"/></g>
  <g><title>男子トイレ</title><rect x="302.0" y="606.0" width="95.0" height="75.0" rx="2" fill="#fff8e8" stroke="#5a7a88" stroke-width="2.5"/><text dominant-baseline="middle" text-anchor="middle" fill="#5a7a88" font-weight="700" font-size="17" font-family="'Hiragino Sans','Yu Gothic',sans-serif"><tspan x="349.5" y="633.1">男子</tspan><tspan x="349.5" y="653.9">トイレ</tspan></text></g>
  <g><title>女子トイレ</title><rect x="302.0" y="681.0" width="73.0" height="71.0" rx="2" fill="#fff8e8" stroke="#5a7a88" stroke-width="2.5"/><text dominant-baseline="middle" text-anchor="middle" fill="#5a7a88" font-weight="700" font-size="17" font-family="'Hiragino Sans','Yu Gothic',sans-serif"><tspan x="338.5" y="706.1">女子</tspan><tspan x="338.5" y="726.9">トイレ</tspan></text></g>
  <g><title>非常用階段</title><rect x="375.0" y="681.0" width="22.0" height="118.0" rx="2" fill="#fff8e8" stroke="#5a7a88" stroke-width="2.5"/><text dominant-baseline="middle" text-anchor="middle" fill="#5a7a88" font-weight="700" font-size="13" font-family="'Hiragino Sans','Yu Gothic',sans-serif"><tspan x="386.0" y="712.4">非</tspan><tspan x="386.0" y="726.2">常</tspan><tspan x="386.0" y="740.0">用</tspan><tspan x="386.0" y="753.8">階</tspan><tspan x="386.0" y="767.6">段</tspan></text></g>
  <g><rect x="302.0" y="752.0" width="73.0" height="47.0" rx="2" fill="#fff8e8" stroke="#5a7a88" stroke-width="2.5"/></g>
  <g><text dominant-baseline="middle" text-anchor="middle" fill="#5a7a88" font-weight="700" font-size="18" font-family="'Hiragino Sans','Yu Gothic',sans-serif"><tspan x="338.0" y="774.0">通用口</tspan></text></g>
  <g><polygon points="397.0,259.0 494.0,296.0 494.0,474.0 397.0,526.0" fill="#fff8e8" stroke="#2f7890" stroke-width="3.5" stroke-linejoin="round"/><text dominant-baseline="middle" text-anchor="middle" fill="#2f7890" font-weight="700" font-size="24" font-family="'Hiragino Sans','Yu Gothic',sans-serif"><tspan x="445.5" y="359.6">昇</tspan><tspan x="445.5" y="385.0">降</tspan><tspan x="445.5" y="410.4">口</tspan></text></g>
  <g><path d="M397.0,35.0 L846.0,35.0 L846.0,506.0 L953.0,506.0" fill="none" stroke="#2f7890" stroke-width="3.5" stroke-linejoin="round" stroke-linecap="square"/></g>
  <g><path d="M494.0,35.0 L494.0,296.0" fill="none" stroke="#2f7890" stroke-width="3.5" stroke-linejoin="round" stroke-linecap="square"/></g>
  <g><path d="M846.0,35.0 L953.0,35.0" fill="none" stroke="#2f7890" stroke-width="3.5" stroke-linejoin="round" stroke-linecap="square"/></g>
  <g><path d="M846.0,263.0 L953.0,263.0" fill="none" stroke="#2f7890" stroke-width="3.5" stroke-linejoin="round" stroke-linecap="square"/></g>
  <g><text dominant-baseline="middle" text-anchor="middle" fill="#2f7890" font-weight="700" font-size="24" font-family="'Hiragino Sans','Yu Gothic',sans-serif"><tspan x="444.0" y="113.1">B</tspan><tspan x="444.0" y="138.6">B</tspan><tspan x="444.0" y="164.0">Q</tspan><tspan x="444.0" y="189.4">場</tspan><tspan x="444.0" y="214.9">③</tspan></text></g>
  <g><text dominant-baseline="middle" text-anchor="middle" fill="#2f7890" font-weight="700" font-size="24" font-family="'Hiragino Sans','Yu Gothic',sans-serif"><tspan x="898.0" y="76.1">B</tspan><tspan x="898.0" y="101.6">B</tspan><tspan x="898.0" y="127.0">Q</tspan><tspan x="898.0" y="152.4">場</tspan><tspan x="898.0" y="177.9">②</tspan></text></g>
  <g><text dominant-baseline="middle" text-anchor="middle" fill="#2f7890" font-weight="700" font-size="24" font-family="'Hiragino Sans','Yu Gothic',sans-serif"><tspan x="898.0" y="358.1">B</tspan><tspan x="898.0" y="383.6">B</tspan><tspan x="898.0" y="409.0">Q</tspan><tspan x="898.0" y="434.4">場</tspan><tspan x="898.0" y="459.9">①</tspan></text></g>
  <g><text dominant-baseline="middle" text-anchor="middle" fill="#2f7890" font-weight="700" font-size="105" font-family="'Hiragino Sans','Yu Gothic',sans-serif" opacity="0.15"><tspan x="665.0" y="328.4">1</tspan><tspan x="665.0" y="439.7">階</tspan></text></g>
  <g><rect x="397.0" y="730.0" width="556.0" height="71.0" rx="2" fill="none" stroke="#2f7890" stroke-width="3.5" stroke-dasharray="9 6"/><text dominant-baseline="middle" text-anchor="middle" fill="#2f7890" font-weight="700" font-size="22" font-family="'Hiragino Sans','Yu Gothic',sans-serif"><tspan x="675.0" y="765.5">キャノピー（通路）</tspan></text></g>
  <g><rect x="953.0" y="35.0" width="218.0" height="183.0" rx="2" fill="#fff8e8" stroke="#2f7890" stroke-width="3.5"/><text dominant-baseline="middle" text-anchor="middle" fill="#2f7890" font-weight="700" font-size="30" font-family="'Hiragino Sans','Yu Gothic',sans-serif"><tspan x="1062.0" y="116.9">調理室②</tspan><tspan x="1062.0" y="144.1" font-size="17" fill="#5a7a88">（理科室）</tspan></text></g>
  <g><rect x="953.0" y="218.0" width="152.0" height="90.0" rx="2" fill="url(#hatch)" stroke="#5a7a88" stroke-width="2.5"/><text dominant-baseline="middle" text-anchor="middle" fill="#5a7a88" font-weight="700" font-size="18" font-family="'Hiragino Sans','Yu Gothic',sans-serif"><tspan x="1029.0" y="263.0">立入禁止</tspan></text></g>
  <g><rect x="953.0" y="308.0" width="218.0" height="199.0" rx="2" fill="#fff8e8" stroke="#2f7890" stroke-width="3.5"/><text dominant-baseline="middle" text-anchor="middle" fill="#2f7890" font-weight="700" font-size="30" font-family="'Hiragino Sans','Yu Gothic',sans-serif"><tspan x="1062.0" y="397.9">調理室①</tspan><tspan x="1062.0" y="425.1" font-size="17" fill="#5a7a88">（家庭科室）</tspan></text></g>
  <g><rect x="953.0" y="507.0" width="218.0" height="89.0" rx="2" fill="url(#hatch)" stroke="#5a7a88" stroke-width="2.5"/><text dominant-baseline="middle" text-anchor="middle" fill="#5a7a88" font-weight="700" font-size="18" font-family="'Hiragino Sans','Yu Gothic',sans-serif"><tspan x="1062.0" y="551.5">立入禁止</tspan></text></g>
  <g><rect x="953.0" y="596.0" width="218.0" height="136.0" rx="2" fill="#fff8e8" stroke="#2f7890" stroke-width="3.5"/><text dominant-baseline="middle" text-anchor="middle" fill="#2f7890" font-weight="700" font-size="30" font-family="'Hiragino Sans','Yu Gothic',sans-serif"><tspan x="1062.0" y="654.4">シャワー室</tspan><tspan x="1062.0" y="681.6" font-size="17" fill="#5a7a88">（保健室）</tspan></text></g>
  <g><rect x="953.0" y="732.0" width="218.0" height="67.0" rx="2" fill="#fff8e8" stroke="#5a7a88" stroke-width="2.5"/></g>
  <g><rect x="970.0" y="732.0" width="75.0" height="77.0" rx="2" fill="#fff8e8" stroke="#2f7890" stroke-width="3.5"/><text dominant-baseline="middle" text-anchor="middle" fill="#2f7890" font-weight="700" font-size="24" font-family="'Hiragino Sans','Yu Gothic',sans-serif"><tspan x="1007.5" y="770.5">玄関</tspan></text></g>
  <g><rect x="1171.0" y="35.0" width="96.0" height="764.0" rx="2" fill="#ffffff" stroke="#5a7a88" stroke-width="2.5"/><text dominant-baseline="middle" text-anchor="middle" fill="#5a7a88" font-weight="700" font-size="20" font-family="'Hiragino Sans','Yu Gothic',sans-serif"><tspan x="1219.0" y="406.4">廊</tspan><tspan x="1219.0" y="427.6">下</tspan></text></g>
  <g><rect x="1171.0" y="35.0" width="96.0" height="229.0" rx="2" fill="#fff8e8" stroke="#5a7a88" stroke-width="2.5"/><text dominant-baseline="middle" text-anchor="middle" fill="#5a7a88" font-weight="700" font-size="19" font-family="'Hiragino Sans','Yu Gothic',sans-serif"><tspan x="1219.0" y="81.5">階段</tspan></text></g>
  <g><rect x="1176.0" y="134.0" width="49.0" height="105.0" rx="2" fill="url(#hatch)" stroke="#5a7a88" stroke-width="2.5"/></g>
  <g><title>男子トイレ</title><rect x="1244.0" y="306.0" width="96.0" height="90.0" rx="2" fill="#fff8e8" stroke="#5a7a88" stroke-width="2.5"/><text dominant-baseline="middle" text-anchor="middle" fill="#5a7a88" font-weight="700" font-size="17" font-family="'Hiragino Sans','Yu Gothic',sans-serif"><tspan x="1292.0" y="351.0">男子トイレ</tspan></text></g>
  <g><title>女子トイレ</title><rect x="1244.0" y="396.0" width="96.0" height="112.0" rx="2" fill="#fff8e8" stroke="#5a7a88" stroke-width="2.5"/><text dominant-baseline="middle" text-anchor="middle" fill="#5a7a88" font-weight="700" font-size="17" font-family="'Hiragino Sans','Yu Gothic',sans-serif"><tspan x="1292.0" y="472.0">女子トイレ</tspan></text></g>
  <g><rect x="1244.0" y="376.0" width="23.0" height="63.0" rx="2" fill="#fff8e8" stroke="#5a7a88" stroke-width="2.5"/><text dominant-baseline="middle" text-anchor="middle" fill="#5a7a88" font-weight="700" font-size="14" font-family="'Hiragino Sans','Yu Gothic',sans-serif"><tspan x="1255.5" y="392.7">多</tspan><tspan x="1255.5" y="407.5">目</tspan><tspan x="1255.5" y="422.3">的</tspan></text></g>
  <g><text dominant-baseline="middle" text-anchor="middle" fill="#5a7a88" font-weight="700" font-size="16" font-family="'Hiragino Sans','Yu Gothic',sans-serif"><tspan x="1337.5" y="535.0">非常用出口</tspan></text></g>
  <g><title>非常用階段</title><rect x="1267.0" y="552.0" width="49.0" height="110.0" rx="2" fill="#fff8e8" stroke="#5a7a88" stroke-width="2.5"/><text dominant-baseline="middle" text-anchor="middle" fill="#5a7a88" font-weight="700" font-size="14" font-family="'Hiragino Sans','Yu Gothic',sans-serif"><tspan x="1291.5" y="577.3">非</tspan><tspan x="1291.5" y="592.2">常</tspan><tspan x="1291.5" y="607.0">用</tspan><tspan x="1291.5" y="621.8">階</tspan><tspan x="1291.5" y="636.7">段</tspan></text></g>
  <g><rect x="165.0" y="806.0" width="110.0" height="36.0" rx="2" fill="none" stroke="#2f7890" stroke-width="3.5" stroke-dasharray="9 6"/><text dominant-baseline="middle" text-anchor="middle" fill="#2f7890" font-weight="700" font-size="16" font-family="'Hiragino Sans','Yu Gothic',sans-serif"><tspan x="220.0" y="824.0">喫煙所</tspan></text></g>
  <g><text dominant-baseline="middle" text-anchor="middle" fill="#2f7890" font-weight="700" font-size="32" font-family="'Hiragino Sans','Yu Gothic',sans-serif"><tspan x="210.0" y="876.0">南棟</tspan></text></g>
  <g><text dominant-baseline="middle" text-anchor="middle" fill="#2f7890" font-weight="700" font-size="32" font-family="'Hiragino Sans','Yu Gothic',sans-serif"><tspan x="1105.0" y="876.0">北棟</tspan></text></g>
</svg>
