<svg xmlns="http://www.w3.org/2000/svg" width="1465" height="947" viewBox="0 0 1465 947">
  <defs><pattern id="hatch" width="18" height="18" patternTransform="rotate(45)" patternUnits="userSpaceOnUse"><rect width="18" height="18" fill="#e3ded2"/><line x1="0" y1="0" x2="0" y2="18" stroke="#b7ae98" stroke-width="2.5"/></pattern></defs>
  <g><rect x="421.0" y="8.0" width="828.0" height="101.0" rx="2" fill="#ffffff" stroke="#2f7890" stroke-width="3.5"/></g>
  <g><text dominant-baseline="middle" text-anchor="middle" fill="#2f7890" font-weight="700" font-size="26" font-family="'Hiragino Sans','Yu Gothic',sans-serif"><tspan x="730.0" y="58.5">渡り廊下</tspan></text></g>
  <g><rect x="9.0" y="8.0" width="50.0" height="816.0" rx="2" fill="none" stroke="#2f7890" stroke-width="3.5" stroke-dasharray="9 6"/><text dominant-baseline="middle" text-anchor="middle" fill="#2f7890" font-weight="700" font-size="20" font-family="'Hiragino Sans','Yu Gothic',sans-serif"><tspan x="34.0" y="384.2">ベ</tspan><tspan x="34.0" y="405.4">ラ</tspan><tspan x="34.0" y="426.6">ン</tspan><tspan x="34.0" y="447.8">ダ</tspan></text></g>
  <g><rect x="59.0" y="8.0" width="181.0" height="338.0" rx="2" fill="#fff8e8" stroke="#2f7890" stroke-width="3.5"/><text dominant-baseline="middle" text-anchor="middle" fill="#2f7890" font-weight="700" font-size="30" font-family="'Hiragino Sans','Yu Gothic',sans-serif"><tspan x="149.5" y="177.0">会議室③</tspan></text></g>
  <g><rect x="59.0" y="346.0" width="181.0" height="99.0" rx="2" fill="#fff8e8" stroke="#2f7890" stroke-width="3.5"/><text dominant-baseline="middle" text-anchor="middle" fill="#2f7890" font-weight="700" font-size="30" font-family="'Hiragino Sans','Yu Gothic',sans-serif"><tspan x="149.5" y="381.9">会議室②</tspan><tspan x="149.5" y="409.1" font-size="17" fill="#5a7a88">（相談室）</tspan></text></g>
  <g><rect x="59.0" y="445.0" width="181.0" height="189.0" rx="2" fill="#fff8e8" stroke="#2f7890" stroke-width="3.5"/><text dominant-baseline="middle" text-anchor="middle" fill="#2f7890" font-weight="700" font-size="30" font-family="'Hiragino Sans','Yu Gothic',sans-serif"><tspan x="149.5" y="525.9">会議室①</tspan><tspan x="149.5" y="553.1" font-size="17" fill="#5a7a88">（1年教室）</tspan></text></g>
  <g><title>コワークスペース</title><rect x="59.0" y="634.0" width="181.0" height="190.0" rx="2" fill="#fff8e8" stroke="#2f7890" stroke-width="3.5"/><text dominant-baseline="middle" text-anchor="middle" fill="#2f7890" font-weight="700" font-size="26" font-family="'Hiragino Sans','Yu Gothic',sans-serif"><tspan x="149.5" y="701.1">コワーク</tspan><tspan x="149.5" y="732.9">スペース</tspan><tspan x="149.5" y="756.9" font-size="15" fill="#5a7a88">（2年教室）</tspan></text></g>
  <g><polygon points="240.0,8.0 421.0,8.0 421.0,109.0 321.0,109.0 321.0,252.0 421.0,252.0 421.0,539.0 321.0,539.0 321.0,824.0 240.0,824.0" fill="#ffffff" stroke="#5a7a88" stroke-width="2.5" stroke-linejoin="round"/><text dominant-baseline="middle" text-anchor="middle" fill="#5a7a88" font-weight="700" font-size="20" font-family="'Hiragino Sans','Yu Gothic',sans-serif"><tspan x="280.5" y="405.4">廊</tspan><tspan x="280.5" y="426.6">下</tspan></text></g>
  <g><rect x="321.0" y="109.0" width="100.0" height="143.0" rx="2" fill="#fff8e8" stroke="#5a7a88" stroke-width="2.5"/><text dominant-baseline="middle" text-anchor="middle" fill="#5a7a88" font-weight="700" font-size="19" font-family="'Hiragino Sans','Yu Gothic',sans-serif"><tspan x="371.0" y="180.5">階段</tspan></text></g>
  <g><rect x="321.0" y="539.0" width="100.0" height="71.0" rx="2" fill="url(#hatch)" stroke="#5a7a88" stroke-width="2.5"/></g>
  <g><title>男子トイレ</title><rect x="321.0" y="610.0" width="100.0" height="50.0" rx="2" fill="#fff8e8" stroke="#5a7a88" stroke-width="2.5"/><text dominant-baseline="middle" text-anchor="middle" fill="#5a7a88" font-weight="700" font-size="16" font-family="'Hiragino Sans','Yu Gothic',sans-serif"><tspan x="371.0" y="635.0">男子トイレ</tspan></text></g>
  <g><title>女子トイレ</title><rect x="321.0" y="660.0" width="100.0" height="48.0" rx="2" fill="#fff8e8" stroke="#5a7a88" stroke-width="2.5"/><text dominant-baseline="middle" text-anchor="middle" fill="#5a7a88" font-weight="700" font-size="16" font-family="'Hiragino Sans','Yu Gothic',sans-serif"><tspan x="371.0" y="684.0">女子トイレ</tspan></text></g>
  <g><title>非常用階段</title><rect x="321.0" y="708.0" width="100.0" height="116.0" rx="2" fill="#fff8e8" stroke="#5a7a88" stroke-width="2.5"/><text dominant-baseline="middle" text-anchor="middle" fill="#5a7a88" font-weight="700" font-size="15" font-family="'Hiragino Sans','Yu Gothic',sans-serif"><tspan x="371.0" y="734.2">非</tspan><tspan x="371.0" y="750.1">常</tspan><tspan x="371.0" y="766.0">用</tspan><tspan x="371.0" y="781.9">階</tspan><tspan x="371.0" y="797.8">段</tspan></text></g>
  <g><text dominant-baseline="middle" text-anchor="middle" fill="#5a7a88" font-weight="700" font-size="16" font-family="'Hiragino Sans','Yu Gothic',sans-serif"><tspan x="322.5" y="845.0">非常用出口</tspan></text></g>
  <g><polygon points="421.0,252.0 525.0,317.0 525.0,472.0 421.0,552.0" fill="none" stroke="#2f7890" stroke-width="3.5" stroke-dasharray="9 6" stroke-linejoin="round"/><text dominant-baseline="middle" text-anchor="middle" fill="#2f7890" font-weight="700" font-size="22" font-family="'Hiragino Sans','Yu Gothic',sans-serif"><tspan x="473.0" y="376.2">テ</tspan><tspan x="473.0" y="399.5">ラ</tspan><tspan x="473.0" y="422.8">ス</tspan></text></g>
  <g><text dominant-baseline="middle" text-anchor="middle" fill="#2f7890" font-weight="700" font-size="105" font-family="'Hiragino Sans','Yu Gothic',sans-serif" opacity="0.15"><tspan x="705.0" y="366.4">2</tspan><tspan x="705.0" y="477.7">階</tspan></text></g>
  <g><rect x="961.0" y="109.0" width="52.0" height="721.0" rx="2" fill="none" stroke="#2f7890" stroke-width="3.5" stroke-dasharray="9 6"/><text dominant-baseline="middle" text-anchor="middle" fill="#2f7890" font-weight="700" font-size="20" font-family="'Hiragino Sans','Yu Gothic',sans-serif"><tspan x="987.0" y="437.7">ベ</tspan><tspan x="987.0" y="458.9">ラ</tspan><tspan x="987.0" y="480.1">ン</tspan><tspan x="987.0" y="501.3">ダ</tspan></text></g>
  <g><title>北棟宿泊部屋③</title><rect x="1013.0" y="109.0" width="181.0" height="121.0" rx="2" fill="#fff8e8" stroke="#2f7890" stroke-width="3.5"/><text dominant-baseline="middle" text-anchor="middle" fill="#2f7890" font-weight="700" font-size="25" font-family="'Hiragino Sans','Yu Gothic',sans-serif"><tspan x="1103.5" y="143.1">北棟宿泊</tspan><tspan x="1103.5" y="173.6">部屋③</tspan><tspan x="1103.5" y="195.9" font-size="14" fill="#5a7a88">（児童会室）</tspan></text></g>
  <g><rect x="1013.0" y="230.0" width="181.0" height="196.0" rx="2" fill="#fff8e8" stroke="#2f7890" stroke-width="3.5"/><text dominant-baseline="middle" text-anchor="middle" fill="#2f7890" font-weight="700" font-size="30" font-family="'Hiragino Sans','Yu Gothic',sans-serif"><tspan x="1103.5" y="314.4">教室②</tspan><tspan x="1103.5" y="341.6" font-size="17" fill="#5a7a88">（5年教室）</tspan></text></g>
  <g><polygon points="1013.0,426.0 1194.0,426.0 1194.0,614.0 1346.0,614.0 1346.0,830.0 1013.0,830.0" fill="url(#hatch)" stroke="#5a7a88" stroke-width="2.5" stroke-linejoin="round"/><text dominant-baseline="middle" text-anchor="middle" fill="#5a7a88" font-weight="700" font-size="18" font-family="'Hiragino Sans','Yu Gothic',sans-serif"><tspan x="1179.5" y="688.0">立入禁止</tspan></text></g>
  <g><rect x="1194.0" y="109.0" width="129.0" height="505.0" rx="2" fill="#ffffff" stroke="#5a7a88" stroke-width="2.5"/><text dominant-baseline="middle" text-anchor="middle" fill="#5a7a88" font-weight="700" font-size="20" font-family="'Hiragino Sans','Yu Gothic',sans-serif"><tspan x="1258.5" y="350.9">廊</tspan><tspan x="1258.5" y="372.1">下</tspan></text></g>
  <g><rect x="1249.0" y="74.0" width="103.0" height="178.0" rx="2" fill="#fff8e8" stroke="#5a7a88" stroke-width="2.5"/><text dominant-baseline="middle" text-anchor="middle" fill="#5a7a88" font-weight="700" font-size="19" font-family="'Hiragino Sans','Yu Gothic',sans-serif"><tspan x="1300.5" y="163.0">階段</tspan></text></g>
  <g><title>男子トイレ</title><rect x="1323.0" y="304.0" width="103.0" height="99.0" rx="2" fill="#fff8e8" stroke="#5a7a88" stroke-width="2.5"/><text dominant-baseline="middle" text-anchor="middle" fill="#5a7a88" font-weight="700" font-size="18" font-family="'Hiragino Sans','Yu Gothic',sans-serif"><tspan x="1374.5" y="342.5">男子</tspan><tspan x="1374.5" y="364.5">トイレ</tspan></text></g>
  <g><title>女子トイレ</title><rect x="1323.0" y="403.0" width="103.0" height="119.0" rx="2" fill="#fff8e8" stroke="#5a7a88" stroke-width="2.5"/><text dominant-baseline="middle" text-anchor="middle" fill="#5a7a88" font-weight="700" font-size="18" font-family="'Hiragino Sans','Yu Gothic',sans-serif"><tspan x="1374.5" y="451.5">女子</tspan><tspan x="1374.5" y="473.5">トイレ</tspan></text></g>
  <g><text dominant-baseline="middle" text-anchor="middle" fill="#5a7a88" font-weight="700" font-size="16" font-family="'Hiragino Sans','Yu Gothic',sans-serif"><tspan x="1390.5" y="541.0">非常用出口</tspan></text></g>
  <g><title>非常用階段</title><rect x="1345.0" y="569.0" width="52.0" height="120.0" rx="2" fill="#fff8e8" stroke="#5a7a88" stroke-width="2.5"/><text dominant-baseline="middle" text-anchor="middle" fill="#5a7a88" font-weight="700" font-size="15" font-family="'Hiragino Sans','Yu Gothic',sans-serif"><tspan x="1371.0" y="597.2">非</tspan><tspan x="1371.0" y="613.1">常</tspan><tspan x="1371.0" y="629.0">用</tspan><tspan x="1371.0" y="644.9">階</tspan><tspan x="1371.0" y="660.8">段</tspan></text></g>
  <g><text dominant-baseline="middle" text-anchor="middle" fill="#2f7890" font-weight="700" font-size="32" font-family="'Hiragino Sans','Yu Gothic',sans-serif"><tspan x="220.0" y="904.0">南棟</tspan></text></g>
  <g><text dominant-baseline="middle" text-anchor="middle" fill="#2f7890" font-weight="700" font-size="32" font-family="'Hiragino Sans','Yu Gothic',sans-serif"><tspan x="1160.0" y="904.0">北棟</tspan></text></g>
  <g><rect x="417.0" y="8.0" width="8.0" height="101.0" rx="2" fill="#ffffff" stroke="none" stroke-width="0"/></g>
  <g><rect x="1194.0" y="105.0" width="55.0" height="8.0" rx="2" fill="#ffffff" stroke="none" stroke-width="0"/></g>
</svg>
