<svg xmlns="http://www.w3.org/2000/svg" width="1420" height="895" viewBox="0 0 1420 895">
  <defs><pattern id="hatch" width="18" height="18" patternTransform="rotate(45)" patternUnits="userSpaceOnUse"><rect width="18" height="18" fill="#e3ded2"/><line x1="0" y1="0" x2="0" y2="18" stroke="#b7ae98" stroke-width="2.5"/></pattern></defs>
  <g><polygon points="60.0,11.0 397.0,11.0 397.0,73.0 302.0,73.0 302.0,413.0 60.0,413.0" fill="#fdeee0" stroke="none" stroke-width="0" stroke-linejoin="round"/></g>
  <g><rect x="12.0" y="11.0" width="48.0" height="764.0" rx="2" fill="none" stroke="#2f7890" stroke-width="3.5" stroke-dasharray="9 6"/><text dominant-baseline="middle" text-anchor="middle" fill="#2f7890" font-weight="700" font-size="20" font-family="'Hiragino Sans','Yu Gothic',sans-serif"><tspan x="36.0" y="371.8">テ</tspan><tspan x="36.0" y="393.0">ラ</tspan><tspan x="36.0" y="414.2">ス</tspan></text></g>
  <g><polygon points="60.0,11.0 397.0,11.0 397.0,73.0 302.0,73.0 302.0,196.0 60.0,196.0" fill="#fff8e8" stroke="#2f7890" stroke-width="3.5" stroke-linejoin="round"/><text dominant-baseline="middle" text-anchor="middle" fill="#2f7890" font-weight="700" font-size="30" font-family="'Hiragino Sans','Yu Gothic',sans-serif"><tspan x="181.0" y="93.9">食堂</tspan><tspan x="181.0" y="121.1" font-size="17" fill="#5a7a88">（給食室）</tspan></text></g>
  <g><title>南棟一階宿泊部屋②</title><rect x="60.0" y="196.0" width="169.0" height="75.0" rx="2" fill="#fff8e8" stroke="#2f7890" stroke-width="3.5"/><text dominant-baseline="middle" text-anchor="middle" fill="#2f7890" font-weight="700" font-size="25" font-family="'Hiragino Sans','Yu Gothic',sans-serif"><tspan font-size="24" x="144.5" y="221.9">南棟一階</tspan><tspan font-size="24" x="144.5" y="251.1">宿泊部屋②</tspan></text></g>
  <g><title>南棟一階宿泊部屋①</title><rect x="60.0" y="271.0" width="169.0" height="142.0" rx="2" fill="#fff8e8" stroke="#2f7890" stroke-width="3.5"/><text dominant-baseline="middle" text-anchor="middle" fill="#2f7890" font-weight="700" font-size="25" font-family="'Hiragino Sans','Yu Gothic',sans-serif"><tspan x="144.5" y="330.8">南棟一階</tspan><tspan x="144.5" y="361.3">宿泊部屋①</tspan></text></g>
  <g><rect x="60.0" y="413.0" width="169.0" height="362.0" rx="2" fill="url(#hatch)" stroke="#5a7a88" stroke-width="2.5"/><text dominant-baseline="middle" text-anchor="middle" fill="#2f7890" font-weight="700" font-size="28" font-family="'Hiragino Sans','Yu Gothic',sans-serif"><tspan x="144.5" y="594.0">職員室</tspan></text></g>
  <g><rect x="229.0" y="196.0" width="73.0" height="217.0" rx="2" fill="#fdeee0" stroke="#5a7a88" stroke-width="2.5"/></g>
  <g><rect x="229.0" y="413.0" width="73.0" height="362.0" rx="2" fill="#ffffff" stroke="#5a7a88" stroke-width="2.5"/><text dominant-baseline="middle" text-anchor="middle" fill="#5a7a88" font-weight="700" font-size="20" font-family="'Hiragino Sans','Yu Gothic',sans-serif"><tspan x="265.5" y="583.4">廊</tspan><tspan x="265.5" y="604.6">下</tspan></text></g>
  <g><rect x="302.0" y="235.0" width="95.0" height="267.0" rx="2" fill="#ffffff" stroke="#5a7a88" stroke-width="2.5"/></g>
  <g><path d="M229.0,413.0 L302.0,413.0" fill="none" stroke="#2f7890" stroke-width="3.5" stroke-linejoin="round" stroke-linecap="square"/></g>
  <g><text dominant-baseline="middle" text-anchor="middle" fill="#5a7a88" font-weight="700" font-size="14" font-family="'Hiragino Sans','Yu Gothic',sans-serif"><tspan x="265.5" y="399.0">扉</tspan></text></g>
  <g><polygon points="60.0,11.0 397.0,11.0 397.0,73.0 302.0,73.0 302.0,413.0 60.0,413.0" fill="none" stroke="#f0831e" stroke-width="3" stroke-dasharray="10 7" stroke-linejoin="round"/></g>
  <g><rect x="302.0" y="73.0" width="95.0" height="162.0" rx="2" fill="#fff8e8" stroke="#5a7a88" stroke-width="2.5"/><text dominant-baseline="middle" text-anchor="middle" fill="#5a7a88" font-weight="700" font-size="19" font-family="'Hiragino Sans','Yu Gothic',sans-serif"><tspan x="349.5" y="154.0">階段</tspan></text></g>
  <g><rect x="302.0" y="502.0" width="95.0" height="80.0" rx="2" fill="url(#hatch)" stroke="#5a7a88" stroke-width="2.5"/></g>
  <g><title>男子トイレ</title><rect x="302.0" y="582.0" width="95.0" height="75.0" rx="2" fill="#fff8e8" stroke="#5a7a88" stroke-width="2.5"/><text dominant-baseline="middle" text-anchor="middle" fill="#5a7a88" font-weight="700" font-size="17" font-family="'Hiragino Sans','Yu Gothic',sans-serif"><tspan x="349.5" y="609.1">男子</tspan><tspan x="349.5" y="629.9">トイレ</tspan></text></g>
  <g><title>女子トイレ</title><rect x="302.0" y="657.0" width="73.0" height="71.0" rx="2" fill="#fff8e8" stroke="#5a7a88" stroke-width="2.5"/><text dominant-baseline="middle" text-anchor="middle" fill="#5a7a88" font-weight="700" font-size="17" font-family="'Hiragino Sans','Yu Gothic',sans-serif"><tspan x="338.5" y="682.1">女子</tspan><tspan x="338.5" y="702.9">トイレ</tspan></text></g>
  <g><title>非常用階段</title><rect x="375.0" y="657.0" width="22.0" height="118.0" rx="2" fill="#fff8e8" stroke="#5a7a88" stroke-width="2.5"/><text dominant-baseline="middle" text-anchor="middle" fill="#5a7a88" font-weight="700" font-size="13" font-family="'Hiragino Sans','Yu Gothic',sans-serif"><tspan x="386.0" y="688.4">非</tspan><tspan x="386.0" y="702.2">常</tspan><tspan x="386.0" y="716.0">用</tspan><tspan x="386.0" y="729.8">階</tspan><tspan x="386.0" y="743.6">段</tspan></text></g>
  <g><rect x="302.0" y="728.0" width="73.0" height="47.0" rx="2" fill="#fff8e8" stroke="#5a7a88" stroke-width="2.5"/></g>
  <g><text dominant-baseline="middle" text-anchor="middle" fill="#5a7a88" font-weight="700" font-size="18" font-family="'Hiragino Sans','Yu Gothic',sans-serif"><tspan x="338.0" y="750.0">通用口</tspan></text></g>
  <g><polygon points="397.0,235.0 494.0,272.0 494.0,450.0 397.0,502.0" fill="#fff8e8" stroke="#2f7890" stroke-width="3.5" stroke-linejoin="round"/><text dominant-baseline="middle" text-anchor="middle" fill="#2f7890" font-weight="700" font-size="24" font-family="'Hiragino Sans','Yu Gothic',sans-serif"><tspan x="445.5" y="335.6">昇</tspan><tspan x="445.5" y="361.0">降</tspan><tspan x="445.5" y="386.4">口</tspan></text></g>
  <g><path d="M397.0,11.0 L846.0,11.0 L846.0,482.0 L953.0,482.0" fill="none" stroke="#2f7890" stroke-width="3.5" stroke-linejoin="round" stroke-linecap="square"/></g>
  <g><path d="M494.0,11.0 L494.0,272.0" fill="none" stroke="#2f7890" stroke-width="3.5" stroke-linejoin="round" stroke-linecap="square"/></g>
  <g><path d="M846.0,11.0 L953.0,11.0" fill="none" stroke="#2f7890" stroke-width="3.5" stroke-linejoin="round" stroke-linecap="square"/></g>
  <g><path d="M846.0,239.0 L953.0,239.0" fill="none" stroke="#2f7890" stroke-width="3.5" stroke-linejoin="round" stroke-linecap="square"/></g>
  <g><text dominant-baseline="middle" text-anchor="middle" fill="#2f7890" font-weight="700" font-size="24" font-family="'Hiragino Sans','Yu Gothic',sans-serif"><tspan x="444.0" y="89.1">B</tspan><tspan x="444.0" y="114.6">B</tspan><tspan x="444.0" y="140.0">Q</tspan><tspan x="444.0" y="165.4">場</tspan><tspan x="444.0" y="190.9">③</tspan></text></g>
  <g><text dominant-baseline="middle" text-anchor="middle" fill="#2f7890" font-weight="700" font-size="24" font-family="'Hiragino Sans','Yu Gothic',sans-serif"><tspan x="898.0" y="52.1">B</tspan><tspan x="898.0" y="77.6">B</tspan><tspan x="898.0" y="103.0">Q</tspan><tspan x="898.0" y="128.4">場</tspan><tspan x="898.0" y="153.9">②</tspan></text></g>
  <g><text dominant-baseline="middle" text-anchor="middle" fill="#2f7890" font-weight="700" font-size="24" font-family="'Hiragino Sans','Yu Gothic',sans-serif"><tspan x="898.0" y="334.1">B</tspan><tspan x="898.0" y="359.6">B</tspan><tspan x="898.0" y="385.0">Q</tspan><tspan x="898.0" y="410.4">場</tspan><tspan x="898.0" y="435.9">①</tspan></text></g>
  <g><text dominant-baseline="middle" text-anchor="middle" fill="#2f7890" font-weight="700" font-size="105" font-family="'Hiragino Sans','Yu Gothic',sans-serif" opacity="0.15"><tspan x="665.0" y="304.4">1</tspan><tspan x="665.0" y="415.7">階</tspan></text></g>
  <g><rect x="397.0" y="706.0" width="556.0" height="71.0" rx="2" fill="none" stroke="#2f7890" stroke-width="3.5" stroke-dasharray="9 6"/><text dominant-baseline="middle" text-anchor="middle" fill="#2f7890" font-weight="700" font-size="22" font-family="'Hiragino Sans','Yu Gothic',sans-serif"><tspan x="675.0" y="741.5">キャノピー（通路）</tspan></text></g>
  <g><rect x="953.0" y="11.0" width="218.0" height="183.0" rx="2" fill="#fff8e8" stroke="#2f7890" stroke-width="3.5"/><text dominant-baseline="middle" text-anchor="middle" fill="#2f7890" font-weight="700" font-size="30" font-family="'Hiragino Sans','Yu Gothic',sans-serif"><tspan x="1062.0" y="92.9">調理室②</tspan><tspan x="1062.0" y="120.1" font-size="17" fill="#5a7a88">（理科室）</tspan></text></g>
  <g><rect x="953.0" y="194.0" width="152.0" height="90.0" rx="2" fill="url(#hatch)" stroke="#5a7a88" stroke-width="2.5"/><text dominant-baseline="middle" text-anchor="middle" fill="#5a7a88" font-weight="700" font-size="18" font-family="'Hiragino Sans','Yu Gothic',sans-serif"><tspan x="1029.0" y="239.0">立入禁止</tspan></text></g>
  <g><rect x="953.0" y="284.0" width="218.0" height="199.0" rx="2" fill="#fff8e8" stroke="#2f7890" stroke-width="3.5"/><text dominant-baseline="middle" text-anchor="middle" fill="#2f7890" font-weight="700" font-size="30" font-family="'Hiragino Sans','Yu Gothic',sans-serif"><tspan x="1062.0" y="373.9">調理室①</tspan><tspan x="1062.0" y="401.1" font-size="17" fill="#5a7a88">（家庭科室）</tspan></text></g>
  <g><rect x="953.0" y="483.0" width="218.0" height="89.0" rx="2" fill="url(#hatch)" stroke="#5a7a88" stroke-width="2.5"/><text dominant-baseline="middle" text-anchor="middle" fill="#5a7a88" font-weight="700" font-size="18" font-family="'Hiragino Sans','Yu Gothic',sans-serif"><tspan x="1062.0" y="527.5">立入禁止</tspan></text></g>
  <g><rect x="953.0" y="572.0" width="218.0" height="136.0" rx="2" fill="#fff8e8" stroke="#2f7890" stroke-width="3.5"/><text dominant-baseline="middle" text-anchor="middle" fill="#2f7890" font-weight="700" font-size="30" font-family="'Hiragino Sans','Yu Gothic',sans-serif"><tspan x="1062.0" y="630.4">シャワー室</tspan><tspan x="1062.0" y="657.6" font-size="17" fill="#5a7a88">（保健室）</tspan></text></g>
  <g><rect x="953.0" y="708.0" width="218.0" height="67.0" rx="2" fill="#fff8e8" stroke="#5a7a88" stroke-width="2.5"/></g>
  <g><rect x="970.0" y="708.0" width="75.0" height="77.0" rx="2" fill="#fff8e8" stroke="#2f7890" stroke-width="3.5"/><text dominant-baseline="middle" text-anchor="middle" fill="#2f7890" font-weight="700" font-size="24" font-family="'Hiragino Sans','Yu Gothic',sans-serif"><tspan x="1007.5" y="746.5">玄関</tspan></text></g>
  <g><rect x="1171.0" y="11.0" width="96.0" height="764.0" rx="2" fill="#ffffff" stroke="#5a7a88" stroke-width="2.5"/><text dominant-baseline="middle" text-anchor="middle" fill="#5a7a88" font-weight="700" font-size="20" font-family="'Hiragino Sans','Yu Gothic',sans-serif"><tspan x="1219.0" y="382.4">廊</tspan><tspan x="1219.0" y="403.6">下</tspan></text></g>
  <g><rect x="1171.0" y="11.0" width="96.0" height="229.0" rx="2" fill="#fff8e8" stroke="#5a7a88" stroke-width="2.5"/><text dominant-baseline="middle" text-anchor="middle" fill="#5a7a88" font-weight="700" font-size="19" font-family="'Hiragino Sans','Yu Gothic',sans-serif"><tspan x="1219.0" y="57.5">階段</tspan></text></g>
  <g><rect x="1176.0" y="110.0" width="49.0" height="105.0" rx="2" fill="url(#hatch)" stroke="#5a7a88" stroke-width="2.5"/></g>
  <g><title>男子トイレ</title><rect x="1244.0" y="282.0" width="96.0" height="90.0" rx="2" fill="#fff8e8" stroke="#5a7a88" stroke-width="2.5"/><text dominant-baseline="middle" text-anchor="middle" fill="#5a7a88" font-weight="700" font-size="17" font-family="'Hiragino Sans','Yu Gothic',sans-serif"><tspan x="1292.0" y="327.0">男子トイレ</tspan></text></g>
  <g><title>女子トイレ</title><rect x="1244.0" y="372.0" width="96.0" height="112.0" rx="2" fill="#fff8e8" stroke="#5a7a88" stroke-width="2.5"/><text dominant-baseline="middle" text-anchor="middle" fill="#5a7a88" font-weight="700" font-size="17" font-family="'Hiragino Sans','Yu Gothic',sans-serif"><tspan x="1292.0" y="448.0">女子トイレ</tspan></text></g>
  <g><rect x="1244.0" y="352.0" width="23.0" height="63.0" rx="2" fill="#fff8e8" stroke="#5a7a88" stroke-width="2.5"/><text dominant-baseline="middle" text-anchor="middle" fill="#5a7a88" font-weight="700" font-size="14" font-family="'Hiragino Sans','Yu Gothic',sans-serif"><tspan x="1255.5" y="368.7">多</tspan><tspan x="1255.5" y="383.5">目</tspan><tspan x="1255.5" y="398.3">的</tspan></text></g>
  <g><text dominant-baseline="middle" text-anchor="middle" fill="#5a7a88" font-weight="700" font-size="16" font-family="'Hiragino Sans','Yu Gothic',sans-serif"><tspan x="1337.5" y="511.0">非常用出口</tspan></text></g>
  <g><title>非常用階段</title><rect x="1267.0" y="528.0" width="49.0" height="110.0" rx="2" fill="#fff8e8" stroke="#5a7a88" stroke-width="2.5"/><text dominant-baseline="middle" text-anchor="middle" fill="#5a7a88" font-weight="700" font-size="14" font-family="'Hiragino Sans','Yu Gothic',sans-serif"><tspan x="1291.5" y="553.3">非</tspan><tspan x="1291.5" y="568.2">常</tspan><tspan x="1291.5" y="583.0">用</tspan><tspan x="1291.5" y="597.8">階</tspan><tspan x="1291.5" y="612.7">段</tspan></text></g>
  <g><rect x="165.0" y="782.0" width="110.0" height="36.0" rx="2" fill="none" stroke="#2f7890" stroke-width="3.5" stroke-dasharray="9 6"/><text dominant-baseline="middle" text-anchor="middle" fill="#2f7890" font-weight="700" font-size="16" font-family="'Hiragino Sans','Yu Gothic',sans-serif"><tspan x="220.0" y="800.0">喫煙所</tspan></text></g>
  <g><text dominant-baseline="middle" text-anchor="middle" fill="#2f7890" font-weight="700" font-size="32" font-family="'Hiragino Sans','Yu Gothic',sans-serif"><tspan x="210.0" y="852.0">南棟</tspan></text></g>
  <g><text dominant-baseline="middle" text-anchor="middle" fill="#2f7890" font-weight="700" font-size="32" font-family="'Hiragino Sans','Yu Gothic',sans-serif"><tspan x="1105.0" y="852.0">北棟</tspan></text></g>
</svg>
