<svg xmlns="http://www.w3.org/2000/svg" width="1455" height="942" viewBox="0 0 1455 942">
  <defs><pattern id="hatch" width="18" height="18" patternTransform="rotate(45)" patternUnits="userSpaceOnUse"><rect width="18" height="18" fill="#e3ded2"/><line x1="0" y1="0" x2="0" y2="18" stroke="#b7ae98" stroke-width="2.5"/></pattern></defs>
  <g><rect x="10.0" y="10.0" width="51.0" height="807.0" rx="2" fill="none" stroke="#2f7890" stroke-width="3.5" stroke-dasharray="9 6"/><text dominant-baseline="middle" text-anchor="middle" fill="#2f7890" font-weight="700" font-size="20" font-family="'Hiragino Sans','Yu Gothic',sans-serif"><tspan x="35.5" y="381.7">ベ</tspan><tspan x="35.5" y="402.9">ラ</tspan><tspan x="35.5" y="424.1">ン</tspan><tspan x="35.5" y="445.3">ダ</tspan></text></g>
  <g><title>南棟宿泊部屋①</title><rect x="61.0" y="10.0" width="258.0" height="310.0" rx="2" fill="#fff8e8" stroke="#2f7890" stroke-width="3.5"/><text dominant-baseline="middle" text-anchor="middle" fill="#2f7890" font-weight="700" font-size="26" font-family="'Hiragino Sans','Yu Gothic',sans-serif"><tspan x="190.0" y="141.1">南棟宿泊</tspan><tspan x="190.0" y="172.9">部屋①</tspan><tspan x="190.0" y="196.9" font-size="15" fill="#5a7a88">（多目的室）</tspan></text></g>
  <g><title>南棟宿泊部屋③</title><rect x="61.0" y="320.0" width="180.0" height="118.0" rx="2" fill="#fff8e8" stroke="#2f7890" stroke-width="3.5"/><text dominant-baseline="middle" text-anchor="middle" fill="#2f7890" font-weight="700" font-size="24" font-family="'Hiragino Sans','Yu Gothic',sans-serif"><tspan x="151.0" y="356.2">南棟宿泊</tspan><tspan x="151.0" y="385.4">部屋③</tspan><tspan x="151.0" y="407.8" font-size="14" fill="#5a7a88">（放送室）</tspan></text></g>
  <g><title>南棟宿泊部屋②</title><rect x="61.0" y="438.0" width="180.0" height="189.0" rx="2" fill="#fff8e8" stroke="#2f7890" stroke-width="3.5"/><text dominant-baseline="middle" text-anchor="middle" fill="#2f7890" font-weight="700" font-size="26" font-family="'Hiragino Sans','Yu Gothic',sans-serif"><tspan x="151.0" y="508.6">南棟宿泊</tspan><tspan x="151.0" y="540.4">部屋②</tspan><tspan x="151.0" y="564.4" font-size="15" fill="#5a7a88">（3年教室）</tspan></text></g>
  <g><rect x="61.0" y="627.0" width="180.0" height="190.0" rx="2" fill="#fff8e8" stroke="#2f7890" stroke-width="3.5"/><text dominant-baseline="middle" text-anchor="middle" fill="#2f7890" font-weight="700" font-size="30" font-family="'Hiragino Sans','Yu Gothic',sans-serif"><tspan x="151.0" y="712.4">教室①</tspan><tspan x="151.0" y="739.6" font-size="17" fill="#5a7a88">（4年教室）</tspan></text></g>
  <g><rect x="319.0" y="10.0" width="102.0" height="94.0" rx="2" fill="url(#hatch)" stroke="#5a7a88" stroke-width="2.5"/></g>
  <g><rect x="319.0" y="104.0" width="102.0" height="148.0" rx="2" fill="#fff8e8" stroke="#5a7a88" stroke-width="2.5"/><text dominant-baseline="middle" text-anchor="middle" fill="#5a7a88" font-weight="700" font-size="19" font-family="'Hiragino Sans','Yu Gothic',sans-serif"><tspan x="370.0" y="178.0">階段</tspan></text></g>
  <g><polygon points="319.0,252.0 421.0,252.0 421.0,533.0 319.0,533.0 319.0,817.0 241.0,817.0 241.0,438.0 319.0,438.0" fill="#ffffff" stroke="#5a7a88" stroke-width="2.5" stroke-linejoin="round"/><text dominant-baseline="middle" text-anchor="middle" fill="#5a7a88" font-weight="700" font-size="20" font-family="'Hiragino Sans','Yu Gothic',sans-serif"><tspan x="370.0" y="381.9">廊</tspan><tspan x="370.0" y="403.1">下</tspan></text></g>
  <g><rect x="241.0" y="320.0" width="78.0" height="118.0" rx="2" fill="url(#hatch)" stroke="#5a7a88" stroke-width="2.5"/></g>
  <g><rect x="319.0" y="533.0" width="102.0" height="70.0" rx="2" fill="url(#hatch)" stroke="#5a7a88" stroke-width="2.5"/></g>
  <g><title>男子トイレ</title><rect x="319.0" y="603.0" width="102.0" height="49.0" rx="2" fill="#fff8e8" stroke="#5a7a88" stroke-width="2.5"/><text dominant-baseline="middle" text-anchor="middle" fill="#5a7a88" font-weight="700" font-size="16" font-family="'Hiragino Sans','Yu Gothic',sans-serif"><tspan x="370.0" y="627.5">男子トイレ</tspan></text></g>
  <g><title>女子トイレ</title><rect x="319.0" y="652.0" width="102.0" height="48.0" rx="2" fill="#fff8e8" stroke="#5a7a88" stroke-width="2.5"/><text dominant-baseline="middle" text-anchor="middle" fill="#5a7a88" font-weight="700" font-size="16" font-family="'Hiragino Sans','Yu Gothic',sans-serif"><tspan x="370.0" y="676.0">女子トイレ</tspan></text></g>
  <g><title>非常用階段</title><rect x="319.0" y="700.0" width="102.0" height="117.0" rx="2" fill="#fff8e8" stroke="#5a7a88" stroke-width="2.5"/><text dominant-baseline="middle" text-anchor="middle" fill="#5a7a88" font-weight="700" font-size="15" font-family="'Hiragino Sans','Yu Gothic',sans-serif"><tspan x="370.0" y="726.7">非</tspan><tspan x="370.0" y="742.6">常</tspan><tspan x="370.0" y="758.5">用</tspan><tspan x="370.0" y="774.4">階</tspan><tspan x="370.0" y="790.3">段</tspan></text></g>
  <g><text dominant-baseline="middle" text-anchor="middle" fill="#5a7a88" font-weight="700" font-size="16" font-family="'Hiragino Sans','Yu Gothic',sans-serif"><tspan x="277.5" y="838.0">非常用出口</tspan></text></g>
  <g><text dominant-baseline="middle" text-anchor="middle" fill="#2f7890" font-weight="700" font-size="105" font-family="'Hiragino Sans','Yu Gothic',sans-serif" opacity="0.15"><tspan x="700.0" y="356.4">3</tspan><tspan x="700.0" y="467.7">階</tspan></text></g>
  <g><rect x="961.0" y="13.0" width="50.0" height="807.0" rx="2" fill="none" stroke="#2f7890" stroke-width="3.5" stroke-dasharray="9 6"/><text dominant-baseline="middle" text-anchor="middle" fill="#2f7890" font-weight="700" font-size="20" font-family="'Hiragino Sans','Yu Gothic',sans-serif"><tspan x="986.0" y="384.7">ベ</tspan><tspan x="986.0" y="405.9">ラ</tspan><tspan x="986.0" y="427.1">ン</tspan><tspan x="986.0" y="448.3">ダ</tspan></text></g>
  <g><rect x="1011.0" y="13.0" width="232.0" height="192.0" rx="2" fill="#fff8e8" stroke="#2f7890" stroke-width="3.5"/><text dominant-baseline="middle" text-anchor="middle" fill="#2f7890" font-weight="700" font-size="30" font-family="'Hiragino Sans','Yu Gothic',sans-serif"><tspan x="1127.0" y="113.0">音楽室</tspan></text></g>
  <g><title>北棟宿泊部屋②</title><rect x="1011.0" y="205.0" width="169.0" height="94.0" rx="2" fill="#fff8e8" stroke="#2f7890" stroke-width="3.5"/><text dominant-baseline="middle" text-anchor="middle" fill="#2f7890" font-weight="700" font-size="22" font-family="'Hiragino Sans','Yu Gothic',sans-serif"><tspan font-size="21" x="1095.5" y="232.6">北棟宿泊</tspan><tspan font-size="21" x="1095.5" y="258.2">部屋②</tspan><tspan x="1095.5" y="277.4" font-size="12" fill="#5a7a88">（音楽準備室）</tspan></text></g>
  <g><rect x="1180.0" y="205.0" width="63.0" height="94.0" rx="2" fill="#fff8e8" stroke="#2f7890" stroke-width="3.5"/><text dominant-baseline="middle" text-anchor="middle" fill="#2f7890" font-weight="700" font-size="18" font-family="'Hiragino Sans','Yu Gothic',sans-serif"><tspan x="1211.5" y="252.0">前室</tspan></text></g>
  <g><title>北棟宿泊部屋①</title><rect x="1011.0" y="299.0" width="232.0" height="308.0" rx="2" fill="#fff8e8" stroke="#2f7890" stroke-width="3.5"/><text dominant-baseline="middle" text-anchor="middle" fill="#2f7890" font-weight="700" font-size="26" font-family="'Hiragino Sans','Yu Gothic',sans-serif"><tspan x="1127.0" y="429.1">北棟宿泊</tspan><tspan x="1127.0" y="460.9">部屋①</tspan><tspan x="1127.0" y="484.9" font-size="15" fill="#5a7a88">（パソコン室）</tspan></text></g>
  <g><polygon points="1011.0,607.0 1243.0,607.0 1243.0,656.0 1346.0,656.0 1346.0,820.0 1011.0,820.0" fill="url(#hatch)" stroke="#5a7a88" stroke-width="2.5" stroke-linejoin="round"/><text dominant-baseline="middle" text-anchor="middle" fill="#5a7a88" font-weight="700" font-size="18" font-family="'Hiragino Sans','Yu Gothic',sans-serif"><tspan x="1178.5" y="723.5">立入禁止</tspan></text></g>
  <g><rect x="1243.0" y="205.0" width="78.0" height="451.0" rx="2" fill="#ffffff" stroke="#5a7a88" stroke-width="2.5"/><text dominant-baseline="middle" text-anchor="middle" fill="#5a7a88" font-weight="700" font-size="20" font-family="'Hiragino Sans','Yu Gothic',sans-serif"><tspan x="1282.0" y="419.9">廊</tspan><tspan x="1282.0" y="441.1">下</tspan></text></g>
  <g><rect x="1246.0" y="104.0" width="99.0" height="125.0" rx="2" fill="#fff8e8" stroke="#5a7a88" stroke-width="2.5"/><text dominant-baseline="middle" text-anchor="middle" fill="#5a7a88" font-weight="700" font-size="19" font-family="'Hiragino Sans','Yu Gothic',sans-serif"><tspan x="1295.5" y="166.5">階段</tspan></text></g>
  <g><title>男子トイレ</title><rect x="1321.0" y="300.0" width="103.0" height="96.0" rx="2" fill="#fff8e8" stroke="#5a7a88" stroke-width="2.5"/><text dominant-baseline="middle" text-anchor="middle" fill="#5a7a88" font-weight="700" font-size="18" font-family="'Hiragino Sans','Yu Gothic',sans-serif"><tspan x="1372.5" y="337.0">男子</tspan><tspan x="1372.5" y="359.0">トイレ</tspan></text></g>
  <g><title>女子トイレ</title><rect x="1321.0" y="396.0" width="103.0" height="117.0" rx="2" fill="#fff8e8" stroke="#5a7a88" stroke-width="2.5"/><text dominant-baseline="middle" text-anchor="middle" fill="#5a7a88" font-weight="700" font-size="18" font-family="'Hiragino Sans','Yu Gothic',sans-serif"><tspan x="1372.5" y="443.5">女子</tspan><tspan x="1372.5" y="465.5">トイレ</tspan></text></g>
  <g><text dominant-baseline="middle" text-anchor="middle" fill="#5a7a88" font-weight="700" font-size="16" font-family="'Hiragino Sans','Yu Gothic',sans-serif"><tspan x="1388.5" y="533.0">非常用出口</tspan></text></g>
  <g><title>非常用階段</title><rect x="1346.0" y="560.0" width="52.0" height="120.0" rx="2" fill="#fff8e8" stroke="#5a7a88" stroke-width="2.5"/><text dominant-baseline="middle" text-anchor="middle" fill="#5a7a88" font-weight="700" font-size="15" font-family="'Hiragino Sans','Yu Gothic',sans-serif"><tspan x="1372.0" y="588.2">非</tspan><tspan x="1372.0" y="604.1">常</tspan><tspan x="1372.0" y="620.0">用</tspan><tspan x="1372.0" y="635.9">階</tspan><tspan x="1372.0" y="651.8">段</tspan></text></g>
  <g><text dominant-baseline="middle" text-anchor="middle" fill="#2f7890" font-weight="700" font-size="32" font-family="'Hiragino Sans','Yu Gothic',sans-serif"><tspan x="205.0" y="894.0">南棟</tspan></text></g>
  <g><text dominant-baseline="middle" text-anchor="middle" fill="#2f7890" font-weight="700" font-size="32" font-family="'Hiragino Sans','Yu Gothic',sans-serif"><tspan x="1145.0" y="894.0">北棟</tspan></text></g>
</svg>
