<svg xmlns="http://www.w3.org/2000/svg" width="29.757" height="29.757" viewBox="0 0 29.757 29.757"><path d="M14.878 0a14.879 14.879 0 1014.879 14.878A14.878 14.878 0 0014.878 0zm7.473 12.058c.007.153.01.308.01.462a10.2 10.2 0 01-15.7 8.595 7.329 7.329 0 00.856.05 7.2 7.2 0 004.454-1.535 3.591 3.591 0 01-3.35-2.492 3.641 3.641 0 00.674.065 3.592 3.592 0 00.945-.126 3.589 3.589 0 01-2.88-3.517v-.045a3.555 3.555 0 001.624.448 3.59 3.59 0 01-1.11-4.789 10.178 10.178 0 007.393 3.748 3.549 3.549 0 01-.093-.818 3.588 3.588 0 016.2-2.453 7.2 7.2 0 002.278-.871 3.6 3.6 0 01-1.578 1.984 7.141 7.141 0 002.06-.564 7.316 7.316 0 01-1.783 1.858z" fill="#ffffff" data-name="レイヤー 2"/></svg>