<svg xmlns="http://www.w3.org/2000/svg" width="70.446" height="70.446" viewBox="0 0 70.446 70.446"><defs><style>.cls-1{fill:#e6471a}</style></defs><g id="レイヤー_2" data-name="レイヤー 2"><g id="SP"><circle class="cls-1" cx="35.223" cy="35.223" r="35.223"/><circle cx="35.223" cy="35.223" r="32.405" fill="#fff"/><path class="cls-1" d="M33.2 24.847c-.2.168-.2.168-.477.42a25.342 25.342 0 01-3.208 2.339c.2.14.337.224.645.434l-.308.28H31.9a9.253 9.253 0 001.583-.084l1.05 1.107a4.165 4.165 0 00-.294.392 17.484 17.484 0 01-3.012 3.4A5.633 5.633 0 0029.8 31.85a9.443 9.443 0 002-1.835h-2.874v4.525c0 .7-.167 1.092-.56 1.317a4.456 4.456 0 01-2.185.293c-.56 0-.728 0-1.247-.013a6.644 6.644 0 00-.5-1.863 14.167 14.167 0 002.073.14c.449 0 .533-.056.533-.379v-4.02h-3.395a17.566 17.566 0 00-1.919.084v-1.863a16.056 16.056 0 001.976.084h3.767a29.5 29.5 0 00-2.787-1.765l1.246-1.106a22.3 22.3 0 012.032 1.177 13.548 13.548 0 001.849-1.233h-5.056a14.794 14.794 0 00-1.822.07v-1.835a13.07 13.07 0 001.849.084h6.12a7.235 7.235 0 001.275-.07zm3.928 6.485a15.089 15.089 0 01-.6 4.23l-1.4-.644a13.97 13.97 0 00.589-3.768zm-1.892-2.283a3.208 3.208 0 00.7.056h.477c.266-.322.378-.462.644-.841a13.082 13.082 0 00-1.835-2.072l.882-1.443c.2.237.267.321.406.476a9.907 9.907 0 001.038-2.116l1.554.6a4.246 4.246 0 00-.28.5 21.038 21.038 0 01-1.274 2.129c.181.224.252.3.461.561a15.771 15.771 0 001.416-2.368l1.5.827c-.113.154-.225.294-.477.686-.645.953-1.667 2.311-2.241 2.984.715-.028.841-.042 1.4-.084a9.278 9.278 0 00-.364-.939l1.163-.448a23.9 23.9 0 011.078 2.885l-1.316.533c-.042-.28-.071-.364-.126-.617-.616.071-.616.071-.813.084v4.329a9 9 0 00.084 1.527h-1.822a8.779 8.779 0 00.085-1.527v-4.182c-.645.042-.645.042-1.611.1-.239.028-.378.042-.575.07zm5.664 2.045a28.676 28.676 0 01.6 3.684l-1.486.28a33.117 33.117 0 00-.42-3.67zm2.228-4.216a9.914 9.914 0 01-1.36 2.1 5.008 5.008 0 00-1.3-1.331 9.243 9.243 0 001.527-2.535 10.326 10.326 0 00.561-1.92l1.844.308a5 5 0 00-.2.6c-.07.224-.224.7-.35 1.037h2.955a7.584 7.584 0 001.135-.056 19.867 19.867 0 00-.07 2.563c-.014 1.681-.154 4.132-.294 5.267-.21 1.653-.49 2.423-.994 2.816a3.484 3.484 0 01-1.948.377c-.392 0-.756-.013-1.232-.041a6.223 6.223 0 00-.463-1.85 14.011 14.011 0 001.808.169c.63 0 .784-.169.952-1.023a42.812 42.812 0 00.364-6.485zm.294 5.869a15.945 15.945 0 00-1.471-3.614l1.541-.729a16.77 16.77 0 011.6 3.559zM12.97 48.812a9.339 9.339 0 01-1.029-1.939 7.694 7.694 0 010-5.556 9.339 9.339 0 011.029-1.939h1.63a8.445 8.445 0 00-1.17 1.958 7.457 7.457 0 000 5.517 8.448 8.448 0 001.17 1.959zm4.344-2.829a9.277 9.277 0 00-1.22.061v-1.3a8.075 8.075 0 001.09.06h5.177a8.608 8.608 0 001.249-.07v1.31a9.827 9.827 0 00-1.239-.061h-1.919v1.25h2.639a10.082 10.082 0 001.3-.06v1.31a10.728 10.728 0 00-1.3-.061h-6.467a10.776 10.776 0 00-1.309.061v-1.31c.25.03.819.06 1.309.06h2.509v-1.25zm1.8-5.936a2.881 2.881 0 00-.05-.62H20.5a3.489 3.489 0 00-.05.61v.28h2.679c.5 0 .809-.01 1.149-.04a5.243 5.243 0 00-.04.759v.6a4.6 4.6 0 00.05.77h-1.307v-.93h-1.59v1.369c0 .18.061.23.321.241.109 0 .21 0 .309.009h.03a2.916 2.916 0 00.64-.06c.12-.05.15-.15.15-.589a3.446 3.446 0 001.229.35c-.08 1.279-.31 1.419-2.249 1.419-1.409 0-1.669-.14-1.669-.88v-1.859h-.8a3.049 3.049 0 01-.749 1.959 4.138 4.138 0 01-1.349.88 8.186 8.186 0 01-1.129.379 4.787 4.787 0 00-.75-1.119 4.5 4.5 0 001.949-.69 1.649 1.649 0 00.779-1.409h-1.379v1.3h-1.319a6.889 6.889 0 00.05-.809v-.93a5.422 5.422 0 00-.04-.759c.349.03.639.04 1.149.04h2.549zm6.73.879c.31.031.65.04 1.07.04.579 0 1.509-.04 1.909-.089-.03-.081-.03-.081-.13-.32-.02-.03-.06-.13-.131-.3a3.042 3.042 0 00-.209-.46l1.489-.2a4.914 4.914 0 00.36 1.13 16.3 16.3 0 002.7-.58l.12 1.249c-1.179.25-2.058.43-2.379.47.14.32.151.34.31.67a13.532 13.532 0 002.339-.56l.12 1.279c-.13.02-.529.1-1.209.25-.46.09-.5.1-.7.14a10.353 10.353 0 001.319 1.839l-1.169.689a4.756 4.756 0 00-2.2-.429c-1.249 0-1.929.28-1.929.78 0 .289.23.479.68.589a6.059 6.059 0 001.029.09 8.267 8.267 0 003.139-.639l.21 1.449a6.843 6.843 0 00-.68.15 11.435 11.435 0 01-2.728.329 3.6 3.6 0 01-2.859-.889 1.7 1.7 0 01-.38-1.07 1.779 1.779 0 011.15-1.579 4.834 4.834 0 012.039-.36 7.283 7.283 0 011.619.16 2.21 2.21 0 01-.2-.259c-.12-.17-.13-.19-.29-.45-.071-.12-.071-.12-.13-.21a34.945 34.945 0 01-3.858.25c-.18.01-.26.01-.44.03l-.05-1.279a5.71 5.71 0 00.96.049 20.4 20.4 0 002.858-.179c-.06-.11-.09-.17-.16-.32-.09-.2-.11-.23-.16-.35a27.292 27.292 0 01-2.958.13c-.15 0-.23 0-.4.01zm11.519 6.807a7.421 7.421 0 00.05 1.029h-1.39a9.961 9.961 0 00.061-1.189v-1.959c-.321.23-.58.4-.98.66-.16.1-.269.179-.349.23l-.531-1.34a9.552 9.552 0 001.86-.979v-1.28l-.99.51a9.319 9.319 0 00-.79-2.2l1.06-.52a11.837 11.837 0 01.72 1.88v-2.088a5.96 5.96 0 00-.061-1.02h1.39a7.186 7.186 0 00-.05 1.02v7.1A4.672 4.672 0 0038.9 45.9a7.06 7.06 0 00.789-2.7h-.939a8.726 8.726 0 00-1.11.06v-1.304a8.4 8.4 0 001.11.06h1.009l.021-1.13a7.8 7.8 0 00-.061-1.409h1.421a6.008 6.008 0 00-.039.66c-.01.2-.01.2-.01.619-.01.36-.01.63-.03 1.17l-.011.09h1.5a7.907 7.907 0 001.1-.06v1.309a8.7 8.7 0 00-1.089-.06H41.2a8.534 8.534 0 00.869 2.5 5.054 5.054 0 001.689 1.829 5.386 5.386 0 00-.83 1.219 6.151 6.151 0 01-1.608-1.879 7.042 7.042 0 01-.76-1.8 6.8 6.8 0 01-2.339 3.638 4.345 4.345 0 00-.859-1.109zm4.957-5.767a6.718 6.718 0 00-1.089-1.749l.959-.58a8.1 8.1 0 011.18 1.709zm2.804-.04a12.386 12.386 0 011.849 1.259l-.78 1.11a10.988 10.988 0 00-1.818-1.35zm1.8 3.468a15.513 15.513 0 01-1.38 3.3l-1.14-.969a8.168 8.168 0 001.46-3.058zm-1.38-5.947a12.138 12.138 0 011.789 1.3l-.833 1.059a10.179 10.179 0 00-1.78-1.419zm2.768 4.538a7.186 7.186 0 00-.809.04.5.5 0 01.009-.13c.011-.21.021-.39.021-.77v-2.418a8.431 8.431 0 00-.03-.88 7.4 7.4 0 00.979.04h3.748a7.6 7.6 0 00.98-.04 6.489 6.489 0 00-.04.92v2.4a6.018 6.018 0 00.04.88 8.4 8.4 0 00-.9-.04h-.569v3.228c0 .18.059.21.35.21.25 0 .369-.05.419-.18a8.963 8.963 0 00.09-1.689 3.409 3.409 0 001.19.47 5.1 5.1 0 01-.271 2.108.8.8 0 01-.51.4 4.39 4.39 0 01-1.109.09c-1.159 0-1.459-.18-1.459-.849v-3.79h-.63a6.013 6.013 0 01-.459 2.488 4.416 4.416 0 01-2.3 2.269 4.665 4.665 0 00-.839-1.129 3.568 3.568 0 001.848-1.479 4.445 4.445 0 00.45-2.149zm.54-1.21h2.968v-1.659h-2.968zm5.483 6.037a8.438 8.438 0 001.165-1.959 7.444 7.444 0 000-5.517 8.435 8.435 0 00-1.169-1.958h1.629a9.291 9.291 0 011.029 1.939 7.694 7.694 0 010 5.556 9.291 9.291 0 01-1.029 1.939z"/></g></g></svg>