<svg xmlns="http://www.w3.org/2000/svg" width="125.449" height="111.362" viewBox="0 0 125.449 111.362"><g data-name="レイヤー 2"><ellipse cx="62.724" cy="55.681" rx="54.16" ry="61.738" transform="rotate(-79.211 62.725 55.681)" fill="#fff" stroke="#e6471a" stroke-miterlimit="10" stroke-width="2.452"/><path d="M35.9 57.829a9.822 9.822 0 011.5-.565c.2 0 .25.162.278.4a1.943 1.943 0 00.4 1.043 3.244 3.244 0 002.4.673A16.574 16.574 0 0045 58.855a1.477 1.477 0 01.362-.062c.3 0 .357.339.384.868.013.272.051 1.088.049 1.3 0 .288-.176.383-.554.476a25.825 25.825 0 01-4.731.415c-1.68-.012-3.5-.233-4.536-1.729a4.148 4.148 0 01-.689-1.766c-.001-.228.22-.357.615-.528zm1.317-6.153c.034-.192.115-.431.445-.429a2.476 2.476 0 01.58.116 11.561 11.561 0 002.587.323 12.873 12.873 0 002.814-.316 1.275 1.275 0 01.252-.03c.361 0 .436.4.461.964.013.272.039.848.036 1.12 0 .368-.114.4-.492.461a15.558 15.558 0 01-2.844.2c-.738-.006-3.423-.1-3.952-.477a.382.382 0 01-.153-.337c0-.156.2-1.243.265-1.595zm21.688.876a5.671 5.671 0 011.623 4.125 6.37 6.37 0 01-5.085 6c-.55 0-1.367-1.482-1.362-1.93 0-.145.143-.208.6-.316 1.826-.467 3.329-1.625 3.35-3.674a3.362 3.362 0 00-2.319-3.522c-.267 0-.3.286-.32.574a12.6 12.6 0 01-2.313 6.69 3.037 3.037 0 01-2.29 1.312 2.787 2.787 0 01-2.37-1.665 5.5 5.5 0 01-.494-2.405 6.742 6.742 0 016.758-6.85 5.74 5.74 0 014.222 1.661zm-8.642 5.172c0 .384.079 1.553.629 1.557.376 0 .921-1.05 1.081-1.385A14.669 14.669 0 0053 53.806c0-.128-.061-.24-.2-.241-.453-.004-2.509 1.454-2.537 4.159zm15.656 2.817c0 .352.024.721.02 1.073-.016 1.632-1.088 2.025-2.5 2.015-.722 0-.925-.151-1.093-.616a4.84 4.84 0 01-.191-1.266c0-.272.053-.528.366-.526a1.468 1.468 0 01.236.018 3.518 3.518 0 00.391.035c.55 0 .567-.045.574-.813l.013-1.248c0-.16-.044-.336-.248-.338a2.858 2.858 0 00-.567.172c-.142.047-.173.063-.254.3-.065.127-.144.286-.3.285-.2 0-.249-.274-.353-.914-.045-.241-.088-.529-.163-.882a3.78 3.78 0 01-.119-.721c0-.272.16-.3.947-.442.189-.031.393-.061.628-.107s.457-.093.461-.461l.018-1.745a.455.455 0 00-.451-.451c-.283 0-.566.028-.848.026-.408 0-.438-.18-.434-.66l.005-.432c.009-.912.01-1.056.451-1.053.282 0 .564.036.846.038a.452.452 0 00.461-.493l.008-.816c.005-.433-.038-.913-.037-1.009 0-.24.19-.239.363-.237.44 0 1.256.057 1.727.076.173.017.518.02.515.26 0 .144-.112.207-.207.27-.158.111-.16.335-.164.751l-.008.7a.449.449 0 00.452.5c.172 0 .408-.013.6-.011.408 0 .438.163.433.643l-.009.912c0 .432-.053.592-.43.589-.188 0-.423-.035-.612-.036a.449.449 0 00-.46.445l-.011 1.056c0 .16.06.321.248.322a6 6 0 00.773-.251.459.459 0 01.188-.046c.315 0 .308.722.3 1.186-.008.737-.087.784-1.033 1.162-.362.141-.5.22-.509.653zm4.7-8.034c-.3.046-.5.109-.508.461-.005.512.121.545.576.548l2.245.016c.55 0 .879.007 1.046-.921.033-.24.067-.431.381-.429a3.85 3.85 0 011.207.265c.25.1.437.227.434.515a5.146 5.146 0 01-.535 1.709c-.48.861-1 .905-1.894.9l-3.234-.022a4.5 4.5 0 01-1.867-.27 1.715 1.715 0 01-.519-1.412c.005-.416.04-.848.044-1.265l.013-1.232c.009-.912-.045-1.7-.045-1.761 0-.24.144-.271.348-.27.408 0 1.428.075 1.836.11.172.017.392.05.39.259 0 .127-.1.175-.207.27a.529.529 0 00-.177.447.258.258 0 00.248.29 15.535 15.535 0 003.357-1.176c.063-.048.19-.175.268-.175a.248.248 0 01.172.082 9.548 9.548 0 01.573.788 1.585 1.585 0 00.109.161 4.468 4.468 0 01.57 1 .211.211 0 01-.221.191 1.16 1.16 0 01-.313-.1.32.32 0 00-.172-.049.742.742 0 00-.221.079 19.234 19.234 0 01-3.907.991zm-.137 10.468a.252.252 0 00-.254.254c0 .064.015.112.014.16 0 .368-.113.4-.71.395l-1-.007c-.3 0-.5-.035-.5-.372 0-.448.041-.912.045-1.36l.039-3.841c0-.432-.022-.881-.019-1.313 0-.448.226-.574.634-.572.455 0 .91.039 1.366.042l3.2.023c.456 0 .895-.025 1.351-.022.393 0 .643.116.638.564s-.04.9-.045 1.329l-.041 3.889c0 .448.022.9.017 1.361 0 .336-.16.367-.789.362l-.91-.006c-.3 0-.517-.036-.514-.356 0-.08.017-.192.018-.272a.257.257 0 00-.249-.242zm-.262-2.131a.2.2 0 00.2.193l2.45.018a.184.184 0 00.19-.191v-.128a.182.182 0 00-.186-.193l-2.45-.018a.207.207 0 00-.206.191zm.023-2.225a.207.207 0 00.2.194l2.45.017a.184.184 0 00.191-.19v-.081a.2.2 0 00-.186-.209l-2.45-.017a.21.21 0 00-.206.206zm10.671 3.166c0 .464-1.148 1.688-1.587 1.685-.157 0-.266-.162-.343-.274a12.488 12.488 0 00-2.551-2.372.287.287 0 01-.155-.225c0-.3 1.146-1.544 1.492-1.542.314.003 3.148 2.327 3.144 2.728zM35.762 31.993c.528.081 1.078.117 1.3.151a1.262 1.262 0 011.009.786 1.85 1.85 0 01.3.953c-.086.57-2.725 2.691-3.252 2.61a2.612 2.612 0 01-1.28-1.622c.016-.11.1-.162.257-.236a7.573 7.573 0 00.68-.4c.071-.054.128-.11.133-.142.015-.095-.076-.125-.232-.149l-1.536-.236a.433.433 0 00-.5.377l-.382 2.532c-.048.317-.082.651-.133.984a2.883 2.883 0 01-.641 1.618 3.464 3.464 0 01-2.942.552c-.279-.043-.744-.114-.85-.471a4.915 4.915 0 01-.058-1.612c.043-.285.151-.576.507-.521a2.71 2.71 0 01.353.086c.168.042.585.123.756.149.419.064.5-.053.572-.528l.476-3.149a.436.436 0 00-.369-.51l-3.088-.475c-.6-.093-1.215-.154-1.836-.249-.342-.053-.367-.2-.3-.645l.147-.982c.063-.411.119-.58.461-.528.621.1 1.235.238 1.84.331l3.088.474c.186.029.284.012.3-.1.019-.127-.1-.209-.166-.268a16.084 16.084 0 00-1.388-1.218c-.3-.224-.417-.291-.391-.465.041-.269.552-.708.767-.869.054-.041.09-.068.1-.131.019-.127-.118-.164-.21-.179-.513-.078-1.048-.112-1.56-.19-.389-.06-.411-.225-.337-.716l.141-.933c.067-.444.125-.613.513-.554.574.088 1.143.208 1.733.3l4.857.746c.481.074.95.13 1.415.2.45.07.555.215.794.624a2.749 2.749 0 01.442 1.186c-.053.348-1.089.9-1.589 1.164a17.663 17.663 0 01-1.76.815c-.117.047-.254.106-.275.249a.3.3 0 00.117.277c.274.286.266.349.264.462.024.149.16.2.284.221zm-4.745-3.806c-.155-.024-.188-.012-.2.067a6.589 6.589 0 00.613.564c.266.235.355.281.541.309a1.71 1.71 0 001.14-.5c.018-.11-.092-.127-.34-.166zm12.415 5.244a3.7 3.7 0 00-.545.564c-.009.063.059.138.167.155a.513.513 0 00.158.008c.222 0 .51.094.544-.127a.805.805 0 00-.062-.333.883.883 0 01-.05-.3c.055-.364 1.273-.646 1.458-.618.032 0 .122.035.169.042.326.05.471-.17.652-.418a.672.672 0 01.1-.146 17.911 17.911 0 002.017-3.788c.08-.214.109-.307.3-.278a13.937 13.937 0 011.382.52c.6.238.74.356.718.5s-.15.155-.266.186c-.213.048-.261.154-.424.5-.072.152-.144.319-.257.544a1.89 1.89 0 00-.158.413c-.041.269.216.357.433.391l1.288.2c.575.089 1.029.126 1.355.176 1.056.162 1.04.37.834 1.731a44.178 44.178 0 01-1.75 7.6 2.7 2.7 0 01-1.181 1.713 5.1 5.1 0 01-2.6.168c-.452-.069-.863-.181-.944-.7a4.633 4.633 0 01.022-1.406c.052-.348.112-.533.5-.474.155.024.551.134.642.164.153.039.541.1.7.123.465.071.807.124 1.133-1.089.361-1.338.884-3.751 1.089-5.112.1-.649 0-.729-.73-.841l-1.63-.251c-.543-.083-.726.181-1.007.574-.346.5-.482.671-.7.638a2.579 2.579 0 01-.789-.344.58.58 0 00-.149-.071.111.111 0 00-.127.109 4.633 4.633 0 00.105.567 7.218 7.218 0 01.262 1.53c-.06.4-1.419.56-1.558.538-.2-.031-.223-.212-.252-.33a.439.439 0 00-.369-.4c-.342-.052-.473.187-.519.488l-.377 2.5c-.122.807-.213 1.619-.335 2.427-.064.427-.211.453-.723.374l-.947-.145c-.481-.074-.663-.134-.6-.562.122-.807.293-1.623.415-2.43L41 37.59c.018-.126.008-.16-.054-.17-.155-.024-.2.2-.237.3a26.3 26.3 0 01-.892 2.648c-.077.2-.153.495-.4.457-.233-.036-1.336-.513-1.285-.846a4.206 4.206 0 01.225-.548 16.79 16.79 0 00.933-2.707c.049-.219.064-.427.3-.391a6.518 6.518 0 01.8.3 4.009 4.009 0 00.539.213.18.18 0 00.215-.162c.064-.427-.039-.589-.52-.663-.124-.019-.519-.031-.677-.039a.29.29 0 00-.292.15.268.268 0 01-.277.151c-.14-.021-.192-.094-.19-.531.008-.16-.049-1.351-.059-1.5a1.416 1.416 0 01-.007-.373c.023-.159.194-.132.381-.1l.341.053a1.173 1.173 0 00.671-.027 1.918 1.918 0 00.659-.789c.026-.174-.173-.432-.3-.614a.492.492 0 01-.08-.093 13.557 13.557 0 00-1.05-1.149c-.068-.075-.2-.16-.18-.271a2.164 2.164 0 01.488-.718c.079-.1.14-.189.2-.261.117-.145.384-.54.6-.507a.275.275 0 01.145.087.379.379 0 00.116.066c.14.022.231-.159.554-.724.213-.356.483-.881.694-1.335.074-.167.134-.254.274-.233a10.263 10.263 0 011.112.624 2.022 2.022 0 01.19.11c.278.156.5.255.475.43s-.152.171-.25.188a.368.368 0 00-.345.173c-.36.5-.689 1-1.066 1.489a1.565 1.565 0 01-.175.216 1.055 1.055 0 00-.251.4c-.028.19.124.44.248.459s.361-.284.5-.473a.321.321 0 00.077-.086c.262-.364.523-.729.767-1.08.14-.19.187-.3.357-.269a11.08 11.08 0 011.2.783c.1.064.172.124.216.147.2.128.541.309.507.531-.029.19-.215.162-.375.169a.409.409 0 00-.274.136c-.704.752-1.401 1.489-2.116 2.22zm.465 3.553a3.642 3.642 0 01.854-.08.316.316 0 01.257.186 14.65 14.65 0 01.342 1.623 9.069 9.069 0 01.131 1.137c-.051.333-1.355.456-1.479.437-.234-.036-.262-.267-.268-.543a14.13 14.13 0 00-.288-2.2.673.673 0 01-.023-.263c.028-.188.196-.243.477-.297zm4.551-2.168a11.062 11.062 0 01.393 1.389 15.078 15.078 0 01.374 1.952c-.068.443-1.574.632-1.745.606-.248-.038-.255-.3-.29-.5-.17-.869-.416-1.976-.671-2.809a.843.843 0 01-.055-.267c.057-.38 1.549-.685 1.719-.659s.216.15.275.288zM62.817 30.9c.122.035.349.118.331.229-.007.048-.06.088-.13.126a.663.663 0 00-.32.436c-.039.157-.1.487-.141.724-.062.412-.085.667.381.739 1.226.188 2.476.218 3.7.406.233.036.432.083.265 1.191a6.926 6.926 0 01-.273 1.172c-.065.12-.122.176-.26.155-.078-.012-1.738-.38-2.217-.47-.509-.095-1.037-.176-1.565-.257a.421.421 0 00-.521.406l-.058.38a1.455 1.455 0 00.085.9 5.358 5.358 0 01.1 2.2c-.385 2.548-2.572 5.369-3.364 5.248a4.307 4.307 0 01-1.193-.621c-.406-.256-.737-.485-.7-.707.022-.142.251-.3.393-.393.338-.239 1.19-.838 1.228-1.09.027-.175-.108-.228-.248-.249-1.423-.251-1.717-1.981-1.534-3.2.213-1.409 1.079-2.831 2.627-2.884.111 0 .3.014.321-.129.012-.079-.038-.168-.177-.189-.171-.026-1.323-.074-1.577-.08-.378-.01-2.607.02-2.929.051a1.991 1.991 0 01-.286 0c-.249-.038-.272-.414-.2-1.376.032-.529.071-.9.09-1.022.036-.238.119-.257.494-.216 1.421.154 2.835.258 4.085.385.407.046.768.07.847-.453a12.864 12.864 0 00.121-1.746.427.427 0 010-.13.215.215 0 01.269-.2c.273.055 2.006.564 2.356.664zm-3.912 7.512c-.043.285-.106 1.118.313 1.182s.648-.71.7-1.027c.05-.332.092-1.038-.357-1.107-.424-.06-.608.64-.656.954zM76.2 35.354c-.015.095-.12.16-.2.2a13.355 13.355 0 00-2.151 1.306.42.42 0 00-.182.263.353.353 0 00.307.387c.046.008.111 0 .173.011a5.1 5.1 0 011.058.356 3.778 3.778 0 012.159 4.1C76.9 45 74.111 46.11 71.411 45.7c-1.459-.224-3.339-1.129-3.065-2.949a2.311 2.311 0 012.66-1.842 2.656 2.656 0 012.242 2.19.443.443 0 00.327.359c.373.057 1.237-.621 1.395-1.665.2-1.345-.778-2.111-1.972-2.3a4.423 4.423 0 00-3.179.759 20.979 20.979 0 00-2.21 1.7c-.261.251-.4.343-.464.333a3.735 3.735 0 01-1.326-1.839c.029-.19.206-.308.569-.511.437-.257 3.407-2.473 4.032-2.928.339-.255.616-.5.924-.764.126-.095.248-.173.273-.331.028-.19-.215-.26-.277-.27-.046-.007-1.786.05-2.2.051a.743.743 0 01-.189-.012c-.357-.055-.18-1.858-.135-2.159l.024-.158c.037-.237.083-.23.533-.161l.357.055a15.453 15.453 0 004.2.062 2.383 2.383 0 01.706-.151c.664.105 1.613 1.837 1.564 2.185zm-5.44 7.31a.453.453 0 00-.561.351c-.064.428.433.714.79.769a.371.371 0 00.44-.288.792.792 0 00-.673-.832zm16.381-7.475l-.241 1.6a10.851 10.851 0 004.084 10.391c.127.1.253.217.229.375-.093.618-1.266 1.652-1.809 1.568-.512-.078-2.1-2.152-2.443-2.642a12.162 12.162 0 01-1.809-3.905c-.029-.118-.085-.273-.225-.294s-.208.114-.255.22a12.072 12.072 0 01-3.809 3.771 7.77 7.77 0 01-2.4 1.154c-.542-.083-1.334-1.468-1.255-1.99.026-.174.2-.245.38-.314a11.705 11.705 0 004.237-2.815 10.721 10.721 0 002.707-6.046c.1-.633.14-1.354.222-1.893.052-.348.2-.471.555-.416.279.043 1.291.279 1.6.358.474.122.787.154.751.391-.022.143-.186.182-.3.213a.408.408 0 00-.219.274zm9.535 12.963a2.9 2.9 0 01-1.8 1.439c-.156-.024-.241-.2-.3-.321a12.581 12.581 0 00-2.194-2.718.285.285 0 01-.121-.245A3.385 3.385 0 0193.946 45c.31.043 2.791 2.756 2.73 3.152zM44.694 70.706a10.91 10.91 0 011.255-.253c.423-.042.457-.013.677 1.171a12.553 12.553 0 00.443 1.9c.064.187.163.4.4.379a10.906 10.906 0 001.931-1.251 5.755 5.755 0 011.176-.76c.172-.017.546.444.8.79a4.7 4.7 0 01.768 1.307c.016.175-.15.256-.469.4-.059.038-.136.062-.212.1a27.094 27.094 0 00-4.691 3.011c-.706.553-1.72 1.377-1.643 2.207.1 1.067 2.086.87 2.8.8a19.417 19.417 0 002.366-.363c.324-.081 1.387-.362 1.63-.467.047 0 .108-.027.155-.032.156-.015.228.251.256.377.089.458.153.982.2 1.444.044.478.042.623-.355.776a31.053 31.053 0 01-4.26.7 6.334 6.334 0 01-3.476-.379 3.122 3.122 0 01-1.815-2.571 4.755 4.755 0 012-3.946c.221-.167.355-.261.33-.532a1.361 1.361 0 00-.129-.373 27.678 27.678 0 01-.467-1.3 23.277 23.277 0 00-.883-2.374.88.88 0 01-.064-.187c-.017-.205.165-.319 1.277-.574zm19.058 4.385a.627.627 0 01-.125.35 4.025 4.025 0 01-2.989 2.159 4.783 4.783 0 01-2.5-.541 4.25 4.25 0 00-2.075-.6 1.793 1.793 0 00-1.362.972c-.109.187-.179.291-.273.3s-.193-.045-.345-.159l-1-.721c-.186-.126-.275-.23-.286-.342a.708.708 0 01.126-.35 3.919 3.919 0 012.977-2.172 4.764 4.764 0 012.548.584 4.023 4.023 0 002.025.571 1.748 1.748 0 001.376-.989c.11-.188.179-.291.273-.3.078-.008.177.046.33.16l1.031.734c.17.128.259.232.269.344zm6.818-6.997c.08.008.223.01.234.138a.557.557 0 01-.085.281 1.772 1.772 0 00-.157 1.03.343.343 0 00.378.332c.281-.028 1.766-.529 2.164-.665a3.788 3.788 0 01.63-.192c.218-.021.326.29.373.463a8.046 8.046 0 01.3 1.337c.035.383-.148.465-.639.611-.769.22-1.57.428-2.357.619-.371.085-.539.15-.508.485.021.223.147.387.381.364a14.079 14.079 0 001.627-.5 1.778 1.778 0 01.385-.1c.125-.013.214.107.3.308a6.769 6.769 0 01.25 1.519c.048.51-.43.622-1.855.924-.619.126-.737.218-.711.505.081.877.108 1 .607 1.114.678.158 2.858.858 2.926 1.608.033.35-.513 1.611-1.013 1.66a3.364 3.364 0 01-1.242-.616 1.721 1.721 0 00-.729-.319c-.219.022-.265.2-.327.386a2.947 2.947 0 01-2.825 1.889 3.458 3.458 0 01-1.954-.306 2.283 2.283 0 01-1.158-1.783 2.227 2.227 0 01.73-1.841 4.23 4.23 0 012.363-.894l.172-.017a.317.317 0 00.3-.383c-.03-.319-.244-.411-.4-.395-.281.028-1.244.2-1.931.272-.6.059-.753.059-.886-.362a6.4 6.4 0 01-.356-1.461c-.022-.239-.012-.465.27-.493.453-.045 1.133-.032 1.884-.106l.422-.042c.391-.039.685-.1.653-.451a.359.359 0 00-.412-.361c-.531.052-1.48.21-2.215.283l-.469.047c-.626.062-1.128.095-1.242-.118a5.846 5.846 0 01-.326-1.657c-.022-.223-.03-.5.266-.525s1.954-.049 2.986-.151l.344-.034c.375-.037.654-.1.623-.432a17.18 17.18 0 00-.248-1.31 2.175 2.175 0 01-.093-.439c-.018-.191.087-.25.275-.269.3-.029 1.898.022 2.295.047zm-2.953 10.924c.035.383.615.341.881.315.422-.042.927-.2.878-.746-.021-.223-.209-.221-.506-.192-.314.032-1.296.161-1.253.623zm13.013-12.21c.174.015.244.072.253.184a.313.313 0 01-.134.254c-.189.18-.183.244-.184.742 0 .113-.021 1.145-.008 1.288a.487.487 0 00.225.38 1.608 1.608 0 01.559.765c.007.079-.017.146-.011.21.009.095.072.105.088.1.078-.008.218-.2.332-.339a3.781 3.781 0 012.335-1.55 2.074 2.074 0 011.747.631 3.207 3.207 0 01.528 1.8c.08.861.128 1.725.175 2.573.032.527.035 1.058.082 1.568.023.255.054.59.3.565.218-.022.78-.785.934-.994a.5.5 0 01.339-.258c.2-.02.5.465.594.617a5.373 5.373 0 01.638 1.272c.016.175-.141.351-.46.672a4.762 4.762 0 01-2.692 1.6 1.526 1.526 0 01-1.372-.668 4.614 4.614 0 01-.618-2.255c-.143-1.546-.088-3.176-.166-4.021-.019-.208-.1-.44-.354-.415-.594.058-2.213 2.02-2.622 2.543a.933.933 0 00-.22.858c.12 1.308.336 3.313.595 4.574a1.088 1.088 0 01.036.221c.015.16-.107.205-.262.236a13.608 13.608 0 01-1.386.2c-.657.066-.878.071-.905-.232 0-.032-.011-1.141-.06-1.667-.011-.111-.039-.253-.164-.241-.141.014-.354.6-.482.933-.024.082-.049.15-.062.183-.038.1-.1.251-.228.263a3.482 3.482 0 01-1.777-1.287 1.883 1.883 0 01.277-.613c.686-1.291 1.373-2.742 1.991-4.074a.8.8 0 00.088-.427c-.015-.159-.06-.3-.232-.282a1.9 1.9 0 00-.634.3 4.742 4.742 0 01-1.138.5c-.329.033-.53-.269-.666-.544a8.943 8.943 0 01-.611-1.484c-.024-.256.171-.371.623-.432a7.985 7.985 0 002.347-.908.781.781 0 00.078-.523l-.011-.127a76.423 76.423 0 00-.146-1.916c-.015-.16-.043-.3-.058-.461-.02-.223.1-.283.289-.3.33-.037 1.86-.044 2.21-.014zm19.135 5.744c.188 2.04-1.1 3.5-2.784 4.378a9.455 9.455 0 01-2.411.9c-.3.03-.439-.15-.587-.377a4.147 4.147 0 01-.509-1.236c-.023-.255.22-.359.561-.425 1.426-.286 3.819-1.2 3.648-3.047a1.256 1.256 0 00-1.539-1.119 10.1 10.1 0 00-4.33 1.989 1.239 1.239 0 01-.559.265c-.533.053-1.419-1.178-1.466-1.689-.026-.271.158-.337.615-.511.291-.109.8-.369 1.105-.512a15.192 15.192 0 014.4-1.593 3.244 3.244 0 013.856 2.977zm2.407.948c-.407.04-.475-.017-.53-.43l-.5-3.762c-.154-.982-.481-3.17-.511-3.488-.025-.271.063-.344.407-.378l1.908-.189c.344-.034.443.02.469.291.029.319.105 2.514.153 3.717l.191 3.6c.022.416-.035.485-.441.526zm2.338 2.261a1.572 1.572 0 01-1.474 1.8 1.367 1.367 0 01-1.584-1.258 1.6 1.6 0 011.454-1.866 1.421 1.421 0 011.604 1.328z" fill="#e6471a"/></g></svg>