<svg height="144" viewBox="0 0 144 144" width="144" xmlns="http://www.w3.org/2000/svg"><path d="M86.8 62.9c0 2.3-1.9 4.2-4.2 4.2h-.3c-1.5 1.5-2.9 2.7-4.1 3.7V73c1.8-1.3 4-3.2 6.3-5.5 4.6-4.8 10.2-12.8 10.8-23.5 0-.5-.3-.9-.8-.9s-.9.3-.9.8c-.5 7.4-3.6 13.6-6.9 18.1 0 .3.1.6.1.9zM68.9 75.5c.4.3.9.5 1.3.7-.3-.5-.4-1.1-.4-1.7v-.4l-.2-.2s-2.3-1.3-5.3-3.7c-.2.6-.5 1.1-.7 1.7 1.5 1.2 2.8 2.1 3.7 2.7s1.4.9 1.5.9zm16.8-25.1c.5.3.9.8 1.3 1.3 1.5-2.3 2.6-4.3 3.4-6 2.2-4.9 2.4-8.1 2.4-8.2 0-.5-.3-.9-.8-.9s-.9.3-.9.8c0 0-.2 3.1-2.3 7.7-.8 1.5-1.8 3.3-3.1 5.3zm-15.2-5c.2-1.3.9-2.3 1.9-3v-6.3c6.1-7.5 6.1-17.1 6.1-17.5 0-.5-.4-.9-.9-.9s-.9.4-.9.9c0 .1-.1 7.9-4.4 14.6V10.6c0-.5-.4-.9-.9-.9s-.9.4-.9.9v22.5c-4.3-6.7-4.4-14.5-4.4-14.6 0-.5-.4-.9-.9-.9s-.9.4-.9.9c0 .4.1 10 6.1 17.5v7.1c-5-4.3-7.3-9.5-8.3-13.2-1.2-4.4-1-7.7-1-7.8 0-.5-.3-.9-.8-.9s-.9.3-.9.8c0 .2-.2 3.7 1 8.3 1.5 4.4 4.1 10.3 10.1 15.1zm-13 18c-3.7-4.7-7.4-11.3-7.8-19.5 0-.5-.4-.9-.9-.8-.5 0-.9.4-.8.9.5 9.3 4.8 16.6 9 21.6.2-.8.4-1.5.5-2.2z"/><path d="M141.7 120.5c.2 0 .4 0 .6-.1.3-.2.4-.5.4-.8-.2-2.7-1.3-5.8-2.1-7.8.3.1.6 0 .9-.2s.3-.6.2-.9c-1-2.7-2.6-5.5-3.7-7.1h.1c.3 0 .6-.1.8-.3.2-.3.2-.6.1-.9-.9-2.4-2.8-4.7-4.3-6.2h.1c.3 0 .7-.1.9-.4s.2-.7 0-1c-2.5-3.6-5.2-5.8-7-7.1.3 0 .6-.3.7-.6s0-.7-.2-1c-2-1.8-4-3.2-5.5-4.2.3 0 .6-.2.8-.4.2-.3.1-.6 0-.9-.1-.2-3.2-4.8-11-6.5-.4-4.6-2.3-9.1-5-11.8-1.6-1.6-3.3-2.5-4.9-3.2 3.3-8.5.6-14.1.5-14.4-.2-.3-.4-.5-.8-.5s-.6.2-.8.4c-.1-1.8-.3-4.2-.9-6.8-.1-.3-.3-.6-.7-.7-.3-.1-.7.1-.9.3-.2-2.3-.8-5.7-2.7-9.7-.1-.3-.4-.5-.8-.5s-.7.2-.8.5l-.1.1c-.6-2-1.6-4.8-3.2-6.8-.1.1-.4 0-.7 0s-.6.3-.7.5c-.9-1.8-2.5-4.5-4.3-6.7-.2-.3-.6-.3-.9-.3s-.5.3-.6.6c-1.3-1.7-3.5-4.2-5.7-5.7-.3-.2-.6-.2-.9-.1-.2.1-.3.3-.4.5C77 8.2 75 6 72.1 4.6s0 0-.1 0h-.9C68.3 6 66.2 8.2 65 9.8c-.1-.2-.2-.4-.4-.5-.3-.1-.6-.1-.9.1-2.2 1.5-4.4 4.1-5.7 5.7-.1-.3-.3-.5-.6-.6s-.7 0-.9.3c-1.9 2.2-3.5 5-4.3 6.7-.1-.3-.4-.5-.7-.5s-.6.1-.8.3c-1.6 2-2.6 4.8-3.2 6.8l-.1-.1c-.1-.3-.4-.5-.8-.5s-.7.2-.8.5c-1.8 4-2.4 7.4-2.7 9.7-.2-.3-.5-.4-.9-.3-.3.1-.6.3-.7.7-.6 2.7-.8 5-.9 6.8-.2-.3-.5-.4-.8-.4s-.6.2-.8.5c-.1.2-2.8 5.8.5 14.4-1.6.6-3.3 1.7-4.9 3.2-2.8 2.7-4.6 7.2-5 11.8-7.8 1.7-10.9 6.3-11 6.5-.2.3-.2.6 0 .9s.4.4.8.4c-1.5 1-3.5 2.3-5.5 4.2-.3.2-.3.6-.2 1 .1.3.4.5.7.6-1.9 1.3-4.6 3.6-7.1 7.1-.2.3-.2.6 0 1 .3-.1.7.1 1 0h.1c-1.4 1.5-3.3 3.8-4.3 6.2-.1.3-.1.6.1.9s.5.3.8.3h.1c-1.1 1.7-2.7 4.4-3.7 7.1-.1.3 0 .7.2.9s.6.3.9.2c-.8 2-1.9 5.1-2.1 7.8 0 .3.1.6.4.8.2.1.4.2.6.1-.8 1.9-1.7 4.7-1.5 7.9v.6l.1.1.1.1.1.1c2.7 1.7 5.6 2.4 7.6 2.7-.2.2-.2.4-.2.6 0 .3.2.6.5.7 2.4 1.2 5.7 1.8 7.8 2.1-.2.2-.3.5-.3.9.1.3.3.6.7.6 2.8.5 6 .5 8 .4-.2.3-.2.6-.1.9s.4.5.7.5c2.5.4 5.5-.1 7.5-.6l-.1.1c-.2.3-.2.6-.1 1 .2.3.4.4.8.4h.1c4.3-.4 7.6-1.6 9.7-2.5-.1.3-.1.7.1.9.2.3.6.4.9.3 2.6-.8 4.8-1.8 6.3-2.7-.2.3-.2.6 0 .9s.5.4.8.4 6.5-.5 12.3-7.7c4-.4 7-2.5 8.2-3.5 1.1 1 4.1 3.1 8.2 3.5 5.7 7.2 12 7.7 12.3 7.7s.6-.1.8-.4.2-.6 0-.9c1.6.8 3.7 1.8 6.3 2.7.3.1.7 0 .9-.3s.3-.6.1-.9c2.1 1 5.4 2.1 9.7 2.5h.1c.3 0 .6-.2.8-.4s.2-.7-.1-1l-.1-.1c2 .5 5 1 7.5.6.3 0 .6-.3.7-.5.1-.3.1-.6-.1-.9 2 .1 5.2.1 8-.4.3-.1.6-.3.7-.6s0-.6-.3-.9c2.1-.3 5.4-.9 7.8-2.1.3-.1.5-.4.5-.7 0-.2-.1-.4-.2-.6 2-.3 4.9-.9 7.6-2.7 2.7-1.7 0 0 0 0l.1-.1.1-.1.1-.1v-.6c.5-3.1-.4-5.9-1.2-7.8zM40.2 47.3l.7 1.2c.2.3.6.5 1 .4s.6-.5.6-.9c0 0-.3-3.2.3-7.5l.3.6c.2.3.6.5 1 .3.4-.1.6-.5.6-.9 0 0-.4-4.2 1.8-10l.3.6c.2.3.5.6.9.5.4 0 .7-.3.8-.7 0 0 .8-4.2 2.6-7.3l.2.4c.1.3.4.5.8.5s.7-.2.8-.5c0 0 1.6-3.5 3.7-6.5.1.3.3.6.7.7.3.1.7-.1.9-.3 0 0 2.5-3.7 5.3-6v.7c0 .4.3.7.7.8s.8-.1 1-.4c0 0 2.2-4.2 6.4-6.5C75.8 8.8 78 12.9 78 13c.2.3.6.5 1 .4s.7-.4.7-.8v-.7c2.8 2.4 5.2 6 5.3 6 .2.3.6.4.9.3s.6-.3.7-.7c2.2 3 3.7 6.5 3.7 6.5.1.3.4.5.8.5s.7-.2.8-.5l.2-.4c1.8 3 2.6 7.2 2.6 7.3.1.4.4.7.8.7s.7-.2.9-.5l.3-.6c2.2 5.8 1.8 9.9 1.8 10-.1.4.2.8.6.9s.8 0 1-.3l.3-.6c.7 4.3.3 7.5.3 7.5 0 .4.2.8.6.9s.8 0 1-.4l.7-1.2c.5 2.1.9 6.1-1.1 11.3-1.6-.4-3-.5-3.9-.5-2.5 0-4.8.7-6.1 1.7-1.5 1.3-2 4-1.2 6.3.8 2.1 2.4 3.4 4.5 3.4 3.3.1 5-1.6 5.7-2.6 1.3.7 4 2.5 5 6 1 3.7-.9 8.3-1.9 10.3-1.3-1.1-4-3-7.2-3-1 0-1.9.2-2.8.5-2.4.9-3.8 2.9-3.8 5.3 0 .4.1.9.2 1.3-1.8.6-3.4 1.3-4.6 1.9.1.6.2 1.2.4 1.7 1.2-.6 2.8-1.3 4.7-1.9.6 1.2 1.6 2.2 2.6 2.6.6.2 1.3.3 1.9.3 1.3 0 2.4-.4 3.1-.8.4.5 1 1.3 1.7 2.3-1.9.5-6.7 2.1-9.1 3 .3.4.5 1 .6 1.5.2.7.1 1.4 0 2l8.2 4.7c-1.2 1.8-3 3.5-5.4 5.2-.4-1.3-1.1-2.9-2.3-4.1-.3-1.1-.5-2.3-.7-3.4l-.2-1.3c0 .1-.1.2-.1.2-.3.6-.8 1-1.4 1.4.1.5.2 1 .3 1.6-.9-.5-2-.8-3.3-.8-1.4 0-2.7.3-3.8 1-.3-1.4-.5-2.7-.7-3.8-.7-.7-1.4-1.4-2-2.1.1 1.7.4 4.2 1.1 7.1-.9 1-1.5 2.1-1.7 3.3-.3 2.2.9 5 5 6.2.3.7.7 1.4 1.1 2.1v.1c-.2 1-1.3 2-3.5 2.9-1.2.5-2.4.8-3.6.8-3.4 0-5.7-2.2-6.5-3.2-.2-.2-.4-.3-.7-.3s-.5.1-.7.3c-.8 1-3.1 3.2-6.5 3.2-1.1 0-2.3-.3-3.6-.8-2.1-.9-3.3-1.9-3.5-2.9v-.1c.4-.7.7-1.4 1-2 4.1-1.2 5.3-4 5-6.2-.2-1.2-.8-2.4-1.7-3.3.7-3 1-5.6 1.1-7.4-.6.8-1.2 1.5-2 2.2-.2 1.2-.4 2.5-.7 4-1.1-.6-2.4-1-3.8-1-1.3 0-2.3.3-3.3.8l.3-1.5c-.6-.3-1.1-.9-1.6-1.5 0-.1-.1-.1-.1-.2 0 .6-.1 1.1-.1 1.4-.2 1.1-.4 2.2-.6 3.2-1.2 1.2-1.9 2.8-2.3 4.1-2.4-1.7-4.2-3.4-5.4-5.2l8-4.6c-.2-.7-.2-1.4-.1-2.1.1-.6.3-1.1.7-1.5-1.5-.5-4.1-1.5-4.1-1.5-1.7-.6-3.3-1.1-4.9-1.5.6-1 1.2-1.8 1.7-2.3.7.4 1.7.8 3.1.8.6 0 1.3-.1 1.9-.3 1.1-.4 2-1.3 2.6-2.6 1.8.6 3.4 1.3 4.5 1.9.2-.5.3-1.1.4-1.7-1.2-.5-2.7-1.2-4.4-1.8.1-.4.1-.8.2-1.3 0-2.5-1.3-4.4-3.8-5.3-.9-.3-1.8-.5-2.8-.5-3.1 0-5.8 1.8-7.2 3-1-2-2.9-6.7-1.9-10.3s3.7-5.4 5-6c.7 1 2.4 2.7 5.7 2.6 2-.1 3.7-1.3 4.5-3.4.9-2.3.3-5-1.2-6.3-1.3-1.1-3.6-1.7-6.1-1.7-1 0-2.4.1-3.9.5-1.5-5.2-1.2-9.2-.7-11.4zM101 95.2c.5 1.4.9 3 .8 4.7-.1 1.2-.4 2.3-1 3.4l-9-5.2c2.6-.8 7.4-2.4 9.2-2.9zm-58.6 8.2c-.5-1.1-.9-2.3-1-3.4-.2-1.7.2-3.3.8-4.7 1.9.5 3.9 1.1 5.9 1.9.3.1 1.3.5 3.1 1.2zm10.4 31.2l.7-1.2c.2-.3.1-.8-.2-1.1s-.8-.3-1.1-.1c-.1 0-2.6 1.9-6.7 3.5l.3-.6c.2-.3.1-.8-.2-1.1s-.8-.3-1.1 0c0 0-3.4 2.5-9.5 3.5l.4-.5c.2-.3.2-.7 0-1s-.6-.4-1-.3c0 0-4 1.4-7.6 1.3l.3-.3c.2-.3.2-.7.1-1-.2-.3-.5-.5-.9-.4 0 0-3.8.4-7.5 0 .3-.2.4-.6.3-.9s-.4-.6-.8-.6c-.1 0-4.4-.3-7.8-1.6l.6-.4c.3-.2.5-.6.3-1-.1-.4-.5-.6-.9-.6-.1 0-4.7.2-8.8-2.3-.1-4.8 2.4-8.7 2.4-8.8.2-.3.2-.8-.1-1-.3-.3-.7-.4-1-.2l-.7.3c.7-3.6 2.5-7.5 2.6-7.6.2-.3.1-.7-.2-1s-.6-.3-1-.2c1.5-3.4 3.8-6.4 3.8-6.5.2-.3.2-.7 0-1s-.5-.5-.9-.4l-.4.1c1.7-3.1 4.9-5.9 5-5.9.3-.3.4-.7.2-1s-.5-.6-.9-.5l-.6.1c3.9-4.8 7.7-6.5 7.7-6.5.4-.2.6-.6.5-1s-.4-.7-.8-.7h-.7c3.4-2.8 6.3-4.1 6.3-4.1.4-.2.6-.6.5-1s-.4-.7-.9-.7h-1.4c1.4-1.3 4.1-3.2 8.3-4.3v.4c.1 3.4 1 6.5 2.6 9.1-3.3.5-6.6 1.5-10 3.2-.4.2-.6.7-.4 1.2.2.4.7.6 1.2.4 3.5-1.8 7-2.8 10.4-3.2l.8.9c-.4.8-1 2.2-1.5 4.1-2.5-.2-4.7-.1-6.5.1-5.3.5-8.2 1.9-8.3 2-.4.2-.6.7-.4 1.2.2.4.7.6 1.2.4 0 0 2.8-1.4 7.8-1.8 1.6-.2 3.6-.2 5.9-.1-.2 1.6-.3 3.4 0 5.4-13.8-1.2-19.5 2.3-19.8 2.5-.4.3-.5.8-.3 1.2.2.3.4.4.7.4.2 0 .3 0 .5-.1 0 0 1.9-1.2 6.1-1.9 4.3-.7 8.9-.7 13.1-.3l.1.4c.6 2.1 1.5 4.1 2.8 6l-.6.4c-7.2-3-13.8-2.3-18.1-1.1C12 108 9.1 110 9 110c-.4.3-.5.8-.3 1.2.2.3.4.4.7.4.2 0 .3 0 .5-.2 0 0 2.9-1.9 7.3-3 3.7-1 9.4-1.6 15.6.6l-6.2 3.6c-9.5-1.5-17.9 3.2-18.3 3.5s-.6.8-.3 1.2c.2.3.4.4.8.4.2 0 .3 0 .4-.1.1 0 6.9-3.9 14.8-3.5l-19.1 11c-.4.3-.6.8-.3 1.2.2.3.4.4.8.4.2 0 .3 0 .4-.1l19.5-11.3c-3.6 7.1-10.3 11-10.4 11.1-.4.3-.6.8-.3 1.2.2.3.4.4.8.4.2 0 .3 0 .4-.1.3-.2 8.6-5.1 12.1-14.1l6.2-3.6c-1.2 6.5-4.6 11-7.3 13.8-3.2 3.2-6.2 4.8-6.3 4.8-.4.2-.6.7-.4 1.2.2.3.4.5.8.5.1 0 .3 0 .4-.1s3.3-1.6 6.7-5.1c3.1-3.1 7-8.5 8.1-16.2l.8-.5c1.2 1.5 2.7 3 4.5 4.4-5.8 13.5-12 16.9-12.1 16.9-.4.2-.6.7-.4 1.2.2.3.4.5.8.5.1 0 .3 0 .4-.1.3-.2 6.7-3.5 12.8-17.4 1.4 1 3 2 4.6 2.9-1.2 2.7-2.5 4.8-3.6 6.3-2.9 4.1-5.4 5.8-5.5 5.8-.4.3-.5.8-.3 1.2.2.3.4.4.7.4.2 0 .3 0 .5-.1.1-.1 2.8-1.8 5.9-6.2 1-1.4 2.1-3.1 3.2-5.3.3 1.2 1 2.8 2.3 4.4-1.6 1.6-3.4 3.2-5.5 4.5-.4.3-.5.8-.3 1.2.2.3.4.4.7.4.2 0 .3 0 .5-.1 2.2-1.4 4.1-3 5.7-4.7 1.1 1 2.6 2 4.5 2.9 1.6.7 3.2 1.2 4.9 1.3-3.2 3.6-6.4 5-8.4 5.6zm28.3-7.3c-5.1 0-8.7-3.4-8.7-3.5-.2-.2-.4-.3-.6-.3h-.1c-.3 0-.6.1-.8.3 0 0-3.7 3.5-8.7 3.5-1.7 0-3.4-.4-5.1-1.2-7.6-3.6-7.3-9-7.2-9.2 0-.4-.2-.7-.5-.9-8-4.2-12.9-9.3-14.5-15.2-1.9-6.9 1.5-12.5 1.5-12.6.2-.4.2-.9-.2-1.1-3.6-3.3-4.4-7.6-4.5-10.7-.1-4.9 1.7-9.8 4.5-12.7 3.3-3.2 7.1-3.7 9.1-3.7 2.5 0 4.2.7 4.9 1.3 1 .8 1.2 2.8.7 4.3-.3.8-1 2.2-2.8 2.2h-.2c-3.3 0-4.2-2.2-4.2-2.3-.2-.5-.7-.7-1.2-.5-.2.1-5.3 2-6.9 7.6-1.5 5.5 2.4 12.4 2.6 12.8.2.3.4.4.7.4s.6-.1.8-.3c0 0 3.1-3.2 6.8-3.2.7 0 1.5.1 2.2.4 2.2.8 2.6 2.4 2.6 3.6 0 1.8-1.1 3.5-2.1 3.8-.4.2-.9.2-1.3.2-1.5 0-2.6-.9-2.7-.9-.3-.3-.9-.3-1.2 0-.2.2-4.8 4.5-4.3 10.6.4 4.5 3.5 8.6 9.2 12.3.3.2.6.2.9.1s.5-.4.5-.7 1-6.2 6.2-6.3h.1c2.8 0 4.8 2 5 3.9.3 1.9-1.2 3.5-3.9 4.3-.1 0-.2.1-.3.2s-2.1 1.7-1.8 3.9c.3 1.7 1.8 3.2 4.6 4.3 1.4.6 2.9.9 4.3.9 3.5 0 5.9-1.8 7.2-3.1 1.3 1.3 3.8 3.1 7.2 3.1 1.4 0 2.8-.3 4.3-.9 2.8-1.1 4.3-2.6 4.6-4.3.3-2.2-1.7-3.8-1.8-3.9s-.2-.1-.3-.2c-2.7-.7-4.2-2.3-3.9-4.3s2.2-3.9 5-3.9h.1c5.2.1 6.2 6 6.2 6.3s.3.6.5.7c.3.1.6.1.9-.1 5.7-3.7 8.8-7.8 9.2-12.3.5-6.1-4.1-10.4-4.3-10.6-.3-.3-.8-.3-1.2 0 0 0-1.1.9-2.7.9-.4 0-.9-.1-1.3-.2-1-.3-2.1-2-2.1-3.8 0-1.2.4-2.8 2.6-3.6.7-.3 1.4-.4 2.2-.4 3.7 0 6.7 3.2 6.8 3.2.2.2.5.3.8.3s.5-.2.7-.4c.2-.3 4.1-7.3 2.6-12.8-1.6-5.6-6.7-7.5-6.9-7.6-.5-.2-1 .1-1.2.5 0 .1-1 2.3-4.2 2.3h-.2c-1.7 0-2.5-1.4-2.8-2.2-.6-1.6-.3-3.5.7-4.3.7-.6 2.4-1.3 4.9-1.3 2 0 5.9.5 9.1 3.7 2.9 2.8 4.6 7.8 4.5 12.7-.1 3.1-.9 7.4-4.5 10.7-.3.3-.4.8-.2 1.1 0 .1 3.4 5.7 1.5 12.6-1.6 5.9-6.5 11-14.5 15.2-.3.2-.5.5-.5.9 0 .1.4 5.7-7.2 9.2-1.8.8-3.5 1.2-5.2 1.2zm60.4.6c-4.1 2.5-8.8 2.3-8.8 2.3-.4 0-.7.2-.9.6-.1.4 0 .8.3 1l.6.4c-3.4 1.2-7.8 1.6-7.8 1.6-.3 0-.7.3-.8.6s0 .7.3.9c-3.7.4-7.5 0-7.5 0-.3 0-.7.1-.9.4s-.2.7.1 1l.3.3c-3.6.1-7.6-1.3-7.6-1.3-.3-.1-.8 0-1 .3s-.2.7 0 1l.4.5c-6.1-1-9.5-3.4-9.5-3.5-.3-.3-.8-.2-1.1 0s-.4.7-.2 1.1l.3.6c-4.1-1.6-6.7-3.4-6.7-3.5-.3-.3-.8-.2-1.1.1s-.4.7-.2 1.1l.7 1.2c-1.9-.6-5.1-2-8.3-5.5 1.7-.1 3.3-.6 4.9-1.3 1.9-.9 3.4-1.9 4.5-2.9 2 2 4 3.6 5.7 4.7.2.1.3.1.5.1.3 0 .6-.1.7-.4.3-.4.2-1-.3-1.2-2.1-1.4-3.9-2.9-5.5-4.5 1.3-1.6 2-3.2 2.3-4.4 1.1 2.2 2.2 3.9 3.2 5.3 3.1 4.3 5.8 6.1 5.9 6.2.2.1.3.1.5.1.3 0 .6-.1.7-.4.3-.4.2-1-.3-1.2 0 0-2.6-1.7-5.5-5.8-1.1-1.6-2.4-3.7-3.6-6.3 1.7-.9 3.2-1.9 4.6-2.9 6 13.8 12.4 17.2 12.8 17.4.1.1.3.1.4.1.3 0 .6-.2.8-.5.2-.4 0-1-.4-1.2-.1 0-6.3-3.3-12.1-16.9 1.7-1.4 3.2-2.9 4.5-4.4l.8.5c1 7.7 5 13 8.1 16.2 3.4 3.4 6.5 5 6.7 5.1.1.1.3.1.4.1.3 0 .6-.2.8-.5.2-.4 0-1-.4-1.2-.1-.1-11.1-5.6-13.6-18.6l6.2 3.6c3.5 9 11.7 13.9 12.1 14.1.1.1.3.1.4.1.3 0 .6-.2.8-.4.3-.4.1-1-.3-1.2-.1 0-6.8-4-10.4-11.1l19.5 11.3c.1.1.3.1.4.1.3 0 .6-.2.8-.4.3-.4.1-1-.3-1.2l-19.7-11.3c8-.4 14.7 3.4 14.8 3.5s.3.1.4.1c.3 0 .6-.2.8-.4.3-.4.1-1-.3-1.2-.3-.2-8.7-5-18.3-3.5l-6.2-3.6c6.2-2.2 11.9-1.6 15.6-.6 4.4 1.1 7.2 3 7.3 3 .2.1.3.2.5.2.3 0 .6-.1.7-.4.3-.4.2-1-.2-1.2-.1-.1-3-2-7.7-3.2-4.3-1.1-10.8-1.8-18.1 1.1l-.6-.4c1.3-1.9 2.2-3.9 2.8-6 0-.1.1-.3.1-.4 13.5-1.3 19.1 2.1 19.2 2.2.2.1.3.1.5.1.3 0 .6-.1.7-.4.3-.4.2-1-.3-1.2-.3-.2-6-3.8-19.8-2.5.3-2 .2-3.8 0-5.4 2.3-.1 4.3-.1 5.9.1 5 .4 7.8 1.8 7.8 1.8.4.2 1 0 1.2-.4s0-1-.4-1.2c-.1-.1-3-1.5-8.3-2-1.8-.2-3.9-.3-6.5-.1-.4-1.9-1.1-3.3-1.5-4.1.3-.3.5-.5.8-.9 3.4.4 6.9 1.4 10.4 3.2.4.2 1 .1 1.2-.4.2-.4.1-1-.4-1.2-3.4-1.7-6.7-2.7-10-3.2 1.7-2.6 2.5-5.7 2.6-9.1v-.4c4.3 1 6.9 3 8.3 4.3h-1.4c-.4 0-.8.3-.9.7s.1.8.5 1c0 0 2.9 1.3 6.3 4.1h-.7c-.4 0-.8.3-.8.7-.1.4.1.8.5 1 0 0 1.2.5 2.9 1.8 1.3 1 3 2.5 4.9 4.7l-.6-.1c-.4 0-.7.2-.9.5s-.1.8.2 1c0 0 3.2 2.8 5 5.9l-.4-.1c-.3 0-.7.1-.9.4s-.2.7.1 1c0 0 2.3 3.1 3.8 6.5-.3-.1-.7 0-1 .2-.3.3-.3.6-.2 1 0 0 1.9 4 2.6 7.6l-.6-.3c-.3-.2-.8-.1-1 .2-.3.3-.3.7-.1 1 .1.2 2.6 4.2 2.5 9z"/><path d="M78.9 49.7h.6c9.6-12.7 9.4-20.3 9.3-20.6 0-.5-.4-.9-.9-.8-.5 0-.9.4-.8.9 0 0 .1 2.3-1.4 6.3-1.6 4.3-4.2 8.6-6.8 12.2zm-21.5 3.5c-.4-2.4-1-4-1-4v-.1c-.1-.3-.2-.7-.2-1.1-.6-1.1-1.1-2.1-1.6-3-2.1-4.6-2.3-7.6-2.3-7.7 0-.5-.4-.9-.9-.8-.5 0-.9.4-.8.9 0 .1.2 3.3 2.4 8.2.9 2.1 2.3 4.8 4.4 7.6zm17.3-11.5c.5 0 1 .1 1.5.3 3.6-4 5.4-8.3 6.3-11.6 1.3-4.7 1-8.2 1-8.3 0-.5-.4-.9-.9-.8-.5 0-.9.4-.8.9 0 0 .2 3.4-1 7.8-.9 3.3-2.8 7.7-6.7 11.7zm-14.4 1.8c.5 0 1 .1 1.4.3-5.7-9.1-5.6-14.4-5.6-14.5 0-.5-.3-.9-.8-.9s-.9.3-.9.8c0 .3-.2 5.5 5.1 14.4.2-.1.5-.1.8-.1z"/><path d="M82.6 59.9H65.2v-1c0-.7 0-1.3-.1-1.9h18.3c1.7 0 3-1.4 3-3s-1.4-3-3-3h-5.7v-5c0-1.7-1.4-3-3-3-1.7 0-3 1.4-3 3v5h-7.3c-.5-2.6-1.1-4.2-1.2-4.3-.6-1.6-2.3-2.4-3.9-1.8s-2.4 2.3-1.8 3.9c.1.2 1.7 4.7 1.7 10.1 0 4.4-1 9.3-4.3 13.4-1.1 1.3-.9 3.2.4 4.3.6.4 1.2.7 1.9.7.9 0 1.7-.4 2.3-1.1 2.6-3.2 4.1-6.7 4.9-10.1H71v8.5c0 1.7 1.4 3 3 3 1.7 0 3-1.4 3-3V66h5.6c1.7 0 3-1.4 3-3 0-1.7-1.3-3.1-3-3.1zm-14 43.6V81c0-1.7 1.4-3 3-3 1.7 0 3 1.4 3 3v22.4c0 1.7-1.4 3-3 3-1.6.1-3-1.3-3-2.9zm-15.8-2.7c.6 1 1.7 1.5 2.8 1.5.6 0 1.2-.2 1.7-.5 3-1.9 5-4.3 6.2-6.8 1.2-2.4 1.5-4.9 1.5-6.8 0-3.1-.8-5.2-.9-5.4-.6-1.7-2.5-2.6-4.2-1.9s-2.5 2.5-1.9 4.2.1.3.2.9.2 1.4.2 2.3c0 1.2-.2 2.7-.9 4-.7 1.4-1.7 2.8-3.8 4.1-1.4.9-1.9 2.9-.9 4.4zm32.9 1c.5.3 1.1.5 1.7.5 1.1 0 2.1-.5 2.8-1.5 1-1.5.5-3.6-1-4.5-2.1-1.3-3.1-2.7-3.8-4.1s-.9-2.8-.9-4c0-1 .1-1.8.3-2.4.1-.3.1-.5.2-.6v-.1c.6-1.7-.3-3.6-1.9-4.2-1.7-.6-3.6.2-4.2 1.9-.2.2-.9 2.3-.9 5.4 0 2 .3 4.4 1.5 6.8 1.2 2.5 3.2 4.9 6.2 6.8z"/></svg>