<svg xmlns="http://www.w3.org/2000/svg" width="964.11" height="310.104" viewBox="0 0 964.11 310.104"><path d="M809.113 308.377c-.622 0-.622-1.469-1.244-1.469s-.622.463-1.244.463-.622-.063-1.244-.063-.622.868-1.244.868-.622.278-1.244.278-.622-1.586-1.244-1.586-.622 1.306-1.245 1.306-.622-1.092-1.244-1.092-.622-.016-1.244-.016-.622 1.34-1.244 1.34-.622-.7-1.245-.7-.622-.959-1.244-.959-.622.982-1.244.982-.623-.878-1.245-.878-.622-.109-1.244-.109-.623 1.354-1.245 1.354-.622-.454-1.245-.454-.622-.482-1.244-.482-.623 1.258-1.245 1.258-.623-.895-1.245-.895-.623-.619-1.245-.619-.623.928-1.245.928-.623-.243-1.245-.243-.623.6-1.245.6-.623-1.029-1.246-1.029-.622.7-1.245.7-.623-.139-1.246-.139-.622-.827-1.245-.827-.623 1.483-1.246 1.483-.623-.578-1.245-.578-.623-.994-1.246-.994-.623 1.375-1.246 1.375-.623-1.024-1.246-1.024-.623-.068-1.246-.068-.623.854-1.247.854-.623-1.028-1.246-1.028-.623 1.692-1.246 1.692-.624-.04-1.247-.04-.623-.851-1.247-.851-.623.586-1.246.586-.624-1.026-1.247-1.026-.624.127-1.247.127-.624 1.026-1.248 1.026-.623-1.024-1.247-1.024-.624-.676-1.247-.676-.624 1.2-1.248 1.2-.624-.679-1.248-.679-.624 1.332-1.248 1.332-.624-.319-1.248-.319-.624-1-1.248-1-.624 1.127-1.248 1.127-.624-1.428-1.249-1.428-.624.744-1.248.744-.625.706-1.249.706-.625-.876-1.249-.876-.625 1-1.249 1-.625-.991-1.249-.991-.625-.07-1.25-.07-.625.571-1.25.571-.624-.967-1.249-.967-.625 1.342-1.25 1.342-.625-.4-1.251-.4-.625.526-1.25.526-.625-.516-1.25-.516-.626.431-1.251.431-.626-1.136-1.251-1.136-.626.748-1.251.748-.626-.229-1.252-.229-.625-.829-1.251-.829-.626.485-1.252.485-.626 1.106-1.251 1.106-.626-1.152-1.252-1.152-.625-.723-1.251-.723-.625.955-1.251.955-.625-.265-1.251-.265-.625-.621-1.25-.621-.626-.035-1.251-.035-.625.6-1.25.6-.625-.218-1.25-.218-.625.01-1.25.01-.625.7-1.25.7-.625-.214-1.25-.214-.625-.551-1.25-.551-.625 1.485-1.249 1.485-.625-1.85-1.25-1.85-.624 1.225-1.249 1.225-.624-.334-1.249-.334-.624.448-1.249.448-.624.2-1.249.2-.624-.231-1.249-.231-.624.346-1.248.346-.624-1.473-1.249-1.473-.624 1.045-1.248 1.045-.624-1.054-1.248-1.054-.625.349-1.249.349-.624.538-1.248.538-.624-.3-1.248-.3-.624 1.119-1.248 1.119-.624-1.012-1.248-1.012-.623.631-1.247.631-.624.286-1.248.286-.624-1.1-1.248-1.1-.623.756-1.247.756-.624-.692-1.248-.692-.623-.444-1.247-.444-.624 1.145-1.247 1.145-.624.014-1.247.014-.624.2-1.248.2-.623-.14-1.247-.14-.623.24-1.247.24-.623-.885-1.247-.885-.624.78-1.247.78-.624-.72-1.247-.72-.623.338-1.247.338-.623.268-1.247.268-.623-1.146-1.247-1.146-.623.968-1.247.968-.623-.161-1.246-.161-.624-.36-1.247-.36-.624.138-1.247.138-.624-.825-1.247-.825-.623-.179-1.247-.179-.623.773-1.247.773-.623.837-1.246.837-.624-.651-1.247-.651-.624.758-1.247.758-.623-.928-1.247-.928-.623-.347-1.247-.347-.623 1.026-1.247 1.026-.623-.238-1.247-.238-.623.459-1.246.459-.624-.361-1.247-.361-.624-1.068-1.247-1.068-.624.589-1.248.589-.623 1.039-1.247 1.039-.623-1.3-1.247-1.3-.623.157-1.247.157-.624.658-1.247.658-.624.449-1.248.449-.623-1.743-1.247-1.743-.624 1.48-1.247 1.48-.624-.057-1.248-.057-.624-1.243-1.248-1.243-.624.08-1.247.08-.624 1.47-1.248 1.47-.624-.165-1.248-.165-.624-.285-1.248-.285-.624-.319-1.248-.319-.624-.866-1.248-.866-.625.376-1.249.376-.624.9-1.248.9-.624.037-1.249.037-.624-.011-1.248-.011-.625-1.513-1.249-1.513-.625 1.283-1.249 1.283-.625.271-1.249.271-.625-1.394-1.249-1.394-.625 1.363-1.25 1.363-.624-1.027-1.249-1.027-.625.346-1.25.346-.625.732-1.25.732-.625.089-1.25.089-.625.212-1.25.212-.625-.561-1.25-.561-.625.28-1.251.28-.625.149-1.25.149-.626-1.106-1.251-1.106-.626.24-1.251.24-.626-.74-1.251-.74-.626.165-1.247.165-.626 1.309-1.252 1.309-.626-1.217-1.252-1.217-.626 1.3-1.252 1.3-.626-1.685-1.252-1.685-.626 1.825-1.253 1.825-.626-1.1-1.252-1.1-.626-.367-1.252-.367-.626.1-1.253.1-.626 1.355-1.251 1.355-.626-1.665-1.252-1.665-.626 1.538-1.252 1.538-.626-.292-1.251-.292-.626-.679-1.252-.679-.625.843-1.251.843-.625-1.213-1.251-1.213-.625.645-1.25.645-.626-.856-1.251-.856-.625 1.453-1.25 1.453-.626-.992-1.251-.992-.625-.265-1.25-.265-.625.169-1.25.169-.625 1.091-1.25 1.091-.625-1.258-1.25-1.258-.625.443-1.25.443-.625.734-1.249.734-.625-.444-1.25-.444-.625-.334-1.249-.334-.625.57-1.25.57-.624-1.306-1.249-1.306-.625.186-1.249.186-.625.569-1.249.569-.625 1.1-1.25 1.1-.624-1.214-1.249-1.214-.624.039-1.249.039-.624-.607-1.249-.607-.624.446-1.248.446-.625-.319-1.249-.319-.625.889-1.249.889-.625-.669-1.249-.669-.624-.172-1.249-.172-.624.84-1.249.84-.624-.5-1.249-.5-.624-.441-1.248-.441-.625 1.183-1.249 1.183-.625.1-1.249.1-.624.131-1.249.131-.624-.846-1.249-.846-.624.378-1.249.378-.624-.939-1.249-.939-.624.132-1.249.132-.624.509-1.249.509-.624-.6-1.249-.6-.625.62-1.249.62-.625 1.085-1.25 1.085-.624-1.422-1.249-1.422-.625-.116-1.249-.116-.625.433-1.25.433-.625.237-1.25.237-.625-.138-1.25-.138-.625-.2-1.249-.2-.626.742-1.251.742-.625-.65-1.25-.65-.625-.13-1.25-.13-.625-.218-1.251-.218-.625.341-1.25.341-.626 1.013-1.251 1.013-.625-.568-1.251-.568-.626.628-1.251.628-.626-1.2-1.251-1.2-.626.791-1.252.791-.626.125-1.252.125-.626-1.553-1.252-1.553-.626 1.255-1.252 1.255-.626-1.022-1.252-1.022-.626 1.6-1.253 1.6-.626-.724-1.253-.724-.626.551-1.253.551-.626.037-1.253.037-.626-1.328-1.253-1.328-.626.166-1.253.166-.626-.256-1.252-.256-.627.45-1.253.45-.626.9-1.252.9-.626-1.149-1.252-1.149-.626-.036-1.252-.036-.626.245-1.252.245-.625-.318-1.251-.318-.626.113-1.251.113-.626 1.317-1.252 1.317-.625-1.392-1.251-1.392-.625-.44-1.251-.44-.625.352-1.251.352-.625 1.253-1.25 1.253-.626-.729-1.251-.729-.625.381-1.251.381-.625-.926-1.25-.926-.625-.232-1.251-.232-.625 1.411-1.25 1.411-.625-.912-1.25-.912-.625-.367-1.251-.367-.625 1.576-1.25 1.576-.625-.155-1.25-.155-.625-.579-1.25-.579-.625-.068-1.251-.068-.625-.309-1.25-.309-.625.98-1.25.98-.625-1.431-1.25-1.431-.625.694-1.251.694-.625-.359-1.25-.359-.625-.423-1.25-.423-.626.444-1.251.444-.625 1.289-1.25 1.289-.626-.339-1.251-.339-.625-.406-1.251-.406-.625-.339-1.251-.339-.625-.78-1.251-.78-.625 1.437-1.251 1.437-.625-.8-1.251-.8-.626-.661-1.251-.661-.626 1.631-1.252 1.631-.626-.605-1.252-.605-.626.193-1.252.193-.626-.866-1.252-.866-.626-.3-1.252-.3-.626.048-1.253.048-.626.283-1.252.283-.627 1.248-1.253 1.248-.627-1.309-1.254-1.309-.627.212-1.253.212-.627-.261-1.254-.261-.627 1.555-1.253 1.555-.627-1.052-1.254-1.052-.626.575-1.253.575-.626.007-1.252.007-.627.141-1.253.141-.626-.614-1.252-.614-.626.673-1.253.673-.626-1.089-1.252-1.089-.626.305-1.252.305-.625-.57-1.251-.57-.626-.046-1.252-.046-.626.4-1.252.4-.625-.347-1.251-.347-.626-.009-1.252-.009-.625.879-1.251.879-.626-.69-1.251-.69-.626-.143-1.251-.143-.626.435-1.252.435-.625.361-1.251.361-.625-.684-1.251-.684-.626.352-1.251.352-.626-.1-1.252-.1-.625.034-1.251.034-.626-.281-1.251-.281-.626.637-1.252.637-.626-.14-1.252-.14-.625.544-1.251.544-.626-.4-1.252-.4-.626-.544-1.252-.544-.626.994-1.252.994-.626-1.177-1.253-1.177-.626.979-1.252.979-.627.19-1.253.19-.626-1.135-1.253-1.135-.626 1.552-1.253 1.552-.627-1.808-1.254-1.808-.626 1.127-1.253 1.127-.627.31-1.254.31-.627-1.108-1.254-1.108-.627.333-1.254.333-.627 1.068-1.253 1.068-.627-.208-1.253-.208-.627-.013-1.253-.013-.627-.862-1.253-.862-.626.843-1.253.843-.626-1.011-1.252-1.011-.626-.532-1.252-.532-.627.143-1.253.143-.626.485-1.252.485-.626 1.227-1.252 1.227-.626-.509-1.252-.509-.626-1.179-1.252-1.179-.626 1.443-1.252 1.443-.626-1.226-1.252-1.226-.626.684-1.252.684-.626.31-1.252.31-.626.123-1.252.123-.626-.242-1.252-.242-.627.158-1.253.158-.626-1-1.252-1-.627 1.344-1.253 1.344-.627-.534-1.253-.534-.627.187-1.253.187-.627-.679-1.254-.679-.626-.379-1.253-.379-.627.4-1.254.4-.627.424-1.254.424-.627-.285-1.254-.285-.627.984-1.254.984-.627-.756-1.254-.756-.627.314-1.253.314-.627.095-1.254.095-.626-1.29-1.253-1.29-.631 1.065-1.258 1.065-.626-.083-1.252-.083-.627-1.129-1.253-1.129-.626.636-1.253.636-.626-.2-1.252-.2-.627.854-1.253.854-.624-.481-1.249-.481-.624.3-1.248.3-.625-.872-1.249-.872-.624 1.345-1.248 1.345-.624-1.407-1.248-1.407-.624 1.1-1.248 1.1-.624-1-1.248-1-.624.47-1.248.47-.624.054-1.248.054-.624-.835-1.248-.835-.624.94-1.248.94-.624-.091-1.248-.091-.625.981-1.249.981-.624-.422-1.248-.422-.624-.175-1.249-.175-.624-.945-1.248-.945-.625 1.187-1.249 1.187-.625-1.516-1.25-1.516-.625 1.429-1.25 1.429-.625-1.368-1.25-1.368-.625 1.012-1.25 1.012h-1.251c-.625 0-.626-.791-1.252-.791s-.626 1.067-1.252 1.067-.626-.479-1.252-.479-.627.444-1.254.444-.627-.636-1.253-.636-.628-.316-1.255-.316-.628 1.5-1.255 1.5-.628-.744-1.256-.744-.627-1.082-1.254-1.082-.627.629-1.254.629-.627-.577-1.253-.577-.627 1.648-1.253 1.648-.627.068-1.253.068-.626-1.4-1.252-1.4-.626.225-1.252.225-.626-.524-1.251-.524-.626.118-1.252.118-.625.2-1.251.2-.625-.325-1.251-.325-.625 1.013-1.251 1.013-.625-.084-1.25-.084-.626.576-1.251.576-.626-.846-1.251-.846-.626.021-1.252.021-.625.832-1.251.832-.626-.469-1.252-.469-.626.286-1.252.286-.626-.989-1.253-.989-.626.578-1.253.578-.626-.711-1.253-.711-.627 1.161-1.254 1.161-.628.122-1.255.122-.628.1-1.256.1-.628-1.038-1.256-1.038-.628.657-1.256.657-.628-.2-1.255-.2-.628-.727-1.255-.727-.627.9-1.254.9-.627.04-1.253.04-.627.526-1.254.526-.626-.71-1.253-.71-.626-.1-1.253-.1-.626.641-1.253.641-.626-1.029-1.252-1.029-.627 1.1-1.253 1.1-.627-.937-1.254-.937-.626.276-1.253.276-.627.342-1.254.342-.628-1.452-1.255-1.452-.627.45-1.255.45-.628.618-1.256.618-.629-.914-1.257-.914-.628 1.595-1.256 1.595-.628-1.144-1.256-1.144-.628 1.3-1.256 1.3-.627-1.306-1.254-1.306-.627.049-1.255.049-.627-.272-1.254-.272-.627.64-1.254.64-.627-.644-1.254-.644-.628 1.01-1.255 1.01-.627-.481-1.255-.481-.628-.045-1.255-.045-.629-.751-1.257-.751-.628.631-1.257.631-.628 1.163-1.257 1.163-.628-1.409-1.256-1.409-.628-.32-1.256-.32-.628.292-1.255.292-.628 1.117-1.255 1.117-.628-.252-1.256-.252-.627.348-1.255.348-.628-1.158-1.256-1.158-.629-.472-1.257-.472-.629.839-1.258.839-.628-.1-1.257-.1-.628-.013-1.256-.013-.628.68-1.256.68-.628-.138-1.256-.138-.628-.46-1.256-.46-.628 1.028-1.257 1.028-.629-.381-1.257-.381-.629-.708-1.257-.708-.628-.009-1.256-.009-.627.092-1.254.092-.626.806-1.253.806-.626-1.376-1.252-1.376-.626.981-1.252.981-.627-.4-1.253-.4-.627-.569-1.254-.569-.627 1.237-1.255 1.237-.628-.65-1.257-.65-.629.86-1.259.86-.628.035-1.257.035-.628-.17-1.256-.17-.627-1.141-1.255-1.141-.628.211-1.255.211-.628 1.162-1.256 1.162-.63-1.275-1.259-1.275-.629.807-1.259.807-.629-1.187-1.258-1.187-.628 1.46-1.257 1.46-.628-1.081-1.257-1.081-.63.147-1.26.147-.629.053-1.259.053-.629.15-1.258.15-.63.322-1.259.322-.631.3-1.261.3-.629-.931-1.259-.931-.63 1.175-1.26 1.175-.628-1.1-1.255-1.1-.631.351-1.261.351-.629-.338-1.258-.338-.629-.28-1.258-.28-.631.5-1.262.5-.631.5-1.261.5-.63-.166-1.261-.166-.632-1.193-1.264-1.193-.63.351-1.261.351-.632.507-1.263.507-.634.393-1.267.393-.634.108-1.267.108c-.417 0-.836-.138-1.252-.142s-.844.5-1.26.493-.815-1.039-1.231-1.049-.812-.622-1.228-.635-.83.073-1.246.056-.836.159-1.252.139-.879.861-1.294.837-.828-.164-1.243-.191-.8-.548-1.213-.579-.816-.221-1.23-.254-.794-.444-1.209-.48-.912.832-1.326.792-.873.322-1.287.278-.74-.9-1.154-.945-.87.267-1.283.216-.857.126-1.27.073-.844 0-1.256-.052-.778-.462-1.19-.523-.743-.646-1.154-.71-.811-.181-1.222-.248-.807-.2-1.217-.271-.827-.082-1.236-.156-.948.547-1.357.47-.935.428-1.343.347-.469-1.883-.877-1.967-1.018.808-1.424.721-.861.03-1.267-.061-.9.161-1.3.067-.614-1.032-1.018-1.13-.869.05-1.273-.051-.868.03-1.271-.074-.588-1.032-.99-1.14-1.008.539-1.409.428-.876.029-1.276-.085-.457-1.413-.857-1.531-1.282 1.379-1.68 1.259-.473-1.308-.87-1.432-.921.148-1.318.021-.71-.512-1.105-.643-.771-.319-1.165-.453-.821-.176-1.214-.313-1.079.543-1.471.4-.321-1.564-.711-1.707-.824-.165-1.214-.312-.815-.192-1.2-.342-.894 0-1.281-.151-.722-.438-1.108-.6-.739-.389-1.124-.548-.786-.277-1.169-.44-1.174.615-1.556.449-.447-1.063-.828-1.232-.758-.347-1.137-.519-.966.1-1.344-.074-.567-.759-.943-.937-.593-.691-.967-.872-.722-.416-1.095-.6-1.057.252-1.429.065-.6-.656-.973-.846-.47-.9-.839-1.092-1.294.66-1.661.464-.676-.512-1.041-.712-.308-1.168-.672-1.37-.518-.77-.88-.975-1.409.785-1.77.576-.41-.954-.768-1.165-.536-.726-.893-.941-.985.02-1.34-.2-.3-1.1-.651-1.32-1.12.218-1.471 0-.864-.2-1.213-.427-.808-.3-1.156-.524-.619-.582-.965-.813.166-1.731-.177-1.965-.722-.407-1.064-.645-.771-.339-1.111-.578-1.522.7-1.86.46.215-1.716-.121-1.962-.924-.142-1.258-.39-1.422.5-1.754.254-.134-1.2-.464-1.457-1.065.011-1.393-.246-.4-.846-.724-1.1.026-1.36-.3-1.621-.786-.344-1.108-.608-1.106.032-1.425-.235-.293-.943-.61-1.212-.818-.322-1.133-.594-1.262.177-1.575-.1-.27-.958-.58-1.235-.827-.332-1.135-.612-.756-.416-1.062-.7.255-1.5-.048-1.784-.944-.211-1.245-.5-.339-.848-.638-1.137-.3-.882-.592-1.174-.5-.671-.792-.966-1.555.372-1.846.076-.195-.976-.485-1.275-.217-.941-.5-1.242-1.555.322-1.84.018-.26-.9-.542-1.207-.822-.382-1.1-.69.313-1.4.036-1.713-.431-.724-.7-1.037-1.291.021-1.563-.294.114-1.192-.155-1.509-.253-.869-.519-1.188-1.471.14-1.735-.181-.948-.308-1.21-.632-.5-.675-.759-1 .744-1.646.488-1.974-1.576.169-1.829-.161-.015-1.038-.266-1.37-.357-.772-.6-1.106-.487-.673-.732-1.009.05-1.059-.192-1.4-1.718.2-1.958-.138-.651-.568-.888-.91-.128-.928-.362-1.272.408-1.279.177-1.625-.709-.524-.938-.871-.942-.38-1.167-.729-.683-.555-.906-.907-.23-.842-.45-1.2-.15-.887-.367-1.242-.577-.623-.791-.98-.582-.625-.793-.983.468-1.235.26-1.595-1.837.093-2.042-.269 1.053-1.548.85-1.911-1.513-.115-1.712-.48-.331-.772-.527-1.139.145-1.02-.048-1.388-1.147-.344-1.338-.714.815-1.349.627-1.72-.247-.8-.431-1.173-1.527-.179-1.708-.553.073-.96-.1-1.336-1.148-.385-1.323-.763.224-1.023.052-1.4-.8-.559-.967-.939.439-1.1.273-1.486.337-1.046.174-1.429-.566-.659-.726-1.043-.421-.722-.578-1.108-.557-.67-.71-1.057-.924-.534-1.074-.922.084-.925-.063-1.315-.864-.57-1.008-.96-.3-.782-.444-1.174.7-1.13.559-1.523-.7-.637-.836-1.031-.386-.753-.516-1.153-.194-.813-.321-1.209-.239-.8-.363-1.2.457-1.009.336-1.407-.8-.627-.915-1.026-1.069-.561-1.183-.961 1.47-1.276 1.359-1.677-1.053-.572-1.16-.974.106-.887 0-1.29-.588-.707-.689-1.111-.777-.669-.875-1.074-.165-.821-.259-1.226.492-.968.4-1.374-.131-.822-.218-1.229.23-.9.146-1.3.179-.879.1-1.287-1.565-.543-1.643-.952 1.234-1.073 1.16-1.483-.895-.683-.966-1.093.418-.911.35-1.322-1.092-.666-1.156-1.078-.021-.84-.082-1.251.691-.937.634-1.35-.928-.712-.982-1.125.084-.85.034-1.263.708-.918.661-1.332-.006-.829-.05-1.243-1.191-.713-1.231-1.127-.4-.8-.442-1.216 1.1-.929 1.068-1.344-.692-.779-.722-1.2-.366-.809-.393-1.225-.364-.815-.387-1.231.506-.862.486-1.279-.444-.815-.461-1.232.225-.844.212-1.261.452-.845.441-1.261.315-.836.309-1.253-.922-.82-.925-1.237.172-.837.172-1.254h.518c0-.416.011-.829.015-1.246S2 152.964 2 152.548s-.518-.847-.508-1.263.917-.811.93-1.226.681-.806.7-1.221-.277-.842-.257-1.257-.565-.863-.542-1.278-.284-.854-.257-1.269.809-.781.839-1.2-.659-.886-.625-1.3 1.105-.741 1.142-1.156-1.376-.966-1.336-1.38.071-.837.114-1.251.218-.82.265-1.234.049-.839.1-1.252.137-.829.191-1.241 1.638-.62 1.695-1.032-1.138-1-1.078-1.414.186-.818.25-1.229.266-.8.333-1.215 0-.848.068-1.258.351-.786.425-1.195-.584-.96-.507-1.369.888-.681.969-1.089.179-.816.263-1.223.672-.709.759-1.116.609-.714.7-1.12-.919-1.062-.825-1.468.168-.819.266-1.223 1.363-.521 1.464-.925S6.392 117 6.5 116.6s.151-.826.259-1.228 1.314-.507 1.425-.908.641-.679.755-1.079-.165-.909-.048-1.308-.943-1.152-.823-1.551 1.571-.388 1.7-.786.006-.867.133-1.263.189-.811.32-1.207.677-.646.811-1.041-.012-.879.125-1.272-.658-1.116-.518-1.508 1.149-.47 1.292-.861.05-.867.2-1.257-.575-1.113-.425-1.5.316-.778.469-1.165 1.636-.242 1.792-.628-.513-1.108-.354-1.493.59-.656.752-1.039.9-.518 1.064-.9-1.007-1.352-.838-1.732 1.131-.408 1.3-.787.725-.58.9-.958.288-.78.467-1.156.408-.723.589-1.1.525-.664.71-1.037.159-.846.347-1.217.607-.62.8-.99-.227-1.053-.033-1.422 1.035-.389 1.232-.756-.769-1.362-.569-1.727 1.642-.043 1.844-.407-.71-1.352-.5-1.714 1.11-.323 1.319-.683.036-.942.247-1.3.4-.733.613-1.09.364-.754.581-1.109 1.079-.31 1.3-.663-.326-1.187-.1-1.538.823-.463 1.049-.812-.282-1.181-.053-1.529.893-.41 1.125-.756.2-.871.438-1.214 1.561.063 1.8-.278-.092-1.076.148-1.416.309-.8.551-1.141.49-.674.736-1.01-.156-1.153.093-1.487 1.544.114 1.795-.218.676-.526.93-.856.115-.96.372-1.288 1.128-.165 1.387-.49-.459-1.433-.2-1.756 1.474.131 1.739-.191.384-.754.651-1.073.5-.663.767-.98-.659-1.662-.387-1.977.665-.533.94-.846 1.562.271 1.84-.04.143-.988.422-1.3 1.217-.01 1.5-.316.544-.62.829-.924 0-1.144.283-1.445.588-.587.878-.886.068-1.1.36-1.4 1.135-.049 1.429-.343.418-.761.714-1.052.8-.367 1.1-.657.752-.414 1.054-.7.02-1.191.323-1.475.912-.244 1.218-.526-.054-1.3.254-1.577.7-.48 1.009-.757 1.116 0 1.429-.274.915-.215 1.23-.487-.152-1.46.165-1.729 1.477.459 1.8.192-.041-1.355.281-1.619.605-.584.928-.845 1.539.589 1.865.33.3-.962.624-1.218.483-.735.813-.989.631-.547.963-.8.245-1.069.579-1.317 1.582.744 1.919.5.588-.6.927-.84.148-1.225.488-1.465 1.241.324 1.583.087-.124-1.652.22-1.886.792-.325 1.138-.557 1.134.2 1.482-.027.631-.555.98-.781.615-.585.966-.807.38-.966.734-1.186 1.108.2 1.463-.013.918-.086 1.275-.3.36-1.02.719-1.232 1.028.112 1.389-.1.116-1.476.478-1.681 1.285.583 1.649.38.964.035 1.33-.165.229-1.321.6-1.517 1.126.349 1.494.155.554-.732.925-.922.981.1 1.353-.086.429-1 .8-1.181.765-.33 1.139-.511.983.131 1.359-.047.248-1.431.626-1.606.991.158 1.37-.014.787-.279 1.168-.448.821-.2 1.2-.364.659-.575 1.042-.738 1.105.491 1.49.332.31-1.434.7-1.59 1.236.852 1.623.7.191-1.8.579-1.948.944.128 1.334-.019.614-.75 1.005-.893 1.146.713 1.538.573.525-1.015.918-1.152 1.1.636 1.493.5.826-.141 1.221-.272.423-1.388.819-1.515.994.375 1.391.251.534-1.1.933-1.226 1.032.538 1.431.42.66-.723 1.06-.837.8-.255 1.2-.366.907.156 1.31.049.724-.529 1.127-.633S117.54 8 117.944 7.9s.582-1.1.986-1.2.945.389 1.351.295.751-.428 1.157-.519.8-.228 1.206-.316.85.014 1.258-.07.7-.723 1.11-.8.935.463 1.344.385.747-.518 1.157-.592.7-.808 1.114-.878.769-.479 1.18-.546.821-.18 1.233-.244 1.051 1.385 1.46 1.319.64-1.4 1.052-1.455.9.418 1.312.364.729-.9 1.142-.949 1 1.343 1.412 1.3.847.144 1.261.1.656-1.781 1.071-1.821.9.6 1.312.564.788-.6 1.2-.636.926 1.173 1.342 1.142.74-1.39 1.155-1.417.929 1.563 1.345 1.539.754-1.512 1.17-1.533.854.373 1.27.356.85.436 1.267.423.807-.993 1.224-1 .857 1.14 1.274 1.133.821-1.169 1.237-1.173.841 1.344 1.259 1.344c.622 0 .622-.032 1.244-.032s.622-.422 1.244-.422.622.251 1.244.251.622-.015 1.244-.015.622-1.179 1.244-1.179.622.85 1.244.85.622-.9 1.244-.9.622 1.727 1.244 1.727.622-1.155 1.245-1.155.622-.108 1.244-.108.622 1 1.244 1 .622.089 1.245.089.622-.638 1.244-.638.622-.522 1.244-.522.623.765 1.245.765.622.532 1.245.532.622-1.177 1.244-1.177.623-.275 1.245-.275.622.945 1.245.945.622-.54 1.245-.54.622.521 1.245.521.622.491 1.245.491.622-.011 1.245-.011.622-1.678 1.245-1.678.623.088 1.245.088.623.6 1.246.6.622.239 1.245.239.623.271 1.246.271.622-.847 1.245-.847.623.889 1.246.889.623-.509 1.246-.509.623.186 1.246.186.623-.652 1.246-.652.623.677 1.246.677.623.933 1.246.933.623-.051 1.246-.051.624-.076 1.247-.076.623-1.428 1.247-1.428.623 1.381 1.246 1.381.624-1.616 1.247-1.616.624 1.139 1.247 1.139.624.627 1.247.627.624-1.631 1.247-1.631.624 1.16 1.248 1.16.623.229 1.247.229.624-1.281 1.248-1.281.624.959 1.247.959.624.084 1.248.084.624-.617 1.248-.617.624.936 1.248.936.625-1.517 1.249-1.517.624 1.637 1.248 1.637.625-.9 1.249-.9.624.032 1.249.032.624.652 1.249.652.624-1.515 1.249-1.515.624.206 1.249.206.625.122 1.25.122.624-.4 1.249-.4.625.336 1.25.336.625 1.311 1.25 1.311.625-.8 1.25-.8.625-.029 1.251-.029.625.556 1.25.556.625-.34 1.251-.34.625-.319 1.251-.319.625.155 1.251.155.625.7 1.251.7.626-.583 1.252-.583.626.169 1.251.169.626-.135 1.252-.135.626.073 1.251.073.626-1.133 1.251-1.133.626.4 1.251.4.626-.346 1.251-.346.626 1.453 1.251 1.453.625-1.025 1.25-1.025.626 1.328 1.251 1.328.625-1.578 1.25-1.578.625 1.525 1.25 1.525.625-.991 1.25-.991.625-.361 1.25-.361.625.65 1.249.65.625-.129 1.25-.129.625.577 1.249.577.625-.968 1.249-.968.625.982 1.25.982.624-1.09 1.249-1.09.624 1.119 1.248 1.119.625-.864 1.249-.864.624.125 1.249.125.624-.155 1.248-.155.624.126 1.249.126.624-.268 1.248-.268.624.5 1.248.5.624-.366 1.248-.366.624 1.071 1.248 1.071.624-1.541 1.248-1.541.624 1.039 1.248 1.039.624-.2 1.248-.2.624-.342 1.248-.342.623.465 1.247.465.624-.859 1.248-.859.623 1.391 1.247 1.391.624-1.027 1.247-1.027.624.906 1.248.906.623-.122 1.247-.122.624-1.164 1.247-1.164.624-.067 1.247-.067.624.99 1.248.99.623.2 1.247.2.623-1.207 1.247-1.207.623-.092 1.247-.092.623 1.179 1.247 1.179.623.13 1.246.13.624.006 1.247.006.624-.25 1.247-.25.624-.371 1.247-.371.623.892 1.247.892.629-1.373 1.253-1.373.623.294 1.247.294.623.892 1.246.892.624-.171 1.247-.171S308.878 2 309.5 2s.623.053 1.247.053.624-.353 1.253-.353.623 1.515 1.246 1.515.624-.367 1.247-.367.624.15 1.247.15.624.08 1.247.08.624-.734 1.247-.734.624-.149 1.247-.149.624-.6 1.247-.6.624 1.237 1.247 1.237.624.2 1.247.2.624.053 1.247.053.624-.956 1.248-.956.623 1.189 1.247 1.189.624.065 1.247.065.624-1.872 1.248-1.872h1.247c.624 0 .624.261 1.248.261s.623.152 1.247.152.624.458 1.248.458.624.686 1.248.686.624-1.329 1.248-1.329.624 1.364 1.248 1.364.624-.514 1.248-.514.624-.664 1.248-.664.624 1.321 1.248 1.321.624-1.386 1.249-1.386.624-.2 1.248-.2.625 1.2 1.249 1.2.624.244 1.249.244S347.551 2 348.176 2s.624-.064 1.249-.064.624.03 1.249.03.626 1.134 1.249 1.134.625-.119 1.25-.119.625.129 1.249.129.625-.539 1.25-.539.625-.784 1.25-.784.625.358 1.25.358.626.819 1.251.819.625-.432 1.25-.432.626-.293 1.251-.293.625.442 1.251.442.625-1.181 1.251-1.181.625.747 1.251.747.626-.419 1.252-.419.625 1.472 1.251 1.472.626-.4 1.252-.4.626.16 1.252.16.626-.94 1.253-.94.626.047 1.252.047.626.937 1.253.937.626.192 1.252.192.626-.142 1.252-.142.626-.564 1.252-.564.626.794 1.252.794.626-1.548 1.251-1.548.626.97 1.252.97.625.3 1.251.3.626.017 1.251.017.626-.142 1.251-.142.626-1 1.251-1 .625-.337 1.251-.337.625 1.047 1.25 1.047.625-.768 1.25-.768.625-.079 1.251-.079.625.367 1.25.367.625-.025 1.25-.025.625-.108 1.25-.108.624 1.332 1.249 1.332.625-1.44 1.25-1.44.625.03 1.249.03.625 1.311 1.25 1.311.625.05 1.249.05.625-.588 1.25-.588.624-.3 1.249-.3.624.231 1.249.231.625-.551 1.249-.551S407.578 2 408.2 2s.625.864 1.249.864.625-.3 1.249-.3.625.427 1.249.427.624-.024 1.249-.024.624-.315 1.249-.315.624-.569 1.249-.569.624.252 1.248.252.625-.735 1.249-.735.625-.062 1.249-.062.624.292 1.249.292.624.476 1.249.476.624.819 1.249.819.624-.009 1.248-.009.625.221 1.249.221.625-1.756 1.249-1.756.625.878 1.249.878.625.74 1.249.74.625-1 1.249-1 .625.607 1.25.607.624.3 1.249.3.625-.773 1.249-.773.625.65 1.25.65.624-.337 1.249-.337.625-.133 1.25-.133.624-.153 1.249-.153.625.27 1.25.27.625-.03 1.25-.03.625.741 1.25.741.625-1.72 1.25-1.72.625 1.559 1.251 1.559.625-.395 1.25-.395.625-1.148 1.251-1.148.625.758 1.251.758.625.085 1.251.085.625.921 1.251.921.625-1.648 1.251-1.648.626 1.194 1.252 1.194.625-.35 1.251-.35.626.4 1.252.4.626.254 1.252.254.626-.12 1.253-.12.626-1.3 1.252-1.3.627 1.014 1.253 1.014.627-.872 1.253-.872.627-.282 1.253-.282.627.713 1.253.713.627.271 1.253.271.627-.4 1.253-.4.626.36 1.252.36.626-1.017 1.253-1.017.626 1.309 1.252 1.309.626-.818 1.251-.818.626 1.057 1.252 1.057.626-.737 1.252-.737.625.153 1.251.153.626-.992 1.251-.992h2.502c.626 0 .626.284 1.251.284s.626.624 1.251.624.625.9 1.251.9.625-.558 1.25-.558.626.056 1.251.056.625.462 1.25.462.625-.7 1.251-.7.625-.833 1.25-.833.625.223 1.25.223.625-.414 1.25-.414.626 1.559 1.251 1.559.625-1.5 1.25-1.5.625.142 1.25.142.625.125 1.25.125.625.944 1.251.944.625-.739 1.25-.739.625 1.128 1.25 1.128.625-1.746 1.251-1.746.625.394 1.25.394h1.25c.625 0 .626.889 1.251.889s.625-1.1 1.251-1.1.625.531 1.25.531.626 1 1.251 1 .626-.571 1.251-.571.626.574 1.251.574.626-1.678 1.252-1.678.625 1.175 1.251 1.175.626.355 1.252.355.625-1.379 1.251-1.379.626 1.4 1.252 1.4.626-1.462 1.252-1.462.626 1.091 1.253 1.091.626-.667 1.252-.667.627-.252 1.253-.252.627.344 1.253.344.627.093 1.253.093.627-.775 1.254-.775.627 1.557 1.254 1.557.626-1.116 1.253-1.116.627 1.129 1.253 1.129.627-1.268 1.253-1.268h1.253c.626 0 .626 1.537 1.253 1.537s.626-1.424 1.252-1.424.626.679 1.252.679.626.816 1.252.816.626-1.777 1.252-1.777.626.555 1.252.555.626-.449 1.252-.449.625.571 1.251.571.626.834 1.252.834.625-.972 1.251-.972.626.142 1.251.142.626-.761 1.252-.761.625 1.36 1.251 1.36.626-.676 1.251-.676.626.614 1.251.614.626.434 1.252.434.625-1.363 1.251-1.363.626.936 1.251.936.626-.332 1.252-.332.625.419 1.251.419.626-.079 1.252-.079.625-.147 1.251-.147.626-.7 1.252-.7.626-.251 1.252-.251.626 1.373 1.252 1.373.626.205 1.252.205.626-.48 1.252-.48.626.351 1.253.351.626-.508 1.252-.508.627-.036 1.253-.036.627.677 1.254.677.626-1.161 1.253-1.161.627 1.139 1.254 1.139.627-.147 1.254-.147.627.12 1.254.12.627-1.62 1.253-1.62.627 1.657 1.254 1.657.626-1.685 1.253-1.685.626.771 1.253.771.626.005 1.253.005.626.437 1.252.437.626-1.344 1.253-1.344.626 1.12 1.252 1.12.626-.493 1.252-.493.626.426 1.252.426.626.794 1.252.794.626-.488 1.252-.488.626-1.19 1.252-1.19.626 1.41 1.252 1.41.626-.071 1.252-.071.626-.489 1.252-.489.627.385 1.253.385.626-1.172 1.252-1.172.626.985 1.252.985.626-.649 1.252-.649.627 1.253 1.253 1.253.626-.123 1.253-.123.626.161 1.253.161.626-1.711 1.253-1.711.626 1.228 1.253 1.228.627-.43 1.254-.43h1.254c.627 0 .627-.961 1.254-.961s.627 1.619 1.254 1.619.627-.49 1.254-.49.627-.275 1.254-.275.626.728 1.253.728.627-.521 1.253-.521.627.522 1.253.522.627-1.532 1.253-1.532.627 1.825 1.253 1.825.626-.351 1.253-.351.626.117 1.252.117.627-.817 1.253-.817.626-.144 1.252-.144.625-.2 1.249-.2.625.74 1.249.74.624-.92 1.248-.92.625 1.558 1.249 1.558.624-.5 1.248-.5.624.308 1.248.308.624-1.521 1.248-1.521.624 1.513 1.248 1.513.624.058 1.248.058.624-.228 1.248-.228.624-1.407 1.248-1.407.624.484 1.248.484.624.057 1.248.057.624 1.119 1.249 1.119.624-.988 1.248-.988.625.394 1.249.394.625-.589 1.249-.589.625-.147 1.249-.147.625-.037 1.25-.037.625 1.106 1.25 1.106.626-.364 1.251-.364.625-.906 1.251-.906.626.9 1.251.9.626-.734 1.252-.734.627-.363 1.253-.363.627 1.376 1.253 1.376.627.51 1.254.51.627-.972 1.255-.972.627-.261 1.255-.261.628-.5 1.255-.5.627 1.217 1.255 1.217.627.368 1.254.368.626-.222 1.253-.222.627-.682 1.253-.682.626.219 1.253.219.626-.231 1.252-.231.625.164 1.251.164.626-.188 1.252-.188.626.857 1.251.857.626-.323 1.251-.323.626-.6 1.251-.6.626-.167 1.251-.167.626-.512 1.251-.512.625.091 1.251.091.625.832 1.251.832.626-.909 1.251-.909.626.844 1.252.844.626-.582 1.251-.582.626.925 1.253.925.626-.6 1.252-.6.627-.232 1.253-.232.627.972 1.254.972.627-1.18 1.254-1.18.627.66 1.255.66.63-.404 1.258-.404.628.415 1.256.415.628-.579 1.256-.579.627 1.413 1.255 1.413.627-.615 1.254-.615.627.447 1.254.447.627-.211 1.254-.211.627.374 1.253.374.627-1.108 1.253-1.108.627 1.159 1.253 1.159.627-1.607 1.253-1.607.627 1.1 1.253 1.1.627-.07 1.253-.07.627-1.086 1.253-1.086.627 1.568 1.254 1.568.627-1.108 1.254-1.108.627 1.013 1.254 1.013.628-.238 1.256-.238.628-.413 1.256-.413.628.166 1.257.166.628.176 1.256.176.628-.358 1.256-.358.627-.146 1.255-.146.627-.465 1.255-.465.627 1.35 1.254 1.35.627-1.217 1.255-1.217.627-.445 1.254-.445.627 1.344 1.254 1.344.627.537 1.255.537.627-1.272 1.255-1.272.627.546 1.255.546.628-.545 1.256-.545.629.96 1.257.96.629-.5 1.257-.5.629.594 1.257.594.628-.008 1.255-.008.628-1.09 1.256-1.09.627.957 1.255.957.628-1.408 1.255-1.408.628.927 1.256.927.628-.948 1.256-.948.628.971 1.256.971.629-.376 1.258-.376.629-.267 1.257-.267.629.895 1.257.895.628.163 1.256.163.628-.058 1.256-.058.628-1.327 1.256-1.327.628 1.776 1.256 1.776.629-1.828 1.258-1.828.628 1.05 1.257 1.05.628.25 1.255.25.627.272 1.254.272.627-1.07 1.253-1.07.627.356 1.253.356.626.762 1.252.762.626-.662 1.253-.662.626.228 1.253.228.628-.116 1.255-.116.627-.528 1.257-.528.63.747 1.259.747.629.464 1.258.464.628-.289 1.255-.289.628-1.354 1.256-1.354.627 1.662 1.255 1.662.628-.247 1.256-.247.629-1.559 1.258-1.559.63.55 1.26.55.629.264 1.257.264.629-.491 1.257-.491.629-.017 1.258-.017.63 1.5 1.259 1.5.63-1.77 1.26-1.77.629.707 1.258.707.629.976 1.259.976.63-1.274 1.26-1.274.63 1.231 1.259 1.231.631-.829 1.261-.829.628.364 1.255.364.63.523 1.261.523.629-.5 1.258-.5.629-.773 1.258-.773.631-.319 1.262-.319.63 1.718 1.26 1.718.631-1.32 1.262-1.32.632-.1 1.263-.1.631 1.014 1.262 1.014.631-.6 1.263-.6.633.576 1.267.576.633-.021 1.267-.021c.417 0 .829.019 1.245.022s.84-.689 1.256-.682.833.1 1.249.106.8 1.015 1.218 1.028.9-1.8 1.315-1.786.761 1.67 1.177 1.69.847-.331 1.263-.307.9-1.041 1.314-1.015.768 1.017 1.183 1.047.9-.852 1.318-.819.83.137 1.245.174.732 1.127 1.146 1.167.89-.518 1.3-.474.743.856 1.156.9.834.008 1.247.058.876-.306 1.289-.253.93-.646 1.342-.589.847.007 1.258.067.791.382 1.2.446.6 1.537 1.007 1.6.893-.322 1.3-.251.766.427 1.175.5.926-.439 1.334-.362.854-.03 1.263.051.769.4 1.176.482.669.847 1.075.934.953-.473 1.359-.382 1.037-.791 1.442-.7.419 1.847.823 1.944.806.181 1.209.282 1.152-1.157 1.555-1.053.745.457 1.146.565.493 1.353.894 1.464 1.083-.79 1.484-.676.967-.331 1.366-.213.477 1.32.876 1.44 1.1-.742 1.5-.618.629.783 1.026.911.881-.009 1.276.122.575.907.969 1.041.756.354 1.149.491.95-.191 1.341-.051.792.264 1.182.408 1.041-.4 1.43-.249.372 1.368.761 1.518.936-.109 1.323.044 1.079-.442 1.465-.286.428 1.162.812 1.321.743.382 1.126.545.957-.113 1.339.053.6.719.976.887 1.081-.365 1.46-.193.3 1.356.674 1.531.83.187 1.206.365.646.575 1.021.756 1.205-.567 1.578-.382.295 1.277.666 1.464 1.067-.258 1.437-.068.882.118 1.251.311.473.891.84 1.087.9.093 1.264.293.91.085 1.274.288-.04 1.77.321 1.975.879.132 1.239.34.7.446 1.058.658 1.4-.725 1.759-.511.287 1.141.642 1.358.707.439 1.061.659.379.957.73 1.18 1.08-.145 1.429.081.516.733.864.961 1.008-.012 1.353.22.433.848.777 1.083.562.649.9.886 1.246-.326 1.586-.086-.19 1.7.148 1.943 1.124-.138 1.46.107.163 1.175.5 1.424.642.519.974.77 1.491-.587 1.821-.333.211 1.087.539 1.343.7.448 1.029.707.908.2 1.231.461.358.877.68 1.142.42.792.739 1.059 1.1-.02 1.419.25.6.575.919.847.757.4 1.069.676.915.227 1.226.5.72.454 1.028.734.383.822.689 1.1.889.275 1.192.559-.068 1.289.233 1.576.923.242 1.222.532.842.335 1.138.627-.076 1.262.218 1.556.439.733.731 1.029 1.343-.146 1.633.153.636.55.923.851-.026 1.173.259 1.476 1.341-.105 1.623.2.525.657.8.965-.226 1.326.051 1.637 1.025.2 1.3.518.364.79.636 1.1.653.539.922.856-.417 1.437-.151 1.757.545.619.809.941 1.737-.343 2-.019.372.774.631 1.1.575.612.831.94.231.878.484 1.208.749.479 1 .811.68.536.929.87-.058 1.079.188 1.415.641.564.884.9.936.361 1.175.7-.332 1.25-.1 1.592.5.664.736 1.008.511.656.743 1 .109.923.338 1.271 1.089.281 1.315.631-.518 1.316-.3 1.667 1.285.171 1.5.524.805.483 1.022.838-.517 1.286-.3 1.643.777.5.988.861.994.384 1.2.744-.243 1.1-.037 1.461-.042.973.16 1.336 1.053.366 1.252.731.953.433 1.149.8-.166 1.032.027 1.4.8.521 1 .891-.3 1.085-.109 1.457 1.115.373 1.3.746-.283 1.066-.1 1.44 1.067.413 1.245.789-.007.926.168 1.3-.215 1.012-.043 1.391 1.249.352 1.418.732-.634 1.187-.468 1.568.8.561.961.944-.153.963.006 1.348 1.663.219 1.819.605.354.763.507 1.15.161.837.311 1.226.389.749.535 1.139.371.758.514 1.149-1.377 1.384-1.236 1.776 1.686.286 1.823.68-.728 1.131-.594 1.525.546.692.676 1.087-.006.875.121 1.271.908.585 1.032.982.23.8.35 1.2.162.822.28 1.222-.026.873.088 1.274.509.722.62 1.123.284.787.391 1.189.176.817.28 1.22-.307.936-.206 1.34-.45.962-.353 1.366.848.65.942 1.055.107.827.2 1.233-.206.892-.118 1.3.653.708.737 1.116.483.75.564 1.159-.373.918-.3 1.327.8.7.879 1.106-.859.995-.789 1.4.165.809.232 1.22 1.585.59 1.649 1-1.245 1.03-1.185 1.441 1.5.626 1.56 1.038-1.322 1.017-1.268 1.43.043.826.094 1.24.463.777.51 1.191.617.768.661 1.182.336.8.376 1.219-.528.885-.491 1.3-.5.874-.469 1.289.842.766.872 1.182.748.784.775 1.2-.445.863-.422 1.279-.236.846-.216 1.262 1.015.791 1.032 1.207-.239.848-.226 1.265-.689.853-.679 1.27 1.1.814 1.109 1.23-1.437.852-1.434 1.269-.4.83-.4 1.247h.49c0 .417-.2.828-.2 1.244s.472.835.466 1.251 1.116.859 1.106 1.275-.609.822-.623 1.237.147.843.13 1.259-.529.813-.549 1.228-.094.83-.118 1.245.406.861.379 1.276.369.866.339 1.281-1.224.743-1.258 1.158-.659.775-.7 1.19.282.857.242 1.271.544.891.5 1.3-.364.8-.411 1.211-.074.829-.124 1.242-.649.754-.7 1.167-.248.8-.3 1.212.482.906.421 1.318-.627.743-.691 1.154.21.872.143 1.283-.59.74-.661 1.15.667.959.593 1.369-.836.689-.913 1.1.424.927.343 1.335-.8.684-.884 1.092-.068.83-.156 1.237.258.905.167 1.311.846 1.049.751 1.454-1.279.555-1.377.959.009.858-.092 1.262-.763.662-.867 1.064-.126.823-.233 1.225.69 1.049.579 1.45-.269.792-.383 1.192-.466.734-.583 1.133-1.086.542-1.206.941.65 1.068.526 1.465-.658.665-.785 1.061.032.885-.1 1.28-.92.567-1.054.962.182.939.045 1.332-.365.752-.5 1.143.177.95.034 1.341-.678.636-.825 1.025.46 1.068.31 1.456-1.273.4-1.426.784.689 1.174.533 1.559-1.57.256-1.729.64.4 1.068.238 1.451-.3.779-.463 1.161-.12.858-.289 1.238-.552.667-.724 1.045-1.134.392-1.31.77.948 1.362.769 1.738-.315.779-.5 1.153-.367.753-.551 1.127-1.355.255-1.542.626.587 1.235.4 1.6-.229.826-.423 1.194-1.381.212-1.578.579-.1.891-.3 1.256-.832.489-1.035.853.823 1.42.617 1.782-1.522.089-1.73.45.608 1.321.4 1.68-.437.716-.651 1.073-.6.619-.814.973-1.214.231-1.434.584-.106.916-.329 1.268-1.336.129-1.562.478 1.009 1.651.78 2-.86.434-1.091.78-1.245.162-1.48.505-.623.575-.86.917-.273.818-.513 1.158-.583.6-.826.938-.1.954-.341 1.29-.934.342-1.182.676-.041 1-.292 1.336.08 1.109-.174 1.439-.986.291-1.243.619-.908.341-1.167.666.131 1.17-.131 1.494-1.26.044-1.524.366-.2.913-.463 1.233-1.062.187-1.331.5-.311.822-.583 1.136-.058 1.05-.333 1.362-.3.845-.58 1.156-.572.608-.852.916-.14 1.006-.422 1.312-1.568-.319-1.853-.015.082 1.222-.205 1.523-1.25-.047-1.539.252.436 1.591.144 1.887-1.287-.1-1.581.195-.214.969-.51 1.26-.8.376-1.1.666-.268.927-.569 1.214-.526.664-.829.948-1.457-.344-1.763-.062-.324.877-.632 1.156-.248.972-.558 1.249-.9.241-1.214.515-.673.5-.988.767-.157 1.1-.474 1.37-1.129-.045-1.449.222-.165 1.109-.487 1.373-1.39-.387-1.714-.126-.427.795-.753 1.053-.061 1.272-.389 1.528-.625.563-.955.817-1.024.038-1.356.289-.433.817-.767 1.065-1.029.01-1.366.256-.5.726-.841.969-.868.219-1.208.459-.95.091-1.292.328-.121 1.295-.465 1.53-1.538-.8-1.884-.563.152 1.733-.2 1.961-1.062-.1-1.412.125-1.125-.222-1.476 0-.08 1.432-.433 1.652-.905.12-1.26.337-.547.705-.9.919-1.27-.511-1.628-.3-.482.815-.842 1.023-.4.969-.765 1.175-1.236-.5-1.6-.3-.376 1.033-.742 1.233-.788.29-1.154.486-.826.214-1.194.408-.791.275-1.161.465-.535.778-.907.966-.477.91-.851 1.094-1.212-.584-1.586-.4-.827.189-1.2.368-.059 1.836-.437 2.011-1.334-.908-1.713-.736-.545.814-.925.982-.916-.018-1.3.148-.517.906-.9 1.068-1.015-.269-1.4-.109-.6.723-.988.879-1.109-.54-1.5-.387-.239 1.674-.627 1.824-1.26-.971-1.65-.824-.591.789-.981.932-.7.5-1.1.641-1.1-.633-1.5-.5-.233 1.878-.627 2.012-.753.392-1.148.522-1.237-1.1-1.633-.977-.468 1.278-.865 1.4-.691.6-1.09.724-1.038-.556-1.437-.439-.894-.1-1.294.017-.593.97-.994 1.08-.954-.328-1.356-.22-1.033-.674-1.436-.57-.749.4-1.153.5-.53 1.325-.935 1.422-1.114-1.1-1.519-1.01-.514 1.482-.92 1.573-.895-.187-1.3-.1-.987-.664-1.394-.579-.7.726-1.106.807-.932-.46-1.341-.383-.692.811-1.1.885-.842 0-1.253.071-.784.34-1.2.408-.755.556-1.166.62-.861-.123-1.273-.062-.874-.249-1.287-.191-.8.27-1.213.324-.829.059-1.243.11-.786.428-1.2.475-.739.933-1.153.977-.878-.347-1.292-.306-.943-1.156-1.358-1.119-.8.334-1.217.367-.78.7-1.2.734-.829.08-1.245.107-.871-.64-1.287-.617-.84-.221-1.256-.2-.771 1.394-1.187 1.41-.884-1.44-1.3-1.426-.824.045-1.241.055-.827-.029-1.243-.022-.824.239-1.241.242-.806 1.475-1.224 1.475z" fill="none" stroke="#006d88" stroke-miterlimit="10" stroke-width="2.99" data-name="レイヤー 2"/></svg>