<svg xmlns="http://www.w3.org/2000/svg" width="325.958" height="4.011" viewBox="0 0 325.958 4.011"><path d="M.416 1.994c.473 0 .473-.6.947-.6s.473.693.947.693.473-.176.947-.176.473.385.946.385.474-.6.947-.6.473.761.946.761.474.081.947.081.473-.091.946-.091.473-.285.946-.285.473.023.946.023.473.345.946.345.473-.974.946-.974.473.727.946.727.473-.1.946-.1.473.2.946.2.472-.6.945-.6.473.668.946.668.472-.009.945-.009.473-.453.946-.453.472.239.945.239.473.36.945.36.473-.757.945-.757.473-.2.946-.2.472.514.945.514.472-.038.945-.038.472.094.945.094.473-.5.945-.5.473.922.945.922.473-.349.945-.349.473-.647.945-.647.473.1.945.1.473-.123.945-.123.473.455.945.455.473.542.945.542.473-.062.945-.062.473-.052.945-.052.473-1.061.946-1.061.472.349.945.349.472.069.945.069.472-.434.945-.434.473.584.945.584.473-.57.946-.57.472 1.191.945 1.191.473-.6.945-.6.473.011.946.011.473-.616.945-.616.473 1.01.946 1.01.473-.449.946-.449.473-.245.945-.245.473-.334.946-.334.473-.006.946-.006.473-.022.946-.022.473.1.946.1.474.511.947.511.473.054.946.054.473-.078.947-.078.473.473.946.473.474-.358.947-.358.474.23.947.23.474-.4.947-.4.474-.452.947-.452.474.478.948.478.474-.049.947-.049.474-.157.948-.157.474.721.948.721.474.172.948.172.474-.383.948-.383.474-.779.949-.779.474 1.017.948 1.017.474-.125.948-.125.474-.019.948-.019.474-.224.948-.224h.947c.474 0 .474.356.948.356s.473-.835.947-.835.474.177.947.177.474.235.947.235.474-.65.947-.65.474.526.947.526.473.437.947.437.473-.5.946-.5.474.615.947.615.473-1.037.947-1.037.473.847.946.847.473-.477.946-.477.474.342.947.342.473.494.946.494.473-.188.946-.188.473-.954.946-.954.473 1.168.946 1.168.473-.175.947-.175.473-.785.946-.785.473-.167.946-.167h.946c.473 0 .473.583.946.583s.473-.075.946-.075.473-.119.946-.119.473-.151.946-.151.473.389.947.389.473-.051.946-.051.473-.033.946-.033.473-.283.946-.283.474.707.947.707.473-.052.946-.052.474-1.017.947-1.017.473 1 .946 1 .474.061.947.061.474.04.947.04.474-.966.947-.966.474.051.947.051.474.662.947.662.474.368.948.368.474-.337.947-.337.474.267.948.267.474.009.948.009.474-.205.948-.205.474-.445.948-.445.474.164.949.164.474.146.948.146h.949c.474 0 .474-.608.948-.608s.475.025.949.025.474.909.948.909.474-1.124.948-1.124.474.821.948.821.474-.779.948-.779.473.738.947.738.474.138.948.138.473-.916.947-.916.474.659.947.659.474.039.948.039.473-.515.947-.515.473.7.947.7.473-.246.947-.246.473-.593.947-.593.473.3.947.3.473.031.946.031.474.362.947.362.474-.572.947-.572.474-.2.947-.2.473.705.947.705.473-.048.947-.048.473-.414.947-.414.473-.23.947-.23.473.182.947.182.473.759.947.759.474-.951.947-.951.474 1.088.947 1.088.474-.017.948-.017.474-.384.947-.384.474-.5.948-.5.474-.2.948-.2.474.18.948.18.474.181.948.181.474-.236.949-.236.47 1.1.941 1.1.471-.912.942-.912.471.267.942.267.47.62.941.62.471.011.942.011.471-.358.942-.358.471-.7.942-.7.471.416.942.416.472-.1.943-.1.471.488.942.488.472-.615.943-.615.471-.1.943-.1.471.57.943.57.471-.708.943-.708.472.878.943.878.472-.516.944-.516.472-.211.944-.211.472.608.944.608.472-.376.945-.376.472-.46.944-.46.473 1.176.946 1.176.472-.154.945-.154.473-.157.946-.157.473-.033.946-.033.473-.606.947-.606.473.759.947.759.473-.846.947-.846.474.5.948.5.474-.633.948-.633.474.244.949.244.474-.084.949-.084.475.639.95.639.475.106.949.106.475-.819.95-.819.474.865.948.865.475-.707.949-.707.474-.113.948-.113.474.427.948.427.474-.232.947-.232.474-.365.947-.365.474.171.947.171.474.656.947.656.473.12.946.12.473-.331.946-.331h.946c.473 0 .473-.418.946-.418s.473.581.946.581h.945c.473 0 .473-.17.946-.17s.472-.537.945-.537.472.459.945.459.473.318.945.318.473.134.946.134.472.213.945.213.472-.017.945-.017.473-1 .945-1 .473.605.946.605.473-.606.945-.606.473.042.946.042.473.073.946.073.473.943.946.943.473-.121.946-.121.473-.377.947-.377.473.141.947.141.473.04.947.04.474-.7.947-.7.474.861.948.861.474-.11.948-.11.475-.382.949-.382.475.478.949.478.475-.9.95-.9.475-.132.95-.132.476.095.951.095.476.1.951.1.475.381.95.381.475.26.95.26.474-.064.949-.064.475-.023.949-.023.474-.383.949-.383.474-.368.948-.368.474.572.948.572.474-.541.948-.541.474.754.948.754.474-.718.947-.718.474.805.948.805.474-.9.947-.9.474.557.948.557.474.368.947.368.474-.283.948-.283.474.065.948.065.474.459.947.459.474-.814.949-.814.474-.21.948-.21.474.844.949.844.474-.794.949-.794.474.243.949.243.475.655.95.655.475-.892.951-.892.475.908.951.908.476-.8.951-.8.476-.128.951-.128.476.292.951.292.475.312.95.312.475-.447.95-.447.475.275.95.275.474.482.949.482.474-.6.949-.6.474.779.949.779.474-.039.949-.039.474-.283.949-.283.474.25.949.25.474-.232.949-.232.475-.427.949-.427.475.341.95.341.475-.377.951-.377.475.454.95.454.476-.939.952-.939.476.981.952.981.475-.848.951-.848.476.626.951.626.476.344.951.344.475-.691.95-.691.476.7.951.7.475-1.021.95-1.021.475 1.088.949 1.088.476-.141.951-.141.475-.618.95-.618.475.479.95.479.476-.087.951-.087.476-.261.952-.261.476-.122.952-.122.476.683.952.683.476-.473.951-.473.476.531.952.531.475-.538.95-.538.476-.109.951-.109.475-.471.951-.471.473 1.016.946 1.016.473-.171.946-.171.473-.8.946-.8.473.453.946.453.474-.5.947-.5.473.352.947.352.474.679.948.679.474-.894.948-.894.475.719.95.719.476-.41.951-.41.477.222.953.222.477-.612.953-.612.476.106.952.106.475.672.951.672.475-.892.95-.892.475.409.949.409.475.328.95.328.475-.747.95-.747.475.755.95.755.476.423.952.423.476-.991.953-.991.477.381.955.381.476.546.953.546.476-.81.952-.81.476-.118.952-.118.475.054.951.054.477.148.953.148.477.876.954.876.477-.582.955-.582.477-.095.953-.095.477-.358.953-.358.477.089.954.089.477-.215.955-.215.477-.078.955-.078.477.145.954.145.477.006.954.006.478.2.955.2.476-.091.952-.091.476.191.951.191.476-.347.952-.347.479.666.957.666.477.1.955.1.477.331.954.331.479-.716.958-.716.478-.022.956-.022.479.429.957.429.477-.79.954-.79.479-.051.958-.051.48-.016.96-.016.481.65.963.65.481-.525.962-.525" fill="none" stroke="#006d88" stroke-miterlimit="10" stroke-width="2.725" data-name="レイヤー 2"/></svg>