<svg xmlns="http://www.w3.org/2000/svg" width="83.215" height="78.336" viewBox="0 0 83.215 78.336"><defs><style>.cls-1{fill:#006d88}</style></defs><g id="レイヤー_2" data-name="レイヤー 2"><g id="参照"><path class="cls-1" d="M50.432 33.9a2.447 2.447 0 01-2.443 2.444h-.155a27.942 27.942 0 01-2.4 2.123v1.279a29.063 29.063 0 003.63-3.215 21.6 21.6 0 006.251-13.669.506.506 0 00-1.011-.051 19.547 19.547 0 01-3.928 10.582 2.484 2.484 0 01.056.507zm-10.397 7.32c.252.145.514.291.733.4a2.406 2.406 0 01-.221-1.006v-.225a.545.545 0 00-.122-.1 23.462 23.462 0 01-3.081-2.179q-.2.491-.424.962a26.742 26.742 0 002.17 1.584c.5.325.808.5.845.519a.569.569 0 00.1.045zm9.752-14.612a2.483 2.483 0 01.729.729 24.011 24.011 0 001.961-3.462 14.668 14.668 0 001.413-4.761.506.506 0 00-1.01-.058 14.079 14.079 0 01-1.35 4.456 23 23 0 01-1.743 3.096zm-8.799-2.917a2.446 2.446 0 011.126-1.739v-3.625a17.788 17.788 0 003.568-10.186.506.506 0 10-1.011 0 17.515 17.515 0 01-2.557 8.459V3.5a.506.506 0 00-1.012 0v13.1a17.561 17.561 0 01-2.557-8.463.506.506 0 10-1.012 0 17.784 17.784 0 003.567 10.19v4.147a15.536 15.536 0 01-4.823-7.674 15.364 15.364 0 01-.589-4.54.505.505 0 10-1.008-.066 15.941 15.941 0 00.611 4.835 16.521 16.521 0 005.697 8.662zm-7.565 10.466a19.843 19.843 0 01-4.514-11.35.506.506 0 10-1.011.051 21.083 21.083 0 005.225 12.528 12.052 12.052 0 00.3-1.229z"/><path class="cls-1" d="M82.346 67.341a.506.506 0 00.592-.535 16.783 16.783 0 00-1.228-4.55.505.505 0 00.626-.65 20.567 20.567 0 00-2.123-4.145h.03a.505.505 0 00.537-.683 11.871 11.871 0 00-2.466-3.595l.076.009a.506.506 0 00.469-.8 17.237 17.237 0 00-4.1-4.144.506.506 0 00.282-.879 22.694 22.694 0 00-3.179-2.408.5.5 0 00.422-.783c-.08-.121-1.873-2.759-6.423-3.765a11.183 11.183 0 00-2.9-6.843 8.407 8.407 0 00-2.821-1.853c1.908-4.954.336-8.208.268-8.345a.506.506 0 00-.891-.028 22.639 22.639 0 00-.495-3.957.505.505 0 00-.9-.194 17.26 17.26 0 00-1.543-5.619.5.5 0 00-.459-.3h-.005a.505.505 0 00-.458.3l-.031.072a11.92 11.92 0 00-1.879-3.934.506.506 0 00-.86.125l-.012.027a20.584 20.584 0 00-2.529-3.911.505.505 0 00-.875.218 16.785 16.785 0 00-3.327-3.34.509.509 0 00-.76.246A10.567 10.567 0 0041.855.063a.053.053 0 01-.017-.008c-.01 0-.021-.007-.031-.012s-.036-.017-.054-.023l-.048-.01a.4.4 0 00-.048-.01.418.418 0 00-.05 0 .407.407 0 00-.1.01l-.047.01c-.018.006-.035.014-.052.021s-.022.007-.032.012a.065.065 0 01-.017.008 10.572 10.572 0 00-3.529 3.03.508.508 0 00-.76-.246 16.772 16.772 0 00-3.325 3.34.507.507 0 00-.877-.218 20.535 20.535 0 00-2.529 3.911l-.012-.027a.5.5 0 00-.859-.125 11.9 11.9 0 00-1.879 3.934l-.031-.072a.508.508 0 00-.459-.3.5.5 0 00-.464.3 17.253 17.253 0 00-1.542 5.612.505.505 0 00-.9.194 22.462 22.462 0 00-.5 3.957.509.509 0 00-.453-.252.5.5 0 00-.437.28c-.069.137-1.642 3.391.268 8.345a8.4 8.4 0 00-2.822 1.853 11.172 11.172 0 00-2.9 6.843c-4.55 1.006-6.343 3.644-6.422 3.765a.5.5 0 00.421.783 22.871 22.871 0 00-3.18 2.408.507.507 0 00.284.879 17.2 17.2 0 00-4.1 4.144.506.506 0 00.468.8l.076-.009a11.927 11.927 0 00-2.467 3.595.507.507 0 00.538.683h.03A20.517 20.517 0 00.88 61.606a.5.5 0 00.625.65 16.784 16.784 0 00-1.227 4.55.505.505 0 00.591.535 10.6 10.6 0 00-.857 4.572v.018a.223.223 0 000 .036.3.3 0 00.008.051c0 .017.009.032.014.048a.389.389 0 00.016.044.491.491 0 00.025.044.2.2 0 00.023.04.319.319 0 00.033.04.428.428 0 00.029.033.5.5 0 00.057.046l.018.015a10.608 10.608 0 004.4 1.553.5.5 0 00.169.78 16.688 16.688 0 004.553 1.21.507.507 0 00.25.869 20.532 20.532 0 004.651.233l-.006.027a.506.506 0 00.323.805 11.872 11.872 0 004.345-.339l-.046.061a.506.506 0 00.408.806.385.385 0 00.048 0 17.276 17.276 0 005.638-1.474.506.506 0 00.618.684 22.593 22.593 0 003.675-1.55.506.506 0 00.468.757c.155-.009 3.788-.276 7.135-4.455a9.106 9.106 0 004.744-2.013 9.094 9.094 0 004.744 2.018c3.346 4.179 6.979 4.446 7.134 4.455a.506.506 0 00.468-.757 22.609 22.609 0 003.676 1.55.507.507 0 00.541-.158.5.5 0 00.077-.526 17.269 17.269 0 005.638 1.474.37.37 0 00.048 0 .506.506 0 00.407-.806l-.045-.061a11.865 11.865 0 004.344.339.5.5 0 00.323-.81l-.018-.026a20.532 20.532 0 004.651-.233.507.507 0 00.25-.869 16.7 16.7 0 004.554-1.21.505.505 0 00.168-.78 10.6 10.6 0 004.4-1.553l.019-.015a.626.626 0 00.057-.045c.01-.012.018-.023.029-.034s.022-.025.033-.04a.381.381 0 00.023-.04c.008-.015.017-.029.024-.044a.389.389 0 00.016-.044.382.382 0 00.015-.048c0-.017.005-.034.008-.051s0-.024 0-.036v-.02a10.581 10.581 0 00-.846-4.571zm-58.959-42.5l.415.717a.507.507 0 00.942-.307 18.911 18.911 0 01.2-4.374l.2.324a.505.505 0 00.93-.326 13.74 13.74 0 011.025-5.794l.15.345a.506.506 0 00.961-.109 15.285 15.285 0 011.534-4.219l.09.216a.505.505 0 00.462.31.506.506 0 00.463-.3 23.967 23.967 0 012.158-3.791v.007a.506.506 0 00.917.209 21.73 21.73 0 013.068-3.5l.025.39a.506.506 0 00.955.2 10.125 10.125 0 013.714-3.758 10.208 10.208 0 013.714 3.758.505.505 0 00.954-.2l.026-.39a21.673 21.673 0 013.068 3.5.506.506 0 00.916-.209v-.012a24.109 24.109 0 012.159 3.791.506.506 0 00.463.3.5.5 0 00.462-.31l.091-.216A15.229 15.229 0 0155 15.313a.505.505 0 00.96.109l.151-.345a13.718 13.718 0 011.025 5.793.506.506 0 00.931.327l.2-.324a19.031 19.031 0 01.2 4.374.505.505 0 00.94.307l.419-.722a11.048 11.048 0 01-.651 6.575 8.909 8.909 0 00-2.282-.3 5.613 5.613 0 00-3.541 1.024 3.464 3.464 0 00-.694 3.693 2.811 2.811 0 002.6 2 3.669 3.669 0 003.308-1.524 5.769 5.769 0 012.927 3.5c.594 2.12-.514 4.831-1.081 6.014a6.823 6.823 0 00-4.163-1.713 4.616 4.616 0 00-1.62.293 3.159 3.159 0 00-2.206 3.1 3.787 3.787 0 00.087.738 27.9 27.9 0 00-2.67 1.088 4.513 4.513 0 00.258 1 27.188 27.188 0 012.746-1.12 2.9 2.9 0 001.539 1.5 3.4 3.4 0 001.1.186 3.74 3.74 0 001.794-.48 8.409 8.409 0 01.962 1.335c-1.082.284-3.894 1.219-5.294 1.731a2.587 2.587 0 01.37.869 2.55 2.55 0 01-.015 1.179l4.755 2.745a12.068 12.068 0 01-3.155 3.017 6.057 6.057 0 00-1.329-2.382c-.14-.637-.27-1.3-.385-2l-.129-.758c-.025.044-.049.09-.076.135a2.566 2.566 0 01-.792.791c.051.307.1.608.162.9a4.433 4.433 0 00-4.113.1 28.05 28.05 0 01-.38-2.208 10.4 10.4 0 01-1.151-1.23 28.5 28.5 0 00.647 4.125 3.432 3.432 0 00-.967 1.924c-.172 1.277.506 2.876 2.89 3.591.2.416.409.812.621 1.194a.373.373 0 010 .047c-.086.59-.781 1.169-2.01 1.674a5.431 5.431 0 01-2.069.438 5.152 5.152 0 01-3.8-1.844.53.53 0 00-.8 0 5.15 5.15 0 01-3.8 1.844 5.412 5.412 0 01-2.069-.438c-1.228-.5-1.924-1.084-2.01-1.674 0-.017 0-.034-.005-.051q.333-.6.618-1.188c2.389-.715 3.065-2.314 2.894-3.593a3.424 3.424 0 00-.966-1.924 28.7 28.7 0 00.661-4.3 10.213 10.213 0 01-1.15 1.277 26.683 26.683 0 01-.4 2.334 4.429 4.429 0 00-4.111-.1c.052-.276.1-.557.151-.841a2.578 2.578 0 01-.9-.856l-.049-.087a8.656 8.656 0 01-.057.831c-.11.652-.233 1.277-.366 1.88a6.072 6.072 0 00-1.33 2.385 12.11 12.11 0 01-3.157-3.017l4.651-2.685a2.545 2.545 0 01-.033-1.245 2.582 2.582 0 01.386-.892c-.873-.319-2.374-.843-2.374-.843a36.41 36.41 0 00-2.815-.865 8.346 8.346 0 01.962-1.335 3.734 3.734 0 001.795.48 3.4 3.4 0 001.1-.186 2.9 2.9 0 001.538-1.5 27.374 27.374 0 012.645 1.082 4.633 4.633 0 00.248-1.005 28.612 28.612 0 00-2.558-1.035 3.711 3.711 0 00.086-.738 3.159 3.159 0 00-2.206-3.1 4.612 4.612 0 00-1.62-.293 6.831 6.831 0 00-4.178 1.721c-.567-1.183-1.673-3.894-1.079-6.014a5.8 5.8 0 012.927-3.5 3.667 3.667 0 003.305 1.511 2.811 2.811 0 002.6-2 3.472 3.472 0 00-.694-3.693 5.615 5.615 0 00-3.542-1.026 8.911 8.911 0 00-2.283.3 11.1 11.1 0 01-.647-6.563zM58.7 52.661a5.807 5.807 0 01.442 2.733 5.691 5.691 0 01-.576 2l-5.2-3c1.459-.534 4.243-1.452 5.334-1.733zm-34.055 4.73a5.691 5.691 0 01-.576-2 5.8 5.8 0 01.443-2.733 35.828 35.828 0 013.453 1.08c.2.074.751.286 1.786.7zM30.7 75.519l.414-.718a.506.506 0 00-.737-.661 19.007 19.007 0 01-3.89 2.009l.179-.337a.506.506 0 00-.749-.642 13.6 13.6 0 01-5.529 2.01l.223-.3a.506.506 0 00-.574-.779 14.925 14.925 0 01-4.422.782l.143-.186a.5.5 0 00-.458-.808 24.121 24.121 0 01-4.361.025.5.5 0 00-.278-.9 21.7 21.7 0 01-4.556-.914l.325-.218a.506.506 0 00-.3-.926 10.184 10.184 0 01-5.116-1.336 10.177 10.177 0 011.4-5.095.506.506 0 00-.648-.727l-.352.172a21.607 21.607 0 011.5-4.405.506.506 0 00-.64-.69h-.006a23.887 23.887 0 012.2-3.763.507.507 0 00-.473-.8l-.232.03A15.176 15.176 0 016.648 52.9a.507.507 0 00-.387-.887l-.374.043a13.727 13.727 0 014.505-3.784.506.506 0 00-.182-.97l-.382-.014a19.021 19.021 0 013.686-2.363.506.506 0 00-.2-.968h-.829a10.626 10.626 0 014.825-2.488v.233a10.1 10.1 0 001.526 5.272 19.326 19.326 0 00-5.81 1.88.5.5 0 10.46.9 18.335 18.335 0 016.032-1.854c.143.168.29.332.446.488a10.863 10.863 0 00-.865 2.371 24.009 24.009 0 00-3.775.047 14.608 14.608 0 00-4.824 1.158.506.506 0 00.452.905 14.081 14.081 0 014.536-1.06 22.8 22.8 0 013.422-.045 10.731 10.731 0 00-.01 3.136c-8.032-.722-11.339 1.359-11.5 1.464a.505.505 0 00.279.928.5.5 0 00.273-.08 10.56 10.56 0 013.552-1.12 29.18 29.18 0 017.6-.152c.019.072.036.143.056.215a11.4 11.4 0 001.64 3.46l-.371.215a16.526 16.526 0 00-10.488-.656 16 16 0 00-4.495 1.889A.506.506 0 006 61.9a15.344 15.344 0 014.225-1.761 15.559 15.559 0 019.063.339L15.7 62.556a17.8 17.8 0 00-10.6 2 .506.506 0 10.506.877 17.579 17.579 0 018.607-2.017L2.861 69.97a.505.505 0 10.506.875L14.714 64.3a17.57 17.57 0 01-6.051 6.44.507.507 0 00.254.945.5.5 0 00.252-.068 17.806 17.806 0 007.037-8.184l3.594-2.074a15.556 15.556 0 01-4.239 8.018 15.323 15.323 0 01-3.637 2.779.506.506 0 00.225.959.486.486 0 00.221-.051 15.934 15.934 0 003.883-2.948 16.512 16.512 0 004.677-9.409l.475-.274A16.626 16.626 0 0024 62.988c-3.384 7.856-6.989 9.8-7.036 9.827a.506.506 0 00.231.957.5.5 0 00.226-.054c.177-.089 3.9-2.052 7.41-10.1a25.824 25.824 0 002.683 1.689 23.472 23.472 0 01-2.111 3.686 14.037 14.037 0 01-3.185 3.4.507.507 0 00.556.847 14.611 14.611 0 003.417-3.605 23.993 23.993 0 001.837-3.067 6.431 6.431 0 001.344 2.558 18.16 18.16 0 01-3.192 2.629.506.506 0 00.551.849 19.068 19.068 0 003.343-2.75 10.267 10.267 0 002.608 1.7 8.13 8.13 0 002.843.758 10.805 10.805 0 01-4.825 3.207zm16.41-4.246a8.026 8.026 0 01-5.061-2.01.531.531 0 00-.37-.15.465.465 0 00-.074 0 .529.529 0 00-.441.145 8.033 8.033 0 01-5.064 2.015 6.982 6.982 0 01-2.97-.683c-4.409-2.062-4.216-5.23-4.205-5.361a.528.528 0 00-.283-.517c-4.667-2.437-7.512-5.405-8.455-8.824a10.034 10.034 0 01.885-7.319.531.531 0 00-.094-.672 8.466 8.466 0 01-2.613-6.214A10.429 10.429 0 0121 34.332a7.549 7.549 0 015.32-2.168 4.6 4.6 0 012.846.765 2.463 2.463 0 01.391 2.534 1.778 1.778 0 01-1.624 1.294h-.109a2.49 2.49 0 01-2.454-1.325.529.529 0 00-.676-.31 6.839 6.839 0 00-3.989 4.4c-.9 3.21 1.39 7.254 1.487 7.426a.532.532 0 00.847.1 6.276 6.276 0 013.93-1.878 3.543 3.543 0 011.248.226 2.087 2.087 0 011.518 2.089 2.484 2.484 0 01-1.241 2.207 2.362 2.362 0 01-.762.128 2.722 2.722 0 01-1.542-.513.53.53 0 00-.7.023 8.135 8.135 0 00-2.477 6.152c.235 2.6 2.04 4.994 5.362 7.114a.53.53 0 00.81-.369c.021-.147.572-3.6 3.6-3.651h.058a2.859 2.859 0 012.932 2.249c.15 1.121-.707 2.047-2.29 2.48a.553.553 0 00-.192.1 2.73 2.73 0 00-1.024 2.263c.141.994 1.035 1.839 2.656 2.508a6.5 6.5 0 002.473.516 6.085 6.085 0 004.21-1.792 6.07 6.07 0 004.206 1.786 6.494 6.494 0 002.473-.516c1.621-.669 2.515-1.514 2.658-2.508A2.733 2.733 0 0049.92 63.4a.562.562 0 00-.192-.1c-1.584-.433-2.442-1.359-2.291-2.48a2.859 2.859 0 012.932-2.249h.06c3.027.049 3.579 3.5 3.6 3.649a.529.529 0 00.81.371c3.323-2.12 5.127-4.512 5.362-7.114a8.127 8.127 0 00-2.477-6.152.531.531 0 00-.693-.024 2.732 2.732 0 01-1.543.514 2.354 2.354 0 01-.763-.128 2.484 2.484 0 01-1.242-2.207A2.088 2.088 0 0155 45.4a3.545 3.545 0 011.247-.226 6.324 6.324 0 013.932 1.878.529.529 0 00.844-.1c.1-.172 2.388-4.216 1.489-7.426a6.837 6.837 0 00-3.99-4.4.535.535 0 00-.674.3 2.486 2.486 0 01-2.456 1.33h-.108a1.777 1.777 0 01-1.624-1.294 2.459 2.459 0 01.39-2.534 4.6 4.6 0 012.847-.765 7.548 7.548 0 015.319 2.168 10.438 10.438 0 012.629 7.351 8.458 8.458 0 01-2.611 6.218.53.53 0 00-.093.67 10.052 10.052 0 01.884 7.321c-.942 3.419-3.788 6.387-8.455 8.824a.529.529 0 00-.283.517c0 .033.242 3.282-4.2 5.361a6.986 6.986 0 01-2.975.68zm35.09.347a10.18 10.18 0 01-5.111 1.337.514.514 0 00-.5.347.507.507 0 00.2.579l.325.218a21.837 21.837 0 01-4.564.908.5.5 0 00-.276.9h.005a24.359 24.359 0 01-4.362-.025.5.5 0 00-.458.808l.143.186a15 15 0 01-4.422-.782.507.507 0 00-.574.779l.223.3A13.738 13.738 0 0157.3 75.17a.506.506 0 00-.749.642l.18.337a19.007 19.007 0 01-3.89-2.009.506.506 0 00-.736.661l.415.723a10.706 10.706 0 01-4.828-3.216 8.113 8.113 0 002.844-.758 10.293 10.293 0 002.61-1.7 19.2 19.2 0 003.337 2.75.506.506 0 10.549-.849 18.226 18.226 0 01-3.191-2.629 6.405 6.405 0 001.344-2.558 23.872 23.872 0 001.838 3.067 14.589 14.589 0 003.417 3.605.5.5 0 00.276.081.506.506 0 00.284-.926 13.982 13.982 0 01-3.185-3.4 23.477 23.477 0 01-2.11-3.686 25.824 25.824 0 002.683-1.689c3.51 8.047 7.231 10.01 7.408 10.1a.506.506 0 00.456-.9c-.04-.019-3.634-1.916-7.035-9.826a16.642 16.642 0 002.6-2.555l.474.274a16.518 16.518 0 004.677 9.409 15.982 15.982 0 003.882 2.948.494.494 0 00.223.051.505.505 0 00.223-.959 16.064 16.064 0 01-7.874-10.8l3.593 2.074a17.788 17.788 0 007.037 8.184.506.506 0 00.505-.877A17.579 17.579 0 0168.5 64.3l11.347 6.55a.505.505 0 10.506-.875l-11.345-6.557a17.567 17.567 0 018.607 2.017.506.506 0 00.506-.877 17.816 17.816 0 00-10.6-2l-3.592-2.074a15.556 15.556 0 019.062-.339 15.357 15.357 0 014.22 1.755.507.507 0 00.7-.138.5.5 0 00-.138-.7 16 16 0 00-4.494-1.889 16.526 16.526 0 00-10.488.656l-.371-.215a11.442 11.442 0 001.632-3.465l.055-.216c7.849-.753 11.1 1.239 11.153 1.273a.506.506 0 00.552-.848c-.16-.105-3.466-2.186-11.5-1.464a10.713 10.713 0 000-3.133 23.043 23.043 0 013.422.047 14.028 14.028 0 014.534 1.06.506.506 0 00.454-.905 14.618 14.618 0 00-4.829-1.156 23.783 23.783 0 00-3.776-.047 10.873 10.873 0 00-.864-2.371c.156-.156.3-.32.445-.488a18.328 18.328 0 016.035 1.854.505.505 0 10.461-.9 19.275 19.275 0 00-5.811-1.88 10.091 10.091 0 001.525-5.272v-.233a10.632 10.632 0 014.825 2.488h-.83a.506.506 0 00-.2.968 18.975 18.975 0 013.687 2.363l-.382.014a.506.506 0 00-.184.97 9.49 9.49 0 011.662 1.029 16.2 16.2 0 012.844 2.755l-.375-.043a.506.506 0 00-.384.887 15.24 15.24 0 012.887 3.438l-.233-.03a.506.506 0 00-.471.8 23.91 23.91 0 012.2 3.763h-.005a.507.507 0 00-.64.69 21.513 21.513 0 011.5 4.405l-.352-.172a.5.5 0 00-.649.725 10.186 10.186 0 011.392 5.1z"/><path class="cls-1" d="M45.853 26.216h.353c5.6-7.371 5.435-11.775 5.423-11.977a.506.506 0 00-1.01.054 10.563 10.563 0 01-.8 3.636 29.858 29.858 0 01-3.961 7.063zm-12.511 2.032a16.254 16.254 0 00-.6-2.34l-.011-.031a2.437 2.437 0 01-.137-.621 21.908 21.908 0 01-.905-1.744 14.069 14.069 0 01-1.349-4.456.506.506 0 00-1.01.058 14.606 14.606 0 001.413 4.761 24.836 24.836 0 002.599 4.373zm10.066-6.67a2.442 2.442 0 01.887.168 16.708 16.708 0 003.63-6.721 16.017 16.017 0 00.611-4.835.506.506 0 10-1.009.066 15.3 15.3 0 01-.589 4.54 15.665 15.665 0 01-3.9 6.813 2.355 2.355 0 01.37-.031zm-8.386 1.01a2.39 2.39 0 01.8.139c-3.31-5.29-3.228-8.378-3.227-8.434a.505.505 0 00-1.009-.054c-.009.167-.127 3.2 2.983 8.391a2.528 2.528 0 01.453-.042z"/><path class="cls-1" d="M47.989 32.125H37.864a20.985 20.985 0 00-.023-1.693h10.623a1.771 1.771 0 100-3.541h-3.285v-2.87a1.771 1.771 0 00-3.542 0v2.87h-4.269a19 19 0 00-.69-2.483 1.771 1.771 0 00-3.314 1.248 18.746 18.746 0 01.965 5.883 12.051 12.051 0 01-2.525 7.778 1.771 1.771 0 102.745 2.238 14.483 14.483 0 002.861-5.892h3.811v4.952a1.77 1.77 0 003.54 0v-4.95h3.227a1.77 1.77 0 100-3.54zm-8.136 25.324V44.423a1.769 1.769 0 011.77-1.769 1.769 1.769 0 011.771 1.769v13.026a1.769 1.769 0 01-1.771 1.769 1.769 1.769 0 01-1.77-1.769zm-9.168-1.539a1.894 1.894 0 001.6.879 1.885 1.885 0 001.017-.3 9.569 9.569 0 003.6-3.942 9.184 9.184 0 00.877-3.972 9.707 9.707 0 00-.5-3.147 1.9 1.9 0 00-2.439-1.118 1.9 1.9 0 00-1.126 2.422 4.558 4.558 0 01.137.526 6.609 6.609 0 01.135 1.32 5.4 5.4 0 01-.506 2.338 5.764 5.764 0 01-2.212 2.375 1.9 1.9 0 00-.582 2.619zm19.107.582a1.89 1.89 0 001.016.3 1.893 1.893 0 001.6-.879 1.9 1.9 0 00-.583-2.619 5.771 5.771 0 01-2.212-2.375 5.4 5.4 0 01-.505-2.338 6.586 6.586 0 01.149-1.385c.036-.167.072-.3.095-.374l.025-.079v-.008a1.9 1.9 0 00-1.126-2.422 1.9 1.9 0 00-2.437 1.121 9.662 9.662 0 00-.5 3.147 9.184 9.184 0 00.877 3.972 9.563 9.563 0 003.6 3.942z"/></g></g></svg>