<svg height="27" viewBox="0 0 27 27" width="27" xmlns="http://www.w3.org/2000/svg"><g fill="#fff"><path d="M13.5 2.9c3.5 0 3.9 0 5.2.1.8 0 1.6.2 2.4.4.6.2 1.1.5 1.5 1 .4.4.8.9 1 1.5.3.7.4 1.5.4 2.4.1 1.4.1 1.8.1 5.2s0 3.9-.1 5.2c0 .8-.2 1.6-.4 2.4-.4 1.1-1.3 2-2.5 2.5-.8.3-1.6.4-2.4.4-1.4.1-1.8.1-5.2.1s-3.9 0-5.2-.1c-.8 0-1.6-.2-2.4-.4-.6-.2-1.1-.5-1.5-1-.4-.4-.8-.9-1-1.5-.3-.7-.4-1.6-.4-2.4-.1-1.4-.1-1.8-.1-5.2s0-3.9.1-5.2c0-.8.2-1.6.4-2.4.2-.6.5-1.1 1-1.5.4-.4.9-.8 1.5-1 .7-.3 1.5-.4 2.4-.4 1.3-.1 1.7-.1 5.2-.1m0-2.3c-3.5 0-4 0-5.3.1C7.1.7 6 .9 5 1.2c-.8.4-1.6.9-2.3 1.5-.6.7-1.1 1.5-1.5 2.3C.9 6 .7 7.1.6 8.2v5.3s0 4 .1 5.3c0 1.1.2 2.1.6 3.1.3.9.8 1.6 1.5 2.3.6.7 1.4 1.2 2.3 1.5 1 .4 2.1.6 3.1.6 1.4.1 1.8.1 5.3.1s4 0 5.3-.1c1.1 0 2.1-.2 3.1-.6 1.7-.7 3.1-2 3.8-3.8.4-1 .6-2.1.6-3.1.1-1.4.1-1.8.1-5.3s0-4-.1-5.3c0-1.1-.2-2.1-.6-3.1-.3-.9-.8-1.6-1.5-2.3-.6-.7-1.4-1.2-2.3-1.5-1-.4-2.1-.6-3.1-.6C17.5.6 17 .6 13.5.6z"/><path d="M13.5 6.9c-3.7 0-6.6 3-6.6 6.6s3 6.6 6.6 6.6 6.6-3 6.6-6.6c0-3.7-2.9-6.6-6.6-6.6zm0 10.9c-2.4 0-4.3-1.9-4.3-4.3s1.9-4.3 4.3-4.3 4.3 1.9 4.3 4.3-1.9 4.3-4.3 4.3z"/><circle cx="20.4" cy="6.6" r="1.6"/></g></svg>