<svg xmlns="http://www.w3.org/2000/svg" width="29.202" height="29.202" viewBox="0 0 29.202 29.202"><defs><style>.cls-1{fill:#006d88}</style></defs><g id="レイヤー_2" data-name="レイヤー 2"><g id="参照"><path class="cls-1" d="M14.6 2.631c3.9 0 4.36.015 5.9.085a8.07 8.07 0 012.711.5 4.521 4.521 0 011.679 1.092 4.521 4.521 0 011.093 1.682 8.07 8.07 0 01.5 2.711c.07 1.54.085 2 .085 5.9s-.015 4.36-.085 5.9a8.07 8.07 0 01-.5 2.711 4.832 4.832 0 01-2.771 2.771 8.07 8.07 0 01-2.711.5c-1.539.07-2 .085-5.9.085s-4.361-.015-5.9-.085a8.07 8.07 0 01-2.711-.5 4.521 4.521 0 01-1.679-1.092 4.521 4.521 0 01-1.092-1.679 8.07 8.07 0 01-.5-2.711c-.07-1.54-.085-2-.085-5.9s.015-4.36.085-5.9a8.07 8.07 0 01.5-2.711 4.521 4.521 0 011.092-1.679A4.521 4.521 0 015.99 3.219a8.07 8.07 0 012.711-.5c1.54-.07 2-.085 5.9-.085M14.6 0c-3.965 0-4.463.017-6.02.088a10.717 10.717 0 00-3.543.679 7.146 7.146 0 00-2.586 1.684A7.146 7.146 0 00.767 5.037a10.717 10.717 0 00-.679 3.544C.017 10.138 0 10.636 0 14.6s.017 4.463.088 6.02a10.717 10.717 0 00.679 3.544 7.146 7.146 0 001.684 2.586 7.146 7.146 0 002.586 1.684 10.717 10.717 0 003.544.679c1.557.071 2.055.088 6.02.088s4.463-.017 6.02-.088a10.717 10.717 0 003.544-.679 7.466 7.466 0 004.27-4.27 10.717 10.717 0 00.679-3.544c.071-1.557.088-2.055.088-6.02s-.017-4.463-.088-6.02a10.717 10.717 0 00-.679-3.544 7.146 7.146 0 00-1.684-2.586A7.146 7.146 0 0024.165.767a10.717 10.717 0 00-3.544-.679C19.064.017 18.566 0 14.6 0z"/><path class="cls-1" d="M14.6 7.1a7.5 7.5 0 107.5 7.5 7.5 7.5 0 00-7.5-7.5zm0 12.365a4.867 4.867 0 114.868-4.865 4.867 4.867 0 01-4.868 4.868z"/><circle class="cls-1" cx="22.395" cy="6.807" r="1.752"/></g></g></svg>