<svg height="14" viewBox="0 0 77 14" width="77" xmlns="http://www.w3.org/2000/svg"><path d="M.5 13.5V.5h5.6v1.9H3.3v3.3h2.4v2H3.3v5.8zm11.3.2c-.8 0-1.6-.1-2.3-.5-.6-.3-1-.9-1.2-1.5-.3-.8-.4-1.5-.4-2.3V4.6c0-.8.1-1.6.3-2.3.2-.6.7-1.1 1.2-1.5.7-.4 1.5-.5 2.3-.5s1.6.1 2.3.5c.6.3 1 .8 1.2 1.4.3.7.4 1.5.4 2.3v4.8c0 .8-.1 1.6-.4 2.3-.2.6-.7 1.1-1.2 1.5-.6.4-1.4.6-2.2.6zm0-2.1c.2 0 .5-.1.7-.2l.3-.6c0-.2.1-.5.1-.7V3.9c0-.2 0-.5-.1-.7 0-.2-.1-.4-.3-.6s-.4-.2-.7-.2c-.2 0-.5.1-.6.2l-.3.6c0 .2-.1.5-.1.7v6.2c0 .2 0 .5.1.7 0 .2.1.4.3.6.1.2.3.3.6.2zm6.3 1.9V.5H21v11h3v1.9h-5.9zm7.6 0V.5h2.9v11h3v1.9h-5.9zm11.2.2c-.8 0-1.6-.1-2.3-.5-.6-.3-1-.9-1.2-1.5-.3-.7-.4-1.5-.4-2.3V4.6c0-.8.1-1.6.4-2.3.2-.6.7-1.1 1.2-1.5.7-.4 1.5-.5 2.3-.5s1.6.1 2.3.5c.6.3 1 .8 1.2 1.4.3.7.4 1.5.4 2.3v4.8c0 .8-.1 1.6-.4 2.3-.2.6-.7 1.1-1.2 1.5-.7.4-1.5.6-2.3.6zm0-2.1c.2 0 .5-.1.7-.2l.3-.6c0-.2.1-.5.1-.7V3.9c0-.2 0-.5-.1-.7 0-.2-.1-.4-.3-.6s-.4-.2-.7-.2c-.2 0-.5.1-.6.2-.2.1-.3.3-.3.5s-.1.5-.1.7V10c0 .2 0 .5.1.7 0 .2.1.4.3.6.1.3.4.4.6.3zm7.3 1.9L42.6.5H45l.8 7.6 1-7.5h1.9l1 7.5.8-7.5H53l-1.6 13h-2.5l-1.1-7.8-1 7.8h-2.6zm19.2.2c-.8 0-1.6-.1-2.3-.5-.6-.3-1-.8-1.2-1.4-.2-.7-.4-1.5-.3-2.3v-9h2.8v9.4c0 .3 0 .5.1.8 0 .2.1.5.3.7.4.3 1 .3 1.3 0 .1-.2.2-.4.3-.7 0-.3.1-.5.1-.8V.5h2.8v8.9c0 .8-.1 1.6-.3 2.3-.2.6-.6 1.1-1.2 1.4-.8.4-1.6.6-2.4.6zm9.7 0c-.7 0-1.4-.1-2-.4-.5-.3-1-.8-1.2-1.3-.3-.7-.5-1.5-.5-2.3l2.4-.4c0 .5 0 .9.2 1.3.1.3.2.5.4.7.2.1.4.2.6.2s.5-.1.6-.3.1-.4.1-.6c0-.5-.1-1-.4-1.4s-.6-.8-1-1.1l-1.1-1c-.5-.4-.9-.9-1.2-1.4-.4-.6-.5-1.3-.5-2-.1-.9.3-1.9 1-2.5s1.7-.9 2.7-.9c.6 0 1.2.1 1.7.4.4.2.7.5 1 .9.2.4.4.8.4 1.2.1.4.1.8.1 1.2l-2.5.3c0-.4 0-.7-.1-1 0-.2-.1-.5-.2-.7s-.3-.2-.5-.2-.5.1-.6.3-.2.4-.2.7c0 .4.1.8.3 1.2.3.3.6.7.9 1l1.1.9c.6.5 1 1 1.4 1.6.4.7.6 1.5.6 2.3 0 .6-.1 1.2-.4 1.7s-.7.9-1.2 1.2c-.6.2-1.2.4-1.9.4z" fill="#fff"/></svg>